%TF.GenerationSoftware,KiCad,Pcbnew,10.0.4*%
%TF.CreationDate,2026-06-28T04:19:11+03:00*%
%TF.ProjectId,EMG_v4,454d475f-7634-42e6-9b69-6361645f7063,rev?*%
%TF.SameCoordinates,Original*%
%TF.FileFunction,Legend,Bot*%
%TF.FilePolarity,Positive*%
%FSLAX46Y46*%
G04 Gerber Fmt 4.6, Leading zero omitted, Abs format (unit mm)*
G04 Created by KiCad (PCBNEW 10.0.4) date 2026-06-28 04:19:11*
%MOMM*%
%LPD*%
G01*
G04 APERTURE LIST*
G04 Aperture macros list*
%AMRoundRect*
0 Rectangle with rounded corners*
0 $1 Rounding radius*
0 $2 $3 $4 $5 $6 $7 $8 $9 X,Y pos of 4 corners*
0 Add a 4 corners polygon primitive as box body*
4,1,4,$2,$3,$4,$5,$6,$7,$8,$9,$2,$3,0*
0 Add four circle primitives for the rounded corners*
1,1,$1+$1,$2,$3*
1,1,$1+$1,$4,$5*
1,1,$1+$1,$6,$7*
1,1,$1+$1,$8,$9*
0 Add four rect primitives between the rounded corners*
20,1,$1+$1,$2,$3,$4,$5,0*
20,1,$1+$1,$4,$5,$6,$7,0*
20,1,$1+$1,$6,$7,$8,$9,0*
20,1,$1+$1,$8,$9,$2,$3,0*%
G04 Aperture macros list end*
%ADD10C,1.600000*%
%ADD11RoundRect,0.250000X-0.550000X-0.550000X0.550000X-0.550000X0.550000X0.550000X-0.550000X0.550000X0*%
%ADD12R,1.700000X1.700000*%
%ADD13C,1.700000*%
%ADD14C,1.200000*%
%ADD15O,1.200000X2.200000*%
%ADD16O,2.200000X1.200000*%
G04 APERTURE END LIST*
%LPC*%
D10*
%TO.C,R3*%
X65880000Y-35500000D03*
X73500000Y-35500000D03*
%TD*%
%TO.C,R8*%
X65380000Y-19000000D03*
X73000000Y-19000000D03*
%TD*%
%TO.C,C5*%
X68500000Y-40000000D03*
X73500000Y-40000000D03*
%TD*%
%TO.C,Cf2*%
X82500000Y-19000000D03*
X77500000Y-19000000D03*
%TD*%
D11*
%TO.C,U2*%
X65880000Y-23460000D03*
D10*
X65880000Y-26000000D03*
X65880000Y-28540000D03*
X65880000Y-31080000D03*
X73500000Y-31080000D03*
X73500000Y-28540000D03*
X73500000Y-26000000D03*
X73500000Y-23460000D03*
%TD*%
%TO.C,R5*%
X29390000Y-28400000D03*
X37010000Y-28400000D03*
%TD*%
%TO.C,R4*%
X29380000Y-33000000D03*
X37000000Y-33000000D03*
%TD*%
%TO.C,Rf1*%
X63310000Y-22500000D03*
X55690000Y-22500000D03*
%TD*%
%TO.C,R6*%
X55380000Y-32000000D03*
X63000000Y-32000000D03*
%TD*%
%TO.C,R7*%
X29380000Y-37500000D03*
X37000000Y-37500000D03*
%TD*%
%TO.C,C4*%
X47500000Y-29000000D03*
X52500000Y-29000000D03*
%TD*%
D12*
%TO.C,J2*%
X80000000Y-22880000D03*
D13*
X80000000Y-25420000D03*
X80000000Y-27960000D03*
X80000000Y-30500000D03*
%TD*%
D10*
%TO.C,Rg1*%
X55380000Y-36500000D03*
X63000000Y-36500000D03*
%TD*%
%TO.C,C2*%
X76500000Y-40000000D03*
X81500000Y-40000000D03*
%TD*%
%TO.C,R2*%
X55000000Y-27500000D03*
X62620000Y-27500000D03*
%TD*%
D14*
%TO.C,J1*%
X20200000Y-28000000D03*
X17700000Y-28000000D03*
X25200000Y-33000000D03*
X20200000Y-38000000D03*
X17700000Y-38000000D03*
D15*
X25200000Y-28000000D03*
D16*
X20200000Y-33000000D03*
D15*
X25200000Y-38000000D03*
%TD*%
D10*
%TO.C,Rg_HPF1*%
X38690000Y-24500000D03*
X46310000Y-24500000D03*
%TD*%
D11*
%TO.C,C3*%
X76500000Y-35500000D03*
D10*
X79000000Y-35500000D03*
%TD*%
%TO.C,C6*%
X76500000Y-28500000D03*
X76500000Y-23500000D03*
%TD*%
%LPD*%
M02*
