%TF.GenerationSoftware,KiCad,Pcbnew,10.0.4*%
%TF.CreationDate,2026-06-28T04:19:11+03:00*%
%TF.ProjectId,EMG_v4,454d475f-7634-42e6-9b69-6361645f7063,rev?*%
%TF.SameCoordinates,Original*%
%TF.FileFunction,Drillmap*%
%TF.FilePolarity,Positive*%
%FSLAX45Y45*%
G04 Gerber Fmt 4.5, Leading zero omitted, Abs format (unit mm)*
G04 Created by KiCad (PCBNEW 10.0.4) date 2026-06-28 04:19:11*
%MOMM*%
%LPD*%
G01*
G04 APERTURE LIST*
%ADD10C,0.050000*%
%ADD11C,0.200000*%
%ADD12C,0.100000*%
%ADD13C,0.120000*%
G04 APERTURE END LIST*
D10*
X1279565Y-2840000D02*
G75*
G02*
X1760000Y-2380000I460435J0D01*
G01*
X1280000Y-4260000D02*
X1280000Y-2840000D01*
X1600000Y-4600624D02*
G75*
G02*
X1280000Y-4260000I0J320624D01*
G01*
X1760000Y-2380000D02*
X1799217Y-2380369D01*
X2251379Y-1928410D02*
G75*
G02*
X1799217Y-2380370I-451771J-189D01*
G01*
X2251379Y-1928410D02*
G75*
G02*
X2780000Y-1399789I528621J0D01*
G01*
X2780000Y-1399789D02*
X3380000Y-1400000D01*
X5000000Y-1400000D02*
X3380000Y-1400000D01*
X5000000Y-1400000D02*
X8560000Y-1400000D01*
X8560000Y-1400000D02*
G75*
G02*
X8800000Y-1640000I0J-240000D01*
G01*
X8640000Y-4600000D02*
X1600000Y-4600000D01*
X8800000Y-1640000D02*
X8800000Y-4440000D01*
X8800000Y-4440000D02*
G75*
G02*
X8640000Y-4600000I-160000J0D01*
G01*
D11*
D12*
X3865000Y-3073750D02*
X3895000Y-3103750D01*
X3895000Y-3073750D02*
X3865000Y-3103750D01*
X4609309Y-2851806D02*
X4639309Y-2881806D01*
X4639309Y-2851806D02*
X4609309Y-2881806D01*
X6585000Y-2185000D02*
X6615000Y-2215000D01*
X6615000Y-2185000D02*
X6585000Y-2215000D01*
X7785000Y-2235000D02*
X7815000Y-2265000D01*
X7815000Y-2235000D02*
X7785000Y-2265000D01*
X7785000Y-2435000D02*
X7815000Y-2465000D01*
X7815000Y-2435000D02*
X7785000Y-2465000D01*
X2040000Y-3300000D02*
G75*
G02*
X2000000Y-3300000I-20000J0D01*
G01*
X2000000Y-3300000D02*
G75*
G02*
X2040000Y-3300000I20000J0D01*
G01*
X2070000Y-3280000D02*
X1970000Y-3280000D01*
X1970000Y-3320000D02*
G75*
G02*
X1970000Y-3280000I0J20000D01*
G01*
X1970000Y-3320000D02*
X2070000Y-3320000D01*
X2070000Y-3320000D02*
G75*
G03*
X2070000Y-3280000I0J20000D01*
G01*
X2540000Y-2800000D02*
G75*
G02*
X2500000Y-2800000I-20000J0D01*
G01*
X2500000Y-2800000D02*
G75*
G02*
X2540000Y-2800000I20000J0D01*
G01*
X2540000Y-2850000D02*
X2540000Y-2750000D01*
X2500000Y-2750000D02*
G75*
G02*
X2540000Y-2750000I20000J0D01*
G01*
X2500000Y-2750000D02*
X2500000Y-2850000D01*
X2500000Y-2850000D02*
G75*
G03*
X2540000Y-2850000I20000J0D01*
G01*
X2540000Y-3800000D02*
G75*
G02*
X2500000Y-3800000I-20000J0D01*
G01*
X2500000Y-3800000D02*
G75*
G02*
X2540000Y-3800000I20000J0D01*
G01*
X2500000Y-3750000D02*
X2500000Y-3850000D01*
X2540000Y-3850000D02*
G75*
G02*
X2500000Y-3850000I-20000J0D01*
G01*
X2540000Y-3850000D02*
X2540000Y-3750000D01*
X2540000Y-3750000D02*
G75*
G03*
X2500000Y-3750000I-20000J0D01*
G01*
X2938000Y-3260000D02*
X2938000Y-3340000D01*
X2898000Y-3300000D02*
X2978000Y-3300000D01*
X2938000Y-3710000D02*
X2938000Y-3790000D01*
X2898000Y-3750000D02*
X2978000Y-3750000D01*
X2939000Y-2800000D02*
X2939000Y-2880000D01*
X2899000Y-2840000D02*
X2979000Y-2840000D01*
X3700000Y-3260000D02*
X3700000Y-3340000D01*
X3660000Y-3300000D02*
X3740000Y-3300000D01*
X3700000Y-3710000D02*
X3700000Y-3790000D01*
X3660000Y-3750000D02*
X3740000Y-3750000D01*
X3701000Y-2800000D02*
X3701000Y-2880000D01*
X3661000Y-2840000D02*
X3741000Y-2840000D01*
X3869000Y-2410000D02*
X3869000Y-2490000D01*
X3829000Y-2450000D02*
X3909000Y-2450000D01*
X4631000Y-2410000D02*
X4631000Y-2490000D01*
X4591000Y-2450000D02*
X4671000Y-2450000D01*
X4750000Y-2860000D02*
X4750000Y-2940000D01*
X4710000Y-2900000D02*
X4790000Y-2900000D01*
X5250000Y-2860000D02*
X5250000Y-2940000D01*
X5210000Y-2900000D02*
X5290000Y-2900000D01*
X5500000Y-2710000D02*
X5500000Y-2790000D01*
X5460000Y-2750000D02*
X5540000Y-2750000D01*
X5538000Y-3160000D02*
X5538000Y-3240000D01*
X5498000Y-3200000D02*
X5578000Y-3200000D01*
X5538000Y-3610000D02*
X5538000Y-3690000D01*
X5498000Y-3650000D02*
X5578000Y-3650000D01*
X5569000Y-2210000D02*
X5569000Y-2290000D01*
X5529000Y-2250000D02*
X5609000Y-2250000D01*
X6262000Y-2710000D02*
X6262000Y-2790000D01*
X6222000Y-2750000D02*
X6302000Y-2750000D01*
X6300000Y-3160000D02*
X6300000Y-3240000D01*
X6260000Y-3200000D02*
X6340000Y-3200000D01*
X6300000Y-3610000D02*
X6300000Y-3690000D01*
X6260000Y-3650000D02*
X6340000Y-3650000D01*
X6331000Y-2210000D02*
X6331000Y-2290000D01*
X6291000Y-2250000D02*
X6371000Y-2250000D01*
X6538000Y-1860000D02*
X6538000Y-1940000D01*
X6498000Y-1900000D02*
X6578000Y-1900000D01*
X6588000Y-2306000D02*
X6588000Y-2386000D01*
X6548000Y-2346000D02*
X6628000Y-2346000D01*
X6588000Y-2560000D02*
X6588000Y-2640000D01*
X6548000Y-2600000D02*
X6628000Y-2600000D01*
X6588000Y-2814000D02*
X6588000Y-2894000D01*
X6548000Y-2854000D02*
X6628000Y-2854000D01*
X6588000Y-3068000D02*
X6588000Y-3148000D01*
X6548000Y-3108000D02*
X6628000Y-3108000D01*
X6588000Y-3510000D02*
X6588000Y-3590000D01*
X6548000Y-3550000D02*
X6628000Y-3550000D01*
X6850000Y-3960000D02*
X6850000Y-4040000D01*
X6810000Y-4000000D02*
X6890000Y-4000000D01*
X7300000Y-1860000D02*
X7300000Y-1940000D01*
X7260000Y-1900000D02*
X7340000Y-1900000D01*
X7350000Y-2306000D02*
X7350000Y-2386000D01*
X7310000Y-2346000D02*
X7390000Y-2346000D01*
X7350000Y-2560000D02*
X7350000Y-2640000D01*
X7310000Y-2600000D02*
X7390000Y-2600000D01*
X7350000Y-2814000D02*
X7350000Y-2894000D01*
X7310000Y-2854000D02*
X7390000Y-2854000D01*
X7350000Y-3068000D02*
X7350000Y-3148000D01*
X7310000Y-3108000D02*
X7390000Y-3108000D01*
X7350000Y-3510000D02*
X7350000Y-3590000D01*
X7310000Y-3550000D02*
X7390000Y-3550000D01*
X7350000Y-3960000D02*
X7350000Y-4040000D01*
X7310000Y-4000000D02*
X7390000Y-4000000D01*
X7650000Y-2310000D02*
X7650000Y-2390000D01*
X7610000Y-2350000D02*
X7690000Y-2350000D01*
X7650000Y-2810000D02*
X7650000Y-2890000D01*
X7610000Y-2850000D02*
X7690000Y-2850000D01*
X7650000Y-3510000D02*
X7650000Y-3590000D01*
X7610000Y-3550000D02*
X7690000Y-3550000D01*
X7650000Y-3960000D02*
X7650000Y-4040000D01*
X7610000Y-4000000D02*
X7690000Y-4000000D01*
X7750000Y-1860000D02*
X7750000Y-1940000D01*
X7710000Y-1900000D02*
X7790000Y-1900000D01*
X7900000Y-3510000D02*
X7900000Y-3590000D01*
X7860000Y-3550000D02*
X7940000Y-3550000D01*
X8150000Y-3960000D02*
X8150000Y-4040000D01*
X8110000Y-4000000D02*
X8190000Y-4000000D01*
X8250000Y-1860000D02*
X8250000Y-1940000D01*
X8210000Y-1900000D02*
X8290000Y-1900000D01*
X8035356Y-2323356D02*
X8035356Y-2252644D01*
X7964644Y-2252644D01*
X7964644Y-2323356D01*
X8035356Y-2323356D01*
X8035356Y-2577356D02*
X8035356Y-2506644D01*
X7964644Y-2506644D01*
X7964644Y-2577356D01*
X8035356Y-2577356D01*
X8035356Y-2831356D02*
X8035356Y-2760644D01*
X7964644Y-2760644D01*
X7964644Y-2831356D01*
X8035356Y-2831356D01*
X8035356Y-3085356D02*
X8035356Y-3014644D01*
X7964644Y-3014644D01*
X7964644Y-3085356D01*
X8035356Y-3085356D01*
D13*
X1770000Y-2860000D02*
X1830000Y-2800000D01*
X1770000Y-2740000D01*
X1710000Y-2800000D01*
X1770000Y-2860000D01*
X1770000Y-3860000D02*
X1830000Y-3800000D01*
X1770000Y-3740000D01*
X1710000Y-3800000D01*
X1770000Y-3860000D01*
X2020000Y-2860000D02*
X2080000Y-2800000D01*
X2020000Y-2740000D01*
X1960000Y-2800000D01*
X2020000Y-2860000D01*
X2020000Y-3860000D02*
X2080000Y-3800000D01*
X2020000Y-3740000D01*
X1960000Y-3800000D01*
X2020000Y-3860000D01*
X2520000Y-3360000D02*
X2580000Y-3300000D01*
X2520000Y-3240000D01*
X2460000Y-3300000D01*
X2520000Y-3360000D01*
D11*
X1537652Y-4914608D02*
X1537652Y-4714608D01*
X1537652Y-4714608D02*
X1585271Y-4714608D01*
X1585271Y-4714608D02*
X1613843Y-4724132D01*
X1613843Y-4724132D02*
X1632890Y-4743180D01*
X1632890Y-4743180D02*
X1642414Y-4762227D01*
X1642414Y-4762227D02*
X1651938Y-4800322D01*
X1651938Y-4800322D02*
X1651938Y-4828894D01*
X1651938Y-4828894D02*
X1642414Y-4866989D01*
X1642414Y-4866989D02*
X1632890Y-4886037D01*
X1632890Y-4886037D02*
X1613843Y-4905084D01*
X1613843Y-4905084D02*
X1585271Y-4914608D01*
X1585271Y-4914608D02*
X1537652Y-4914608D01*
X1737652Y-4914608D02*
X1737652Y-4781275D01*
X1737652Y-4819370D02*
X1747176Y-4800322D01*
X1747176Y-4800322D02*
X1756700Y-4790799D01*
X1756700Y-4790799D02*
X1775748Y-4781275D01*
X1775748Y-4781275D02*
X1794795Y-4781275D01*
X1861462Y-4914608D02*
X1861462Y-4781275D01*
X1861462Y-4714608D02*
X1851938Y-4724132D01*
X1851938Y-4724132D02*
X1861462Y-4733656D01*
X1861462Y-4733656D02*
X1870986Y-4724132D01*
X1870986Y-4724132D02*
X1861462Y-4714608D01*
X1861462Y-4714608D02*
X1861462Y-4733656D01*
X1985271Y-4914608D02*
X1966224Y-4905084D01*
X1966224Y-4905084D02*
X1956700Y-4886037D01*
X1956700Y-4886037D02*
X1956700Y-4714608D01*
X2090033Y-4914608D02*
X2070986Y-4905084D01*
X2070986Y-4905084D02*
X2061462Y-4886037D01*
X2061462Y-4886037D02*
X2061462Y-4714608D01*
X2318605Y-4914608D02*
X2318605Y-4714608D01*
X2318605Y-4714608D02*
X2385272Y-4857465D01*
X2385272Y-4857465D02*
X2451938Y-4714608D01*
X2451938Y-4714608D02*
X2451938Y-4914608D01*
X2632891Y-4914608D02*
X2632891Y-4809846D01*
X2632891Y-4809846D02*
X2623367Y-4790799D01*
X2623367Y-4790799D02*
X2604319Y-4781275D01*
X2604319Y-4781275D02*
X2566224Y-4781275D01*
X2566224Y-4781275D02*
X2547176Y-4790799D01*
X2632891Y-4905084D02*
X2613843Y-4914608D01*
X2613843Y-4914608D02*
X2566224Y-4914608D01*
X2566224Y-4914608D02*
X2547176Y-4905084D01*
X2547176Y-4905084D02*
X2537652Y-4886037D01*
X2537652Y-4886037D02*
X2537652Y-4866989D01*
X2537652Y-4866989D02*
X2547176Y-4847942D01*
X2547176Y-4847942D02*
X2566224Y-4838418D01*
X2566224Y-4838418D02*
X2613843Y-4838418D01*
X2613843Y-4838418D02*
X2632891Y-4828894D01*
X2728129Y-4781275D02*
X2728129Y-4981275D01*
X2728129Y-4790799D02*
X2747176Y-4781275D01*
X2747176Y-4781275D02*
X2785272Y-4781275D01*
X2785272Y-4781275D02*
X2804319Y-4790799D01*
X2804319Y-4790799D02*
X2813843Y-4800322D01*
X2813843Y-4800322D02*
X2823367Y-4819370D01*
X2823367Y-4819370D02*
X2823367Y-4876513D01*
X2823367Y-4876513D02*
X2813843Y-4895561D01*
X2813843Y-4895561D02*
X2804319Y-4905084D01*
X2804319Y-4905084D02*
X2785272Y-4914608D01*
X2785272Y-4914608D02*
X2747176Y-4914608D01*
X2747176Y-4914608D02*
X2728129Y-4905084D01*
X2909081Y-4895561D02*
X2918605Y-4905084D01*
X2918605Y-4905084D02*
X2909081Y-4914608D01*
X2909081Y-4914608D02*
X2899557Y-4905084D01*
X2899557Y-4905084D02*
X2909081Y-4895561D01*
X2909081Y-4895561D02*
X2909081Y-4914608D01*
X2909081Y-4790799D02*
X2918605Y-4800322D01*
X2918605Y-4800322D02*
X2909081Y-4809846D01*
X2909081Y-4809846D02*
X2899557Y-4800322D01*
X2899557Y-4800322D02*
X2909081Y-4790799D01*
X2909081Y-4790799D02*
X2909081Y-4809846D01*
D12*
X1246876Y-5228124D02*
X1276876Y-5258124D01*
X1276876Y-5228124D02*
X1246876Y-5258124D01*
D11*
X1575748Y-5134608D02*
X1594795Y-5134608D01*
X1594795Y-5134608D02*
X1613843Y-5144132D01*
X1613843Y-5144132D02*
X1623367Y-5153656D01*
X1623367Y-5153656D02*
X1632890Y-5172703D01*
X1632890Y-5172703D02*
X1642414Y-5210799D01*
X1642414Y-5210799D02*
X1642414Y-5258418D01*
X1642414Y-5258418D02*
X1632890Y-5296513D01*
X1632890Y-5296513D02*
X1623367Y-5315561D01*
X1623367Y-5315561D02*
X1613843Y-5325084D01*
X1613843Y-5325084D02*
X1594795Y-5334608D01*
X1594795Y-5334608D02*
X1575748Y-5334608D01*
X1575748Y-5334608D02*
X1556700Y-5325084D01*
X1556700Y-5325084D02*
X1547176Y-5315561D01*
X1547176Y-5315561D02*
X1537652Y-5296513D01*
X1537652Y-5296513D02*
X1528129Y-5258418D01*
X1528129Y-5258418D02*
X1528129Y-5210799D01*
X1528129Y-5210799D02*
X1537652Y-5172703D01*
X1537652Y-5172703D02*
X1547176Y-5153656D01*
X1547176Y-5153656D02*
X1556700Y-5144132D01*
X1556700Y-5144132D02*
X1575748Y-5134608D01*
X1728129Y-5315561D02*
X1737652Y-5325084D01*
X1737652Y-5325084D02*
X1728129Y-5334608D01*
X1728129Y-5334608D02*
X1718605Y-5325084D01*
X1718605Y-5325084D02*
X1728129Y-5315561D01*
X1728129Y-5315561D02*
X1728129Y-5334608D01*
X1804319Y-5134608D02*
X1928129Y-5134608D01*
X1928129Y-5134608D02*
X1861462Y-5210799D01*
X1861462Y-5210799D02*
X1890033Y-5210799D01*
X1890033Y-5210799D02*
X1909081Y-5220322D01*
X1909081Y-5220322D02*
X1918605Y-5229846D01*
X1918605Y-5229846D02*
X1928129Y-5248894D01*
X1928129Y-5248894D02*
X1928129Y-5296513D01*
X1928129Y-5296513D02*
X1918605Y-5315561D01*
X1918605Y-5315561D02*
X1909081Y-5325084D01*
X1909081Y-5325084D02*
X1890033Y-5334608D01*
X1890033Y-5334608D02*
X1832890Y-5334608D01*
X1832890Y-5334608D02*
X1813843Y-5325084D01*
X1813843Y-5325084D02*
X1804319Y-5315561D01*
X2051938Y-5134608D02*
X2070986Y-5134608D01*
X2070986Y-5134608D02*
X2090033Y-5144132D01*
X2090033Y-5144132D02*
X2099557Y-5153656D01*
X2099557Y-5153656D02*
X2109081Y-5172703D01*
X2109081Y-5172703D02*
X2118605Y-5210799D01*
X2118605Y-5210799D02*
X2118605Y-5258418D01*
X2118605Y-5258418D02*
X2109081Y-5296513D01*
X2109081Y-5296513D02*
X2099557Y-5315561D01*
X2099557Y-5315561D02*
X2090033Y-5325084D01*
X2090033Y-5325084D02*
X2070986Y-5334608D01*
X2070986Y-5334608D02*
X2051938Y-5334608D01*
X2051938Y-5334608D02*
X2032890Y-5325084D01*
X2032890Y-5325084D02*
X2023367Y-5315561D01*
X2023367Y-5315561D02*
X2013843Y-5296513D01*
X2013843Y-5296513D02*
X2004319Y-5258418D01*
X2004319Y-5258418D02*
X2004319Y-5210799D01*
X2004319Y-5210799D02*
X2013843Y-5172703D01*
X2013843Y-5172703D02*
X2023367Y-5153656D01*
X2023367Y-5153656D02*
X2032890Y-5144132D01*
X2032890Y-5144132D02*
X2051938Y-5134608D01*
X2242414Y-5134608D02*
X2261462Y-5134608D01*
X2261462Y-5134608D02*
X2280510Y-5144132D01*
X2280510Y-5144132D02*
X2290033Y-5153656D01*
X2290033Y-5153656D02*
X2299557Y-5172703D01*
X2299557Y-5172703D02*
X2309081Y-5210799D01*
X2309081Y-5210799D02*
X2309081Y-5258418D01*
X2309081Y-5258418D02*
X2299557Y-5296513D01*
X2299557Y-5296513D02*
X2290033Y-5315561D01*
X2290033Y-5315561D02*
X2280510Y-5325084D01*
X2280510Y-5325084D02*
X2261462Y-5334608D01*
X2261462Y-5334608D02*
X2242414Y-5334608D01*
X2242414Y-5334608D02*
X2223367Y-5325084D01*
X2223367Y-5325084D02*
X2213843Y-5315561D01*
X2213843Y-5315561D02*
X2204319Y-5296513D01*
X2204319Y-5296513D02*
X2194795Y-5258418D01*
X2194795Y-5258418D02*
X2194795Y-5210799D01*
X2194795Y-5210799D02*
X2204319Y-5172703D01*
X2204319Y-5172703D02*
X2213843Y-5153656D01*
X2213843Y-5153656D02*
X2223367Y-5144132D01*
X2223367Y-5144132D02*
X2242414Y-5134608D01*
X2394795Y-5334608D02*
X2394795Y-5201275D01*
X2394795Y-5220322D02*
X2404319Y-5210799D01*
X2404319Y-5210799D02*
X2423367Y-5201275D01*
X2423367Y-5201275D02*
X2451938Y-5201275D01*
X2451938Y-5201275D02*
X2470986Y-5210799D01*
X2470986Y-5210799D02*
X2480510Y-5229846D01*
X2480510Y-5229846D02*
X2480510Y-5334608D01*
X2480510Y-5229846D02*
X2490033Y-5210799D01*
X2490033Y-5210799D02*
X2509081Y-5201275D01*
X2509081Y-5201275D02*
X2537652Y-5201275D01*
X2537652Y-5201275D02*
X2556700Y-5210799D01*
X2556700Y-5210799D02*
X2566224Y-5229846D01*
X2566224Y-5229846D02*
X2566224Y-5334608D01*
X2661462Y-5334608D02*
X2661462Y-5201275D01*
X2661462Y-5220322D02*
X2670986Y-5210799D01*
X2670986Y-5210799D02*
X2690033Y-5201275D01*
X2690033Y-5201275D02*
X2718605Y-5201275D01*
X2718605Y-5201275D02*
X2737653Y-5210799D01*
X2737653Y-5210799D02*
X2747176Y-5229846D01*
X2747176Y-5229846D02*
X2747176Y-5334608D01*
X2747176Y-5229846D02*
X2756700Y-5210799D01*
X2756700Y-5210799D02*
X2775748Y-5201275D01*
X2775748Y-5201275D02*
X2804319Y-5201275D01*
X2804319Y-5201275D02*
X2823367Y-5210799D01*
X2823367Y-5210799D02*
X2832891Y-5229846D01*
X2832891Y-5229846D02*
X2832891Y-5334608D01*
X3223367Y-5125084D02*
X3051938Y-5382227D01*
X3480510Y-5134608D02*
X3499557Y-5134608D01*
X3499557Y-5134608D02*
X3518605Y-5144132D01*
X3518605Y-5144132D02*
X3528129Y-5153656D01*
X3528129Y-5153656D02*
X3537653Y-5172703D01*
X3537653Y-5172703D02*
X3547176Y-5210799D01*
X3547176Y-5210799D02*
X3547176Y-5258418D01*
X3547176Y-5258418D02*
X3537653Y-5296513D01*
X3537653Y-5296513D02*
X3528129Y-5315561D01*
X3528129Y-5315561D02*
X3518605Y-5325084D01*
X3518605Y-5325084D02*
X3499557Y-5334608D01*
X3499557Y-5334608D02*
X3480510Y-5334608D01*
X3480510Y-5334608D02*
X3461462Y-5325084D01*
X3461462Y-5325084D02*
X3451938Y-5315561D01*
X3451938Y-5315561D02*
X3442414Y-5296513D01*
X3442414Y-5296513D02*
X3432891Y-5258418D01*
X3432891Y-5258418D02*
X3432891Y-5210799D01*
X3432891Y-5210799D02*
X3442414Y-5172703D01*
X3442414Y-5172703D02*
X3451938Y-5153656D01*
X3451938Y-5153656D02*
X3461462Y-5144132D01*
X3461462Y-5144132D02*
X3480510Y-5134608D01*
X3632891Y-5315561D02*
X3642414Y-5325084D01*
X3642414Y-5325084D02*
X3632891Y-5334608D01*
X3632891Y-5334608D02*
X3623367Y-5325084D01*
X3623367Y-5325084D02*
X3632891Y-5315561D01*
X3632891Y-5315561D02*
X3632891Y-5334608D01*
X3766224Y-5134608D02*
X3785272Y-5134608D01*
X3785272Y-5134608D02*
X3804319Y-5144132D01*
X3804319Y-5144132D02*
X3813843Y-5153656D01*
X3813843Y-5153656D02*
X3823367Y-5172703D01*
X3823367Y-5172703D02*
X3832891Y-5210799D01*
X3832891Y-5210799D02*
X3832891Y-5258418D01*
X3832891Y-5258418D02*
X3823367Y-5296513D01*
X3823367Y-5296513D02*
X3813843Y-5315561D01*
X3813843Y-5315561D02*
X3804319Y-5325084D01*
X3804319Y-5325084D02*
X3785272Y-5334608D01*
X3785272Y-5334608D02*
X3766224Y-5334608D01*
X3766224Y-5334608D02*
X3747176Y-5325084D01*
X3747176Y-5325084D02*
X3737653Y-5315561D01*
X3737653Y-5315561D02*
X3728129Y-5296513D01*
X3728129Y-5296513D02*
X3718605Y-5258418D01*
X3718605Y-5258418D02*
X3718605Y-5210799D01*
X3718605Y-5210799D02*
X3728129Y-5172703D01*
X3728129Y-5172703D02*
X3737653Y-5153656D01*
X3737653Y-5153656D02*
X3747176Y-5144132D01*
X3747176Y-5144132D02*
X3766224Y-5134608D01*
X4023367Y-5334608D02*
X3909081Y-5334608D01*
X3966224Y-5334608D02*
X3966224Y-5134608D01*
X3966224Y-5134608D02*
X3947176Y-5163180D01*
X3947176Y-5163180D02*
X3928129Y-5182227D01*
X3928129Y-5182227D02*
X3909081Y-5191751D01*
X4213843Y-5334608D02*
X4099557Y-5334608D01*
X4156700Y-5334608D02*
X4156700Y-5134608D01*
X4156700Y-5134608D02*
X4137653Y-5163180D01*
X4137653Y-5163180D02*
X4118605Y-5182227D01*
X4118605Y-5182227D02*
X4099557Y-5191751D01*
X4328129Y-5220322D02*
X4309081Y-5210799D01*
X4309081Y-5210799D02*
X4299557Y-5201275D01*
X4299557Y-5201275D02*
X4290034Y-5182227D01*
X4290034Y-5182227D02*
X4290034Y-5172703D01*
X4290034Y-5172703D02*
X4299557Y-5153656D01*
X4299557Y-5153656D02*
X4309081Y-5144132D01*
X4309081Y-5144132D02*
X4328129Y-5134608D01*
X4328129Y-5134608D02*
X4366224Y-5134608D01*
X4366224Y-5134608D02*
X4385272Y-5144132D01*
X4385272Y-5144132D02*
X4394796Y-5153656D01*
X4394796Y-5153656D02*
X4404319Y-5172703D01*
X4404319Y-5172703D02*
X4404319Y-5182227D01*
X4404319Y-5182227D02*
X4394796Y-5201275D01*
X4394796Y-5201275D02*
X4385272Y-5210799D01*
X4385272Y-5210799D02*
X4366224Y-5220322D01*
X4366224Y-5220322D02*
X4328129Y-5220322D01*
X4328129Y-5220322D02*
X4309081Y-5229846D01*
X4309081Y-5229846D02*
X4299557Y-5239370D01*
X4299557Y-5239370D02*
X4290034Y-5258418D01*
X4290034Y-5258418D02*
X4290034Y-5296513D01*
X4290034Y-5296513D02*
X4299557Y-5315561D01*
X4299557Y-5315561D02*
X4309081Y-5325084D01*
X4309081Y-5325084D02*
X4328129Y-5334608D01*
X4328129Y-5334608D02*
X4366224Y-5334608D01*
X4366224Y-5334608D02*
X4385272Y-5325084D01*
X4385272Y-5325084D02*
X4394796Y-5315561D01*
X4394796Y-5315561D02*
X4404319Y-5296513D01*
X4404319Y-5296513D02*
X4404319Y-5258418D01*
X4404319Y-5258418D02*
X4394796Y-5239370D01*
X4394796Y-5239370D02*
X4385272Y-5229846D01*
X4385272Y-5229846D02*
X4366224Y-5220322D01*
X4480510Y-5134608D02*
X4480510Y-5172703D01*
X4556700Y-5134608D02*
X4556700Y-5172703D01*
X4851939Y-5410799D02*
X4842415Y-5401275D01*
X4842415Y-5401275D02*
X4823367Y-5372703D01*
X4823367Y-5372703D02*
X4813843Y-5353656D01*
X4813843Y-5353656D02*
X4804319Y-5325084D01*
X4804319Y-5325084D02*
X4794796Y-5277465D01*
X4794796Y-5277465D02*
X4794796Y-5239370D01*
X4794796Y-5239370D02*
X4804319Y-5191751D01*
X4804319Y-5191751D02*
X4813843Y-5163180D01*
X4813843Y-5163180D02*
X4823367Y-5144132D01*
X4823367Y-5144132D02*
X4842415Y-5115561D01*
X4842415Y-5115561D02*
X4851939Y-5106037D01*
X5023367Y-5134608D02*
X4928129Y-5134608D01*
X4928129Y-5134608D02*
X4918605Y-5229846D01*
X4918605Y-5229846D02*
X4928129Y-5220322D01*
X4928129Y-5220322D02*
X4947177Y-5210799D01*
X4947177Y-5210799D02*
X4994796Y-5210799D01*
X4994796Y-5210799D02*
X5013843Y-5220322D01*
X5013843Y-5220322D02*
X5023367Y-5229846D01*
X5023367Y-5229846D02*
X5032891Y-5248894D01*
X5032891Y-5248894D02*
X5032891Y-5296513D01*
X5032891Y-5296513D02*
X5023367Y-5315561D01*
X5023367Y-5315561D02*
X5013843Y-5325084D01*
X5013843Y-5325084D02*
X4994796Y-5334608D01*
X4994796Y-5334608D02*
X4947177Y-5334608D01*
X4947177Y-5334608D02*
X4928129Y-5325084D01*
X4928129Y-5325084D02*
X4918605Y-5315561D01*
X5270986Y-5334608D02*
X5270986Y-5134608D01*
X5356700Y-5334608D02*
X5356700Y-5229846D01*
X5356700Y-5229846D02*
X5347177Y-5210799D01*
X5347177Y-5210799D02*
X5328129Y-5201275D01*
X5328129Y-5201275D02*
X5299558Y-5201275D01*
X5299558Y-5201275D02*
X5280510Y-5210799D01*
X5280510Y-5210799D02*
X5270986Y-5220322D01*
X5480510Y-5334608D02*
X5461462Y-5325084D01*
X5461462Y-5325084D02*
X5451939Y-5315561D01*
X5451939Y-5315561D02*
X5442415Y-5296513D01*
X5442415Y-5296513D02*
X5442415Y-5239370D01*
X5442415Y-5239370D02*
X5451939Y-5220322D01*
X5451939Y-5220322D02*
X5461462Y-5210799D01*
X5461462Y-5210799D02*
X5480510Y-5201275D01*
X5480510Y-5201275D02*
X5509081Y-5201275D01*
X5509081Y-5201275D02*
X5528129Y-5210799D01*
X5528129Y-5210799D02*
X5537653Y-5220322D01*
X5537653Y-5220322D02*
X5547177Y-5239370D01*
X5547177Y-5239370D02*
X5547177Y-5296513D01*
X5547177Y-5296513D02*
X5537653Y-5315561D01*
X5537653Y-5315561D02*
X5528129Y-5325084D01*
X5528129Y-5325084D02*
X5509081Y-5334608D01*
X5509081Y-5334608D02*
X5480510Y-5334608D01*
X5661462Y-5334608D02*
X5642415Y-5325084D01*
X5642415Y-5325084D02*
X5632891Y-5306037D01*
X5632891Y-5306037D02*
X5632891Y-5134608D01*
X5813843Y-5325084D02*
X5794796Y-5334608D01*
X5794796Y-5334608D02*
X5756700Y-5334608D01*
X5756700Y-5334608D02*
X5737653Y-5325084D01*
X5737653Y-5325084D02*
X5728129Y-5306037D01*
X5728129Y-5306037D02*
X5728129Y-5229846D01*
X5728129Y-5229846D02*
X5737653Y-5210799D01*
X5737653Y-5210799D02*
X5756700Y-5201275D01*
X5756700Y-5201275D02*
X5794796Y-5201275D01*
X5794796Y-5201275D02*
X5813843Y-5210799D01*
X5813843Y-5210799D02*
X5823367Y-5229846D01*
X5823367Y-5229846D02*
X5823367Y-5248894D01*
X5823367Y-5248894D02*
X5728129Y-5267942D01*
X5899558Y-5325084D02*
X5918605Y-5334608D01*
X5918605Y-5334608D02*
X5956700Y-5334608D01*
X5956700Y-5334608D02*
X5975748Y-5325084D01*
X5975748Y-5325084D02*
X5985272Y-5306037D01*
X5985272Y-5306037D02*
X5985272Y-5296513D01*
X5985272Y-5296513D02*
X5975748Y-5277465D01*
X5975748Y-5277465D02*
X5956700Y-5267942D01*
X5956700Y-5267942D02*
X5928129Y-5267942D01*
X5928129Y-5267942D02*
X5909081Y-5258418D01*
X5909081Y-5258418D02*
X5899558Y-5239370D01*
X5899558Y-5239370D02*
X5899558Y-5229846D01*
X5899558Y-5229846D02*
X5909081Y-5210799D01*
X5909081Y-5210799D02*
X5928129Y-5201275D01*
X5928129Y-5201275D02*
X5956700Y-5201275D01*
X5956700Y-5201275D02*
X5975748Y-5210799D01*
X6051939Y-5410799D02*
X6061462Y-5401275D01*
X6061462Y-5401275D02*
X6080510Y-5372703D01*
X6080510Y-5372703D02*
X6090034Y-5353656D01*
X6090034Y-5353656D02*
X6099558Y-5325084D01*
X6099558Y-5325084D02*
X6109081Y-5277465D01*
X6109081Y-5277465D02*
X6109081Y-5239370D01*
X6109081Y-5239370D02*
X6099558Y-5191751D01*
X6099558Y-5191751D02*
X6090034Y-5163180D01*
X6090034Y-5163180D02*
X6080510Y-5144132D01*
X6080510Y-5144132D02*
X6061462Y-5115561D01*
X6061462Y-5115561D02*
X6051939Y-5106037D01*
D12*
X1276876Y-5507124D02*
G75*
G02*
X1236876Y-5507124I-20000J0D01*
G01*
X1236876Y-5507124D02*
G75*
G02*
X1276876Y-5507124I20000J0D01*
G01*
D11*
X1575748Y-5398608D02*
X1594795Y-5398608D01*
X1594795Y-5398608D02*
X1613843Y-5408132D01*
X1613843Y-5408132D02*
X1623367Y-5417656D01*
X1623367Y-5417656D02*
X1632890Y-5436703D01*
X1632890Y-5436703D02*
X1642414Y-5474799D01*
X1642414Y-5474799D02*
X1642414Y-5522418D01*
X1642414Y-5522418D02*
X1632890Y-5560513D01*
X1632890Y-5560513D02*
X1623367Y-5579561D01*
X1623367Y-5579561D02*
X1613843Y-5589084D01*
X1613843Y-5589084D02*
X1594795Y-5598608D01*
X1594795Y-5598608D02*
X1575748Y-5598608D01*
X1575748Y-5598608D02*
X1556700Y-5589084D01*
X1556700Y-5589084D02*
X1547176Y-5579561D01*
X1547176Y-5579561D02*
X1537652Y-5560513D01*
X1537652Y-5560513D02*
X1528129Y-5522418D01*
X1528129Y-5522418D02*
X1528129Y-5474799D01*
X1528129Y-5474799D02*
X1537652Y-5436703D01*
X1537652Y-5436703D02*
X1547176Y-5417656D01*
X1547176Y-5417656D02*
X1556700Y-5408132D01*
X1556700Y-5408132D02*
X1575748Y-5398608D01*
X1728129Y-5579561D02*
X1737652Y-5589084D01*
X1737652Y-5589084D02*
X1728129Y-5598608D01*
X1728129Y-5598608D02*
X1718605Y-5589084D01*
X1718605Y-5589084D02*
X1728129Y-5579561D01*
X1728129Y-5579561D02*
X1728129Y-5598608D01*
X1909081Y-5465275D02*
X1909081Y-5598608D01*
X1861462Y-5389084D02*
X1813843Y-5531942D01*
X1813843Y-5531942D02*
X1937652Y-5531942D01*
X2051938Y-5398608D02*
X2070986Y-5398608D01*
X2070986Y-5398608D02*
X2090033Y-5408132D01*
X2090033Y-5408132D02*
X2099557Y-5417656D01*
X2099557Y-5417656D02*
X2109081Y-5436703D01*
X2109081Y-5436703D02*
X2118605Y-5474799D01*
X2118605Y-5474799D02*
X2118605Y-5522418D01*
X2118605Y-5522418D02*
X2109081Y-5560513D01*
X2109081Y-5560513D02*
X2099557Y-5579561D01*
X2099557Y-5579561D02*
X2090033Y-5589084D01*
X2090033Y-5589084D02*
X2070986Y-5598608D01*
X2070986Y-5598608D02*
X2051938Y-5598608D01*
X2051938Y-5598608D02*
X2032890Y-5589084D01*
X2032890Y-5589084D02*
X2023367Y-5579561D01*
X2023367Y-5579561D02*
X2013843Y-5560513D01*
X2013843Y-5560513D02*
X2004319Y-5522418D01*
X2004319Y-5522418D02*
X2004319Y-5474799D01*
X2004319Y-5474799D02*
X2013843Y-5436703D01*
X2013843Y-5436703D02*
X2023367Y-5417656D01*
X2023367Y-5417656D02*
X2032890Y-5408132D01*
X2032890Y-5408132D02*
X2051938Y-5398608D01*
X2242414Y-5398608D02*
X2261462Y-5398608D01*
X2261462Y-5398608D02*
X2280510Y-5408132D01*
X2280510Y-5408132D02*
X2290033Y-5417656D01*
X2290033Y-5417656D02*
X2299557Y-5436703D01*
X2299557Y-5436703D02*
X2309081Y-5474799D01*
X2309081Y-5474799D02*
X2309081Y-5522418D01*
X2309081Y-5522418D02*
X2299557Y-5560513D01*
X2299557Y-5560513D02*
X2290033Y-5579561D01*
X2290033Y-5579561D02*
X2280510Y-5589084D01*
X2280510Y-5589084D02*
X2261462Y-5598608D01*
X2261462Y-5598608D02*
X2242414Y-5598608D01*
X2242414Y-5598608D02*
X2223367Y-5589084D01*
X2223367Y-5589084D02*
X2213843Y-5579561D01*
X2213843Y-5579561D02*
X2204319Y-5560513D01*
X2204319Y-5560513D02*
X2194795Y-5522418D01*
X2194795Y-5522418D02*
X2194795Y-5474799D01*
X2194795Y-5474799D02*
X2204319Y-5436703D01*
X2204319Y-5436703D02*
X2213843Y-5417656D01*
X2213843Y-5417656D02*
X2223367Y-5408132D01*
X2223367Y-5408132D02*
X2242414Y-5398608D01*
X2394795Y-5598608D02*
X2394795Y-5465275D01*
X2394795Y-5484322D02*
X2404319Y-5474799D01*
X2404319Y-5474799D02*
X2423367Y-5465275D01*
X2423367Y-5465275D02*
X2451938Y-5465275D01*
X2451938Y-5465275D02*
X2470986Y-5474799D01*
X2470986Y-5474799D02*
X2480510Y-5493846D01*
X2480510Y-5493846D02*
X2480510Y-5598608D01*
X2480510Y-5493846D02*
X2490033Y-5474799D01*
X2490033Y-5474799D02*
X2509081Y-5465275D01*
X2509081Y-5465275D02*
X2537652Y-5465275D01*
X2537652Y-5465275D02*
X2556700Y-5474799D01*
X2556700Y-5474799D02*
X2566224Y-5493846D01*
X2566224Y-5493846D02*
X2566224Y-5598608D01*
X2661462Y-5598608D02*
X2661462Y-5465275D01*
X2661462Y-5484322D02*
X2670986Y-5474799D01*
X2670986Y-5474799D02*
X2690033Y-5465275D01*
X2690033Y-5465275D02*
X2718605Y-5465275D01*
X2718605Y-5465275D02*
X2737653Y-5474799D01*
X2737653Y-5474799D02*
X2747176Y-5493846D01*
X2747176Y-5493846D02*
X2747176Y-5598608D01*
X2747176Y-5493846D02*
X2756700Y-5474799D01*
X2756700Y-5474799D02*
X2775748Y-5465275D01*
X2775748Y-5465275D02*
X2804319Y-5465275D01*
X2804319Y-5465275D02*
X2823367Y-5474799D01*
X2823367Y-5474799D02*
X2832891Y-5493846D01*
X2832891Y-5493846D02*
X2832891Y-5598608D01*
X3223367Y-5389084D02*
X3051938Y-5646227D01*
X3480510Y-5398608D02*
X3499557Y-5398608D01*
X3499557Y-5398608D02*
X3518605Y-5408132D01*
X3518605Y-5408132D02*
X3528129Y-5417656D01*
X3528129Y-5417656D02*
X3537653Y-5436703D01*
X3537653Y-5436703D02*
X3547176Y-5474799D01*
X3547176Y-5474799D02*
X3547176Y-5522418D01*
X3547176Y-5522418D02*
X3537653Y-5560513D01*
X3537653Y-5560513D02*
X3528129Y-5579561D01*
X3528129Y-5579561D02*
X3518605Y-5589084D01*
X3518605Y-5589084D02*
X3499557Y-5598608D01*
X3499557Y-5598608D02*
X3480510Y-5598608D01*
X3480510Y-5598608D02*
X3461462Y-5589084D01*
X3461462Y-5589084D02*
X3451938Y-5579561D01*
X3451938Y-5579561D02*
X3442414Y-5560513D01*
X3442414Y-5560513D02*
X3432891Y-5522418D01*
X3432891Y-5522418D02*
X3432891Y-5474799D01*
X3432891Y-5474799D02*
X3442414Y-5436703D01*
X3442414Y-5436703D02*
X3451938Y-5417656D01*
X3451938Y-5417656D02*
X3461462Y-5408132D01*
X3461462Y-5408132D02*
X3480510Y-5398608D01*
X3632891Y-5579561D02*
X3642414Y-5589084D01*
X3642414Y-5589084D02*
X3632891Y-5598608D01*
X3632891Y-5598608D02*
X3623367Y-5589084D01*
X3623367Y-5589084D02*
X3632891Y-5579561D01*
X3632891Y-5579561D02*
X3632891Y-5598608D01*
X3766224Y-5398608D02*
X3785272Y-5398608D01*
X3785272Y-5398608D02*
X3804319Y-5408132D01*
X3804319Y-5408132D02*
X3813843Y-5417656D01*
X3813843Y-5417656D02*
X3823367Y-5436703D01*
X3823367Y-5436703D02*
X3832891Y-5474799D01*
X3832891Y-5474799D02*
X3832891Y-5522418D01*
X3832891Y-5522418D02*
X3823367Y-5560513D01*
X3823367Y-5560513D02*
X3813843Y-5579561D01*
X3813843Y-5579561D02*
X3804319Y-5589084D01*
X3804319Y-5589084D02*
X3785272Y-5598608D01*
X3785272Y-5598608D02*
X3766224Y-5598608D01*
X3766224Y-5598608D02*
X3747176Y-5589084D01*
X3747176Y-5589084D02*
X3737653Y-5579561D01*
X3737653Y-5579561D02*
X3728129Y-5560513D01*
X3728129Y-5560513D02*
X3718605Y-5522418D01*
X3718605Y-5522418D02*
X3718605Y-5474799D01*
X3718605Y-5474799D02*
X3728129Y-5436703D01*
X3728129Y-5436703D02*
X3737653Y-5417656D01*
X3737653Y-5417656D02*
X3747176Y-5408132D01*
X3747176Y-5408132D02*
X3766224Y-5398608D01*
X4023367Y-5598608D02*
X3909081Y-5598608D01*
X3966224Y-5598608D02*
X3966224Y-5398608D01*
X3966224Y-5398608D02*
X3947176Y-5427180D01*
X3947176Y-5427180D02*
X3928129Y-5446227D01*
X3928129Y-5446227D02*
X3909081Y-5455751D01*
X4204319Y-5398608D02*
X4109081Y-5398608D01*
X4109081Y-5398608D02*
X4099557Y-5493846D01*
X4099557Y-5493846D02*
X4109081Y-5484322D01*
X4109081Y-5484322D02*
X4128129Y-5474799D01*
X4128129Y-5474799D02*
X4175748Y-5474799D01*
X4175748Y-5474799D02*
X4194796Y-5484322D01*
X4194796Y-5484322D02*
X4204319Y-5493846D01*
X4204319Y-5493846D02*
X4213843Y-5512894D01*
X4213843Y-5512894D02*
X4213843Y-5560513D01*
X4213843Y-5560513D02*
X4204319Y-5579561D01*
X4204319Y-5579561D02*
X4194796Y-5589084D01*
X4194796Y-5589084D02*
X4175748Y-5598608D01*
X4175748Y-5598608D02*
X4128129Y-5598608D01*
X4128129Y-5598608D02*
X4109081Y-5589084D01*
X4109081Y-5589084D02*
X4099557Y-5579561D01*
X4280510Y-5398608D02*
X4413843Y-5398608D01*
X4413843Y-5398608D02*
X4328129Y-5598608D01*
X4480510Y-5398608D02*
X4480510Y-5436703D01*
X4556700Y-5398608D02*
X4556700Y-5436703D01*
X4851939Y-5674799D02*
X4842415Y-5665275D01*
X4842415Y-5665275D02*
X4823367Y-5636703D01*
X4823367Y-5636703D02*
X4813843Y-5617656D01*
X4813843Y-5617656D02*
X4804319Y-5589084D01*
X4804319Y-5589084D02*
X4794796Y-5541465D01*
X4794796Y-5541465D02*
X4794796Y-5503370D01*
X4794796Y-5503370D02*
X4804319Y-5455751D01*
X4804319Y-5455751D02*
X4813843Y-5427180D01*
X4813843Y-5427180D02*
X4823367Y-5408132D01*
X4823367Y-5408132D02*
X4842415Y-5379561D01*
X4842415Y-5379561D02*
X4851939Y-5370037D01*
X4966224Y-5398608D02*
X4985272Y-5398608D01*
X4985272Y-5398608D02*
X5004319Y-5408132D01*
X5004319Y-5408132D02*
X5013843Y-5417656D01*
X5013843Y-5417656D02*
X5023367Y-5436703D01*
X5023367Y-5436703D02*
X5032891Y-5474799D01*
X5032891Y-5474799D02*
X5032891Y-5522418D01*
X5032891Y-5522418D02*
X5023367Y-5560513D01*
X5023367Y-5560513D02*
X5013843Y-5579561D01*
X5013843Y-5579561D02*
X5004319Y-5589084D01*
X5004319Y-5589084D02*
X4985272Y-5598608D01*
X4985272Y-5598608D02*
X4966224Y-5598608D01*
X4966224Y-5598608D02*
X4947177Y-5589084D01*
X4947177Y-5589084D02*
X4937653Y-5579561D01*
X4937653Y-5579561D02*
X4928129Y-5560513D01*
X4928129Y-5560513D02*
X4918605Y-5522418D01*
X4918605Y-5522418D02*
X4918605Y-5474799D01*
X4918605Y-5474799D02*
X4928129Y-5436703D01*
X4928129Y-5436703D02*
X4937653Y-5417656D01*
X4937653Y-5417656D02*
X4947177Y-5408132D01*
X4947177Y-5408132D02*
X4966224Y-5398608D01*
X5270986Y-5598608D02*
X5270986Y-5398608D01*
X5356700Y-5598608D02*
X5356700Y-5493846D01*
X5356700Y-5493846D02*
X5347177Y-5474799D01*
X5347177Y-5474799D02*
X5328129Y-5465275D01*
X5328129Y-5465275D02*
X5299558Y-5465275D01*
X5299558Y-5465275D02*
X5280510Y-5474799D01*
X5280510Y-5474799D02*
X5270986Y-5484322D01*
X5480510Y-5598608D02*
X5461462Y-5589084D01*
X5461462Y-5589084D02*
X5451939Y-5579561D01*
X5451939Y-5579561D02*
X5442415Y-5560513D01*
X5442415Y-5560513D02*
X5442415Y-5503370D01*
X5442415Y-5503370D02*
X5451939Y-5484322D01*
X5451939Y-5484322D02*
X5461462Y-5474799D01*
X5461462Y-5474799D02*
X5480510Y-5465275D01*
X5480510Y-5465275D02*
X5509081Y-5465275D01*
X5509081Y-5465275D02*
X5528129Y-5474799D01*
X5528129Y-5474799D02*
X5537653Y-5484322D01*
X5537653Y-5484322D02*
X5547177Y-5503370D01*
X5547177Y-5503370D02*
X5547177Y-5560513D01*
X5547177Y-5560513D02*
X5537653Y-5579561D01*
X5537653Y-5579561D02*
X5528129Y-5589084D01*
X5528129Y-5589084D02*
X5509081Y-5598608D01*
X5509081Y-5598608D02*
X5480510Y-5598608D01*
X5661462Y-5598608D02*
X5642415Y-5589084D01*
X5642415Y-5589084D02*
X5632891Y-5570037D01*
X5632891Y-5570037D02*
X5632891Y-5398608D01*
X5813843Y-5589084D02*
X5794796Y-5598608D01*
X5794796Y-5598608D02*
X5756700Y-5598608D01*
X5756700Y-5598608D02*
X5737653Y-5589084D01*
X5737653Y-5589084D02*
X5728129Y-5570037D01*
X5728129Y-5570037D02*
X5728129Y-5493846D01*
X5728129Y-5493846D02*
X5737653Y-5474799D01*
X5737653Y-5474799D02*
X5756700Y-5465275D01*
X5756700Y-5465275D02*
X5794796Y-5465275D01*
X5794796Y-5465275D02*
X5813843Y-5474799D01*
X5813843Y-5474799D02*
X5823367Y-5493846D01*
X5823367Y-5493846D02*
X5823367Y-5512894D01*
X5823367Y-5512894D02*
X5728129Y-5531942D01*
X5899558Y-5589084D02*
X5918605Y-5598608D01*
X5918605Y-5598608D02*
X5956700Y-5598608D01*
X5956700Y-5598608D02*
X5975748Y-5589084D01*
X5975748Y-5589084D02*
X5985272Y-5570037D01*
X5985272Y-5570037D02*
X5985272Y-5560513D01*
X5985272Y-5560513D02*
X5975748Y-5541465D01*
X5975748Y-5541465D02*
X5956700Y-5531942D01*
X5956700Y-5531942D02*
X5928129Y-5531942D01*
X5928129Y-5531942D02*
X5909081Y-5522418D01*
X5909081Y-5522418D02*
X5899558Y-5503370D01*
X5899558Y-5503370D02*
X5899558Y-5493846D01*
X5899558Y-5493846D02*
X5909081Y-5474799D01*
X5909081Y-5474799D02*
X5928129Y-5465275D01*
X5928129Y-5465275D02*
X5956700Y-5465275D01*
X5956700Y-5465275D02*
X5975748Y-5474799D01*
X6223367Y-5522418D02*
X6375748Y-5522418D01*
X6299558Y-5598608D02*
X6299558Y-5446227D01*
X6604320Y-5398608D02*
X6728129Y-5398608D01*
X6728129Y-5398608D02*
X6661462Y-5474799D01*
X6661462Y-5474799D02*
X6690034Y-5474799D01*
X6690034Y-5474799D02*
X6709081Y-5484322D01*
X6709081Y-5484322D02*
X6718605Y-5493846D01*
X6718605Y-5493846D02*
X6728129Y-5512894D01*
X6728129Y-5512894D02*
X6728129Y-5560513D01*
X6728129Y-5560513D02*
X6718605Y-5579561D01*
X6718605Y-5579561D02*
X6709081Y-5589084D01*
X6709081Y-5589084D02*
X6690034Y-5598608D01*
X6690034Y-5598608D02*
X6632891Y-5598608D01*
X6632891Y-5598608D02*
X6613843Y-5589084D01*
X6613843Y-5589084D02*
X6604320Y-5579561D01*
X6956701Y-5589084D02*
X6975748Y-5598608D01*
X6975748Y-5598608D02*
X7013843Y-5598608D01*
X7013843Y-5598608D02*
X7032891Y-5589084D01*
X7032891Y-5589084D02*
X7042415Y-5570037D01*
X7042415Y-5570037D02*
X7042415Y-5560513D01*
X7042415Y-5560513D02*
X7032891Y-5541465D01*
X7032891Y-5541465D02*
X7013843Y-5531942D01*
X7013843Y-5531942D02*
X6985272Y-5531942D01*
X6985272Y-5531942D02*
X6966224Y-5522418D01*
X6966224Y-5522418D02*
X6956701Y-5503370D01*
X6956701Y-5503370D02*
X6956701Y-5493846D01*
X6956701Y-5493846D02*
X6966224Y-5474799D01*
X6966224Y-5474799D02*
X6985272Y-5465275D01*
X6985272Y-5465275D02*
X7013843Y-5465275D01*
X7013843Y-5465275D02*
X7032891Y-5474799D01*
X7156701Y-5598608D02*
X7137653Y-5589084D01*
X7137653Y-5589084D02*
X7128129Y-5570037D01*
X7128129Y-5570037D02*
X7128129Y-5398608D01*
X7261462Y-5598608D02*
X7242415Y-5589084D01*
X7242415Y-5589084D02*
X7232891Y-5579561D01*
X7232891Y-5579561D02*
X7223367Y-5560513D01*
X7223367Y-5560513D02*
X7223367Y-5503370D01*
X7223367Y-5503370D02*
X7232891Y-5484322D01*
X7232891Y-5484322D02*
X7242415Y-5474799D01*
X7242415Y-5474799D02*
X7261462Y-5465275D01*
X7261462Y-5465275D02*
X7290034Y-5465275D01*
X7290034Y-5465275D02*
X7309082Y-5474799D01*
X7309082Y-5474799D02*
X7318605Y-5484322D01*
X7318605Y-5484322D02*
X7328129Y-5503370D01*
X7328129Y-5503370D02*
X7328129Y-5560513D01*
X7328129Y-5560513D02*
X7318605Y-5579561D01*
X7318605Y-5579561D02*
X7309082Y-5589084D01*
X7309082Y-5589084D02*
X7290034Y-5598608D01*
X7290034Y-5598608D02*
X7261462Y-5598608D01*
X7385272Y-5465275D02*
X7461462Y-5465275D01*
X7413843Y-5398608D02*
X7413843Y-5570037D01*
X7413843Y-5570037D02*
X7423367Y-5589084D01*
X7423367Y-5589084D02*
X7442415Y-5598608D01*
X7442415Y-5598608D02*
X7461462Y-5598608D01*
X7518605Y-5589084D02*
X7537653Y-5598608D01*
X7537653Y-5598608D02*
X7575748Y-5598608D01*
X7575748Y-5598608D02*
X7594796Y-5589084D01*
X7594796Y-5589084D02*
X7604320Y-5570037D01*
X7604320Y-5570037D02*
X7604320Y-5560513D01*
X7604320Y-5560513D02*
X7594796Y-5541465D01*
X7594796Y-5541465D02*
X7575748Y-5531942D01*
X7575748Y-5531942D02*
X7547177Y-5531942D01*
X7547177Y-5531942D02*
X7528129Y-5522418D01*
X7528129Y-5522418D02*
X7518605Y-5503370D01*
X7518605Y-5503370D02*
X7518605Y-5493846D01*
X7518605Y-5493846D02*
X7528129Y-5474799D01*
X7528129Y-5474799D02*
X7547177Y-5465275D01*
X7547177Y-5465275D02*
X7575748Y-5465275D01*
X7575748Y-5465275D02*
X7594796Y-5474799D01*
X7670986Y-5674799D02*
X7680510Y-5665275D01*
X7680510Y-5665275D02*
X7699558Y-5636703D01*
X7699558Y-5636703D02*
X7709082Y-5617656D01*
X7709082Y-5617656D02*
X7718605Y-5589084D01*
X7718605Y-5589084D02*
X7728129Y-5541465D01*
X7728129Y-5541465D02*
X7728129Y-5503370D01*
X7728129Y-5503370D02*
X7718605Y-5455751D01*
X7718605Y-5455751D02*
X7709082Y-5427180D01*
X7709082Y-5427180D02*
X7699558Y-5408132D01*
X7699558Y-5408132D02*
X7680510Y-5379561D01*
X7680510Y-5379561D02*
X7670986Y-5370037D01*
D12*
X1236876Y-5731124D02*
X1236876Y-5811124D01*
X1196876Y-5771124D02*
X1276876Y-5771124D01*
D11*
X1575748Y-5662608D02*
X1594795Y-5662608D01*
X1594795Y-5662608D02*
X1613843Y-5672132D01*
X1613843Y-5672132D02*
X1623367Y-5681656D01*
X1623367Y-5681656D02*
X1632890Y-5700703D01*
X1632890Y-5700703D02*
X1642414Y-5738799D01*
X1642414Y-5738799D02*
X1642414Y-5786418D01*
X1642414Y-5786418D02*
X1632890Y-5824513D01*
X1632890Y-5824513D02*
X1623367Y-5843560D01*
X1623367Y-5843560D02*
X1613843Y-5853084D01*
X1613843Y-5853084D02*
X1594795Y-5862608D01*
X1594795Y-5862608D02*
X1575748Y-5862608D01*
X1575748Y-5862608D02*
X1556700Y-5853084D01*
X1556700Y-5853084D02*
X1547176Y-5843560D01*
X1547176Y-5843560D02*
X1537652Y-5824513D01*
X1537652Y-5824513D02*
X1528129Y-5786418D01*
X1528129Y-5786418D02*
X1528129Y-5738799D01*
X1528129Y-5738799D02*
X1537652Y-5700703D01*
X1537652Y-5700703D02*
X1547176Y-5681656D01*
X1547176Y-5681656D02*
X1556700Y-5672132D01*
X1556700Y-5672132D02*
X1575748Y-5662608D01*
X1728129Y-5843560D02*
X1737652Y-5853084D01*
X1737652Y-5853084D02*
X1728129Y-5862608D01*
X1728129Y-5862608D02*
X1718605Y-5853084D01*
X1718605Y-5853084D02*
X1728129Y-5843560D01*
X1728129Y-5843560D02*
X1728129Y-5862608D01*
X1851938Y-5748322D02*
X1832890Y-5738799D01*
X1832890Y-5738799D02*
X1823367Y-5729275D01*
X1823367Y-5729275D02*
X1813843Y-5710227D01*
X1813843Y-5710227D02*
X1813843Y-5700703D01*
X1813843Y-5700703D02*
X1823367Y-5681656D01*
X1823367Y-5681656D02*
X1832890Y-5672132D01*
X1832890Y-5672132D02*
X1851938Y-5662608D01*
X1851938Y-5662608D02*
X1890033Y-5662608D01*
X1890033Y-5662608D02*
X1909081Y-5672132D01*
X1909081Y-5672132D02*
X1918605Y-5681656D01*
X1918605Y-5681656D02*
X1928129Y-5700703D01*
X1928129Y-5700703D02*
X1928129Y-5710227D01*
X1928129Y-5710227D02*
X1918605Y-5729275D01*
X1918605Y-5729275D02*
X1909081Y-5738799D01*
X1909081Y-5738799D02*
X1890033Y-5748322D01*
X1890033Y-5748322D02*
X1851938Y-5748322D01*
X1851938Y-5748322D02*
X1832890Y-5757846D01*
X1832890Y-5757846D02*
X1823367Y-5767370D01*
X1823367Y-5767370D02*
X1813843Y-5786418D01*
X1813843Y-5786418D02*
X1813843Y-5824513D01*
X1813843Y-5824513D02*
X1823367Y-5843560D01*
X1823367Y-5843560D02*
X1832890Y-5853084D01*
X1832890Y-5853084D02*
X1851938Y-5862608D01*
X1851938Y-5862608D02*
X1890033Y-5862608D01*
X1890033Y-5862608D02*
X1909081Y-5853084D01*
X1909081Y-5853084D02*
X1918605Y-5843560D01*
X1918605Y-5843560D02*
X1928129Y-5824513D01*
X1928129Y-5824513D02*
X1928129Y-5786418D01*
X1928129Y-5786418D02*
X1918605Y-5767370D01*
X1918605Y-5767370D02*
X1909081Y-5757846D01*
X1909081Y-5757846D02*
X1890033Y-5748322D01*
X2051938Y-5662608D02*
X2070986Y-5662608D01*
X2070986Y-5662608D02*
X2090033Y-5672132D01*
X2090033Y-5672132D02*
X2099557Y-5681656D01*
X2099557Y-5681656D02*
X2109081Y-5700703D01*
X2109081Y-5700703D02*
X2118605Y-5738799D01*
X2118605Y-5738799D02*
X2118605Y-5786418D01*
X2118605Y-5786418D02*
X2109081Y-5824513D01*
X2109081Y-5824513D02*
X2099557Y-5843560D01*
X2099557Y-5843560D02*
X2090033Y-5853084D01*
X2090033Y-5853084D02*
X2070986Y-5862608D01*
X2070986Y-5862608D02*
X2051938Y-5862608D01*
X2051938Y-5862608D02*
X2032890Y-5853084D01*
X2032890Y-5853084D02*
X2023367Y-5843560D01*
X2023367Y-5843560D02*
X2013843Y-5824513D01*
X2013843Y-5824513D02*
X2004319Y-5786418D01*
X2004319Y-5786418D02*
X2004319Y-5738799D01*
X2004319Y-5738799D02*
X2013843Y-5700703D01*
X2013843Y-5700703D02*
X2023367Y-5681656D01*
X2023367Y-5681656D02*
X2032890Y-5672132D01*
X2032890Y-5672132D02*
X2051938Y-5662608D01*
X2242414Y-5662608D02*
X2261462Y-5662608D01*
X2261462Y-5662608D02*
X2280510Y-5672132D01*
X2280510Y-5672132D02*
X2290033Y-5681656D01*
X2290033Y-5681656D02*
X2299557Y-5700703D01*
X2299557Y-5700703D02*
X2309081Y-5738799D01*
X2309081Y-5738799D02*
X2309081Y-5786418D01*
X2309081Y-5786418D02*
X2299557Y-5824513D01*
X2299557Y-5824513D02*
X2290033Y-5843560D01*
X2290033Y-5843560D02*
X2280510Y-5853084D01*
X2280510Y-5853084D02*
X2261462Y-5862608D01*
X2261462Y-5862608D02*
X2242414Y-5862608D01*
X2242414Y-5862608D02*
X2223367Y-5853084D01*
X2223367Y-5853084D02*
X2213843Y-5843560D01*
X2213843Y-5843560D02*
X2204319Y-5824513D01*
X2204319Y-5824513D02*
X2194795Y-5786418D01*
X2194795Y-5786418D02*
X2194795Y-5738799D01*
X2194795Y-5738799D02*
X2204319Y-5700703D01*
X2204319Y-5700703D02*
X2213843Y-5681656D01*
X2213843Y-5681656D02*
X2223367Y-5672132D01*
X2223367Y-5672132D02*
X2242414Y-5662608D01*
X2394795Y-5862608D02*
X2394795Y-5729275D01*
X2394795Y-5748322D02*
X2404319Y-5738799D01*
X2404319Y-5738799D02*
X2423367Y-5729275D01*
X2423367Y-5729275D02*
X2451938Y-5729275D01*
X2451938Y-5729275D02*
X2470986Y-5738799D01*
X2470986Y-5738799D02*
X2480510Y-5757846D01*
X2480510Y-5757846D02*
X2480510Y-5862608D01*
X2480510Y-5757846D02*
X2490033Y-5738799D01*
X2490033Y-5738799D02*
X2509081Y-5729275D01*
X2509081Y-5729275D02*
X2537652Y-5729275D01*
X2537652Y-5729275D02*
X2556700Y-5738799D01*
X2556700Y-5738799D02*
X2566224Y-5757846D01*
X2566224Y-5757846D02*
X2566224Y-5862608D01*
X2661462Y-5862608D02*
X2661462Y-5729275D01*
X2661462Y-5748322D02*
X2670986Y-5738799D01*
X2670986Y-5738799D02*
X2690033Y-5729275D01*
X2690033Y-5729275D02*
X2718605Y-5729275D01*
X2718605Y-5729275D02*
X2737653Y-5738799D01*
X2737653Y-5738799D02*
X2747176Y-5757846D01*
X2747176Y-5757846D02*
X2747176Y-5862608D01*
X2747176Y-5757846D02*
X2756700Y-5738799D01*
X2756700Y-5738799D02*
X2775748Y-5729275D01*
X2775748Y-5729275D02*
X2804319Y-5729275D01*
X2804319Y-5729275D02*
X2823367Y-5738799D01*
X2823367Y-5738799D02*
X2832891Y-5757846D01*
X2832891Y-5757846D02*
X2832891Y-5862608D01*
X3223367Y-5653084D02*
X3051938Y-5910227D01*
X3480510Y-5662608D02*
X3499557Y-5662608D01*
X3499557Y-5662608D02*
X3518605Y-5672132D01*
X3518605Y-5672132D02*
X3528129Y-5681656D01*
X3528129Y-5681656D02*
X3537653Y-5700703D01*
X3537653Y-5700703D02*
X3547176Y-5738799D01*
X3547176Y-5738799D02*
X3547176Y-5786418D01*
X3547176Y-5786418D02*
X3537653Y-5824513D01*
X3537653Y-5824513D02*
X3528129Y-5843560D01*
X3528129Y-5843560D02*
X3518605Y-5853084D01*
X3518605Y-5853084D02*
X3499557Y-5862608D01*
X3499557Y-5862608D02*
X3480510Y-5862608D01*
X3480510Y-5862608D02*
X3461462Y-5853084D01*
X3461462Y-5853084D02*
X3451938Y-5843560D01*
X3451938Y-5843560D02*
X3442414Y-5824513D01*
X3442414Y-5824513D02*
X3432891Y-5786418D01*
X3432891Y-5786418D02*
X3432891Y-5738799D01*
X3432891Y-5738799D02*
X3442414Y-5700703D01*
X3442414Y-5700703D02*
X3451938Y-5681656D01*
X3451938Y-5681656D02*
X3461462Y-5672132D01*
X3461462Y-5672132D02*
X3480510Y-5662608D01*
X3632891Y-5843560D02*
X3642414Y-5853084D01*
X3642414Y-5853084D02*
X3632891Y-5862608D01*
X3632891Y-5862608D02*
X3623367Y-5853084D01*
X3623367Y-5853084D02*
X3632891Y-5843560D01*
X3632891Y-5843560D02*
X3632891Y-5862608D01*
X3766224Y-5662608D02*
X3785272Y-5662608D01*
X3785272Y-5662608D02*
X3804319Y-5672132D01*
X3804319Y-5672132D02*
X3813843Y-5681656D01*
X3813843Y-5681656D02*
X3823367Y-5700703D01*
X3823367Y-5700703D02*
X3832891Y-5738799D01*
X3832891Y-5738799D02*
X3832891Y-5786418D01*
X3832891Y-5786418D02*
X3823367Y-5824513D01*
X3823367Y-5824513D02*
X3813843Y-5843560D01*
X3813843Y-5843560D02*
X3804319Y-5853084D01*
X3804319Y-5853084D02*
X3785272Y-5862608D01*
X3785272Y-5862608D02*
X3766224Y-5862608D01*
X3766224Y-5862608D02*
X3747176Y-5853084D01*
X3747176Y-5853084D02*
X3737653Y-5843560D01*
X3737653Y-5843560D02*
X3728129Y-5824513D01*
X3728129Y-5824513D02*
X3718605Y-5786418D01*
X3718605Y-5786418D02*
X3718605Y-5738799D01*
X3718605Y-5738799D02*
X3728129Y-5700703D01*
X3728129Y-5700703D02*
X3737653Y-5681656D01*
X3737653Y-5681656D02*
X3747176Y-5672132D01*
X3747176Y-5672132D02*
X3766224Y-5662608D01*
X3899557Y-5662608D02*
X4023367Y-5662608D01*
X4023367Y-5662608D02*
X3956700Y-5738799D01*
X3956700Y-5738799D02*
X3985272Y-5738799D01*
X3985272Y-5738799D02*
X4004319Y-5748322D01*
X4004319Y-5748322D02*
X4013843Y-5757846D01*
X4013843Y-5757846D02*
X4023367Y-5776894D01*
X4023367Y-5776894D02*
X4023367Y-5824513D01*
X4023367Y-5824513D02*
X4013843Y-5843560D01*
X4013843Y-5843560D02*
X4004319Y-5853084D01*
X4004319Y-5853084D02*
X3985272Y-5862608D01*
X3985272Y-5862608D02*
X3928129Y-5862608D01*
X3928129Y-5862608D02*
X3909081Y-5853084D01*
X3909081Y-5853084D02*
X3899557Y-5843560D01*
X4213843Y-5862608D02*
X4099557Y-5862608D01*
X4156700Y-5862608D02*
X4156700Y-5662608D01*
X4156700Y-5662608D02*
X4137653Y-5691180D01*
X4137653Y-5691180D02*
X4118605Y-5710227D01*
X4118605Y-5710227D02*
X4099557Y-5719751D01*
X4394796Y-5662608D02*
X4299557Y-5662608D01*
X4299557Y-5662608D02*
X4290034Y-5757846D01*
X4290034Y-5757846D02*
X4299557Y-5748322D01*
X4299557Y-5748322D02*
X4318605Y-5738799D01*
X4318605Y-5738799D02*
X4366224Y-5738799D01*
X4366224Y-5738799D02*
X4385272Y-5748322D01*
X4385272Y-5748322D02*
X4394796Y-5757846D01*
X4394796Y-5757846D02*
X4404319Y-5776894D01*
X4404319Y-5776894D02*
X4404319Y-5824513D01*
X4404319Y-5824513D02*
X4394796Y-5843560D01*
X4394796Y-5843560D02*
X4385272Y-5853084D01*
X4385272Y-5853084D02*
X4366224Y-5862608D01*
X4366224Y-5862608D02*
X4318605Y-5862608D01*
X4318605Y-5862608D02*
X4299557Y-5853084D01*
X4299557Y-5853084D02*
X4290034Y-5843560D01*
X4480510Y-5662608D02*
X4480510Y-5700703D01*
X4556700Y-5662608D02*
X4556700Y-5700703D01*
X4851939Y-5938799D02*
X4842415Y-5929275D01*
X4842415Y-5929275D02*
X4823367Y-5900703D01*
X4823367Y-5900703D02*
X4813843Y-5881656D01*
X4813843Y-5881656D02*
X4804319Y-5853084D01*
X4804319Y-5853084D02*
X4794796Y-5805465D01*
X4794796Y-5805465D02*
X4794796Y-5767370D01*
X4794796Y-5767370D02*
X4804319Y-5719751D01*
X4804319Y-5719751D02*
X4813843Y-5691180D01*
X4813843Y-5691180D02*
X4823367Y-5672132D01*
X4823367Y-5672132D02*
X4842415Y-5643560D01*
X4842415Y-5643560D02*
X4851939Y-5634037D01*
X5013843Y-5729275D02*
X5013843Y-5862608D01*
X4966224Y-5653084D02*
X4918605Y-5795941D01*
X4918605Y-5795941D02*
X5042415Y-5795941D01*
X5156700Y-5662608D02*
X5175748Y-5662608D01*
X5175748Y-5662608D02*
X5194796Y-5672132D01*
X5194796Y-5672132D02*
X5204319Y-5681656D01*
X5204319Y-5681656D02*
X5213843Y-5700703D01*
X5213843Y-5700703D02*
X5223367Y-5738799D01*
X5223367Y-5738799D02*
X5223367Y-5786418D01*
X5223367Y-5786418D02*
X5213843Y-5824513D01*
X5213843Y-5824513D02*
X5204319Y-5843560D01*
X5204319Y-5843560D02*
X5194796Y-5853084D01*
X5194796Y-5853084D02*
X5175748Y-5862608D01*
X5175748Y-5862608D02*
X5156700Y-5862608D01*
X5156700Y-5862608D02*
X5137653Y-5853084D01*
X5137653Y-5853084D02*
X5128129Y-5843560D01*
X5128129Y-5843560D02*
X5118605Y-5824513D01*
X5118605Y-5824513D02*
X5109081Y-5786418D01*
X5109081Y-5786418D02*
X5109081Y-5738799D01*
X5109081Y-5738799D02*
X5118605Y-5700703D01*
X5118605Y-5700703D02*
X5128129Y-5681656D01*
X5128129Y-5681656D02*
X5137653Y-5672132D01*
X5137653Y-5672132D02*
X5156700Y-5662608D01*
X5461462Y-5862608D02*
X5461462Y-5662608D01*
X5547177Y-5862608D02*
X5547177Y-5757846D01*
X5547177Y-5757846D02*
X5537653Y-5738799D01*
X5537653Y-5738799D02*
X5518605Y-5729275D01*
X5518605Y-5729275D02*
X5490034Y-5729275D01*
X5490034Y-5729275D02*
X5470986Y-5738799D01*
X5470986Y-5738799D02*
X5461462Y-5748322D01*
X5670986Y-5862608D02*
X5651938Y-5853084D01*
X5651938Y-5853084D02*
X5642415Y-5843560D01*
X5642415Y-5843560D02*
X5632891Y-5824513D01*
X5632891Y-5824513D02*
X5632891Y-5767370D01*
X5632891Y-5767370D02*
X5642415Y-5748322D01*
X5642415Y-5748322D02*
X5651938Y-5738799D01*
X5651938Y-5738799D02*
X5670986Y-5729275D01*
X5670986Y-5729275D02*
X5699558Y-5729275D01*
X5699558Y-5729275D02*
X5718605Y-5738799D01*
X5718605Y-5738799D02*
X5728129Y-5748322D01*
X5728129Y-5748322D02*
X5737653Y-5767370D01*
X5737653Y-5767370D02*
X5737653Y-5824513D01*
X5737653Y-5824513D02*
X5728129Y-5843560D01*
X5728129Y-5843560D02*
X5718605Y-5853084D01*
X5718605Y-5853084D02*
X5699558Y-5862608D01*
X5699558Y-5862608D02*
X5670986Y-5862608D01*
X5851938Y-5862608D02*
X5832891Y-5853084D01*
X5832891Y-5853084D02*
X5823367Y-5834037D01*
X5823367Y-5834037D02*
X5823367Y-5662608D01*
X6004319Y-5853084D02*
X5985272Y-5862608D01*
X5985272Y-5862608D02*
X5947177Y-5862608D01*
X5947177Y-5862608D02*
X5928129Y-5853084D01*
X5928129Y-5853084D02*
X5918605Y-5834037D01*
X5918605Y-5834037D02*
X5918605Y-5757846D01*
X5918605Y-5757846D02*
X5928129Y-5738799D01*
X5928129Y-5738799D02*
X5947177Y-5729275D01*
X5947177Y-5729275D02*
X5985272Y-5729275D01*
X5985272Y-5729275D02*
X6004319Y-5738799D01*
X6004319Y-5738799D02*
X6013843Y-5757846D01*
X6013843Y-5757846D02*
X6013843Y-5776894D01*
X6013843Y-5776894D02*
X5918605Y-5795941D01*
X6090034Y-5853084D02*
X6109081Y-5862608D01*
X6109081Y-5862608D02*
X6147177Y-5862608D01*
X6147177Y-5862608D02*
X6166224Y-5853084D01*
X6166224Y-5853084D02*
X6175748Y-5834037D01*
X6175748Y-5834037D02*
X6175748Y-5824513D01*
X6175748Y-5824513D02*
X6166224Y-5805465D01*
X6166224Y-5805465D02*
X6147177Y-5795941D01*
X6147177Y-5795941D02*
X6118605Y-5795941D01*
X6118605Y-5795941D02*
X6099558Y-5786418D01*
X6099558Y-5786418D02*
X6090034Y-5767370D01*
X6090034Y-5767370D02*
X6090034Y-5757846D01*
X6090034Y-5757846D02*
X6099558Y-5738799D01*
X6099558Y-5738799D02*
X6118605Y-5729275D01*
X6118605Y-5729275D02*
X6147177Y-5729275D01*
X6147177Y-5729275D02*
X6166224Y-5738799D01*
X6242415Y-5938799D02*
X6251939Y-5929275D01*
X6251939Y-5929275D02*
X6270986Y-5900703D01*
X6270986Y-5900703D02*
X6280510Y-5881656D01*
X6280510Y-5881656D02*
X6290034Y-5853084D01*
X6290034Y-5853084D02*
X6299558Y-5805465D01*
X6299558Y-5805465D02*
X6299558Y-5767370D01*
X6299558Y-5767370D02*
X6290034Y-5719751D01*
X6290034Y-5719751D02*
X6280510Y-5691180D01*
X6280510Y-5691180D02*
X6270986Y-5672132D01*
X6270986Y-5672132D02*
X6251939Y-5643560D01*
X6251939Y-5643560D02*
X6242415Y-5634037D01*
D12*
X1262231Y-6070480D02*
X1262231Y-5999769D01*
X1191520Y-5999769D01*
X1191520Y-6070480D01*
X1262231Y-6070480D01*
D11*
X1642414Y-6126608D02*
X1528129Y-6126608D01*
X1585271Y-6126608D02*
X1585271Y-5926608D01*
X1585271Y-5926608D02*
X1566224Y-5955180D01*
X1566224Y-5955180D02*
X1547176Y-5974227D01*
X1547176Y-5974227D02*
X1528129Y-5983751D01*
X1728129Y-6107560D02*
X1737652Y-6117084D01*
X1737652Y-6117084D02*
X1728129Y-6126608D01*
X1728129Y-6126608D02*
X1718605Y-6117084D01*
X1718605Y-6117084D02*
X1728129Y-6107560D01*
X1728129Y-6107560D02*
X1728129Y-6126608D01*
X1861462Y-5926608D02*
X1880510Y-5926608D01*
X1880510Y-5926608D02*
X1899557Y-5936132D01*
X1899557Y-5936132D02*
X1909081Y-5945656D01*
X1909081Y-5945656D02*
X1918605Y-5964703D01*
X1918605Y-5964703D02*
X1928129Y-6002799D01*
X1928129Y-6002799D02*
X1928129Y-6050418D01*
X1928129Y-6050418D02*
X1918605Y-6088513D01*
X1918605Y-6088513D02*
X1909081Y-6107560D01*
X1909081Y-6107560D02*
X1899557Y-6117084D01*
X1899557Y-6117084D02*
X1880510Y-6126608D01*
X1880510Y-6126608D02*
X1861462Y-6126608D01*
X1861462Y-6126608D02*
X1842414Y-6117084D01*
X1842414Y-6117084D02*
X1832890Y-6107560D01*
X1832890Y-6107560D02*
X1823367Y-6088513D01*
X1823367Y-6088513D02*
X1813843Y-6050418D01*
X1813843Y-6050418D02*
X1813843Y-6002799D01*
X1813843Y-6002799D02*
X1823367Y-5964703D01*
X1823367Y-5964703D02*
X1832890Y-5945656D01*
X1832890Y-5945656D02*
X1842414Y-5936132D01*
X1842414Y-5936132D02*
X1861462Y-5926608D01*
X2051938Y-5926608D02*
X2070986Y-5926608D01*
X2070986Y-5926608D02*
X2090033Y-5936132D01*
X2090033Y-5936132D02*
X2099557Y-5945656D01*
X2099557Y-5945656D02*
X2109081Y-5964703D01*
X2109081Y-5964703D02*
X2118605Y-6002799D01*
X2118605Y-6002799D02*
X2118605Y-6050418D01*
X2118605Y-6050418D02*
X2109081Y-6088513D01*
X2109081Y-6088513D02*
X2099557Y-6107560D01*
X2099557Y-6107560D02*
X2090033Y-6117084D01*
X2090033Y-6117084D02*
X2070986Y-6126608D01*
X2070986Y-6126608D02*
X2051938Y-6126608D01*
X2051938Y-6126608D02*
X2032890Y-6117084D01*
X2032890Y-6117084D02*
X2023367Y-6107560D01*
X2023367Y-6107560D02*
X2013843Y-6088513D01*
X2013843Y-6088513D02*
X2004319Y-6050418D01*
X2004319Y-6050418D02*
X2004319Y-6002799D01*
X2004319Y-6002799D02*
X2013843Y-5964703D01*
X2013843Y-5964703D02*
X2023367Y-5945656D01*
X2023367Y-5945656D02*
X2032890Y-5936132D01*
X2032890Y-5936132D02*
X2051938Y-5926608D01*
X2242414Y-5926608D02*
X2261462Y-5926608D01*
X2261462Y-5926608D02*
X2280510Y-5936132D01*
X2280510Y-5936132D02*
X2290033Y-5945656D01*
X2290033Y-5945656D02*
X2299557Y-5964703D01*
X2299557Y-5964703D02*
X2309081Y-6002799D01*
X2309081Y-6002799D02*
X2309081Y-6050418D01*
X2309081Y-6050418D02*
X2299557Y-6088513D01*
X2299557Y-6088513D02*
X2290033Y-6107560D01*
X2290033Y-6107560D02*
X2280510Y-6117084D01*
X2280510Y-6117084D02*
X2261462Y-6126608D01*
X2261462Y-6126608D02*
X2242414Y-6126608D01*
X2242414Y-6126608D02*
X2223367Y-6117084D01*
X2223367Y-6117084D02*
X2213843Y-6107560D01*
X2213843Y-6107560D02*
X2204319Y-6088513D01*
X2204319Y-6088513D02*
X2194795Y-6050418D01*
X2194795Y-6050418D02*
X2194795Y-6002799D01*
X2194795Y-6002799D02*
X2204319Y-5964703D01*
X2204319Y-5964703D02*
X2213843Y-5945656D01*
X2213843Y-5945656D02*
X2223367Y-5936132D01*
X2223367Y-5936132D02*
X2242414Y-5926608D01*
X2394795Y-6126608D02*
X2394795Y-5993275D01*
X2394795Y-6012322D02*
X2404319Y-6002799D01*
X2404319Y-6002799D02*
X2423367Y-5993275D01*
X2423367Y-5993275D02*
X2451938Y-5993275D01*
X2451938Y-5993275D02*
X2470986Y-6002799D01*
X2470986Y-6002799D02*
X2480510Y-6021846D01*
X2480510Y-6021846D02*
X2480510Y-6126608D01*
X2480510Y-6021846D02*
X2490033Y-6002799D01*
X2490033Y-6002799D02*
X2509081Y-5993275D01*
X2509081Y-5993275D02*
X2537652Y-5993275D01*
X2537652Y-5993275D02*
X2556700Y-6002799D01*
X2556700Y-6002799D02*
X2566224Y-6021846D01*
X2566224Y-6021846D02*
X2566224Y-6126608D01*
X2661462Y-6126608D02*
X2661462Y-5993275D01*
X2661462Y-6012322D02*
X2670986Y-6002799D01*
X2670986Y-6002799D02*
X2690033Y-5993275D01*
X2690033Y-5993275D02*
X2718605Y-5993275D01*
X2718605Y-5993275D02*
X2737653Y-6002799D01*
X2737653Y-6002799D02*
X2747176Y-6021846D01*
X2747176Y-6021846D02*
X2747176Y-6126608D01*
X2747176Y-6021846D02*
X2756700Y-6002799D01*
X2756700Y-6002799D02*
X2775748Y-5993275D01*
X2775748Y-5993275D02*
X2804319Y-5993275D01*
X2804319Y-5993275D02*
X2823367Y-6002799D01*
X2823367Y-6002799D02*
X2832891Y-6021846D01*
X2832891Y-6021846D02*
X2832891Y-6126608D01*
X3223367Y-5917084D02*
X3051938Y-6174227D01*
X3480510Y-5926608D02*
X3499557Y-5926608D01*
X3499557Y-5926608D02*
X3518605Y-5936132D01*
X3518605Y-5936132D02*
X3528129Y-5945656D01*
X3528129Y-5945656D02*
X3537653Y-5964703D01*
X3537653Y-5964703D02*
X3547176Y-6002799D01*
X3547176Y-6002799D02*
X3547176Y-6050418D01*
X3547176Y-6050418D02*
X3537653Y-6088513D01*
X3537653Y-6088513D02*
X3528129Y-6107560D01*
X3528129Y-6107560D02*
X3518605Y-6117084D01*
X3518605Y-6117084D02*
X3499557Y-6126608D01*
X3499557Y-6126608D02*
X3480510Y-6126608D01*
X3480510Y-6126608D02*
X3461462Y-6117084D01*
X3461462Y-6117084D02*
X3451938Y-6107560D01*
X3451938Y-6107560D02*
X3442414Y-6088513D01*
X3442414Y-6088513D02*
X3432891Y-6050418D01*
X3432891Y-6050418D02*
X3432891Y-6002799D01*
X3432891Y-6002799D02*
X3442414Y-5964703D01*
X3442414Y-5964703D02*
X3451938Y-5945656D01*
X3451938Y-5945656D02*
X3461462Y-5936132D01*
X3461462Y-5936132D02*
X3480510Y-5926608D01*
X3632891Y-6107560D02*
X3642414Y-6117084D01*
X3642414Y-6117084D02*
X3632891Y-6126608D01*
X3632891Y-6126608D02*
X3623367Y-6117084D01*
X3623367Y-6117084D02*
X3632891Y-6107560D01*
X3632891Y-6107560D02*
X3632891Y-6126608D01*
X3766224Y-5926608D02*
X3785272Y-5926608D01*
X3785272Y-5926608D02*
X3804319Y-5936132D01*
X3804319Y-5936132D02*
X3813843Y-5945656D01*
X3813843Y-5945656D02*
X3823367Y-5964703D01*
X3823367Y-5964703D02*
X3832891Y-6002799D01*
X3832891Y-6002799D02*
X3832891Y-6050418D01*
X3832891Y-6050418D02*
X3823367Y-6088513D01*
X3823367Y-6088513D02*
X3813843Y-6107560D01*
X3813843Y-6107560D02*
X3804319Y-6117084D01*
X3804319Y-6117084D02*
X3785272Y-6126608D01*
X3785272Y-6126608D02*
X3766224Y-6126608D01*
X3766224Y-6126608D02*
X3747176Y-6117084D01*
X3747176Y-6117084D02*
X3737653Y-6107560D01*
X3737653Y-6107560D02*
X3728129Y-6088513D01*
X3728129Y-6088513D02*
X3718605Y-6050418D01*
X3718605Y-6050418D02*
X3718605Y-6002799D01*
X3718605Y-6002799D02*
X3728129Y-5964703D01*
X3728129Y-5964703D02*
X3737653Y-5945656D01*
X3737653Y-5945656D02*
X3747176Y-5936132D01*
X3747176Y-5936132D02*
X3766224Y-5926608D01*
X3899557Y-5926608D02*
X4023367Y-5926608D01*
X4023367Y-5926608D02*
X3956700Y-6002799D01*
X3956700Y-6002799D02*
X3985272Y-6002799D01*
X3985272Y-6002799D02*
X4004319Y-6012322D01*
X4004319Y-6012322D02*
X4013843Y-6021846D01*
X4013843Y-6021846D02*
X4023367Y-6040894D01*
X4023367Y-6040894D02*
X4023367Y-6088513D01*
X4023367Y-6088513D02*
X4013843Y-6107560D01*
X4013843Y-6107560D02*
X4004319Y-6117084D01*
X4004319Y-6117084D02*
X3985272Y-6126608D01*
X3985272Y-6126608D02*
X3928129Y-6126608D01*
X3928129Y-6126608D02*
X3909081Y-6117084D01*
X3909081Y-6117084D02*
X3899557Y-6107560D01*
X4118605Y-6126608D02*
X4156700Y-6126608D01*
X4156700Y-6126608D02*
X4175748Y-6117084D01*
X4175748Y-6117084D02*
X4185272Y-6107560D01*
X4185272Y-6107560D02*
X4204319Y-6078989D01*
X4204319Y-6078989D02*
X4213843Y-6040894D01*
X4213843Y-6040894D02*
X4213843Y-5964703D01*
X4213843Y-5964703D02*
X4204319Y-5945656D01*
X4204319Y-5945656D02*
X4194796Y-5936132D01*
X4194796Y-5936132D02*
X4175748Y-5926608D01*
X4175748Y-5926608D02*
X4137653Y-5926608D01*
X4137653Y-5926608D02*
X4118605Y-5936132D01*
X4118605Y-5936132D02*
X4109081Y-5945656D01*
X4109081Y-5945656D02*
X4099557Y-5964703D01*
X4099557Y-5964703D02*
X4099557Y-6012322D01*
X4099557Y-6012322D02*
X4109081Y-6031370D01*
X4109081Y-6031370D02*
X4118605Y-6040894D01*
X4118605Y-6040894D02*
X4137653Y-6050418D01*
X4137653Y-6050418D02*
X4175748Y-6050418D01*
X4175748Y-6050418D02*
X4194796Y-6040894D01*
X4194796Y-6040894D02*
X4204319Y-6031370D01*
X4204319Y-6031370D02*
X4213843Y-6012322D01*
X4385272Y-5993275D02*
X4385272Y-6126608D01*
X4337653Y-5917084D02*
X4290034Y-6059941D01*
X4290034Y-6059941D02*
X4413843Y-6059941D01*
X4480510Y-5926608D02*
X4480510Y-5964703D01*
X4556700Y-5926608D02*
X4556700Y-5964703D01*
X4851939Y-6202799D02*
X4842415Y-6193275D01*
X4842415Y-6193275D02*
X4823367Y-6164703D01*
X4823367Y-6164703D02*
X4813843Y-6145656D01*
X4813843Y-6145656D02*
X4804319Y-6117084D01*
X4804319Y-6117084D02*
X4794796Y-6069465D01*
X4794796Y-6069465D02*
X4794796Y-6031370D01*
X4794796Y-6031370D02*
X4804319Y-5983751D01*
X4804319Y-5983751D02*
X4813843Y-5955180D01*
X4813843Y-5955180D02*
X4823367Y-5936132D01*
X4823367Y-5936132D02*
X4842415Y-5907560D01*
X4842415Y-5907560D02*
X4851939Y-5898037D01*
X5013843Y-5993275D02*
X5013843Y-6126608D01*
X4966224Y-5917084D02*
X4918605Y-6059941D01*
X4918605Y-6059941D02*
X5042415Y-6059941D01*
X5270986Y-6126608D02*
X5270986Y-5926608D01*
X5356700Y-6126608D02*
X5356700Y-6021846D01*
X5356700Y-6021846D02*
X5347177Y-6002799D01*
X5347177Y-6002799D02*
X5328129Y-5993275D01*
X5328129Y-5993275D02*
X5299558Y-5993275D01*
X5299558Y-5993275D02*
X5280510Y-6002799D01*
X5280510Y-6002799D02*
X5270986Y-6012322D01*
X5480510Y-6126608D02*
X5461462Y-6117084D01*
X5461462Y-6117084D02*
X5451939Y-6107560D01*
X5451939Y-6107560D02*
X5442415Y-6088513D01*
X5442415Y-6088513D02*
X5442415Y-6031370D01*
X5442415Y-6031370D02*
X5451939Y-6012322D01*
X5451939Y-6012322D02*
X5461462Y-6002799D01*
X5461462Y-6002799D02*
X5480510Y-5993275D01*
X5480510Y-5993275D02*
X5509081Y-5993275D01*
X5509081Y-5993275D02*
X5528129Y-6002799D01*
X5528129Y-6002799D02*
X5537653Y-6012322D01*
X5537653Y-6012322D02*
X5547177Y-6031370D01*
X5547177Y-6031370D02*
X5547177Y-6088513D01*
X5547177Y-6088513D02*
X5537653Y-6107560D01*
X5537653Y-6107560D02*
X5528129Y-6117084D01*
X5528129Y-6117084D02*
X5509081Y-6126608D01*
X5509081Y-6126608D02*
X5480510Y-6126608D01*
X5661462Y-6126608D02*
X5642415Y-6117084D01*
X5642415Y-6117084D02*
X5632891Y-6098037D01*
X5632891Y-6098037D02*
X5632891Y-5926608D01*
X5813843Y-6117084D02*
X5794796Y-6126608D01*
X5794796Y-6126608D02*
X5756700Y-6126608D01*
X5756700Y-6126608D02*
X5737653Y-6117084D01*
X5737653Y-6117084D02*
X5728129Y-6098037D01*
X5728129Y-6098037D02*
X5728129Y-6021846D01*
X5728129Y-6021846D02*
X5737653Y-6002799D01*
X5737653Y-6002799D02*
X5756700Y-5993275D01*
X5756700Y-5993275D02*
X5794796Y-5993275D01*
X5794796Y-5993275D02*
X5813843Y-6002799D01*
X5813843Y-6002799D02*
X5823367Y-6021846D01*
X5823367Y-6021846D02*
X5823367Y-6040894D01*
X5823367Y-6040894D02*
X5728129Y-6059941D01*
X5899558Y-6117084D02*
X5918605Y-6126608D01*
X5918605Y-6126608D02*
X5956700Y-6126608D01*
X5956700Y-6126608D02*
X5975748Y-6117084D01*
X5975748Y-6117084D02*
X5985272Y-6098037D01*
X5985272Y-6098037D02*
X5985272Y-6088513D01*
X5985272Y-6088513D02*
X5975748Y-6069465D01*
X5975748Y-6069465D02*
X5956700Y-6059941D01*
X5956700Y-6059941D02*
X5928129Y-6059941D01*
X5928129Y-6059941D02*
X5909081Y-6050418D01*
X5909081Y-6050418D02*
X5899558Y-6031370D01*
X5899558Y-6031370D02*
X5899558Y-6021846D01*
X5899558Y-6021846D02*
X5909081Y-6002799D01*
X5909081Y-6002799D02*
X5928129Y-5993275D01*
X5928129Y-5993275D02*
X5956700Y-5993275D01*
X5956700Y-5993275D02*
X5975748Y-6002799D01*
X6051939Y-6202799D02*
X6061462Y-6193275D01*
X6061462Y-6193275D02*
X6080510Y-6164703D01*
X6080510Y-6164703D02*
X6090034Y-6145656D01*
X6090034Y-6145656D02*
X6099558Y-6117084D01*
X6099558Y-6117084D02*
X6109081Y-6069465D01*
X6109081Y-6069465D02*
X6109081Y-6031370D01*
X6109081Y-6031370D02*
X6099558Y-5983751D01*
X6099558Y-5983751D02*
X6090034Y-5955180D01*
X6090034Y-5955180D02*
X6080510Y-5936132D01*
X6080510Y-5936132D02*
X6061462Y-5907560D01*
X6061462Y-5907560D02*
X6051939Y-5898037D01*
D13*
X1216876Y-6359124D02*
X1276876Y-6299124D01*
X1216876Y-6239124D01*
X1156876Y-6299124D01*
X1216876Y-6359124D01*
D11*
X1642414Y-6390608D02*
X1528129Y-6390608D01*
X1585271Y-6390608D02*
X1585271Y-6190608D01*
X1585271Y-6190608D02*
X1566224Y-6219180D01*
X1566224Y-6219180D02*
X1547176Y-6238227D01*
X1547176Y-6238227D02*
X1528129Y-6247751D01*
X1728129Y-6371560D02*
X1737652Y-6381084D01*
X1737652Y-6381084D02*
X1728129Y-6390608D01*
X1728129Y-6390608D02*
X1718605Y-6381084D01*
X1718605Y-6381084D02*
X1728129Y-6371560D01*
X1728129Y-6371560D02*
X1728129Y-6390608D01*
X1813843Y-6209656D02*
X1823367Y-6200132D01*
X1823367Y-6200132D02*
X1842414Y-6190608D01*
X1842414Y-6190608D02*
X1890033Y-6190608D01*
X1890033Y-6190608D02*
X1909081Y-6200132D01*
X1909081Y-6200132D02*
X1918605Y-6209656D01*
X1918605Y-6209656D02*
X1928129Y-6228703D01*
X1928129Y-6228703D02*
X1928129Y-6247751D01*
X1928129Y-6247751D02*
X1918605Y-6276322D01*
X1918605Y-6276322D02*
X1804319Y-6390608D01*
X1804319Y-6390608D02*
X1928129Y-6390608D01*
X2051938Y-6190608D02*
X2070986Y-6190608D01*
X2070986Y-6190608D02*
X2090033Y-6200132D01*
X2090033Y-6200132D02*
X2099557Y-6209656D01*
X2099557Y-6209656D02*
X2109081Y-6228703D01*
X2109081Y-6228703D02*
X2118605Y-6266799D01*
X2118605Y-6266799D02*
X2118605Y-6314418D01*
X2118605Y-6314418D02*
X2109081Y-6352513D01*
X2109081Y-6352513D02*
X2099557Y-6371560D01*
X2099557Y-6371560D02*
X2090033Y-6381084D01*
X2090033Y-6381084D02*
X2070986Y-6390608D01*
X2070986Y-6390608D02*
X2051938Y-6390608D01*
X2051938Y-6390608D02*
X2032890Y-6381084D01*
X2032890Y-6381084D02*
X2023367Y-6371560D01*
X2023367Y-6371560D02*
X2013843Y-6352513D01*
X2013843Y-6352513D02*
X2004319Y-6314418D01*
X2004319Y-6314418D02*
X2004319Y-6266799D01*
X2004319Y-6266799D02*
X2013843Y-6228703D01*
X2013843Y-6228703D02*
X2023367Y-6209656D01*
X2023367Y-6209656D02*
X2032890Y-6200132D01*
X2032890Y-6200132D02*
X2051938Y-6190608D01*
X2242414Y-6190608D02*
X2261462Y-6190608D01*
X2261462Y-6190608D02*
X2280510Y-6200132D01*
X2280510Y-6200132D02*
X2290033Y-6209656D01*
X2290033Y-6209656D02*
X2299557Y-6228703D01*
X2299557Y-6228703D02*
X2309081Y-6266799D01*
X2309081Y-6266799D02*
X2309081Y-6314418D01*
X2309081Y-6314418D02*
X2299557Y-6352513D01*
X2299557Y-6352513D02*
X2290033Y-6371560D01*
X2290033Y-6371560D02*
X2280510Y-6381084D01*
X2280510Y-6381084D02*
X2261462Y-6390608D01*
X2261462Y-6390608D02*
X2242414Y-6390608D01*
X2242414Y-6390608D02*
X2223367Y-6381084D01*
X2223367Y-6381084D02*
X2213843Y-6371560D01*
X2213843Y-6371560D02*
X2204319Y-6352513D01*
X2204319Y-6352513D02*
X2194795Y-6314418D01*
X2194795Y-6314418D02*
X2194795Y-6266799D01*
X2194795Y-6266799D02*
X2204319Y-6228703D01*
X2204319Y-6228703D02*
X2213843Y-6209656D01*
X2213843Y-6209656D02*
X2223367Y-6200132D01*
X2223367Y-6200132D02*
X2242414Y-6190608D01*
X2394795Y-6390608D02*
X2394795Y-6257275D01*
X2394795Y-6276322D02*
X2404319Y-6266799D01*
X2404319Y-6266799D02*
X2423367Y-6257275D01*
X2423367Y-6257275D02*
X2451938Y-6257275D01*
X2451938Y-6257275D02*
X2470986Y-6266799D01*
X2470986Y-6266799D02*
X2480510Y-6285846D01*
X2480510Y-6285846D02*
X2480510Y-6390608D01*
X2480510Y-6285846D02*
X2490033Y-6266799D01*
X2490033Y-6266799D02*
X2509081Y-6257275D01*
X2509081Y-6257275D02*
X2537652Y-6257275D01*
X2537652Y-6257275D02*
X2556700Y-6266799D01*
X2556700Y-6266799D02*
X2566224Y-6285846D01*
X2566224Y-6285846D02*
X2566224Y-6390608D01*
X2661462Y-6390608D02*
X2661462Y-6257275D01*
X2661462Y-6276322D02*
X2670986Y-6266799D01*
X2670986Y-6266799D02*
X2690033Y-6257275D01*
X2690033Y-6257275D02*
X2718605Y-6257275D01*
X2718605Y-6257275D02*
X2737653Y-6266799D01*
X2737653Y-6266799D02*
X2747176Y-6285846D01*
X2747176Y-6285846D02*
X2747176Y-6390608D01*
X2747176Y-6285846D02*
X2756700Y-6266799D01*
X2756700Y-6266799D02*
X2775748Y-6257275D01*
X2775748Y-6257275D02*
X2804319Y-6257275D01*
X2804319Y-6257275D02*
X2823367Y-6266799D01*
X2823367Y-6266799D02*
X2832891Y-6285846D01*
X2832891Y-6285846D02*
X2832891Y-6390608D01*
X3223367Y-6181084D02*
X3051938Y-6438227D01*
X3480510Y-6190608D02*
X3499557Y-6190608D01*
X3499557Y-6190608D02*
X3518605Y-6200132D01*
X3518605Y-6200132D02*
X3528129Y-6209656D01*
X3528129Y-6209656D02*
X3537653Y-6228703D01*
X3537653Y-6228703D02*
X3547176Y-6266799D01*
X3547176Y-6266799D02*
X3547176Y-6314418D01*
X3547176Y-6314418D02*
X3537653Y-6352513D01*
X3537653Y-6352513D02*
X3528129Y-6371560D01*
X3528129Y-6371560D02*
X3518605Y-6381084D01*
X3518605Y-6381084D02*
X3499557Y-6390608D01*
X3499557Y-6390608D02*
X3480510Y-6390608D01*
X3480510Y-6390608D02*
X3461462Y-6381084D01*
X3461462Y-6381084D02*
X3451938Y-6371560D01*
X3451938Y-6371560D02*
X3442414Y-6352513D01*
X3442414Y-6352513D02*
X3432891Y-6314418D01*
X3432891Y-6314418D02*
X3432891Y-6266799D01*
X3432891Y-6266799D02*
X3442414Y-6228703D01*
X3442414Y-6228703D02*
X3451938Y-6209656D01*
X3451938Y-6209656D02*
X3461462Y-6200132D01*
X3461462Y-6200132D02*
X3480510Y-6190608D01*
X3632891Y-6371560D02*
X3642414Y-6381084D01*
X3642414Y-6381084D02*
X3632891Y-6390608D01*
X3632891Y-6390608D02*
X3623367Y-6381084D01*
X3623367Y-6381084D02*
X3632891Y-6371560D01*
X3632891Y-6371560D02*
X3632891Y-6390608D01*
X3766224Y-6190608D02*
X3785272Y-6190608D01*
X3785272Y-6190608D02*
X3804319Y-6200132D01*
X3804319Y-6200132D02*
X3813843Y-6209656D01*
X3813843Y-6209656D02*
X3823367Y-6228703D01*
X3823367Y-6228703D02*
X3832891Y-6266799D01*
X3832891Y-6266799D02*
X3832891Y-6314418D01*
X3832891Y-6314418D02*
X3823367Y-6352513D01*
X3823367Y-6352513D02*
X3813843Y-6371560D01*
X3813843Y-6371560D02*
X3804319Y-6381084D01*
X3804319Y-6381084D02*
X3785272Y-6390608D01*
X3785272Y-6390608D02*
X3766224Y-6390608D01*
X3766224Y-6390608D02*
X3747176Y-6381084D01*
X3747176Y-6381084D02*
X3737653Y-6371560D01*
X3737653Y-6371560D02*
X3728129Y-6352513D01*
X3728129Y-6352513D02*
X3718605Y-6314418D01*
X3718605Y-6314418D02*
X3718605Y-6266799D01*
X3718605Y-6266799D02*
X3728129Y-6228703D01*
X3728129Y-6228703D02*
X3737653Y-6209656D01*
X3737653Y-6209656D02*
X3747176Y-6200132D01*
X3747176Y-6200132D02*
X3766224Y-6190608D01*
X4004319Y-6257275D02*
X4004319Y-6390608D01*
X3956700Y-6181084D02*
X3909081Y-6323941D01*
X3909081Y-6323941D02*
X4032891Y-6323941D01*
X4090034Y-6190608D02*
X4223367Y-6190608D01*
X4223367Y-6190608D02*
X4137653Y-6390608D01*
X4290034Y-6209656D02*
X4299557Y-6200132D01*
X4299557Y-6200132D02*
X4318605Y-6190608D01*
X4318605Y-6190608D02*
X4366224Y-6190608D01*
X4366224Y-6190608D02*
X4385272Y-6200132D01*
X4385272Y-6200132D02*
X4394796Y-6209656D01*
X4394796Y-6209656D02*
X4404319Y-6228703D01*
X4404319Y-6228703D02*
X4404319Y-6247751D01*
X4404319Y-6247751D02*
X4394796Y-6276322D01*
X4394796Y-6276322D02*
X4280510Y-6390608D01*
X4280510Y-6390608D02*
X4404319Y-6390608D01*
X4480510Y-6190608D02*
X4480510Y-6228703D01*
X4556700Y-6190608D02*
X4556700Y-6228703D01*
X4851939Y-6466799D02*
X4842415Y-6457275D01*
X4842415Y-6457275D02*
X4823367Y-6428703D01*
X4823367Y-6428703D02*
X4813843Y-6409656D01*
X4813843Y-6409656D02*
X4804319Y-6381084D01*
X4804319Y-6381084D02*
X4794796Y-6333465D01*
X4794796Y-6333465D02*
X4794796Y-6295370D01*
X4794796Y-6295370D02*
X4804319Y-6247751D01*
X4804319Y-6247751D02*
X4813843Y-6219180D01*
X4813843Y-6219180D02*
X4823367Y-6200132D01*
X4823367Y-6200132D02*
X4842415Y-6171560D01*
X4842415Y-6171560D02*
X4851939Y-6162037D01*
X5023367Y-6190608D02*
X4928129Y-6190608D01*
X4928129Y-6190608D02*
X4918605Y-6285846D01*
X4918605Y-6285846D02*
X4928129Y-6276322D01*
X4928129Y-6276322D02*
X4947177Y-6266799D01*
X4947177Y-6266799D02*
X4994796Y-6266799D01*
X4994796Y-6266799D02*
X5013843Y-6276322D01*
X5013843Y-6276322D02*
X5023367Y-6285846D01*
X5023367Y-6285846D02*
X5032891Y-6304894D01*
X5032891Y-6304894D02*
X5032891Y-6352513D01*
X5032891Y-6352513D02*
X5023367Y-6371560D01*
X5023367Y-6371560D02*
X5013843Y-6381084D01*
X5013843Y-6381084D02*
X4994796Y-6390608D01*
X4994796Y-6390608D02*
X4947177Y-6390608D01*
X4947177Y-6390608D02*
X4928129Y-6381084D01*
X4928129Y-6381084D02*
X4918605Y-6371560D01*
X5270986Y-6390608D02*
X5270986Y-6190608D01*
X5356700Y-6390608D02*
X5356700Y-6285846D01*
X5356700Y-6285846D02*
X5347177Y-6266799D01*
X5347177Y-6266799D02*
X5328129Y-6257275D01*
X5328129Y-6257275D02*
X5299558Y-6257275D01*
X5299558Y-6257275D02*
X5280510Y-6266799D01*
X5280510Y-6266799D02*
X5270986Y-6276322D01*
X5480510Y-6390608D02*
X5461462Y-6381084D01*
X5461462Y-6381084D02*
X5451939Y-6371560D01*
X5451939Y-6371560D02*
X5442415Y-6352513D01*
X5442415Y-6352513D02*
X5442415Y-6295370D01*
X5442415Y-6295370D02*
X5451939Y-6276322D01*
X5451939Y-6276322D02*
X5461462Y-6266799D01*
X5461462Y-6266799D02*
X5480510Y-6257275D01*
X5480510Y-6257275D02*
X5509081Y-6257275D01*
X5509081Y-6257275D02*
X5528129Y-6266799D01*
X5528129Y-6266799D02*
X5537653Y-6276322D01*
X5537653Y-6276322D02*
X5547177Y-6295370D01*
X5547177Y-6295370D02*
X5547177Y-6352513D01*
X5547177Y-6352513D02*
X5537653Y-6371560D01*
X5537653Y-6371560D02*
X5528129Y-6381084D01*
X5528129Y-6381084D02*
X5509081Y-6390608D01*
X5509081Y-6390608D02*
X5480510Y-6390608D01*
X5661462Y-6390608D02*
X5642415Y-6381084D01*
X5642415Y-6381084D02*
X5632891Y-6362037D01*
X5632891Y-6362037D02*
X5632891Y-6190608D01*
X5813843Y-6381084D02*
X5794796Y-6390608D01*
X5794796Y-6390608D02*
X5756700Y-6390608D01*
X5756700Y-6390608D02*
X5737653Y-6381084D01*
X5737653Y-6381084D02*
X5728129Y-6362037D01*
X5728129Y-6362037D02*
X5728129Y-6285846D01*
X5728129Y-6285846D02*
X5737653Y-6266799D01*
X5737653Y-6266799D02*
X5756700Y-6257275D01*
X5756700Y-6257275D02*
X5794796Y-6257275D01*
X5794796Y-6257275D02*
X5813843Y-6266799D01*
X5813843Y-6266799D02*
X5823367Y-6285846D01*
X5823367Y-6285846D02*
X5823367Y-6304894D01*
X5823367Y-6304894D02*
X5728129Y-6323941D01*
X5899558Y-6381084D02*
X5918605Y-6390608D01*
X5918605Y-6390608D02*
X5956700Y-6390608D01*
X5956700Y-6390608D02*
X5975748Y-6381084D01*
X5975748Y-6381084D02*
X5985272Y-6362037D01*
X5985272Y-6362037D02*
X5985272Y-6352513D01*
X5985272Y-6352513D02*
X5975748Y-6333465D01*
X5975748Y-6333465D02*
X5956700Y-6323941D01*
X5956700Y-6323941D02*
X5928129Y-6323941D01*
X5928129Y-6323941D02*
X5909081Y-6314418D01*
X5909081Y-6314418D02*
X5899558Y-6295370D01*
X5899558Y-6295370D02*
X5899558Y-6285846D01*
X5899558Y-6285846D02*
X5909081Y-6266799D01*
X5909081Y-6266799D02*
X5928129Y-6257275D01*
X5928129Y-6257275D02*
X5956700Y-6257275D01*
X5956700Y-6257275D02*
X5975748Y-6266799D01*
X6051939Y-6466799D02*
X6061462Y-6457275D01*
X6061462Y-6457275D02*
X6080510Y-6428703D01*
X6080510Y-6428703D02*
X6090034Y-6409656D01*
X6090034Y-6409656D02*
X6099558Y-6381084D01*
X6099558Y-6381084D02*
X6109081Y-6333465D01*
X6109081Y-6333465D02*
X6109081Y-6295370D01*
X6109081Y-6295370D02*
X6099558Y-6247751D01*
X6099558Y-6247751D02*
X6090034Y-6219180D01*
X6090034Y-6219180D02*
X6080510Y-6200132D01*
X6080510Y-6200132D02*
X6061462Y-6171560D01*
X6061462Y-6171560D02*
X6051939Y-6162037D01*
X6413843Y-6466799D02*
X6404319Y-6457275D01*
X6404319Y-6457275D02*
X6385272Y-6428703D01*
X6385272Y-6428703D02*
X6375748Y-6409656D01*
X6375748Y-6409656D02*
X6366224Y-6381084D01*
X6366224Y-6381084D02*
X6356700Y-6333465D01*
X6356700Y-6333465D02*
X6356700Y-6295370D01*
X6356700Y-6295370D02*
X6366224Y-6247751D01*
X6366224Y-6247751D02*
X6375748Y-6219180D01*
X6375748Y-6219180D02*
X6385272Y-6200132D01*
X6385272Y-6200132D02*
X6404319Y-6171560D01*
X6404319Y-6171560D02*
X6413843Y-6162037D01*
X6490034Y-6257275D02*
X6490034Y-6390608D01*
X6490034Y-6276322D02*
X6499558Y-6266799D01*
X6499558Y-6266799D02*
X6518605Y-6257275D01*
X6518605Y-6257275D02*
X6547177Y-6257275D01*
X6547177Y-6257275D02*
X6566224Y-6266799D01*
X6566224Y-6266799D02*
X6575748Y-6285846D01*
X6575748Y-6285846D02*
X6575748Y-6390608D01*
X6699558Y-6390608D02*
X6680510Y-6381084D01*
X6680510Y-6381084D02*
X6670986Y-6371560D01*
X6670986Y-6371560D02*
X6661462Y-6352513D01*
X6661462Y-6352513D02*
X6661462Y-6295370D01*
X6661462Y-6295370D02*
X6670986Y-6276322D01*
X6670986Y-6276322D02*
X6680510Y-6266799D01*
X6680510Y-6266799D02*
X6699558Y-6257275D01*
X6699558Y-6257275D02*
X6728129Y-6257275D01*
X6728129Y-6257275D02*
X6747177Y-6266799D01*
X6747177Y-6266799D02*
X6756700Y-6276322D01*
X6756700Y-6276322D02*
X6766224Y-6295370D01*
X6766224Y-6295370D02*
X6766224Y-6352513D01*
X6766224Y-6352513D02*
X6756700Y-6371560D01*
X6756700Y-6371560D02*
X6747177Y-6381084D01*
X6747177Y-6381084D02*
X6728129Y-6390608D01*
X6728129Y-6390608D02*
X6699558Y-6390608D01*
X6823367Y-6257275D02*
X6899558Y-6257275D01*
X6851939Y-6190608D02*
X6851939Y-6362037D01*
X6851939Y-6362037D02*
X6861462Y-6381084D01*
X6861462Y-6381084D02*
X6880510Y-6390608D01*
X6880510Y-6390608D02*
X6899558Y-6390608D01*
X7118605Y-6257275D02*
X7118605Y-6457275D01*
X7118605Y-6266799D02*
X7137653Y-6257275D01*
X7137653Y-6257275D02*
X7175748Y-6257275D01*
X7175748Y-6257275D02*
X7194796Y-6266799D01*
X7194796Y-6266799D02*
X7204320Y-6276322D01*
X7204320Y-6276322D02*
X7213843Y-6295370D01*
X7213843Y-6295370D02*
X7213843Y-6352513D01*
X7213843Y-6352513D02*
X7204320Y-6371560D01*
X7204320Y-6371560D02*
X7194796Y-6381084D01*
X7194796Y-6381084D02*
X7175748Y-6390608D01*
X7175748Y-6390608D02*
X7137653Y-6390608D01*
X7137653Y-6390608D02*
X7118605Y-6381084D01*
X7328129Y-6390608D02*
X7309081Y-6381084D01*
X7309081Y-6381084D02*
X7299558Y-6362037D01*
X7299558Y-6362037D02*
X7299558Y-6190608D01*
X7490034Y-6390608D02*
X7490034Y-6285846D01*
X7490034Y-6285846D02*
X7480510Y-6266799D01*
X7480510Y-6266799D02*
X7461462Y-6257275D01*
X7461462Y-6257275D02*
X7423367Y-6257275D01*
X7423367Y-6257275D02*
X7404320Y-6266799D01*
X7490034Y-6381084D02*
X7470986Y-6390608D01*
X7470986Y-6390608D02*
X7423367Y-6390608D01*
X7423367Y-6390608D02*
X7404320Y-6381084D01*
X7404320Y-6381084D02*
X7394796Y-6362037D01*
X7394796Y-6362037D02*
X7394796Y-6342989D01*
X7394796Y-6342989D02*
X7404320Y-6323941D01*
X7404320Y-6323941D02*
X7423367Y-6314418D01*
X7423367Y-6314418D02*
X7470986Y-6314418D01*
X7470986Y-6314418D02*
X7490034Y-6304894D01*
X7556701Y-6257275D02*
X7632891Y-6257275D01*
X7585272Y-6190608D02*
X7585272Y-6362037D01*
X7585272Y-6362037D02*
X7594796Y-6381084D01*
X7594796Y-6381084D02*
X7613843Y-6390608D01*
X7613843Y-6390608D02*
X7632891Y-6390608D01*
X7775748Y-6381084D02*
X7756701Y-6390608D01*
X7756701Y-6390608D02*
X7718605Y-6390608D01*
X7718605Y-6390608D02*
X7699558Y-6381084D01*
X7699558Y-6381084D02*
X7690034Y-6362037D01*
X7690034Y-6362037D02*
X7690034Y-6285846D01*
X7690034Y-6285846D02*
X7699558Y-6266799D01*
X7699558Y-6266799D02*
X7718605Y-6257275D01*
X7718605Y-6257275D02*
X7756701Y-6257275D01*
X7756701Y-6257275D02*
X7775748Y-6266799D01*
X7775748Y-6266799D02*
X7785272Y-6285846D01*
X7785272Y-6285846D02*
X7785272Y-6304894D01*
X7785272Y-6304894D02*
X7690034Y-6323941D01*
X7956701Y-6390608D02*
X7956701Y-6190608D01*
X7956701Y-6381084D02*
X7937653Y-6390608D01*
X7937653Y-6390608D02*
X7899558Y-6390608D01*
X7899558Y-6390608D02*
X7880510Y-6381084D01*
X7880510Y-6381084D02*
X7870986Y-6371560D01*
X7870986Y-6371560D02*
X7861462Y-6352513D01*
X7861462Y-6352513D02*
X7861462Y-6295370D01*
X7861462Y-6295370D02*
X7870986Y-6276322D01*
X7870986Y-6276322D02*
X7880510Y-6266799D01*
X7880510Y-6266799D02*
X7899558Y-6257275D01*
X7899558Y-6257275D02*
X7937653Y-6257275D01*
X7937653Y-6257275D02*
X7956701Y-6266799D01*
X8032891Y-6466799D02*
X8042415Y-6457275D01*
X8042415Y-6457275D02*
X8061462Y-6428703D01*
X8061462Y-6428703D02*
X8070986Y-6409656D01*
X8070986Y-6409656D02*
X8080510Y-6381084D01*
X8080510Y-6381084D02*
X8090034Y-6333465D01*
X8090034Y-6333465D02*
X8090034Y-6295370D01*
X8090034Y-6295370D02*
X8080510Y-6247751D01*
X8080510Y-6247751D02*
X8070986Y-6219180D01*
X8070986Y-6219180D02*
X8061462Y-6200132D01*
X8061462Y-6200132D02*
X8042415Y-6171560D01*
X8042415Y-6171560D02*
X8032891Y-6162037D01*
M02*
