%TF.GenerationSoftware,KiCad,Pcbnew,10.0.0*%
%TF.CreationDate,2026-05-09T16:01:15+03:00*%
%TF.ProjectId,EMG_v4,454d475f-7634-42e6-9b69-6361645f7063,rev?*%
%TF.SameCoordinates,Original*%
%TF.FileFunction,Legend,Top*%
%TF.FilePolarity,Positive*%
%FSLAX46Y46*%
G04 Gerber Fmt 4.6, Leading zero omitted, Abs format (unit mm)*
G04 Created by KiCad (PCBNEW 10.0.0) date 2026-05-09 16:01:15*
%MOMM*%
%LPD*%
G01*
G04 APERTURE LIST*
%ADD10C,0.100000*%
%ADD11C,0.150000*%
%ADD12C,0.125000*%
%ADD13C,0.120000*%
G04 APERTURE END LIST*
D10*
X20851503Y-35171704D02*
X20922931Y-35195514D01*
X20922931Y-35195514D02*
X20946741Y-35219323D01*
X20946741Y-35219323D02*
X20970550Y-35266942D01*
X20970550Y-35266942D02*
X20970550Y-35338371D01*
X20970550Y-35338371D02*
X20946741Y-35385990D01*
X20946741Y-35385990D02*
X20922931Y-35409800D01*
X20922931Y-35409800D02*
X20875312Y-35433609D01*
X20875312Y-35433609D02*
X20684836Y-35433609D01*
X20684836Y-35433609D02*
X20684836Y-34933609D01*
X20684836Y-34933609D02*
X20851503Y-34933609D01*
X20851503Y-34933609D02*
X20899122Y-34957419D01*
X20899122Y-34957419D02*
X20922931Y-34981228D01*
X20922931Y-34981228D02*
X20946741Y-35028847D01*
X20946741Y-35028847D02*
X20946741Y-35076466D01*
X20946741Y-35076466D02*
X20922931Y-35124085D01*
X20922931Y-35124085D02*
X20899122Y-35147895D01*
X20899122Y-35147895D02*
X20851503Y-35171704D01*
X20851503Y-35171704D02*
X20684836Y-35171704D01*
X21256265Y-35433609D02*
X21208646Y-35409800D01*
X21208646Y-35409800D02*
X21184836Y-35385990D01*
X21184836Y-35385990D02*
X21161027Y-35338371D01*
X21161027Y-35338371D02*
X21161027Y-35195514D01*
X21161027Y-35195514D02*
X21184836Y-35147895D01*
X21184836Y-35147895D02*
X21208646Y-35124085D01*
X21208646Y-35124085D02*
X21256265Y-35100276D01*
X21256265Y-35100276D02*
X21327693Y-35100276D01*
X21327693Y-35100276D02*
X21375312Y-35124085D01*
X21375312Y-35124085D02*
X21399122Y-35147895D01*
X21399122Y-35147895D02*
X21422931Y-35195514D01*
X21422931Y-35195514D02*
X21422931Y-35338371D01*
X21422931Y-35338371D02*
X21399122Y-35385990D01*
X21399122Y-35385990D02*
X21375312Y-35409800D01*
X21375312Y-35409800D02*
X21327693Y-35433609D01*
X21327693Y-35433609D02*
X21256265Y-35433609D01*
X21851503Y-35433609D02*
X21851503Y-34933609D01*
X21851503Y-35409800D02*
X21803884Y-35433609D01*
X21803884Y-35433609D02*
X21708646Y-35433609D01*
X21708646Y-35433609D02*
X21661027Y-35409800D01*
X21661027Y-35409800D02*
X21637217Y-35385990D01*
X21637217Y-35385990D02*
X21613408Y-35338371D01*
X21613408Y-35338371D02*
X21613408Y-35195514D01*
X21613408Y-35195514D02*
X21637217Y-35147895D01*
X21637217Y-35147895D02*
X21661027Y-35124085D01*
X21661027Y-35124085D02*
X21708646Y-35100276D01*
X21708646Y-35100276D02*
X21803884Y-35100276D01*
X21803884Y-35100276D02*
X21851503Y-35124085D01*
X22041979Y-35100276D02*
X22161027Y-35433609D01*
X22280074Y-35100276D02*
X22161027Y-35433609D01*
X22161027Y-35433609D02*
X22113408Y-35552657D01*
X22113408Y-35552657D02*
X22089598Y-35576466D01*
X22089598Y-35576466D02*
X22041979Y-35600276D01*
X23137216Y-35433609D02*
X22970550Y-35195514D01*
X22851502Y-35433609D02*
X22851502Y-34933609D01*
X22851502Y-34933609D02*
X23041978Y-34933609D01*
X23041978Y-34933609D02*
X23089597Y-34957419D01*
X23089597Y-34957419D02*
X23113407Y-34981228D01*
X23113407Y-34981228D02*
X23137216Y-35028847D01*
X23137216Y-35028847D02*
X23137216Y-35100276D01*
X23137216Y-35100276D02*
X23113407Y-35147895D01*
X23113407Y-35147895D02*
X23089597Y-35171704D01*
X23089597Y-35171704D02*
X23041978Y-35195514D01*
X23041978Y-35195514D02*
X22851502Y-35195514D01*
X23541978Y-35409800D02*
X23494359Y-35433609D01*
X23494359Y-35433609D02*
X23399121Y-35433609D01*
X23399121Y-35433609D02*
X23351502Y-35409800D01*
X23351502Y-35409800D02*
X23327693Y-35362180D01*
X23327693Y-35362180D02*
X23327693Y-35171704D01*
X23327693Y-35171704D02*
X23351502Y-35124085D01*
X23351502Y-35124085D02*
X23399121Y-35100276D01*
X23399121Y-35100276D02*
X23494359Y-35100276D01*
X23494359Y-35100276D02*
X23541978Y-35124085D01*
X23541978Y-35124085D02*
X23565788Y-35171704D01*
X23565788Y-35171704D02*
X23565788Y-35219323D01*
X23565788Y-35219323D02*
X23327693Y-35266942D01*
X23708645Y-35100276D02*
X23899121Y-35100276D01*
X23780073Y-35433609D02*
X23780073Y-35005038D01*
X23780073Y-35005038D02*
X23803883Y-34957419D01*
X23803883Y-34957419D02*
X23851502Y-34933609D01*
X23851502Y-34933609D02*
X23899121Y-34933609D01*
X22184836Y-30433609D02*
X22184836Y-29933609D01*
X22422931Y-30433609D02*
X22422931Y-29933609D01*
X22422931Y-29933609D02*
X22708645Y-30433609D01*
X22708645Y-30433609D02*
X22708645Y-29933609D01*
X22946741Y-30243133D02*
X23327694Y-30243133D01*
X23137217Y-30433609D02*
X23137217Y-30052657D01*
X22184836Y-32433609D02*
X22184836Y-31933609D01*
X22422931Y-32433609D02*
X22422931Y-31933609D01*
X22422931Y-31933609D02*
X22708645Y-32433609D01*
X22708645Y-32433609D02*
X22708645Y-31933609D01*
X22946741Y-32243133D02*
X23327694Y-32243133D01*
X83684836Y-22743133D02*
X84065789Y-22743133D01*
X83875312Y-22933609D02*
X83875312Y-22552657D01*
X84232456Y-22433609D02*
X84399122Y-22933609D01*
X84399122Y-22933609D02*
X84565789Y-22433609D01*
X85018169Y-22885990D02*
X84994360Y-22909800D01*
X84994360Y-22909800D02*
X84922931Y-22933609D01*
X84922931Y-22933609D02*
X84875312Y-22933609D01*
X84875312Y-22933609D02*
X84803884Y-22909800D01*
X84803884Y-22909800D02*
X84756265Y-22862180D01*
X84756265Y-22862180D02*
X84732455Y-22814561D01*
X84732455Y-22814561D02*
X84708646Y-22719323D01*
X84708646Y-22719323D02*
X84708646Y-22647895D01*
X84708646Y-22647895D02*
X84732455Y-22552657D01*
X84732455Y-22552657D02*
X84756265Y-22505038D01*
X84756265Y-22505038D02*
X84803884Y-22457419D01*
X84803884Y-22457419D02*
X84875312Y-22433609D01*
X84875312Y-22433609D02*
X84922931Y-22433609D01*
X84922931Y-22433609D02*
X84994360Y-22457419D01*
X84994360Y-22457419D02*
X85018169Y-22481228D01*
X85518169Y-22885990D02*
X85494360Y-22909800D01*
X85494360Y-22909800D02*
X85422931Y-22933609D01*
X85422931Y-22933609D02*
X85375312Y-22933609D01*
X85375312Y-22933609D02*
X85303884Y-22909800D01*
X85303884Y-22909800D02*
X85256265Y-22862180D01*
X85256265Y-22862180D02*
X85232455Y-22814561D01*
X85232455Y-22814561D02*
X85208646Y-22719323D01*
X85208646Y-22719323D02*
X85208646Y-22647895D01*
X85208646Y-22647895D02*
X85232455Y-22552657D01*
X85232455Y-22552657D02*
X85256265Y-22505038D01*
X85256265Y-22505038D02*
X85303884Y-22457419D01*
X85303884Y-22457419D02*
X85375312Y-22433609D01*
X85375312Y-22433609D02*
X85422931Y-22433609D01*
X85422931Y-22433609D02*
X85494360Y-22457419D01*
X85494360Y-22457419D02*
X85518169Y-22481228D01*
X83780074Y-24933609D02*
X83875312Y-24933609D01*
X83875312Y-24933609D02*
X83922931Y-24957419D01*
X83922931Y-24957419D02*
X83970550Y-25005038D01*
X83970550Y-25005038D02*
X83994360Y-25100276D01*
X83994360Y-25100276D02*
X83994360Y-25266942D01*
X83994360Y-25266942D02*
X83970550Y-25362180D01*
X83970550Y-25362180D02*
X83922931Y-25409800D01*
X83922931Y-25409800D02*
X83875312Y-25433609D01*
X83875312Y-25433609D02*
X83780074Y-25433609D01*
X83780074Y-25433609D02*
X83732455Y-25409800D01*
X83732455Y-25409800D02*
X83684836Y-25362180D01*
X83684836Y-25362180D02*
X83661027Y-25266942D01*
X83661027Y-25266942D02*
X83661027Y-25100276D01*
X83661027Y-25100276D02*
X83684836Y-25005038D01*
X83684836Y-25005038D02*
X83732455Y-24957419D01*
X83732455Y-24957419D02*
X83780074Y-24933609D01*
X84208646Y-24933609D02*
X84208646Y-25338371D01*
X84208646Y-25338371D02*
X84232456Y-25385990D01*
X84232456Y-25385990D02*
X84256265Y-25409800D01*
X84256265Y-25409800D02*
X84303884Y-25433609D01*
X84303884Y-25433609D02*
X84399122Y-25433609D01*
X84399122Y-25433609D02*
X84446741Y-25409800D01*
X84446741Y-25409800D02*
X84470551Y-25385990D01*
X84470551Y-25385990D02*
X84494360Y-25338371D01*
X84494360Y-25338371D02*
X84494360Y-24933609D01*
X84661028Y-24933609D02*
X84946742Y-24933609D01*
X84803885Y-25433609D02*
X84803885Y-24933609D01*
X83613408Y-27433609D02*
X83780074Y-27933609D01*
X83780074Y-27933609D02*
X83946741Y-27433609D01*
X84399121Y-27933609D02*
X84232455Y-27695514D01*
X84113407Y-27933609D02*
X84113407Y-27433609D01*
X84113407Y-27433609D02*
X84303883Y-27433609D01*
X84303883Y-27433609D02*
X84351502Y-27457419D01*
X84351502Y-27457419D02*
X84375312Y-27481228D01*
X84375312Y-27481228D02*
X84399121Y-27528847D01*
X84399121Y-27528847D02*
X84399121Y-27600276D01*
X84399121Y-27600276D02*
X84375312Y-27647895D01*
X84375312Y-27647895D02*
X84351502Y-27671704D01*
X84351502Y-27671704D02*
X84303883Y-27695514D01*
X84303883Y-27695514D02*
X84113407Y-27695514D01*
X84803883Y-27909800D02*
X84756264Y-27933609D01*
X84756264Y-27933609D02*
X84661026Y-27933609D01*
X84661026Y-27933609D02*
X84613407Y-27909800D01*
X84613407Y-27909800D02*
X84589598Y-27862180D01*
X84589598Y-27862180D02*
X84589598Y-27671704D01*
X84589598Y-27671704D02*
X84613407Y-27624085D01*
X84613407Y-27624085D02*
X84661026Y-27600276D01*
X84661026Y-27600276D02*
X84756264Y-27600276D01*
X84756264Y-27600276D02*
X84803883Y-27624085D01*
X84803883Y-27624085D02*
X84827693Y-27671704D01*
X84827693Y-27671704D02*
X84827693Y-27719323D01*
X84827693Y-27719323D02*
X84589598Y-27766942D01*
X84970550Y-27600276D02*
X85161026Y-27600276D01*
X85041978Y-27933609D02*
X85041978Y-27505038D01*
X85041978Y-27505038D02*
X85065788Y-27457419D01*
X85065788Y-27457419D02*
X85113407Y-27433609D01*
X85113407Y-27433609D02*
X85161026Y-27433609D01*
X83946741Y-30457419D02*
X83899122Y-30433609D01*
X83899122Y-30433609D02*
X83827693Y-30433609D01*
X83827693Y-30433609D02*
X83756265Y-30457419D01*
X83756265Y-30457419D02*
X83708646Y-30505038D01*
X83708646Y-30505038D02*
X83684836Y-30552657D01*
X83684836Y-30552657D02*
X83661027Y-30647895D01*
X83661027Y-30647895D02*
X83661027Y-30719323D01*
X83661027Y-30719323D02*
X83684836Y-30814561D01*
X83684836Y-30814561D02*
X83708646Y-30862180D01*
X83708646Y-30862180D02*
X83756265Y-30909800D01*
X83756265Y-30909800D02*
X83827693Y-30933609D01*
X83827693Y-30933609D02*
X83875312Y-30933609D01*
X83875312Y-30933609D02*
X83946741Y-30909800D01*
X83946741Y-30909800D02*
X83970550Y-30885990D01*
X83970550Y-30885990D02*
X83970550Y-30719323D01*
X83970550Y-30719323D02*
X83875312Y-30719323D01*
X84184836Y-30933609D02*
X84184836Y-30433609D01*
X84184836Y-30433609D02*
X84470550Y-30933609D01*
X84470550Y-30933609D02*
X84470550Y-30433609D01*
X84708646Y-30933609D02*
X84708646Y-30433609D01*
X84708646Y-30433609D02*
X84827694Y-30433609D01*
X84827694Y-30433609D02*
X84899122Y-30457419D01*
X84899122Y-30457419D02*
X84946741Y-30505038D01*
X84946741Y-30505038D02*
X84970551Y-30552657D01*
X84970551Y-30552657D02*
X84994360Y-30647895D01*
X84994360Y-30647895D02*
X84994360Y-30719323D01*
X84994360Y-30719323D02*
X84970551Y-30814561D01*
X84970551Y-30814561D02*
X84946741Y-30862180D01*
X84946741Y-30862180D02*
X84899122Y-30909800D01*
X84899122Y-30909800D02*
X84827694Y-30933609D01*
X84827694Y-30933609D02*
X84708646Y-30933609D01*
D11*
X69523333Y-35954819D02*
X69190000Y-35478628D01*
X68951905Y-35954819D02*
X68951905Y-34954819D01*
X68951905Y-34954819D02*
X69332857Y-34954819D01*
X69332857Y-34954819D02*
X69428095Y-35002438D01*
X69428095Y-35002438D02*
X69475714Y-35050057D01*
X69475714Y-35050057D02*
X69523333Y-35145295D01*
X69523333Y-35145295D02*
X69523333Y-35288152D01*
X69523333Y-35288152D02*
X69475714Y-35383390D01*
X69475714Y-35383390D02*
X69428095Y-35431009D01*
X69428095Y-35431009D02*
X69332857Y-35478628D01*
X69332857Y-35478628D02*
X68951905Y-35478628D01*
X69856667Y-34954819D02*
X70475714Y-34954819D01*
X70475714Y-34954819D02*
X70142381Y-35335771D01*
X70142381Y-35335771D02*
X70285238Y-35335771D01*
X70285238Y-35335771D02*
X70380476Y-35383390D01*
X70380476Y-35383390D02*
X70428095Y-35431009D01*
X70428095Y-35431009D02*
X70475714Y-35526247D01*
X70475714Y-35526247D02*
X70475714Y-35764342D01*
X70475714Y-35764342D02*
X70428095Y-35859580D01*
X70428095Y-35859580D02*
X70380476Y-35907200D01*
X70380476Y-35907200D02*
X70285238Y-35954819D01*
X70285238Y-35954819D02*
X69999524Y-35954819D01*
X69999524Y-35954819D02*
X69904286Y-35907200D01*
X69904286Y-35907200D02*
X69856667Y-35859580D01*
X71954819Y-36095238D02*
X71954819Y-36666666D01*
X71954819Y-36380952D02*
X70954819Y-36380952D01*
X70954819Y-36380952D02*
X71097676Y-36476190D01*
X71097676Y-36476190D02*
X71192914Y-36571428D01*
X71192914Y-36571428D02*
X71240533Y-36666666D01*
X70954819Y-35476190D02*
X70954819Y-35380952D01*
X70954819Y-35380952D02*
X71002438Y-35285714D01*
X71002438Y-35285714D02*
X71050057Y-35238095D01*
X71050057Y-35238095D02*
X71145295Y-35190476D01*
X71145295Y-35190476D02*
X71335771Y-35142857D01*
X71335771Y-35142857D02*
X71573866Y-35142857D01*
X71573866Y-35142857D02*
X71764342Y-35190476D01*
X71764342Y-35190476D02*
X71859580Y-35238095D01*
X71859580Y-35238095D02*
X71907200Y-35285714D01*
X71907200Y-35285714D02*
X71954819Y-35380952D01*
X71954819Y-35380952D02*
X71954819Y-35476190D01*
X71954819Y-35476190D02*
X71907200Y-35571428D01*
X71907200Y-35571428D02*
X71859580Y-35619047D01*
X71859580Y-35619047D02*
X71764342Y-35666666D01*
X71764342Y-35666666D02*
X71573866Y-35714285D01*
X71573866Y-35714285D02*
X71335771Y-35714285D01*
X71335771Y-35714285D02*
X71145295Y-35666666D01*
X71145295Y-35666666D02*
X71050057Y-35619047D01*
X71050057Y-35619047D02*
X71002438Y-35571428D01*
X71002438Y-35571428D02*
X70954819Y-35476190D01*
X71954819Y-34714285D02*
X70954819Y-34714285D01*
X71573866Y-34619047D02*
X71954819Y-34333333D01*
X71288152Y-34333333D02*
X71669104Y-34714285D01*
X74833333Y-18454819D02*
X74500000Y-17978628D01*
X74261905Y-18454819D02*
X74261905Y-17454819D01*
X74261905Y-17454819D02*
X74642857Y-17454819D01*
X74642857Y-17454819D02*
X74738095Y-17502438D01*
X74738095Y-17502438D02*
X74785714Y-17550057D01*
X74785714Y-17550057D02*
X74833333Y-17645295D01*
X74833333Y-17645295D02*
X74833333Y-17788152D01*
X74833333Y-17788152D02*
X74785714Y-17883390D01*
X74785714Y-17883390D02*
X74738095Y-17931009D01*
X74738095Y-17931009D02*
X74642857Y-17978628D01*
X74642857Y-17978628D02*
X74261905Y-17978628D01*
X75404762Y-17883390D02*
X75309524Y-17835771D01*
X75309524Y-17835771D02*
X75261905Y-17788152D01*
X75261905Y-17788152D02*
X75214286Y-17692914D01*
X75214286Y-17692914D02*
X75214286Y-17645295D01*
X75214286Y-17645295D02*
X75261905Y-17550057D01*
X75261905Y-17550057D02*
X75309524Y-17502438D01*
X75309524Y-17502438D02*
X75404762Y-17454819D01*
X75404762Y-17454819D02*
X75595238Y-17454819D01*
X75595238Y-17454819D02*
X75690476Y-17502438D01*
X75690476Y-17502438D02*
X75738095Y-17550057D01*
X75738095Y-17550057D02*
X75785714Y-17645295D01*
X75785714Y-17645295D02*
X75785714Y-17692914D01*
X75785714Y-17692914D02*
X75738095Y-17788152D01*
X75738095Y-17788152D02*
X75690476Y-17835771D01*
X75690476Y-17835771D02*
X75595238Y-17883390D01*
X75595238Y-17883390D02*
X75404762Y-17883390D01*
X75404762Y-17883390D02*
X75309524Y-17931009D01*
X75309524Y-17931009D02*
X75261905Y-17978628D01*
X75261905Y-17978628D02*
X75214286Y-18073866D01*
X75214286Y-18073866D02*
X75214286Y-18264342D01*
X75214286Y-18264342D02*
X75261905Y-18359580D01*
X75261905Y-18359580D02*
X75309524Y-18407200D01*
X75309524Y-18407200D02*
X75404762Y-18454819D01*
X75404762Y-18454819D02*
X75595238Y-18454819D01*
X75595238Y-18454819D02*
X75690476Y-18407200D01*
X75690476Y-18407200D02*
X75738095Y-18359580D01*
X75738095Y-18359580D02*
X75785714Y-18264342D01*
X75785714Y-18264342D02*
X75785714Y-18073866D01*
X75785714Y-18073866D02*
X75738095Y-17978628D01*
X75738095Y-17978628D02*
X75690476Y-17931009D01*
X75690476Y-17931009D02*
X75595238Y-17883390D01*
X74880952Y-19954819D02*
X74309524Y-19954819D01*
X74595238Y-19954819D02*
X74595238Y-18954819D01*
X74595238Y-18954819D02*
X74500000Y-19097676D01*
X74500000Y-19097676D02*
X74404762Y-19192914D01*
X74404762Y-19192914D02*
X74309524Y-19240533D01*
X75309524Y-19954819D02*
X75309524Y-18954819D01*
X75404762Y-19573866D02*
X75690476Y-19954819D01*
X75690476Y-19288152D02*
X75309524Y-19669104D01*
X70833333Y-40359580D02*
X70785714Y-40407200D01*
X70785714Y-40407200D02*
X70642857Y-40454819D01*
X70642857Y-40454819D02*
X70547619Y-40454819D01*
X70547619Y-40454819D02*
X70404762Y-40407200D01*
X70404762Y-40407200D02*
X70309524Y-40311961D01*
X70309524Y-40311961D02*
X70261905Y-40216723D01*
X70261905Y-40216723D02*
X70214286Y-40026247D01*
X70214286Y-40026247D02*
X70214286Y-39883390D01*
X70214286Y-39883390D02*
X70261905Y-39692914D01*
X70261905Y-39692914D02*
X70309524Y-39597676D01*
X70309524Y-39597676D02*
X70404762Y-39502438D01*
X70404762Y-39502438D02*
X70547619Y-39454819D01*
X70547619Y-39454819D02*
X70642857Y-39454819D01*
X70642857Y-39454819D02*
X70785714Y-39502438D01*
X70785714Y-39502438D02*
X70833333Y-39550057D01*
X71738095Y-39454819D02*
X71261905Y-39454819D01*
X71261905Y-39454819D02*
X71214286Y-39931009D01*
X71214286Y-39931009D02*
X71261905Y-39883390D01*
X71261905Y-39883390D02*
X71357143Y-39835771D01*
X71357143Y-39835771D02*
X71595238Y-39835771D01*
X71595238Y-39835771D02*
X71690476Y-39883390D01*
X71690476Y-39883390D02*
X71738095Y-39931009D01*
X71738095Y-39931009D02*
X71785714Y-40026247D01*
X71785714Y-40026247D02*
X71785714Y-40264342D01*
X71785714Y-40264342D02*
X71738095Y-40359580D01*
X71738095Y-40359580D02*
X71690476Y-40407200D01*
X71690476Y-40407200D02*
X71595238Y-40454819D01*
X71595238Y-40454819D02*
X71357143Y-40454819D01*
X71357143Y-40454819D02*
X71261905Y-40407200D01*
X71261905Y-40407200D02*
X71214286Y-40359580D01*
D12*
X70226191Y-42724809D02*
X69940477Y-42724809D01*
X70083334Y-42724809D02*
X70083334Y-42224809D01*
X70083334Y-42224809D02*
X70035715Y-42296238D01*
X70035715Y-42296238D02*
X69988096Y-42343857D01*
X69988096Y-42343857D02*
X69940477Y-42367666D01*
X70535714Y-42224809D02*
X70583333Y-42224809D01*
X70583333Y-42224809D02*
X70630952Y-42248619D01*
X70630952Y-42248619D02*
X70654762Y-42272428D01*
X70654762Y-42272428D02*
X70678571Y-42320047D01*
X70678571Y-42320047D02*
X70702381Y-42415285D01*
X70702381Y-42415285D02*
X70702381Y-42534333D01*
X70702381Y-42534333D02*
X70678571Y-42629571D01*
X70678571Y-42629571D02*
X70654762Y-42677190D01*
X70654762Y-42677190D02*
X70630952Y-42701000D01*
X70630952Y-42701000D02*
X70583333Y-42724809D01*
X70583333Y-42724809D02*
X70535714Y-42724809D01*
X70535714Y-42724809D02*
X70488095Y-42701000D01*
X70488095Y-42701000D02*
X70464286Y-42677190D01*
X70464286Y-42677190D02*
X70440476Y-42629571D01*
X70440476Y-42629571D02*
X70416667Y-42534333D01*
X70416667Y-42534333D02*
X70416667Y-42415285D01*
X70416667Y-42415285D02*
X70440476Y-42320047D01*
X70440476Y-42320047D02*
X70464286Y-42272428D01*
X70464286Y-42272428D02*
X70488095Y-42248619D01*
X70488095Y-42248619D02*
X70535714Y-42224809D01*
X71011904Y-42224809D02*
X71059523Y-42224809D01*
X71059523Y-42224809D02*
X71107142Y-42248619D01*
X71107142Y-42248619D02*
X71130952Y-42272428D01*
X71130952Y-42272428D02*
X71154761Y-42320047D01*
X71154761Y-42320047D02*
X71178571Y-42415285D01*
X71178571Y-42415285D02*
X71178571Y-42534333D01*
X71178571Y-42534333D02*
X71154761Y-42629571D01*
X71154761Y-42629571D02*
X71130952Y-42677190D01*
X71130952Y-42677190D02*
X71107142Y-42701000D01*
X71107142Y-42701000D02*
X71059523Y-42724809D01*
X71059523Y-42724809D02*
X71011904Y-42724809D01*
X71011904Y-42724809D02*
X70964285Y-42701000D01*
X70964285Y-42701000D02*
X70940476Y-42677190D01*
X70940476Y-42677190D02*
X70916666Y-42629571D01*
X70916666Y-42629571D02*
X70892857Y-42534333D01*
X70892857Y-42534333D02*
X70892857Y-42415285D01*
X70892857Y-42415285D02*
X70916666Y-42320047D01*
X70916666Y-42320047D02*
X70940476Y-42272428D01*
X70940476Y-42272428D02*
X70964285Y-42248619D01*
X70964285Y-42248619D02*
X71011904Y-42224809D01*
X71392856Y-42391476D02*
X71392856Y-42724809D01*
X71392856Y-42439095D02*
X71416666Y-42415285D01*
X71416666Y-42415285D02*
X71464285Y-42391476D01*
X71464285Y-42391476D02*
X71535713Y-42391476D01*
X71535713Y-42391476D02*
X71583332Y-42415285D01*
X71583332Y-42415285D02*
X71607142Y-42462904D01*
X71607142Y-42462904D02*
X71607142Y-42724809D01*
X72011904Y-42462904D02*
X71845237Y-42462904D01*
X71845237Y-42724809D02*
X71845237Y-42224809D01*
X71845237Y-42224809D02*
X72083332Y-42224809D01*
X79773809Y-19177190D02*
X79750000Y-19201000D01*
X79750000Y-19201000D02*
X79678571Y-19224809D01*
X79678571Y-19224809D02*
X79630952Y-19224809D01*
X79630952Y-19224809D02*
X79559524Y-19201000D01*
X79559524Y-19201000D02*
X79511905Y-19153380D01*
X79511905Y-19153380D02*
X79488095Y-19105761D01*
X79488095Y-19105761D02*
X79464286Y-19010523D01*
X79464286Y-19010523D02*
X79464286Y-18939095D01*
X79464286Y-18939095D02*
X79488095Y-18843857D01*
X79488095Y-18843857D02*
X79511905Y-18796238D01*
X79511905Y-18796238D02*
X79559524Y-18748619D01*
X79559524Y-18748619D02*
X79630952Y-18724809D01*
X79630952Y-18724809D02*
X79678571Y-18724809D01*
X79678571Y-18724809D02*
X79750000Y-18748619D01*
X79750000Y-18748619D02*
X79773809Y-18772428D01*
X79916667Y-18891476D02*
X80107143Y-18891476D01*
X79988095Y-19224809D02*
X79988095Y-18796238D01*
X79988095Y-18796238D02*
X80011905Y-18748619D01*
X80011905Y-18748619D02*
X80059524Y-18724809D01*
X80059524Y-18724809D02*
X80107143Y-18724809D01*
X80250000Y-18772428D02*
X80273809Y-18748619D01*
X80273809Y-18748619D02*
X80321428Y-18724809D01*
X80321428Y-18724809D02*
X80440476Y-18724809D01*
X80440476Y-18724809D02*
X80488095Y-18748619D01*
X80488095Y-18748619D02*
X80511904Y-18772428D01*
X80511904Y-18772428D02*
X80535714Y-18820047D01*
X80535714Y-18820047D02*
X80535714Y-18867666D01*
X80535714Y-18867666D02*
X80511904Y-18939095D01*
X80511904Y-18939095D02*
X80226190Y-19224809D01*
X80226190Y-19224809D02*
X80535714Y-19224809D01*
X84224809Y-20083332D02*
X84224809Y-19773808D01*
X84224809Y-19773808D02*
X84415285Y-19940475D01*
X84415285Y-19940475D02*
X84415285Y-19869046D01*
X84415285Y-19869046D02*
X84439095Y-19821427D01*
X84439095Y-19821427D02*
X84462904Y-19797618D01*
X84462904Y-19797618D02*
X84510523Y-19773808D01*
X84510523Y-19773808D02*
X84629571Y-19773808D01*
X84629571Y-19773808D02*
X84677190Y-19797618D01*
X84677190Y-19797618D02*
X84701000Y-19821427D01*
X84701000Y-19821427D02*
X84724809Y-19869046D01*
X84724809Y-19869046D02*
X84724809Y-20011903D01*
X84724809Y-20011903D02*
X84701000Y-20059522D01*
X84701000Y-20059522D02*
X84677190Y-20083332D01*
X84224809Y-19607142D02*
X84224809Y-19297618D01*
X84224809Y-19297618D02*
X84415285Y-19464285D01*
X84415285Y-19464285D02*
X84415285Y-19392856D01*
X84415285Y-19392856D02*
X84439095Y-19345237D01*
X84439095Y-19345237D02*
X84462904Y-19321428D01*
X84462904Y-19321428D02*
X84510523Y-19297618D01*
X84510523Y-19297618D02*
X84629571Y-19297618D01*
X84629571Y-19297618D02*
X84677190Y-19321428D01*
X84677190Y-19321428D02*
X84701000Y-19345237D01*
X84701000Y-19345237D02*
X84724809Y-19392856D01*
X84724809Y-19392856D02*
X84724809Y-19535713D01*
X84724809Y-19535713D02*
X84701000Y-19583332D01*
X84701000Y-19583332D02*
X84677190Y-19607142D01*
X84224809Y-18988095D02*
X84224809Y-18940476D01*
X84224809Y-18940476D02*
X84248619Y-18892857D01*
X84248619Y-18892857D02*
X84272428Y-18869047D01*
X84272428Y-18869047D02*
X84320047Y-18845238D01*
X84320047Y-18845238D02*
X84415285Y-18821428D01*
X84415285Y-18821428D02*
X84534333Y-18821428D01*
X84534333Y-18821428D02*
X84629571Y-18845238D01*
X84629571Y-18845238D02*
X84677190Y-18869047D01*
X84677190Y-18869047D02*
X84701000Y-18892857D01*
X84701000Y-18892857D02*
X84724809Y-18940476D01*
X84724809Y-18940476D02*
X84724809Y-18988095D01*
X84724809Y-18988095D02*
X84701000Y-19035714D01*
X84701000Y-19035714D02*
X84677190Y-19059523D01*
X84677190Y-19059523D02*
X84629571Y-19083333D01*
X84629571Y-19083333D02*
X84534333Y-19107142D01*
X84534333Y-19107142D02*
X84415285Y-19107142D01*
X84415285Y-19107142D02*
X84320047Y-19083333D01*
X84320047Y-19083333D02*
X84272428Y-19059523D01*
X84272428Y-19059523D02*
X84248619Y-19035714D01*
X84248619Y-19035714D02*
X84224809Y-18988095D01*
X84391476Y-18607143D02*
X84724809Y-18607143D01*
X84439095Y-18607143D02*
X84415285Y-18583333D01*
X84415285Y-18583333D02*
X84391476Y-18535714D01*
X84391476Y-18535714D02*
X84391476Y-18464286D01*
X84391476Y-18464286D02*
X84415285Y-18416667D01*
X84415285Y-18416667D02*
X84462904Y-18392857D01*
X84462904Y-18392857D02*
X84724809Y-18392857D01*
X84462904Y-17988095D02*
X84462904Y-18154762D01*
X84724809Y-18154762D02*
X84224809Y-18154762D01*
X84224809Y-18154762D02*
X84224809Y-17916667D01*
D11*
X69144819Y-28031904D02*
X69954342Y-28031904D01*
X69954342Y-28031904D02*
X70049580Y-27984285D01*
X70049580Y-27984285D02*
X70097200Y-27936666D01*
X70097200Y-27936666D02*
X70144819Y-27841428D01*
X70144819Y-27841428D02*
X70144819Y-27650952D01*
X70144819Y-27650952D02*
X70097200Y-27555714D01*
X70097200Y-27555714D02*
X70049580Y-27508095D01*
X70049580Y-27508095D02*
X69954342Y-27460476D01*
X69954342Y-27460476D02*
X69144819Y-27460476D01*
X69240057Y-27031904D02*
X69192438Y-26984285D01*
X69192438Y-26984285D02*
X69144819Y-26889047D01*
X69144819Y-26889047D02*
X69144819Y-26650952D01*
X69144819Y-26650952D02*
X69192438Y-26555714D01*
X69192438Y-26555714D02*
X69240057Y-26508095D01*
X69240057Y-26508095D02*
X69335295Y-26460476D01*
X69335295Y-26460476D02*
X69430533Y-26460476D01*
X69430533Y-26460476D02*
X69573390Y-26508095D01*
X69573390Y-26508095D02*
X70144819Y-27079523D01*
X70144819Y-27079523D02*
X70144819Y-26460476D01*
D12*
X67119048Y-33224809D02*
X67119048Y-32724809D01*
X67119048Y-32724809D02*
X67285715Y-33081952D01*
X67285715Y-33081952D02*
X67452381Y-32724809D01*
X67452381Y-32724809D02*
X67452381Y-33224809D01*
X67976191Y-33177190D02*
X67952382Y-33201000D01*
X67952382Y-33201000D02*
X67880953Y-33224809D01*
X67880953Y-33224809D02*
X67833334Y-33224809D01*
X67833334Y-33224809D02*
X67761906Y-33201000D01*
X67761906Y-33201000D02*
X67714287Y-33153380D01*
X67714287Y-33153380D02*
X67690477Y-33105761D01*
X67690477Y-33105761D02*
X67666668Y-33010523D01*
X67666668Y-33010523D02*
X67666668Y-32939095D01*
X67666668Y-32939095D02*
X67690477Y-32843857D01*
X67690477Y-32843857D02*
X67714287Y-32796238D01*
X67714287Y-32796238D02*
X67761906Y-32748619D01*
X67761906Y-32748619D02*
X67833334Y-32724809D01*
X67833334Y-32724809D02*
X67880953Y-32724809D01*
X67880953Y-32724809D02*
X67952382Y-32748619D01*
X67952382Y-32748619D02*
X67976191Y-32772428D01*
X68190477Y-33224809D02*
X68190477Y-32724809D01*
X68190477Y-32724809D02*
X68380953Y-32724809D01*
X68380953Y-32724809D02*
X68428572Y-32748619D01*
X68428572Y-32748619D02*
X68452382Y-32772428D01*
X68452382Y-32772428D02*
X68476191Y-32820047D01*
X68476191Y-32820047D02*
X68476191Y-32891476D01*
X68476191Y-32891476D02*
X68452382Y-32939095D01*
X68452382Y-32939095D02*
X68428572Y-32962904D01*
X68428572Y-32962904D02*
X68380953Y-32986714D01*
X68380953Y-32986714D02*
X68190477Y-32986714D01*
X68904763Y-32724809D02*
X68809525Y-32724809D01*
X68809525Y-32724809D02*
X68761906Y-32748619D01*
X68761906Y-32748619D02*
X68738096Y-32772428D01*
X68738096Y-32772428D02*
X68690477Y-32843857D01*
X68690477Y-32843857D02*
X68666668Y-32939095D01*
X68666668Y-32939095D02*
X68666668Y-33129571D01*
X68666668Y-33129571D02*
X68690477Y-33177190D01*
X68690477Y-33177190D02*
X68714287Y-33201000D01*
X68714287Y-33201000D02*
X68761906Y-33224809D01*
X68761906Y-33224809D02*
X68857144Y-33224809D01*
X68857144Y-33224809D02*
X68904763Y-33201000D01*
X68904763Y-33201000D02*
X68928572Y-33177190D01*
X68928572Y-33177190D02*
X68952382Y-33129571D01*
X68952382Y-33129571D02*
X68952382Y-33010523D01*
X68952382Y-33010523D02*
X68928572Y-32962904D01*
X68928572Y-32962904D02*
X68904763Y-32939095D01*
X68904763Y-32939095D02*
X68857144Y-32915285D01*
X68857144Y-32915285D02*
X68761906Y-32915285D01*
X68761906Y-32915285D02*
X68714287Y-32939095D01*
X68714287Y-32939095D02*
X68690477Y-32962904D01*
X68690477Y-32962904D02*
X68666668Y-33010523D01*
X69261905Y-32724809D02*
X69309524Y-32724809D01*
X69309524Y-32724809D02*
X69357143Y-32748619D01*
X69357143Y-32748619D02*
X69380953Y-32772428D01*
X69380953Y-32772428D02*
X69404762Y-32820047D01*
X69404762Y-32820047D02*
X69428572Y-32915285D01*
X69428572Y-32915285D02*
X69428572Y-33034333D01*
X69428572Y-33034333D02*
X69404762Y-33129571D01*
X69404762Y-33129571D02*
X69380953Y-33177190D01*
X69380953Y-33177190D02*
X69357143Y-33201000D01*
X69357143Y-33201000D02*
X69309524Y-33224809D01*
X69309524Y-33224809D02*
X69261905Y-33224809D01*
X69261905Y-33224809D02*
X69214286Y-33201000D01*
X69214286Y-33201000D02*
X69190477Y-33177190D01*
X69190477Y-33177190D02*
X69166667Y-33129571D01*
X69166667Y-33129571D02*
X69142858Y-33034333D01*
X69142858Y-33034333D02*
X69142858Y-32915285D01*
X69142858Y-32915285D02*
X69166667Y-32820047D01*
X69166667Y-32820047D02*
X69190477Y-32772428D01*
X69190477Y-32772428D02*
X69214286Y-32748619D01*
X69214286Y-32748619D02*
X69261905Y-32724809D01*
X69738095Y-32724809D02*
X69785714Y-32724809D01*
X69785714Y-32724809D02*
X69833333Y-32748619D01*
X69833333Y-32748619D02*
X69857143Y-32772428D01*
X69857143Y-32772428D02*
X69880952Y-32820047D01*
X69880952Y-32820047D02*
X69904762Y-32915285D01*
X69904762Y-32915285D02*
X69904762Y-33034333D01*
X69904762Y-33034333D02*
X69880952Y-33129571D01*
X69880952Y-33129571D02*
X69857143Y-33177190D01*
X69857143Y-33177190D02*
X69833333Y-33201000D01*
X69833333Y-33201000D02*
X69785714Y-33224809D01*
X69785714Y-33224809D02*
X69738095Y-33224809D01*
X69738095Y-33224809D02*
X69690476Y-33201000D01*
X69690476Y-33201000D02*
X69666667Y-33177190D01*
X69666667Y-33177190D02*
X69642857Y-33129571D01*
X69642857Y-33129571D02*
X69619048Y-33034333D01*
X69619048Y-33034333D02*
X69619048Y-32915285D01*
X69619048Y-32915285D02*
X69642857Y-32820047D01*
X69642857Y-32820047D02*
X69666667Y-32772428D01*
X69666667Y-32772428D02*
X69690476Y-32748619D01*
X69690476Y-32748619D02*
X69738095Y-32724809D01*
X70095238Y-32772428D02*
X70119047Y-32748619D01*
X70119047Y-32748619D02*
X70166666Y-32724809D01*
X70166666Y-32724809D02*
X70285714Y-32724809D01*
X70285714Y-32724809D02*
X70333333Y-32748619D01*
X70333333Y-32748619D02*
X70357142Y-32772428D01*
X70357142Y-32772428D02*
X70380952Y-32820047D01*
X70380952Y-32820047D02*
X70380952Y-32867666D01*
X70380952Y-32867666D02*
X70357142Y-32939095D01*
X70357142Y-32939095D02*
X70071428Y-33224809D01*
X70071428Y-33224809D02*
X70380952Y-33224809D01*
X70595237Y-33034333D02*
X70976190Y-33034333D01*
X71166666Y-33224809D02*
X71428571Y-32891476D01*
X71166666Y-32891476D02*
X71428571Y-33224809D01*
X71619047Y-33224809D02*
X71619047Y-32724809D01*
X71619047Y-32724809D02*
X71809523Y-32724809D01*
X71809523Y-32724809D02*
X71857142Y-32748619D01*
X71857142Y-32748619D02*
X71880952Y-32772428D01*
X71880952Y-32772428D02*
X71904761Y-32820047D01*
X71904761Y-32820047D02*
X71904761Y-32891476D01*
X71904761Y-32891476D02*
X71880952Y-32939095D01*
X71880952Y-32939095D02*
X71857142Y-32962904D01*
X71857142Y-32962904D02*
X71809523Y-32986714D01*
X71809523Y-32986714D02*
X71619047Y-32986714D01*
D11*
X33023333Y-28954819D02*
X32690000Y-28478628D01*
X32451905Y-28954819D02*
X32451905Y-27954819D01*
X32451905Y-27954819D02*
X32832857Y-27954819D01*
X32832857Y-27954819D02*
X32928095Y-28002438D01*
X32928095Y-28002438D02*
X32975714Y-28050057D01*
X32975714Y-28050057D02*
X33023333Y-28145295D01*
X33023333Y-28145295D02*
X33023333Y-28288152D01*
X33023333Y-28288152D02*
X32975714Y-28383390D01*
X32975714Y-28383390D02*
X32928095Y-28431009D01*
X32928095Y-28431009D02*
X32832857Y-28478628D01*
X32832857Y-28478628D02*
X32451905Y-28478628D01*
X33928095Y-27954819D02*
X33451905Y-27954819D01*
X33451905Y-27954819D02*
X33404286Y-28431009D01*
X33404286Y-28431009D02*
X33451905Y-28383390D01*
X33451905Y-28383390D02*
X33547143Y-28335771D01*
X33547143Y-28335771D02*
X33785238Y-28335771D01*
X33785238Y-28335771D02*
X33880476Y-28383390D01*
X33880476Y-28383390D02*
X33928095Y-28431009D01*
X33928095Y-28431009D02*
X33975714Y-28526247D01*
X33975714Y-28526247D02*
X33975714Y-28764342D01*
X33975714Y-28764342D02*
X33928095Y-28859580D01*
X33928095Y-28859580D02*
X33880476Y-28907200D01*
X33880476Y-28907200D02*
X33785238Y-28954819D01*
X33785238Y-28954819D02*
X33547143Y-28954819D01*
X33547143Y-28954819D02*
X33451905Y-28907200D01*
X33451905Y-28907200D02*
X33404286Y-28859580D01*
D12*
X32487620Y-30642428D02*
X32511429Y-30618619D01*
X32511429Y-30618619D02*
X32559048Y-30594809D01*
X32559048Y-30594809D02*
X32678096Y-30594809D01*
X32678096Y-30594809D02*
X32725715Y-30618619D01*
X32725715Y-30618619D02*
X32749524Y-30642428D01*
X32749524Y-30642428D02*
X32773334Y-30690047D01*
X32773334Y-30690047D02*
X32773334Y-30737666D01*
X32773334Y-30737666D02*
X32749524Y-30809095D01*
X32749524Y-30809095D02*
X32463810Y-31094809D01*
X32463810Y-31094809D02*
X32773334Y-31094809D01*
X32987619Y-31047190D02*
X33011429Y-31071000D01*
X33011429Y-31071000D02*
X32987619Y-31094809D01*
X32987619Y-31094809D02*
X32963810Y-31071000D01*
X32963810Y-31071000D02*
X32987619Y-31047190D01*
X32987619Y-31047190D02*
X32987619Y-31094809D01*
X33201905Y-30642428D02*
X33225714Y-30618619D01*
X33225714Y-30618619D02*
X33273333Y-30594809D01*
X33273333Y-30594809D02*
X33392381Y-30594809D01*
X33392381Y-30594809D02*
X33440000Y-30618619D01*
X33440000Y-30618619D02*
X33463809Y-30642428D01*
X33463809Y-30642428D02*
X33487619Y-30690047D01*
X33487619Y-30690047D02*
X33487619Y-30737666D01*
X33487619Y-30737666D02*
X33463809Y-30809095D01*
X33463809Y-30809095D02*
X33178095Y-31094809D01*
X33178095Y-31094809D02*
X33487619Y-31094809D01*
X33701904Y-31094809D02*
X33701904Y-30594809D01*
X33749523Y-30904333D02*
X33892380Y-31094809D01*
X33892380Y-30761476D02*
X33701904Y-30951952D01*
D11*
X33023333Y-33454819D02*
X32690000Y-32978628D01*
X32451905Y-33454819D02*
X32451905Y-32454819D01*
X32451905Y-32454819D02*
X32832857Y-32454819D01*
X32832857Y-32454819D02*
X32928095Y-32502438D01*
X32928095Y-32502438D02*
X32975714Y-32550057D01*
X32975714Y-32550057D02*
X33023333Y-32645295D01*
X33023333Y-32645295D02*
X33023333Y-32788152D01*
X33023333Y-32788152D02*
X32975714Y-32883390D01*
X32975714Y-32883390D02*
X32928095Y-32931009D01*
X32928095Y-32931009D02*
X32832857Y-32978628D01*
X32832857Y-32978628D02*
X32451905Y-32978628D01*
X33880476Y-32788152D02*
X33880476Y-33454819D01*
X33642381Y-32407200D02*
X33404286Y-33121485D01*
X33404286Y-33121485D02*
X34023333Y-33121485D01*
D12*
X32487620Y-35142428D02*
X32511429Y-35118619D01*
X32511429Y-35118619D02*
X32559048Y-35094809D01*
X32559048Y-35094809D02*
X32678096Y-35094809D01*
X32678096Y-35094809D02*
X32725715Y-35118619D01*
X32725715Y-35118619D02*
X32749524Y-35142428D01*
X32749524Y-35142428D02*
X32773334Y-35190047D01*
X32773334Y-35190047D02*
X32773334Y-35237666D01*
X32773334Y-35237666D02*
X32749524Y-35309095D01*
X32749524Y-35309095D02*
X32463810Y-35594809D01*
X32463810Y-35594809D02*
X32773334Y-35594809D01*
X32987619Y-35547190D02*
X33011429Y-35571000D01*
X33011429Y-35571000D02*
X32987619Y-35594809D01*
X32987619Y-35594809D02*
X32963810Y-35571000D01*
X32963810Y-35571000D02*
X32987619Y-35547190D01*
X32987619Y-35547190D02*
X32987619Y-35594809D01*
X33201905Y-35142428D02*
X33225714Y-35118619D01*
X33225714Y-35118619D02*
X33273333Y-35094809D01*
X33273333Y-35094809D02*
X33392381Y-35094809D01*
X33392381Y-35094809D02*
X33440000Y-35118619D01*
X33440000Y-35118619D02*
X33463809Y-35142428D01*
X33463809Y-35142428D02*
X33487619Y-35190047D01*
X33487619Y-35190047D02*
X33487619Y-35237666D01*
X33487619Y-35237666D02*
X33463809Y-35309095D01*
X33463809Y-35309095D02*
X33178095Y-35594809D01*
X33178095Y-35594809D02*
X33487619Y-35594809D01*
X33701904Y-35594809D02*
X33701904Y-35094809D01*
X33749523Y-35404333D02*
X33892380Y-35594809D01*
X33892380Y-35261476D02*
X33701904Y-35451952D01*
X54224809Y-23035713D02*
X54224809Y-23321427D01*
X54224809Y-23178570D02*
X53724809Y-23178570D01*
X53724809Y-23178570D02*
X53796238Y-23226189D01*
X53796238Y-23226189D02*
X53843857Y-23273808D01*
X53843857Y-23273808D02*
X53867666Y-23321427D01*
X53724809Y-22726190D02*
X53724809Y-22678571D01*
X53724809Y-22678571D02*
X53748619Y-22630952D01*
X53748619Y-22630952D02*
X53772428Y-22607142D01*
X53772428Y-22607142D02*
X53820047Y-22583333D01*
X53820047Y-22583333D02*
X53915285Y-22559523D01*
X53915285Y-22559523D02*
X54034333Y-22559523D01*
X54034333Y-22559523D02*
X54129571Y-22583333D01*
X54129571Y-22583333D02*
X54177190Y-22607142D01*
X54177190Y-22607142D02*
X54201000Y-22630952D01*
X54201000Y-22630952D02*
X54224809Y-22678571D01*
X54224809Y-22678571D02*
X54224809Y-22726190D01*
X54224809Y-22726190D02*
X54201000Y-22773809D01*
X54201000Y-22773809D02*
X54177190Y-22797618D01*
X54177190Y-22797618D02*
X54129571Y-22821428D01*
X54129571Y-22821428D02*
X54034333Y-22845237D01*
X54034333Y-22845237D02*
X53915285Y-22845237D01*
X53915285Y-22845237D02*
X53820047Y-22821428D01*
X53820047Y-22821428D02*
X53772428Y-22797618D01*
X53772428Y-22797618D02*
X53748619Y-22773809D01*
X53748619Y-22773809D02*
X53724809Y-22726190D01*
X53724809Y-22250000D02*
X53724809Y-22202381D01*
X53724809Y-22202381D02*
X53748619Y-22154762D01*
X53748619Y-22154762D02*
X53772428Y-22130952D01*
X53772428Y-22130952D02*
X53820047Y-22107143D01*
X53820047Y-22107143D02*
X53915285Y-22083333D01*
X53915285Y-22083333D02*
X54034333Y-22083333D01*
X54034333Y-22083333D02*
X54129571Y-22107143D01*
X54129571Y-22107143D02*
X54177190Y-22130952D01*
X54177190Y-22130952D02*
X54201000Y-22154762D01*
X54201000Y-22154762D02*
X54224809Y-22202381D01*
X54224809Y-22202381D02*
X54224809Y-22250000D01*
X54224809Y-22250000D02*
X54201000Y-22297619D01*
X54201000Y-22297619D02*
X54177190Y-22321428D01*
X54177190Y-22321428D02*
X54129571Y-22345238D01*
X54129571Y-22345238D02*
X54034333Y-22369047D01*
X54034333Y-22369047D02*
X53915285Y-22369047D01*
X53915285Y-22369047D02*
X53820047Y-22345238D01*
X53820047Y-22345238D02*
X53772428Y-22321428D01*
X53772428Y-22321428D02*
X53748619Y-22297619D01*
X53748619Y-22297619D02*
X53724809Y-22250000D01*
X54224809Y-21869048D02*
X53724809Y-21869048D01*
X54034333Y-21821429D02*
X54224809Y-21678572D01*
X53891476Y-21678572D02*
X54081952Y-21869048D01*
D11*
X59047618Y-22954819D02*
X58714285Y-22478628D01*
X58476190Y-22954819D02*
X58476190Y-21954819D01*
X58476190Y-21954819D02*
X58857142Y-21954819D01*
X58857142Y-21954819D02*
X58952380Y-22002438D01*
X58952380Y-22002438D02*
X58999999Y-22050057D01*
X58999999Y-22050057D02*
X59047618Y-22145295D01*
X59047618Y-22145295D02*
X59047618Y-22288152D01*
X59047618Y-22288152D02*
X58999999Y-22383390D01*
X58999999Y-22383390D02*
X58952380Y-22431009D01*
X58952380Y-22431009D02*
X58857142Y-22478628D01*
X58857142Y-22478628D02*
X58476190Y-22478628D01*
X59333333Y-22288152D02*
X59714285Y-22288152D01*
X59476190Y-22954819D02*
X59476190Y-22097676D01*
X59476190Y-22097676D02*
X59523809Y-22002438D01*
X59523809Y-22002438D02*
X59619047Y-21954819D01*
X59619047Y-21954819D02*
X59714285Y-21954819D01*
X60571428Y-22954819D02*
X60000000Y-22954819D01*
X60285714Y-22954819D02*
X60285714Y-21954819D01*
X60285714Y-21954819D02*
X60190476Y-22097676D01*
X60190476Y-22097676D02*
X60095238Y-22192914D01*
X60095238Y-22192914D02*
X60000000Y-22240533D01*
X41738095Y-28454819D02*
X41738095Y-29264342D01*
X41738095Y-29264342D02*
X41785714Y-29359580D01*
X41785714Y-29359580D02*
X41833333Y-29407200D01*
X41833333Y-29407200D02*
X41928571Y-29454819D01*
X41928571Y-29454819D02*
X42119047Y-29454819D01*
X42119047Y-29454819D02*
X42214285Y-29407200D01*
X42214285Y-29407200D02*
X42261904Y-29359580D01*
X42261904Y-29359580D02*
X42309523Y-29264342D01*
X42309523Y-29264342D02*
X42309523Y-28454819D01*
X43309523Y-29454819D02*
X42738095Y-29454819D01*
X43023809Y-29454819D02*
X43023809Y-28454819D01*
X43023809Y-28454819D02*
X42928571Y-28597676D01*
X42928571Y-28597676D02*
X42833333Y-28692914D01*
X42833333Y-28692914D02*
X42738095Y-28740533D01*
D12*
X40154762Y-31724809D02*
X40154762Y-31224809D01*
X40392857Y-31724809D02*
X40392857Y-31224809D01*
X40392857Y-31224809D02*
X40678571Y-31724809D01*
X40678571Y-31724809D02*
X40678571Y-31224809D01*
X40892858Y-31581952D02*
X41130953Y-31581952D01*
X40845239Y-31724809D02*
X41011905Y-31224809D01*
X41011905Y-31224809D02*
X41178572Y-31724809D01*
X41297619Y-31224809D02*
X41607143Y-31224809D01*
X41607143Y-31224809D02*
X41440476Y-31415285D01*
X41440476Y-31415285D02*
X41511905Y-31415285D01*
X41511905Y-31415285D02*
X41559524Y-31439095D01*
X41559524Y-31439095D02*
X41583333Y-31462904D01*
X41583333Y-31462904D02*
X41607143Y-31510523D01*
X41607143Y-31510523D02*
X41607143Y-31629571D01*
X41607143Y-31629571D02*
X41583333Y-31677190D01*
X41583333Y-31677190D02*
X41559524Y-31701000D01*
X41559524Y-31701000D02*
X41511905Y-31724809D01*
X41511905Y-31724809D02*
X41369048Y-31724809D01*
X41369048Y-31724809D02*
X41321429Y-31701000D01*
X41321429Y-31701000D02*
X41297619Y-31677190D01*
X41773809Y-31224809D02*
X42083333Y-31224809D01*
X42083333Y-31224809D02*
X41916666Y-31415285D01*
X41916666Y-31415285D02*
X41988095Y-31415285D01*
X41988095Y-31415285D02*
X42035714Y-31439095D01*
X42035714Y-31439095D02*
X42059523Y-31462904D01*
X42059523Y-31462904D02*
X42083333Y-31510523D01*
X42083333Y-31510523D02*
X42083333Y-31629571D01*
X42083333Y-31629571D02*
X42059523Y-31677190D01*
X42059523Y-31677190D02*
X42035714Y-31701000D01*
X42035714Y-31701000D02*
X41988095Y-31724809D01*
X41988095Y-31724809D02*
X41845238Y-31724809D01*
X41845238Y-31724809D02*
X41797619Y-31701000D01*
X41797619Y-31701000D02*
X41773809Y-31677190D01*
X42249999Y-31224809D02*
X42559523Y-31224809D01*
X42559523Y-31224809D02*
X42392856Y-31415285D01*
X42392856Y-31415285D02*
X42464285Y-31415285D01*
X42464285Y-31415285D02*
X42511904Y-31439095D01*
X42511904Y-31439095D02*
X42535713Y-31462904D01*
X42535713Y-31462904D02*
X42559523Y-31510523D01*
X42559523Y-31510523D02*
X42559523Y-31629571D01*
X42559523Y-31629571D02*
X42535713Y-31677190D01*
X42535713Y-31677190D02*
X42511904Y-31701000D01*
X42511904Y-31701000D02*
X42464285Y-31724809D01*
X42464285Y-31724809D02*
X42321428Y-31724809D01*
X42321428Y-31724809D02*
X42273809Y-31701000D01*
X42273809Y-31701000D02*
X42249999Y-31677190D01*
X42726189Y-31724809D02*
X42988094Y-31391476D01*
X42726189Y-31391476D02*
X42988094Y-31724809D01*
X43130951Y-31724809D02*
X43392856Y-31391476D01*
X43130951Y-31391476D02*
X43392856Y-31724809D01*
X43583332Y-31724809D02*
X43583332Y-31224809D01*
X43583332Y-31224809D02*
X43702380Y-31224809D01*
X43702380Y-31224809D02*
X43773808Y-31248619D01*
X43773808Y-31248619D02*
X43821427Y-31296238D01*
X43821427Y-31296238D02*
X43845237Y-31343857D01*
X43845237Y-31343857D02*
X43869046Y-31439095D01*
X43869046Y-31439095D02*
X43869046Y-31510523D01*
X43869046Y-31510523D02*
X43845237Y-31605761D01*
X43845237Y-31605761D02*
X43821427Y-31653380D01*
X43821427Y-31653380D02*
X43773808Y-31701000D01*
X43773808Y-31701000D02*
X43702380Y-31724809D01*
X43702380Y-31724809D02*
X43583332Y-31724809D01*
X44345237Y-31248619D02*
X44297618Y-31224809D01*
X44297618Y-31224809D02*
X44226189Y-31224809D01*
X44226189Y-31224809D02*
X44154761Y-31248619D01*
X44154761Y-31248619D02*
X44107142Y-31296238D01*
X44107142Y-31296238D02*
X44083332Y-31343857D01*
X44083332Y-31343857D02*
X44059523Y-31439095D01*
X44059523Y-31439095D02*
X44059523Y-31510523D01*
X44059523Y-31510523D02*
X44083332Y-31605761D01*
X44083332Y-31605761D02*
X44107142Y-31653380D01*
X44107142Y-31653380D02*
X44154761Y-31701000D01*
X44154761Y-31701000D02*
X44226189Y-31724809D01*
X44226189Y-31724809D02*
X44273808Y-31724809D01*
X44273808Y-31724809D02*
X44345237Y-31701000D01*
X44345237Y-31701000D02*
X44369046Y-31677190D01*
X44369046Y-31677190D02*
X44369046Y-31510523D01*
X44369046Y-31510523D02*
X44273808Y-31510523D01*
X44583332Y-31724809D02*
X44583332Y-31224809D01*
X44869046Y-31724809D02*
X44654761Y-31439095D01*
X44869046Y-31224809D02*
X44583332Y-31510523D01*
D11*
X59023333Y-32454819D02*
X58690000Y-31978628D01*
X58451905Y-32454819D02*
X58451905Y-31454819D01*
X58451905Y-31454819D02*
X58832857Y-31454819D01*
X58832857Y-31454819D02*
X58928095Y-31502438D01*
X58928095Y-31502438D02*
X58975714Y-31550057D01*
X58975714Y-31550057D02*
X59023333Y-31645295D01*
X59023333Y-31645295D02*
X59023333Y-31788152D01*
X59023333Y-31788152D02*
X58975714Y-31883390D01*
X58975714Y-31883390D02*
X58928095Y-31931009D01*
X58928095Y-31931009D02*
X58832857Y-31978628D01*
X58832857Y-31978628D02*
X58451905Y-31978628D01*
X59880476Y-31454819D02*
X59690000Y-31454819D01*
X59690000Y-31454819D02*
X59594762Y-31502438D01*
X59594762Y-31502438D02*
X59547143Y-31550057D01*
X59547143Y-31550057D02*
X59451905Y-31692914D01*
X59451905Y-31692914D02*
X59404286Y-31883390D01*
X59404286Y-31883390D02*
X59404286Y-32264342D01*
X59404286Y-32264342D02*
X59451905Y-32359580D01*
X59451905Y-32359580D02*
X59499524Y-32407200D01*
X59499524Y-32407200D02*
X59594762Y-32454819D01*
X59594762Y-32454819D02*
X59785238Y-32454819D01*
X59785238Y-32454819D02*
X59880476Y-32407200D01*
X59880476Y-32407200D02*
X59928095Y-32359580D01*
X59928095Y-32359580D02*
X59975714Y-32264342D01*
X59975714Y-32264342D02*
X59975714Y-32026247D01*
X59975714Y-32026247D02*
X59928095Y-31931009D01*
X59928095Y-31931009D02*
X59880476Y-31883390D01*
X59880476Y-31883390D02*
X59785238Y-31835771D01*
X59785238Y-31835771D02*
X59594762Y-31835771D01*
X59594762Y-31835771D02*
X59499524Y-31883390D01*
X59499524Y-31883390D02*
X59451905Y-31931009D01*
X59451905Y-31931009D02*
X59404286Y-32026247D01*
D12*
X58725715Y-34391476D02*
X58725715Y-34724809D01*
X58606667Y-34201000D02*
X58487620Y-34558142D01*
X58487620Y-34558142D02*
X58797143Y-34558142D01*
X58987619Y-34677190D02*
X59011429Y-34701000D01*
X59011429Y-34701000D02*
X58987619Y-34724809D01*
X58987619Y-34724809D02*
X58963810Y-34701000D01*
X58963810Y-34701000D02*
X58987619Y-34677190D01*
X58987619Y-34677190D02*
X58987619Y-34724809D01*
X59178095Y-34224809D02*
X59511428Y-34224809D01*
X59511428Y-34224809D02*
X59297143Y-34724809D01*
X59701904Y-34724809D02*
X59701904Y-34224809D01*
X59749523Y-34534333D02*
X59892380Y-34724809D01*
X59892380Y-34391476D02*
X59701904Y-34581952D01*
D11*
X33023333Y-37954819D02*
X32690000Y-37478628D01*
X32451905Y-37954819D02*
X32451905Y-36954819D01*
X32451905Y-36954819D02*
X32832857Y-36954819D01*
X32832857Y-36954819D02*
X32928095Y-37002438D01*
X32928095Y-37002438D02*
X32975714Y-37050057D01*
X32975714Y-37050057D02*
X33023333Y-37145295D01*
X33023333Y-37145295D02*
X33023333Y-37288152D01*
X33023333Y-37288152D02*
X32975714Y-37383390D01*
X32975714Y-37383390D02*
X32928095Y-37431009D01*
X32928095Y-37431009D02*
X32832857Y-37478628D01*
X32832857Y-37478628D02*
X32451905Y-37478628D01*
X33356667Y-36954819D02*
X34023333Y-36954819D01*
X34023333Y-36954819D02*
X33594762Y-37954819D01*
D12*
X33047143Y-40094809D02*
X32761429Y-40094809D01*
X32904286Y-40094809D02*
X32904286Y-39594809D01*
X32904286Y-39594809D02*
X32856667Y-39666238D01*
X32856667Y-39666238D02*
X32809048Y-39713857D01*
X32809048Y-39713857D02*
X32761429Y-39737666D01*
X33261428Y-40094809D02*
X33261428Y-39594809D01*
X33261428Y-39594809D02*
X33428095Y-39951952D01*
X33428095Y-39951952D02*
X33594761Y-39594809D01*
X33594761Y-39594809D02*
X33594761Y-40094809D01*
D11*
X49833333Y-29359580D02*
X49785714Y-29407200D01*
X49785714Y-29407200D02*
X49642857Y-29454819D01*
X49642857Y-29454819D02*
X49547619Y-29454819D01*
X49547619Y-29454819D02*
X49404762Y-29407200D01*
X49404762Y-29407200D02*
X49309524Y-29311961D01*
X49309524Y-29311961D02*
X49261905Y-29216723D01*
X49261905Y-29216723D02*
X49214286Y-29026247D01*
X49214286Y-29026247D02*
X49214286Y-28883390D01*
X49214286Y-28883390D02*
X49261905Y-28692914D01*
X49261905Y-28692914D02*
X49309524Y-28597676D01*
X49309524Y-28597676D02*
X49404762Y-28502438D01*
X49404762Y-28502438D02*
X49547619Y-28454819D01*
X49547619Y-28454819D02*
X49642857Y-28454819D01*
X49642857Y-28454819D02*
X49785714Y-28502438D01*
X49785714Y-28502438D02*
X49833333Y-28550057D01*
X50690476Y-28788152D02*
X50690476Y-29454819D01*
X50452381Y-28407200D02*
X50214286Y-29121485D01*
X50214286Y-29121485D02*
X50833333Y-29121485D01*
D12*
X49059525Y-26772428D02*
X49083334Y-26748619D01*
X49083334Y-26748619D02*
X49130953Y-26724809D01*
X49130953Y-26724809D02*
X49250001Y-26724809D01*
X49250001Y-26724809D02*
X49297620Y-26748619D01*
X49297620Y-26748619D02*
X49321429Y-26772428D01*
X49321429Y-26772428D02*
X49345239Y-26820047D01*
X49345239Y-26820047D02*
X49345239Y-26867666D01*
X49345239Y-26867666D02*
X49321429Y-26939095D01*
X49321429Y-26939095D02*
X49035715Y-27224809D01*
X49035715Y-27224809D02*
X49345239Y-27224809D01*
X49559524Y-27177190D02*
X49583334Y-27201000D01*
X49583334Y-27201000D02*
X49559524Y-27224809D01*
X49559524Y-27224809D02*
X49535715Y-27201000D01*
X49535715Y-27201000D02*
X49559524Y-27177190D01*
X49559524Y-27177190D02*
X49559524Y-27224809D01*
X49773810Y-26772428D02*
X49797619Y-26748619D01*
X49797619Y-26748619D02*
X49845238Y-26724809D01*
X49845238Y-26724809D02*
X49964286Y-26724809D01*
X49964286Y-26724809D02*
X50011905Y-26748619D01*
X50011905Y-26748619D02*
X50035714Y-26772428D01*
X50035714Y-26772428D02*
X50059524Y-26820047D01*
X50059524Y-26820047D02*
X50059524Y-26867666D01*
X50059524Y-26867666D02*
X50035714Y-26939095D01*
X50035714Y-26939095D02*
X49750000Y-27224809D01*
X49750000Y-27224809D02*
X50059524Y-27224809D01*
X50488095Y-26891476D02*
X50488095Y-27224809D01*
X50273809Y-26891476D02*
X50273809Y-27153380D01*
X50273809Y-27153380D02*
X50297619Y-27201000D01*
X50297619Y-27201000D02*
X50345238Y-27224809D01*
X50345238Y-27224809D02*
X50416666Y-27224809D01*
X50416666Y-27224809D02*
X50464285Y-27201000D01*
X50464285Y-27201000D02*
X50488095Y-27177190D01*
X50892857Y-26962904D02*
X50726190Y-26962904D01*
X50726190Y-27224809D02*
X50726190Y-26724809D01*
X50726190Y-26724809D02*
X50964285Y-26724809D01*
D11*
X81954819Y-28523809D02*
X81954819Y-28333333D01*
X81954819Y-28333333D02*
X82002438Y-28238095D01*
X82002438Y-28238095D02*
X82097676Y-28142857D01*
X82097676Y-28142857D02*
X82288152Y-28095238D01*
X82288152Y-28095238D02*
X82621485Y-28095238D01*
X82621485Y-28095238D02*
X82811961Y-28142857D01*
X82811961Y-28142857D02*
X82907200Y-28238095D01*
X82907200Y-28238095D02*
X82954819Y-28333333D01*
X82954819Y-28333333D02*
X82954819Y-28523809D01*
X82954819Y-28523809D02*
X82907200Y-28619047D01*
X82907200Y-28619047D02*
X82811961Y-28714285D01*
X82811961Y-28714285D02*
X82621485Y-28761904D01*
X82621485Y-28761904D02*
X82288152Y-28761904D01*
X82288152Y-28761904D02*
X82097676Y-28714285D01*
X82097676Y-28714285D02*
X82002438Y-28619047D01*
X82002438Y-28619047D02*
X81954819Y-28523809D01*
X82288152Y-27238095D02*
X82954819Y-27238095D01*
X82288152Y-27666666D02*
X82811961Y-27666666D01*
X82811961Y-27666666D02*
X82907200Y-27619047D01*
X82907200Y-27619047D02*
X82954819Y-27523809D01*
X82954819Y-27523809D02*
X82954819Y-27380952D01*
X82954819Y-27380952D02*
X82907200Y-27285714D01*
X82907200Y-27285714D02*
X82859580Y-27238095D01*
X82288152Y-26904761D02*
X82288152Y-26523809D01*
X81954819Y-26761904D02*
X82811961Y-26761904D01*
X82811961Y-26761904D02*
X82907200Y-26714285D01*
X82907200Y-26714285D02*
X82954819Y-26619047D01*
X82954819Y-26619047D02*
X82954819Y-26523809D01*
X82288152Y-26190475D02*
X83288152Y-26190475D01*
X82335771Y-26190475D02*
X82288152Y-26095237D01*
X82288152Y-26095237D02*
X82288152Y-25904761D01*
X82288152Y-25904761D02*
X82335771Y-25809523D01*
X82335771Y-25809523D02*
X82383390Y-25761904D01*
X82383390Y-25761904D02*
X82478628Y-25714285D01*
X82478628Y-25714285D02*
X82764342Y-25714285D01*
X82764342Y-25714285D02*
X82859580Y-25761904D01*
X82859580Y-25761904D02*
X82907200Y-25809523D01*
X82907200Y-25809523D02*
X82954819Y-25904761D01*
X82954819Y-25904761D02*
X82954819Y-26095237D01*
X82954819Y-26095237D02*
X82907200Y-26190475D01*
X82288152Y-24857142D02*
X82954819Y-24857142D01*
X82288152Y-25285713D02*
X82811961Y-25285713D01*
X82811961Y-25285713D02*
X82907200Y-25238094D01*
X82907200Y-25238094D02*
X82954819Y-25142856D01*
X82954819Y-25142856D02*
X82954819Y-24999999D01*
X82954819Y-24999999D02*
X82907200Y-24904761D01*
X82907200Y-24904761D02*
X82859580Y-24857142D01*
X82288152Y-24523808D02*
X82288152Y-24142856D01*
X81954819Y-24380951D02*
X82811961Y-24380951D01*
X82811961Y-24380951D02*
X82907200Y-24333332D01*
X82907200Y-24333332D02*
X82954819Y-24238094D01*
X82954819Y-24238094D02*
X82954819Y-24142856D01*
X58570952Y-36954819D02*
X58237619Y-36478628D01*
X57999524Y-36954819D02*
X57999524Y-35954819D01*
X57999524Y-35954819D02*
X58380476Y-35954819D01*
X58380476Y-35954819D02*
X58475714Y-36002438D01*
X58475714Y-36002438D02*
X58523333Y-36050057D01*
X58523333Y-36050057D02*
X58570952Y-36145295D01*
X58570952Y-36145295D02*
X58570952Y-36288152D01*
X58570952Y-36288152D02*
X58523333Y-36383390D01*
X58523333Y-36383390D02*
X58475714Y-36431009D01*
X58475714Y-36431009D02*
X58380476Y-36478628D01*
X58380476Y-36478628D02*
X57999524Y-36478628D01*
X59428095Y-36288152D02*
X59428095Y-37097676D01*
X59428095Y-37097676D02*
X59380476Y-37192914D01*
X59380476Y-37192914D02*
X59332857Y-37240533D01*
X59332857Y-37240533D02*
X59237619Y-37288152D01*
X59237619Y-37288152D02*
X59094762Y-37288152D01*
X59094762Y-37288152D02*
X58999524Y-37240533D01*
X59428095Y-36907200D02*
X59332857Y-36954819D01*
X59332857Y-36954819D02*
X59142381Y-36954819D01*
X59142381Y-36954819D02*
X59047143Y-36907200D01*
X59047143Y-36907200D02*
X58999524Y-36859580D01*
X58999524Y-36859580D02*
X58951905Y-36764342D01*
X58951905Y-36764342D02*
X58951905Y-36478628D01*
X58951905Y-36478628D02*
X58999524Y-36383390D01*
X58999524Y-36383390D02*
X59047143Y-36335771D01*
X59047143Y-36335771D02*
X59142381Y-36288152D01*
X59142381Y-36288152D02*
X59332857Y-36288152D01*
X59332857Y-36288152D02*
X59428095Y-36335771D01*
X60428095Y-36954819D02*
X59856667Y-36954819D01*
X60142381Y-36954819D02*
X60142381Y-35954819D01*
X60142381Y-35954819D02*
X60047143Y-36097676D01*
X60047143Y-36097676D02*
X59951905Y-36192914D01*
X59951905Y-36192914D02*
X59856667Y-36240533D01*
D12*
X58892381Y-40724809D02*
X58606667Y-40724809D01*
X58749524Y-40724809D02*
X58749524Y-40224809D01*
X58749524Y-40224809D02*
X58701905Y-40296238D01*
X58701905Y-40296238D02*
X58654286Y-40343857D01*
X58654286Y-40343857D02*
X58606667Y-40367666D01*
X59201904Y-40224809D02*
X59249523Y-40224809D01*
X59249523Y-40224809D02*
X59297142Y-40248619D01*
X59297142Y-40248619D02*
X59320952Y-40272428D01*
X59320952Y-40272428D02*
X59344761Y-40320047D01*
X59344761Y-40320047D02*
X59368571Y-40415285D01*
X59368571Y-40415285D02*
X59368571Y-40534333D01*
X59368571Y-40534333D02*
X59344761Y-40629571D01*
X59344761Y-40629571D02*
X59320952Y-40677190D01*
X59320952Y-40677190D02*
X59297142Y-40701000D01*
X59297142Y-40701000D02*
X59249523Y-40724809D01*
X59249523Y-40724809D02*
X59201904Y-40724809D01*
X59201904Y-40724809D02*
X59154285Y-40701000D01*
X59154285Y-40701000D02*
X59130476Y-40677190D01*
X59130476Y-40677190D02*
X59106666Y-40629571D01*
X59106666Y-40629571D02*
X59082857Y-40534333D01*
X59082857Y-40534333D02*
X59082857Y-40415285D01*
X59082857Y-40415285D02*
X59106666Y-40320047D01*
X59106666Y-40320047D02*
X59130476Y-40272428D01*
X59130476Y-40272428D02*
X59154285Y-40248619D01*
X59154285Y-40248619D02*
X59201904Y-40224809D01*
X59582856Y-40724809D02*
X59582856Y-40224809D01*
X59630475Y-40534333D02*
X59773332Y-40724809D01*
X59773332Y-40391476D02*
X59582856Y-40581952D01*
D11*
X78833333Y-40359580D02*
X78785714Y-40407200D01*
X78785714Y-40407200D02*
X78642857Y-40454819D01*
X78642857Y-40454819D02*
X78547619Y-40454819D01*
X78547619Y-40454819D02*
X78404762Y-40407200D01*
X78404762Y-40407200D02*
X78309524Y-40311961D01*
X78309524Y-40311961D02*
X78261905Y-40216723D01*
X78261905Y-40216723D02*
X78214286Y-40026247D01*
X78214286Y-40026247D02*
X78214286Y-39883390D01*
X78214286Y-39883390D02*
X78261905Y-39692914D01*
X78261905Y-39692914D02*
X78309524Y-39597676D01*
X78309524Y-39597676D02*
X78404762Y-39502438D01*
X78404762Y-39502438D02*
X78547619Y-39454819D01*
X78547619Y-39454819D02*
X78642857Y-39454819D01*
X78642857Y-39454819D02*
X78785714Y-39502438D01*
X78785714Y-39502438D02*
X78833333Y-39550057D01*
X79214286Y-39550057D02*
X79261905Y-39502438D01*
X79261905Y-39502438D02*
X79357143Y-39454819D01*
X79357143Y-39454819D02*
X79595238Y-39454819D01*
X79595238Y-39454819D02*
X79690476Y-39502438D01*
X79690476Y-39502438D02*
X79738095Y-39550057D01*
X79738095Y-39550057D02*
X79785714Y-39645295D01*
X79785714Y-39645295D02*
X79785714Y-39740533D01*
X79785714Y-39740533D02*
X79738095Y-39883390D01*
X79738095Y-39883390D02*
X79166667Y-40454819D01*
X79166667Y-40454819D02*
X79785714Y-40454819D01*
D12*
X78226191Y-42724809D02*
X77940477Y-42724809D01*
X78083334Y-42724809D02*
X78083334Y-42224809D01*
X78083334Y-42224809D02*
X78035715Y-42296238D01*
X78035715Y-42296238D02*
X77988096Y-42343857D01*
X77988096Y-42343857D02*
X77940477Y-42367666D01*
X78535714Y-42224809D02*
X78583333Y-42224809D01*
X78583333Y-42224809D02*
X78630952Y-42248619D01*
X78630952Y-42248619D02*
X78654762Y-42272428D01*
X78654762Y-42272428D02*
X78678571Y-42320047D01*
X78678571Y-42320047D02*
X78702381Y-42415285D01*
X78702381Y-42415285D02*
X78702381Y-42534333D01*
X78702381Y-42534333D02*
X78678571Y-42629571D01*
X78678571Y-42629571D02*
X78654762Y-42677190D01*
X78654762Y-42677190D02*
X78630952Y-42701000D01*
X78630952Y-42701000D02*
X78583333Y-42724809D01*
X78583333Y-42724809D02*
X78535714Y-42724809D01*
X78535714Y-42724809D02*
X78488095Y-42701000D01*
X78488095Y-42701000D02*
X78464286Y-42677190D01*
X78464286Y-42677190D02*
X78440476Y-42629571D01*
X78440476Y-42629571D02*
X78416667Y-42534333D01*
X78416667Y-42534333D02*
X78416667Y-42415285D01*
X78416667Y-42415285D02*
X78440476Y-42320047D01*
X78440476Y-42320047D02*
X78464286Y-42272428D01*
X78464286Y-42272428D02*
X78488095Y-42248619D01*
X78488095Y-42248619D02*
X78535714Y-42224809D01*
X79011904Y-42224809D02*
X79059523Y-42224809D01*
X79059523Y-42224809D02*
X79107142Y-42248619D01*
X79107142Y-42248619D02*
X79130952Y-42272428D01*
X79130952Y-42272428D02*
X79154761Y-42320047D01*
X79154761Y-42320047D02*
X79178571Y-42415285D01*
X79178571Y-42415285D02*
X79178571Y-42534333D01*
X79178571Y-42534333D02*
X79154761Y-42629571D01*
X79154761Y-42629571D02*
X79130952Y-42677190D01*
X79130952Y-42677190D02*
X79107142Y-42701000D01*
X79107142Y-42701000D02*
X79059523Y-42724809D01*
X79059523Y-42724809D02*
X79011904Y-42724809D01*
X79011904Y-42724809D02*
X78964285Y-42701000D01*
X78964285Y-42701000D02*
X78940476Y-42677190D01*
X78940476Y-42677190D02*
X78916666Y-42629571D01*
X78916666Y-42629571D02*
X78892857Y-42534333D01*
X78892857Y-42534333D02*
X78892857Y-42415285D01*
X78892857Y-42415285D02*
X78916666Y-42320047D01*
X78916666Y-42320047D02*
X78940476Y-42272428D01*
X78940476Y-42272428D02*
X78964285Y-42248619D01*
X78964285Y-42248619D02*
X79011904Y-42224809D01*
X79392856Y-42391476D02*
X79392856Y-42724809D01*
X79392856Y-42439095D02*
X79416666Y-42415285D01*
X79416666Y-42415285D02*
X79464285Y-42391476D01*
X79464285Y-42391476D02*
X79535713Y-42391476D01*
X79535713Y-42391476D02*
X79583332Y-42415285D01*
X79583332Y-42415285D02*
X79607142Y-42462904D01*
X79607142Y-42462904D02*
X79607142Y-42724809D01*
X80011904Y-42462904D02*
X79845237Y-42462904D01*
X79845237Y-42724809D02*
X79845237Y-42224809D01*
X79845237Y-42224809D02*
X80083332Y-42224809D01*
D11*
X58643333Y-27954819D02*
X58310000Y-27478628D01*
X58071905Y-27954819D02*
X58071905Y-26954819D01*
X58071905Y-26954819D02*
X58452857Y-26954819D01*
X58452857Y-26954819D02*
X58548095Y-27002438D01*
X58548095Y-27002438D02*
X58595714Y-27050057D01*
X58595714Y-27050057D02*
X58643333Y-27145295D01*
X58643333Y-27145295D02*
X58643333Y-27288152D01*
X58643333Y-27288152D02*
X58595714Y-27383390D01*
X58595714Y-27383390D02*
X58548095Y-27431009D01*
X58548095Y-27431009D02*
X58452857Y-27478628D01*
X58452857Y-27478628D02*
X58071905Y-27478628D01*
X59024286Y-27050057D02*
X59071905Y-27002438D01*
X59071905Y-27002438D02*
X59167143Y-26954819D01*
X59167143Y-26954819D02*
X59405238Y-26954819D01*
X59405238Y-26954819D02*
X59500476Y-27002438D01*
X59500476Y-27002438D02*
X59548095Y-27050057D01*
X59548095Y-27050057D02*
X59595714Y-27145295D01*
X59595714Y-27145295D02*
X59595714Y-27240533D01*
X59595714Y-27240533D02*
X59548095Y-27383390D01*
X59548095Y-27383390D02*
X58976667Y-27954819D01*
X58976667Y-27954819D02*
X59595714Y-27954819D01*
D12*
X60724809Y-27797618D02*
X60724809Y-28083332D01*
X60724809Y-27940475D02*
X60224809Y-27940475D01*
X60224809Y-27940475D02*
X60296238Y-27988094D01*
X60296238Y-27988094D02*
X60343857Y-28035713D01*
X60343857Y-28035713D02*
X60367666Y-28083332D01*
X60224809Y-27488095D02*
X60224809Y-27440476D01*
X60224809Y-27440476D02*
X60248619Y-27392857D01*
X60248619Y-27392857D02*
X60272428Y-27369047D01*
X60272428Y-27369047D02*
X60320047Y-27345238D01*
X60320047Y-27345238D02*
X60415285Y-27321428D01*
X60415285Y-27321428D02*
X60534333Y-27321428D01*
X60534333Y-27321428D02*
X60629571Y-27345238D01*
X60629571Y-27345238D02*
X60677190Y-27369047D01*
X60677190Y-27369047D02*
X60701000Y-27392857D01*
X60701000Y-27392857D02*
X60724809Y-27440476D01*
X60724809Y-27440476D02*
X60724809Y-27488095D01*
X60724809Y-27488095D02*
X60701000Y-27535714D01*
X60701000Y-27535714D02*
X60677190Y-27559523D01*
X60677190Y-27559523D02*
X60629571Y-27583333D01*
X60629571Y-27583333D02*
X60534333Y-27607142D01*
X60534333Y-27607142D02*
X60415285Y-27607142D01*
X60415285Y-27607142D02*
X60320047Y-27583333D01*
X60320047Y-27583333D02*
X60272428Y-27559523D01*
X60272428Y-27559523D02*
X60248619Y-27535714D01*
X60248619Y-27535714D02*
X60224809Y-27488095D01*
X60724809Y-27107143D02*
X60224809Y-27107143D01*
X60534333Y-27059524D02*
X60724809Y-26916667D01*
X60391476Y-26916667D02*
X60581952Y-27107143D01*
X41273809Y-24724809D02*
X41107143Y-24486714D01*
X40988095Y-24724809D02*
X40988095Y-24224809D01*
X40988095Y-24224809D02*
X41178571Y-24224809D01*
X41178571Y-24224809D02*
X41226190Y-24248619D01*
X41226190Y-24248619D02*
X41250000Y-24272428D01*
X41250000Y-24272428D02*
X41273809Y-24320047D01*
X41273809Y-24320047D02*
X41273809Y-24391476D01*
X41273809Y-24391476D02*
X41250000Y-24439095D01*
X41250000Y-24439095D02*
X41226190Y-24462904D01*
X41226190Y-24462904D02*
X41178571Y-24486714D01*
X41178571Y-24486714D02*
X40988095Y-24486714D01*
X41702381Y-24391476D02*
X41702381Y-24796238D01*
X41702381Y-24796238D02*
X41678571Y-24843857D01*
X41678571Y-24843857D02*
X41654762Y-24867666D01*
X41654762Y-24867666D02*
X41607143Y-24891476D01*
X41607143Y-24891476D02*
X41535714Y-24891476D01*
X41535714Y-24891476D02*
X41488095Y-24867666D01*
X41702381Y-24701000D02*
X41654762Y-24724809D01*
X41654762Y-24724809D02*
X41559524Y-24724809D01*
X41559524Y-24724809D02*
X41511905Y-24701000D01*
X41511905Y-24701000D02*
X41488095Y-24677190D01*
X41488095Y-24677190D02*
X41464286Y-24629571D01*
X41464286Y-24629571D02*
X41464286Y-24486714D01*
X41464286Y-24486714D02*
X41488095Y-24439095D01*
X41488095Y-24439095D02*
X41511905Y-24415285D01*
X41511905Y-24415285D02*
X41559524Y-24391476D01*
X41559524Y-24391476D02*
X41654762Y-24391476D01*
X41654762Y-24391476D02*
X41702381Y-24415285D01*
X41821429Y-24772428D02*
X42202381Y-24772428D01*
X42321428Y-24724809D02*
X42321428Y-24224809D01*
X42321428Y-24462904D02*
X42607142Y-24462904D01*
X42607142Y-24724809D02*
X42607142Y-24224809D01*
X42845238Y-24724809D02*
X42845238Y-24224809D01*
X42845238Y-24224809D02*
X43035714Y-24224809D01*
X43035714Y-24224809D02*
X43083333Y-24248619D01*
X43083333Y-24248619D02*
X43107143Y-24272428D01*
X43107143Y-24272428D02*
X43130952Y-24320047D01*
X43130952Y-24320047D02*
X43130952Y-24391476D01*
X43130952Y-24391476D02*
X43107143Y-24439095D01*
X43107143Y-24439095D02*
X43083333Y-24462904D01*
X43083333Y-24462904D02*
X43035714Y-24486714D01*
X43035714Y-24486714D02*
X42845238Y-24486714D01*
X43511905Y-24462904D02*
X43345238Y-24462904D01*
X43345238Y-24724809D02*
X43345238Y-24224809D01*
X43345238Y-24224809D02*
X43583333Y-24224809D01*
X44035714Y-24724809D02*
X43750000Y-24724809D01*
X43892857Y-24724809D02*
X43892857Y-24224809D01*
X43892857Y-24224809D02*
X43845238Y-24296238D01*
X43845238Y-24296238D02*
X43797619Y-24343857D01*
X43797619Y-24343857D02*
X43750000Y-24367666D01*
D11*
X41904761Y-22454819D02*
X41333333Y-22454819D01*
X41619047Y-22454819D02*
X41619047Y-21454819D01*
X41619047Y-21454819D02*
X41523809Y-21597676D01*
X41523809Y-21597676D02*
X41428571Y-21692914D01*
X41428571Y-21692914D02*
X41333333Y-21740533D01*
X42523809Y-21454819D02*
X42619047Y-21454819D01*
X42619047Y-21454819D02*
X42714285Y-21502438D01*
X42714285Y-21502438D02*
X42761904Y-21550057D01*
X42761904Y-21550057D02*
X42809523Y-21645295D01*
X42809523Y-21645295D02*
X42857142Y-21835771D01*
X42857142Y-21835771D02*
X42857142Y-22073866D01*
X42857142Y-22073866D02*
X42809523Y-22264342D01*
X42809523Y-22264342D02*
X42761904Y-22359580D01*
X42761904Y-22359580D02*
X42714285Y-22407200D01*
X42714285Y-22407200D02*
X42619047Y-22454819D01*
X42619047Y-22454819D02*
X42523809Y-22454819D01*
X42523809Y-22454819D02*
X42428571Y-22407200D01*
X42428571Y-22407200D02*
X42380952Y-22359580D01*
X42380952Y-22359580D02*
X42333333Y-22264342D01*
X42333333Y-22264342D02*
X42285714Y-22073866D01*
X42285714Y-22073866D02*
X42285714Y-21835771D01*
X42285714Y-21835771D02*
X42333333Y-21645295D01*
X42333333Y-21645295D02*
X42380952Y-21550057D01*
X42380952Y-21550057D02*
X42428571Y-21502438D01*
X42428571Y-21502438D02*
X42523809Y-21454819D01*
X43285714Y-22454819D02*
X43285714Y-21454819D01*
X43380952Y-22073866D02*
X43666666Y-22454819D01*
X43666666Y-21788152D02*
X43285714Y-22169104D01*
X76833333Y-32359580D02*
X76785714Y-32407200D01*
X76785714Y-32407200D02*
X76642857Y-32454819D01*
X76642857Y-32454819D02*
X76547619Y-32454819D01*
X76547619Y-32454819D02*
X76404762Y-32407200D01*
X76404762Y-32407200D02*
X76309524Y-32311961D01*
X76309524Y-32311961D02*
X76261905Y-32216723D01*
X76261905Y-32216723D02*
X76214286Y-32026247D01*
X76214286Y-32026247D02*
X76214286Y-31883390D01*
X76214286Y-31883390D02*
X76261905Y-31692914D01*
X76261905Y-31692914D02*
X76309524Y-31597676D01*
X76309524Y-31597676D02*
X76404762Y-31502438D01*
X76404762Y-31502438D02*
X76547619Y-31454819D01*
X76547619Y-31454819D02*
X76642857Y-31454819D01*
X76642857Y-31454819D02*
X76785714Y-31502438D01*
X76785714Y-31502438D02*
X76833333Y-31550057D01*
X77166667Y-31454819D02*
X77785714Y-31454819D01*
X77785714Y-31454819D02*
X77452381Y-31835771D01*
X77452381Y-31835771D02*
X77595238Y-31835771D01*
X77595238Y-31835771D02*
X77690476Y-31883390D01*
X77690476Y-31883390D02*
X77738095Y-31931009D01*
X77738095Y-31931009D02*
X77785714Y-32026247D01*
X77785714Y-32026247D02*
X77785714Y-32264342D01*
X77785714Y-32264342D02*
X77738095Y-32359580D01*
X77738095Y-32359580D02*
X77690476Y-32407200D01*
X77690476Y-32407200D02*
X77595238Y-32454819D01*
X77595238Y-32454819D02*
X77309524Y-32454819D01*
X77309524Y-32454819D02*
X77214286Y-32407200D01*
X77214286Y-32407200D02*
X77166667Y-32359580D01*
D12*
X81224809Y-36035713D02*
X81224809Y-36321427D01*
X81224809Y-36178570D02*
X80724809Y-36178570D01*
X80724809Y-36178570D02*
X80796238Y-36226189D01*
X80796238Y-36226189D02*
X80843857Y-36273808D01*
X80843857Y-36273808D02*
X80867666Y-36321427D01*
X80724809Y-35726190D02*
X80724809Y-35678571D01*
X80724809Y-35678571D02*
X80748619Y-35630952D01*
X80748619Y-35630952D02*
X80772428Y-35607142D01*
X80772428Y-35607142D02*
X80820047Y-35583333D01*
X80820047Y-35583333D02*
X80915285Y-35559523D01*
X80915285Y-35559523D02*
X81034333Y-35559523D01*
X81034333Y-35559523D02*
X81129571Y-35583333D01*
X81129571Y-35583333D02*
X81177190Y-35607142D01*
X81177190Y-35607142D02*
X81201000Y-35630952D01*
X81201000Y-35630952D02*
X81224809Y-35678571D01*
X81224809Y-35678571D02*
X81224809Y-35726190D01*
X81224809Y-35726190D02*
X81201000Y-35773809D01*
X81201000Y-35773809D02*
X81177190Y-35797618D01*
X81177190Y-35797618D02*
X81129571Y-35821428D01*
X81129571Y-35821428D02*
X81034333Y-35845237D01*
X81034333Y-35845237D02*
X80915285Y-35845237D01*
X80915285Y-35845237D02*
X80820047Y-35821428D01*
X80820047Y-35821428D02*
X80772428Y-35797618D01*
X80772428Y-35797618D02*
X80748619Y-35773809D01*
X80748619Y-35773809D02*
X80724809Y-35726190D01*
X80891476Y-35130952D02*
X81224809Y-35130952D01*
X80891476Y-35345238D02*
X81153380Y-35345238D01*
X81153380Y-35345238D02*
X81201000Y-35321428D01*
X81201000Y-35321428D02*
X81224809Y-35273809D01*
X81224809Y-35273809D02*
X81224809Y-35202381D01*
X81224809Y-35202381D02*
X81201000Y-35154762D01*
X81201000Y-35154762D02*
X81177190Y-35130952D01*
X80962904Y-34726190D02*
X80962904Y-34892857D01*
X81224809Y-34892857D02*
X80724809Y-34892857D01*
X80724809Y-34892857D02*
X80724809Y-34654762D01*
D11*
X25666666Y-25954819D02*
X25666666Y-26669104D01*
X25666666Y-26669104D02*
X25619047Y-26811961D01*
X25619047Y-26811961D02*
X25523809Y-26907200D01*
X25523809Y-26907200D02*
X25380952Y-26954819D01*
X25380952Y-26954819D02*
X25285714Y-26954819D01*
X26666666Y-26954819D02*
X26095238Y-26954819D01*
X26380952Y-26954819D02*
X26380952Y-25954819D01*
X26380952Y-25954819D02*
X26285714Y-26097676D01*
X26285714Y-26097676D02*
X26190476Y-26192914D01*
X26190476Y-26192914D02*
X26095238Y-26240533D01*
X76859580Y-26166666D02*
X76907200Y-26214285D01*
X76907200Y-26214285D02*
X76954819Y-26357142D01*
X76954819Y-26357142D02*
X76954819Y-26452380D01*
X76954819Y-26452380D02*
X76907200Y-26595237D01*
X76907200Y-26595237D02*
X76811961Y-26690475D01*
X76811961Y-26690475D02*
X76716723Y-26738094D01*
X76716723Y-26738094D02*
X76526247Y-26785713D01*
X76526247Y-26785713D02*
X76383390Y-26785713D01*
X76383390Y-26785713D02*
X76192914Y-26738094D01*
X76192914Y-26738094D02*
X76097676Y-26690475D01*
X76097676Y-26690475D02*
X76002438Y-26595237D01*
X76002438Y-26595237D02*
X75954819Y-26452380D01*
X75954819Y-26452380D02*
X75954819Y-26357142D01*
X75954819Y-26357142D02*
X76002438Y-26214285D01*
X76002438Y-26214285D02*
X76050057Y-26166666D01*
X75954819Y-25309523D02*
X75954819Y-25499999D01*
X75954819Y-25499999D02*
X76002438Y-25595237D01*
X76002438Y-25595237D02*
X76050057Y-25642856D01*
X76050057Y-25642856D02*
X76192914Y-25738094D01*
X76192914Y-25738094D02*
X76383390Y-25785713D01*
X76383390Y-25785713D02*
X76764342Y-25785713D01*
X76764342Y-25785713D02*
X76859580Y-25738094D01*
X76859580Y-25738094D02*
X76907200Y-25690475D01*
X76907200Y-25690475D02*
X76954819Y-25595237D01*
X76954819Y-25595237D02*
X76954819Y-25404761D01*
X76954819Y-25404761D02*
X76907200Y-25309523D01*
X76907200Y-25309523D02*
X76859580Y-25261904D01*
X76859580Y-25261904D02*
X76764342Y-25214285D01*
X76764342Y-25214285D02*
X76526247Y-25214285D01*
X76526247Y-25214285D02*
X76431009Y-25261904D01*
X76431009Y-25261904D02*
X76383390Y-25309523D01*
X76383390Y-25309523D02*
X76335771Y-25404761D01*
X76335771Y-25404761D02*
X76335771Y-25595237D01*
X76335771Y-25595237D02*
X76383390Y-25690475D01*
X76383390Y-25690475D02*
X76431009Y-25738094D01*
X76431009Y-25738094D02*
X76526247Y-25785713D01*
D12*
X75726191Y-21224809D02*
X75440477Y-21224809D01*
X75583334Y-21224809D02*
X75583334Y-20724809D01*
X75583334Y-20724809D02*
X75535715Y-20796238D01*
X75535715Y-20796238D02*
X75488096Y-20843857D01*
X75488096Y-20843857D02*
X75440477Y-20867666D01*
X76035714Y-20724809D02*
X76083333Y-20724809D01*
X76083333Y-20724809D02*
X76130952Y-20748619D01*
X76130952Y-20748619D02*
X76154762Y-20772428D01*
X76154762Y-20772428D02*
X76178571Y-20820047D01*
X76178571Y-20820047D02*
X76202381Y-20915285D01*
X76202381Y-20915285D02*
X76202381Y-21034333D01*
X76202381Y-21034333D02*
X76178571Y-21129571D01*
X76178571Y-21129571D02*
X76154762Y-21177190D01*
X76154762Y-21177190D02*
X76130952Y-21201000D01*
X76130952Y-21201000D02*
X76083333Y-21224809D01*
X76083333Y-21224809D02*
X76035714Y-21224809D01*
X76035714Y-21224809D02*
X75988095Y-21201000D01*
X75988095Y-21201000D02*
X75964286Y-21177190D01*
X75964286Y-21177190D02*
X75940476Y-21129571D01*
X75940476Y-21129571D02*
X75916667Y-21034333D01*
X75916667Y-21034333D02*
X75916667Y-20915285D01*
X75916667Y-20915285D02*
X75940476Y-20820047D01*
X75940476Y-20820047D02*
X75964286Y-20772428D01*
X75964286Y-20772428D02*
X75988095Y-20748619D01*
X75988095Y-20748619D02*
X76035714Y-20724809D01*
X76511904Y-20724809D02*
X76559523Y-20724809D01*
X76559523Y-20724809D02*
X76607142Y-20748619D01*
X76607142Y-20748619D02*
X76630952Y-20772428D01*
X76630952Y-20772428D02*
X76654761Y-20820047D01*
X76654761Y-20820047D02*
X76678571Y-20915285D01*
X76678571Y-20915285D02*
X76678571Y-21034333D01*
X76678571Y-21034333D02*
X76654761Y-21129571D01*
X76654761Y-21129571D02*
X76630952Y-21177190D01*
X76630952Y-21177190D02*
X76607142Y-21201000D01*
X76607142Y-21201000D02*
X76559523Y-21224809D01*
X76559523Y-21224809D02*
X76511904Y-21224809D01*
X76511904Y-21224809D02*
X76464285Y-21201000D01*
X76464285Y-21201000D02*
X76440476Y-21177190D01*
X76440476Y-21177190D02*
X76416666Y-21129571D01*
X76416666Y-21129571D02*
X76392857Y-21034333D01*
X76392857Y-21034333D02*
X76392857Y-20915285D01*
X76392857Y-20915285D02*
X76416666Y-20820047D01*
X76416666Y-20820047D02*
X76440476Y-20772428D01*
X76440476Y-20772428D02*
X76464285Y-20748619D01*
X76464285Y-20748619D02*
X76511904Y-20724809D01*
X76892856Y-20891476D02*
X76892856Y-21224809D01*
X76892856Y-20939095D02*
X76916666Y-20915285D01*
X76916666Y-20915285D02*
X76964285Y-20891476D01*
X76964285Y-20891476D02*
X77035713Y-20891476D01*
X77035713Y-20891476D02*
X77083332Y-20915285D01*
X77083332Y-20915285D02*
X77107142Y-20962904D01*
X77107142Y-20962904D02*
X77107142Y-21224809D01*
X77511904Y-20962904D02*
X77345237Y-20962904D01*
X77345237Y-21224809D02*
X77345237Y-20724809D01*
X77345237Y-20724809D02*
X77583332Y-20724809D01*
%TO.C,R3*%
D13*
X66420000Y-34130000D02*
X72960000Y-34130000D01*
X66420000Y-34460000D02*
X66420000Y-34130000D01*
X66420000Y-36540000D02*
X66420000Y-36870000D01*
X66420000Y-36870000D02*
X72960000Y-36870000D01*
X72960000Y-34130000D02*
X72960000Y-34460000D01*
X72960000Y-36870000D02*
X72960000Y-36540000D01*
%TO.C,R8*%
X65920000Y-17630000D02*
X72460000Y-17630000D01*
X65920000Y-17960000D02*
X65920000Y-17630000D01*
X65920000Y-20040000D02*
X65920000Y-20370000D01*
X65920000Y-20370000D02*
X72460000Y-20370000D01*
X72460000Y-17630000D02*
X72460000Y-17960000D01*
X72460000Y-20370000D02*
X72460000Y-20040000D01*
%TO.C,C5*%
X68380000Y-38630000D02*
X73620000Y-38630000D01*
X68380000Y-38967000D02*
X68380000Y-38630000D01*
X68380000Y-41370000D02*
X68380000Y-41033000D01*
X73620000Y-38630000D02*
X73620000Y-38967000D01*
X73620000Y-41033000D02*
X73620000Y-41370000D01*
X73620000Y-41370000D02*
X68380000Y-41370000D01*
%TO.C,Cf2*%
X77380000Y-17630000D02*
X82620000Y-17630000D01*
X77380000Y-17967000D02*
X77380000Y-17630000D01*
X77380000Y-20370000D02*
X77380000Y-20033000D01*
X82620000Y-17630000D02*
X82620000Y-17967000D01*
X82620000Y-20033000D02*
X82620000Y-20370000D01*
X82620000Y-20370000D02*
X77380000Y-20370000D01*
%TO.C,U2*%
X67040000Y-22130000D02*
X67040000Y-32410000D01*
X67040000Y-32410000D02*
X72340000Y-32410000D01*
X68690000Y-22130000D02*
X67040000Y-22130000D01*
X72340000Y-22130000D02*
X70690000Y-22130000D01*
X72340000Y-32410000D02*
X72340000Y-22130000D01*
X70690000Y-22130000D02*
G75*
G02*
X68690000Y-22130000I-1000000J0D01*
G01*
%TO.C,R5*%
X29920000Y-27130000D02*
X36460000Y-27130000D01*
X29920000Y-27460000D02*
X29920000Y-27130000D01*
X29920000Y-29540000D02*
X29920000Y-29870000D01*
X29920000Y-29870000D02*
X36460000Y-29870000D01*
X36460000Y-27130000D02*
X36460000Y-27460000D01*
X36460000Y-29870000D02*
X36460000Y-29540000D01*
%TO.C,R4*%
X29920000Y-31630000D02*
X36460000Y-31630000D01*
X29920000Y-31960000D02*
X29920000Y-31630000D01*
X29920000Y-34040000D02*
X29920000Y-34370000D01*
X29920000Y-34370000D02*
X36460000Y-34370000D01*
X36460000Y-31630000D02*
X36460000Y-31960000D01*
X36460000Y-34370000D02*
X36460000Y-34040000D01*
%TO.C,Rf1*%
X56230000Y-21130000D02*
X56230000Y-21460000D01*
X56230000Y-23870000D02*
X56230000Y-23540000D01*
X62770000Y-21130000D02*
X56230000Y-21130000D01*
X62770000Y-21460000D02*
X62770000Y-21130000D01*
X62770000Y-23540000D02*
X62770000Y-23870000D01*
X62770000Y-23870000D02*
X56230000Y-23870000D01*
%TO.C,U1*%
X40890000Y-27390000D02*
X44110000Y-27390000D01*
X40890000Y-27515000D02*
X40890000Y-27390000D01*
X40890000Y-30610000D02*
X40890000Y-30485000D01*
X44110000Y-27390000D02*
X44110000Y-27515000D01*
X44110000Y-30485000D02*
X44110000Y-30610000D01*
X44110000Y-30610000D02*
X40890000Y-30610000D01*
X40340000Y-27510000D02*
X40100000Y-27180000D01*
X40580000Y-27180000D01*
X40340000Y-27510000D01*
G36*
X40340000Y-27510000D02*
G01*
X40100000Y-27180000D01*
X40580000Y-27180000D01*
X40340000Y-27510000D01*
G37*
%TO.C,R6*%
X55920000Y-30630000D02*
X62460000Y-30630000D01*
X55920000Y-30960000D02*
X55920000Y-30630000D01*
X55920000Y-33040000D02*
X55920000Y-33370000D01*
X55920000Y-33370000D02*
X62460000Y-33370000D01*
X62460000Y-30630000D02*
X62460000Y-30960000D01*
X62460000Y-33370000D02*
X62460000Y-33040000D01*
%TO.C,R7*%
X29920000Y-36130000D02*
X36460000Y-36130000D01*
X29920000Y-36460000D02*
X29920000Y-36130000D01*
X29920000Y-38540000D02*
X29920000Y-38870000D01*
X29920000Y-38870000D02*
X36460000Y-38870000D01*
X36460000Y-36130000D02*
X36460000Y-36460000D01*
X36460000Y-38870000D02*
X36460000Y-38540000D01*
%TO.C,C4*%
X47380000Y-27630000D02*
X52620000Y-27630000D01*
X47380000Y-27967000D02*
X47380000Y-27630000D01*
X47380000Y-30370000D02*
X47380000Y-30033000D01*
X52620000Y-27630000D02*
X52620000Y-27967000D01*
X52620000Y-30033000D02*
X52620000Y-30370000D01*
X52620000Y-30370000D02*
X47380000Y-30370000D01*
%TO.C,J2*%
X78620000Y-21500000D02*
X80000000Y-21500000D01*
X78620000Y-22880000D02*
X78620000Y-21500000D01*
X78620000Y-24150000D02*
X78620000Y-31880000D01*
X78620000Y-24150000D02*
X81380000Y-24150000D01*
X78620000Y-31880000D02*
X81380000Y-31880000D01*
X81380000Y-24150000D02*
X81380000Y-31880000D01*
%TO.C,Rg1*%
X55920000Y-35130000D02*
X62460000Y-35130000D01*
X55920000Y-35460000D02*
X55920000Y-35130000D01*
X55920000Y-37540000D02*
X55920000Y-37870000D01*
X55920000Y-37870000D02*
X62460000Y-37870000D01*
X62460000Y-35130000D02*
X62460000Y-35460000D01*
X62460000Y-37870000D02*
X62460000Y-37540000D01*
%TO.C,C2*%
X76380000Y-38630000D02*
X81620000Y-38630000D01*
X76380000Y-38967000D02*
X76380000Y-38630000D01*
X76380000Y-41370000D02*
X76380000Y-41033000D01*
X81620000Y-38630000D02*
X81620000Y-38967000D01*
X81620000Y-41033000D02*
X81620000Y-41370000D01*
X81620000Y-41370000D02*
X76380000Y-41370000D01*
%TO.C,R2*%
X55540000Y-26130000D02*
X62080000Y-26130000D01*
X55540000Y-26460000D02*
X55540000Y-26130000D01*
X55540000Y-28540000D02*
X55540000Y-28870000D01*
X55540000Y-28870000D02*
X62080000Y-28870000D01*
X62080000Y-26130000D02*
X62080000Y-26460000D01*
X62080000Y-28870000D02*
X62080000Y-28540000D01*
%TO.C,Rg_HPF1*%
X39230000Y-23130000D02*
X45770000Y-23130000D01*
X39230000Y-23460000D02*
X39230000Y-23130000D01*
X39230000Y-25540000D02*
X39230000Y-25870000D01*
X39230000Y-25870000D02*
X45770000Y-25870000D01*
X45770000Y-23130000D02*
X45770000Y-23460000D01*
X45770000Y-25870000D02*
X45770000Y-25540000D01*
%TO.C,C3*%
X74945225Y-34025000D02*
X75445225Y-34025000D01*
X75195225Y-33775000D02*
X75195225Y-34275000D01*
X77750000Y-32920000D02*
X77750000Y-38080000D01*
X77790000Y-32920000D02*
X77790000Y-38080000D01*
X77830000Y-32921000D02*
X77830000Y-38079000D01*
X77870000Y-32923000D02*
X77870000Y-38077000D01*
X77910000Y-32925000D02*
X77910000Y-38075000D01*
X77950000Y-32928000D02*
X77950000Y-38072000D01*
X77990000Y-32931000D02*
X77990000Y-34460000D01*
X77990000Y-36540000D02*
X77990000Y-38069000D01*
X78030000Y-32935000D02*
X78030000Y-34460000D01*
X78030000Y-36540000D02*
X78030000Y-38065000D01*
X78070000Y-32940000D02*
X78070000Y-34460000D01*
X78070000Y-36540000D02*
X78070000Y-38060000D01*
X78110000Y-32945000D02*
X78110000Y-34460000D01*
X78110000Y-36540000D02*
X78110000Y-38055000D01*
X78150000Y-32951000D02*
X78150000Y-34460000D01*
X78150000Y-36540000D02*
X78150000Y-38049000D01*
X78190000Y-32957000D02*
X78190000Y-34460000D01*
X78190000Y-36540000D02*
X78190000Y-38043000D01*
X78230000Y-32964000D02*
X78230000Y-34460000D01*
X78230000Y-36540000D02*
X78230000Y-38036000D01*
X78270000Y-32972000D02*
X78270000Y-34460000D01*
X78270000Y-36540000D02*
X78270000Y-38028000D01*
X78310000Y-32981000D02*
X78310000Y-34460000D01*
X78310000Y-36540000D02*
X78310000Y-38019000D01*
X78350000Y-32990000D02*
X78350000Y-34460000D01*
X78350000Y-36540000D02*
X78350000Y-38010000D01*
X78390000Y-32999000D02*
X78390000Y-34460000D01*
X78390000Y-36540000D02*
X78390000Y-38001000D01*
X78430000Y-33010000D02*
X78430000Y-34460000D01*
X78430000Y-36540000D02*
X78430000Y-37990000D01*
X78470000Y-33021000D02*
X78470000Y-34460000D01*
X78470000Y-36540000D02*
X78470000Y-37979000D01*
X78510000Y-33033000D02*
X78510000Y-34460000D01*
X78510000Y-36540000D02*
X78510000Y-37967000D01*
X78550000Y-33045000D02*
X78550000Y-34460000D01*
X78550000Y-36540000D02*
X78550000Y-37955000D01*
X78590000Y-33058000D02*
X78590000Y-34460000D01*
X78590000Y-36540000D02*
X78590000Y-37942000D01*
X78630000Y-33072000D02*
X78630000Y-34460000D01*
X78630000Y-36540000D02*
X78630000Y-37928000D01*
X78670000Y-33087000D02*
X78670000Y-34460000D01*
X78670000Y-36540000D02*
X78670000Y-37913000D01*
X78710000Y-33102000D02*
X78710000Y-34460000D01*
X78710000Y-36540000D02*
X78710000Y-37898000D01*
X78750000Y-33118000D02*
X78750000Y-34460000D01*
X78750000Y-36540000D02*
X78750000Y-37882000D01*
X78790000Y-33135000D02*
X78790000Y-34460000D01*
X78790000Y-36540000D02*
X78790000Y-37865000D01*
X78830000Y-33153000D02*
X78830000Y-34460000D01*
X78830000Y-36540000D02*
X78830000Y-37847000D01*
X78870000Y-33171000D02*
X78870000Y-34460000D01*
X78870000Y-36540000D02*
X78870000Y-37829000D01*
X78910000Y-33191000D02*
X78910000Y-34460000D01*
X78910000Y-36540000D02*
X78910000Y-37809000D01*
X78950000Y-33211000D02*
X78950000Y-34460000D01*
X78950000Y-36540000D02*
X78950000Y-37789000D01*
X78990000Y-33232000D02*
X78990000Y-34460000D01*
X78990000Y-36540000D02*
X78990000Y-37768000D01*
X79030000Y-33254000D02*
X79030000Y-34460000D01*
X79030000Y-36540000D02*
X79030000Y-37746000D01*
X79070000Y-33277000D02*
X79070000Y-34460000D01*
X79070000Y-36540000D02*
X79070000Y-37723000D01*
X79110000Y-33301000D02*
X79110000Y-34460000D01*
X79110000Y-36540000D02*
X79110000Y-37699000D01*
X79150000Y-33325000D02*
X79150000Y-34460000D01*
X79150000Y-36540000D02*
X79150000Y-37675000D01*
X79190000Y-33351000D02*
X79190000Y-34460000D01*
X79190000Y-36540000D02*
X79190000Y-37649000D01*
X79230000Y-33378000D02*
X79230000Y-34460000D01*
X79230000Y-36540000D02*
X79230000Y-37622000D01*
X79270000Y-33406000D02*
X79270000Y-34460000D01*
X79270000Y-36540000D02*
X79270000Y-37594000D01*
X79310000Y-33435000D02*
X79310000Y-34460000D01*
X79310000Y-36540000D02*
X79310000Y-37565000D01*
X79350000Y-33465000D02*
X79350000Y-34460000D01*
X79350000Y-36540000D02*
X79350000Y-37535000D01*
X79390000Y-33497000D02*
X79390000Y-34460000D01*
X79390000Y-36540000D02*
X79390000Y-37503000D01*
X79430000Y-33530000D02*
X79430000Y-34460000D01*
X79430000Y-36540000D02*
X79430000Y-37470000D01*
X79470000Y-33564000D02*
X79470000Y-34460000D01*
X79470000Y-36540000D02*
X79470000Y-37436000D01*
X79510000Y-33599000D02*
X79510000Y-34460000D01*
X79510000Y-36540000D02*
X79510000Y-37401000D01*
X79550000Y-33636000D02*
X79550000Y-34460000D01*
X79550000Y-36540000D02*
X79550000Y-37364000D01*
X79590000Y-33675000D02*
X79590000Y-34460000D01*
X79590000Y-36540000D02*
X79590000Y-37325000D01*
X79630000Y-33715000D02*
X79630000Y-34460000D01*
X79630000Y-36540000D02*
X79630000Y-37285000D01*
X79670000Y-33757000D02*
X79670000Y-34460000D01*
X79670000Y-36540000D02*
X79670000Y-37243000D01*
X79710000Y-33801000D02*
X79710000Y-34460000D01*
X79710000Y-36540000D02*
X79710000Y-37199000D01*
X79750000Y-33848000D02*
X79750000Y-34460000D01*
X79750000Y-36540000D02*
X79750000Y-37152000D01*
X79790000Y-33896000D02*
X79790000Y-34460000D01*
X79790000Y-36540000D02*
X79790000Y-37104000D01*
X79830000Y-33947000D02*
X79830000Y-34460000D01*
X79830000Y-36540000D02*
X79830000Y-37053000D01*
X79870000Y-34001000D02*
X79870000Y-34460000D01*
X79870000Y-36540000D02*
X79870000Y-36999000D01*
X79910000Y-34057000D02*
X79910000Y-34460000D01*
X79910000Y-36540000D02*
X79910000Y-36943000D01*
X79950000Y-34117000D02*
X79950000Y-34460000D01*
X79950000Y-36540000D02*
X79950000Y-36883000D01*
X79990000Y-34181000D02*
X79990000Y-34460000D01*
X79990000Y-36540000D02*
X79990000Y-36819000D01*
X80030000Y-34249000D02*
X80030000Y-34460000D01*
X80030000Y-36540000D02*
X80030000Y-36751000D01*
X80070000Y-34323000D02*
X80070000Y-36677000D01*
X80110000Y-34402000D02*
X80110000Y-36598000D01*
X80150000Y-34489000D02*
X80150000Y-36511000D01*
X80190000Y-34586000D02*
X80190000Y-36414000D01*
X80230000Y-34695000D02*
X80230000Y-36305000D01*
X80270000Y-34823000D02*
X80270000Y-36177000D01*
X80310000Y-34983000D02*
X80310000Y-36017000D01*
X80350000Y-35217000D02*
X80350000Y-35783000D01*
X80370000Y-35500000D02*
G75*
G02*
X75130000Y-35500000I-2620000J0D01*
G01*
X75130000Y-35500000D02*
G75*
G02*
X80370000Y-35500000I2620000J0D01*
G01*
%TO.C,J1*%
X24620000Y-28580000D02*
X26000000Y-28580000D01*
X24620000Y-29960000D02*
X24620000Y-28580000D01*
X24620000Y-31230000D02*
X24620000Y-36420000D01*
X24620000Y-31230000D02*
X27380000Y-31230000D01*
X24620000Y-36420000D02*
X27380000Y-36420000D01*
X27380000Y-31230000D02*
X27380000Y-36420000D01*
%TO.C,C6*%
X75130000Y-23380000D02*
X75467000Y-23380000D01*
X75130000Y-28620000D02*
X75130000Y-23380000D01*
X75467000Y-28620000D02*
X75130000Y-28620000D01*
X77533000Y-23380000D02*
X77870000Y-23380000D01*
X77870000Y-23380000D02*
X77870000Y-28620000D01*
X77870000Y-28620000D02*
X77533000Y-28620000D01*
%TD*%
M02*
