%TF.GenerationSoftware,Altium Limited,Altium Designer,26.9.1 (10)*%
G04 Layer_Color=8388736*
G04 Board_Origin=0|0*
%FSLAX45Y45*%
%MOMM*%
%TF.SameCoordinates,98749BF1-F905-4457-8421-73FFC61A750B*%
%TF.FilePolarity,Negative*%
%TF.FileFunction,Soldermask,Top*%
%TF.Part,Single*%
G01*
G75*
%TA.AperFunction,SMDPad,CuDef*%
G04:AMPARAMS|DCode=10|XSize=1.475mm|YSize=0.4mm|CornerRadius=0.05mm|HoleSize=0mm|Usage=FLASHONLY|Rotation=180.000|XOffset=0mm|YOffset=0mm|HoleType=Round|Shape=RoundedRectangle|*
%AMROUNDEDRECTD10*
21,1,1.47500,0.30000,0,0,180.0*
21,1,1.37500,0.40000,0,0,180.0*
1,1,0.10000,-0.68750,0.15000*
1,1,0.10000,0.68750,0.15000*
1,1,0.10000,0.68750,-0.15000*
1,1,0.10000,-0.68750,-0.15000*
%
%ADD10ROUNDEDRECTD10*%
G04:AMPARAMS|DCode=11|XSize=1.025mm|YSize=1.4mm|CornerRadius=0.123mm|HoleSize=0mm|Usage=FLASHONLY|Rotation=0.000|XOffset=0mm|YOffset=0mm|HoleType=Round|Shape=RoundedRectangle|*
%AMROUNDEDRECTD11*
21,1,1.02500,1.15400,0,0,0.0*
21,1,0.77900,1.40000,0,0,0.0*
1,1,0.24600,0.38950,-0.57700*
1,1,0.24600,-0.38950,-0.57700*
1,1,0.24600,-0.38950,0.57700*
1,1,0.24600,0.38950,0.57700*
%
%ADD11ROUNDEDRECTD11*%
%ADD12C,1.00000*%
G04:AMPARAMS|DCode=13|XSize=0.9mm|YSize=0.95mm|CornerRadius=0.1125mm|HoleSize=0mm|Usage=FLASHONLY|Rotation=0.000|XOffset=0mm|YOffset=0mm|HoleType=Round|Shape=RoundedRectangle|*
%AMROUNDEDRECTD13*
21,1,0.90000,0.72500,0,0,0.0*
21,1,0.67500,0.95000,0,0,0.0*
1,1,0.22500,0.33750,-0.36250*
1,1,0.22500,-0.33750,-0.36250*
1,1,0.22500,-0.33750,0.36250*
1,1,0.22500,0.33750,0.36250*
%
%ADD13ROUNDEDRECTD13*%
G04:AMPARAMS|DCode=14|XSize=1mm|YSize=1.45mm|CornerRadius=0.125mm|HoleSize=0mm|Usage=FLASHONLY|Rotation=180.000|XOffset=0mm|YOffset=0mm|HoleType=Round|Shape=RoundedRectangle|*
%AMROUNDEDRECTD14*
21,1,1.00000,1.20000,0,0,180.0*
21,1,0.75000,1.45000,0,0,180.0*
1,1,0.25000,-0.37500,0.60000*
1,1,0.25000,0.37500,0.60000*
1,1,0.25000,0.37500,-0.60000*
1,1,0.25000,-0.37500,-0.60000*
%
%ADD14ROUNDEDRECTD14*%
G04:AMPARAMS|DCode=15|XSize=0.9mm|YSize=0.95mm|CornerRadius=0.1125mm|HoleSize=0mm|Usage=FLASHONLY|Rotation=90.000|XOffset=0mm|YOffset=0mm|HoleType=Round|Shape=RoundedRectangle|*
%AMROUNDEDRECTD15*
21,1,0.90000,0.72500,0,0,90.0*
21,1,0.67500,0.95000,0,0,90.0*
1,1,0.22500,0.36250,0.33750*
1,1,0.22500,0.36250,-0.33750*
1,1,0.22500,-0.36250,-0.33750*
1,1,0.22500,-0.36250,0.33750*
%
%ADD15ROUNDEDRECTD15*%
G04:AMPARAMS|DCode=16|XSize=1mm|YSize=1.45mm|CornerRadius=0.125mm|HoleSize=0mm|Usage=FLASHONLY|Rotation=90.000|XOffset=0mm|YOffset=0mm|HoleType=Round|Shape=RoundedRectangle|*
%AMROUNDEDRECTD16*
21,1,1.00000,1.20000,0,0,90.0*
21,1,0.75000,1.45000,0,0,90.0*
1,1,0.25000,0.60000,0.37500*
1,1,0.25000,0.60000,-0.37500*
1,1,0.25000,-0.60000,-0.37500*
1,1,0.25000,-0.60000,0.37500*
%
%ADD16ROUNDEDRECTD16*%
G04:AMPARAMS|DCode=17|XSize=0.8mm|YSize=0.95mm|CornerRadius=0.1mm|HoleSize=0mm|Usage=FLASHONLY|Rotation=0.000|XOffset=0mm|YOffset=0mm|HoleType=Round|Shape=RoundedRectangle|*
%AMROUNDEDRECTD17*
21,1,0.80000,0.75000,0,0,0.0*
21,1,0.60000,0.95000,0,0,0.0*
1,1,0.20000,0.30000,-0.37500*
1,1,0.20000,-0.30000,-0.37500*
1,1,0.20000,-0.30000,0.37500*
1,1,0.20000,0.30000,0.37500*
%
%ADD17ROUNDEDRECTD17*%
G04:AMPARAMS|DCode=18|XSize=1.325mm|YSize=0.6mm|CornerRadius=0.075mm|HoleSize=0mm|Usage=FLASHONLY|Rotation=0.000|XOffset=0mm|YOffset=0mm|HoleType=Round|Shape=RoundedRectangle|*
%AMROUNDEDRECTD18*
21,1,1.32500,0.45000,0,0,0.0*
21,1,1.17500,0.60000,0,0,0.0*
1,1,0.15000,0.58750,-0.22500*
1,1,0.15000,-0.58750,-0.22500*
1,1,0.15000,-0.58750,0.22500*
1,1,0.15000,0.58750,0.22500*
%
%ADD18ROUNDEDRECTD18*%
G04:AMPARAMS|DCode=20|XSize=1.95mm|YSize=0.6mm|CornerRadius=0.075mm|HoleSize=0mm|Usage=FLASHONLY|Rotation=180.000|XOffset=0mm|YOffset=0mm|HoleType=Round|Shape=RoundedRectangle|*
%AMROUNDEDRECTD20*
21,1,1.95000,0.45000,0,0,180.0*
21,1,1.80000,0.60000,0,0,180.0*
1,1,0.15000,-0.90000,0.22500*
1,1,0.15000,0.90000,0.22500*
1,1,0.15000,0.90000,-0.22500*
1,1,0.15000,-0.90000,-0.22500*
%
%ADD20ROUNDEDRECTD20*%
%ADD21C,2.00000*%
G04:AMPARAMS|DCode=23|XSize=1.475mm|YSize=0.6mm|CornerRadius=0.075mm|HoleSize=0mm|Usage=FLASHONLY|Rotation=180.000|XOffset=0mm|YOffset=0mm|HoleType=Round|Shape=RoundedRectangle|*
%AMROUNDEDRECTD23*
21,1,1.47500,0.45000,0,0,180.0*
21,1,1.32500,0.60000,0,0,180.0*
1,1,0.15000,-0.66250,0.22500*
1,1,0.15000,0.66250,0.22500*
1,1,0.15000,0.66250,-0.22500*
1,1,0.15000,-0.66250,-0.22500*
%
%ADD23ROUNDEDRECTD23*%
G04:AMPARAMS|DCode=24|XSize=0.28mm|YSize=0.75mm|CornerRadius=0.035mm|HoleSize=0mm|Usage=FLASHONLY|Rotation=270.000|XOffset=0mm|YOffset=0mm|HoleType=Round|Shape=RoundedRectangle|*
%AMROUNDEDRECTD24*
21,1,0.28000,0.68000,0,0,270.0*
21,1,0.21000,0.75000,0,0,270.0*
1,1,0.07000,-0.34000,-0.10500*
1,1,0.07000,-0.34000,0.10500*
1,1,0.07000,0.34000,0.10500*
1,1,0.07000,0.34000,-0.10500*
%
%ADD24ROUNDEDRECTD24*%
G04:AMPARAMS|DCode=25|XSize=1.025mm|YSize=1.4mm|CornerRadius=0.123mm|HoleSize=0mm|Usage=FLASHONLY|Rotation=90.000|XOffset=0mm|YOffset=0mm|HoleType=Round|Shape=RoundedRectangle|*
%AMROUNDEDRECTD25*
21,1,1.02500,1.15400,0,0,90.0*
21,1,0.77900,1.40000,0,0,90.0*
1,1,0.24600,0.57700,0.38950*
1,1,0.24600,0.57700,-0.38950*
1,1,0.24600,-0.57700,-0.38950*
1,1,0.24600,-0.57700,0.38950*
%
%ADD25ROUNDEDRECTD25*%
G04:AMPARAMS|DCode=26|XSize=0.8mm|YSize=0.95mm|CornerRadius=0.1mm|HoleSize=0mm|Usage=FLASHONLY|Rotation=270.000|XOffset=0mm|YOffset=0mm|HoleType=Round|Shape=RoundedRectangle|*
%AMROUNDEDRECTD26*
21,1,0.80000,0.75000,0,0,270.0*
21,1,0.60000,0.95000,0,0,270.0*
1,1,0.20000,-0.37500,-0.30000*
1,1,0.20000,-0.37500,0.30000*
1,1,0.20000,0.37500,0.30000*
1,1,0.20000,0.37500,-0.30000*
%
%ADD26ROUNDEDRECTD26*%
G04:AMPARAMS|DCode=27|XSize=1.125mm|YSize=1.75mm|CornerRadius=0.12375mm|HoleSize=0mm|Usage=FLASHONLY|Rotation=270.000|XOffset=0mm|YOffset=0mm|HoleType=Round|Shape=RoundedRectangle|*
%AMROUNDEDRECTD27*
21,1,1.12500,1.50250,0,0,270.0*
21,1,0.87750,1.75000,0,0,270.0*
1,1,0.24750,-0.75125,-0.43875*
1,1,0.24750,-0.75125,0.43875*
1,1,0.24750,0.75125,0.43875*
1,1,0.24750,0.75125,-0.43875*
%
%ADD27ROUNDEDRECTD27*%
%ADD28C,1.50000*%
G04:AMPARAMS|DCode=29|XSize=0.28mm|YSize=0.85mm|CornerRadius=0.035mm|HoleSize=0mm|Usage=FLASHONLY|Rotation=270.000|XOffset=0mm|YOffset=0mm|HoleType=Round|Shape=RoundedRectangle|*
%AMROUNDEDRECTD29*
21,1,0.28000,0.78000,0,0,270.0*
21,1,0.21000,0.85000,0,0,270.0*
1,1,0.07000,-0.39000,-0.10500*
1,1,0.07000,-0.39000,0.10500*
1,1,0.07000,0.39000,0.10500*
1,1,0.07000,0.39000,-0.10500*
%
%ADD29ROUNDEDRECTD29*%
G04:AMPARAMS|DCode=30|XSize=1.125mm|YSize=1.75mm|CornerRadius=0.12375mm|HoleSize=0mm|Usage=FLASHONLY|Rotation=0.000|XOffset=0mm|YOffset=0mm|HoleType=Round|Shape=RoundedRectangle|*
%AMROUNDEDRECTD30*
21,1,1.12500,1.50250,0,0,0.0*
21,1,0.87750,1.75000,0,0,0.0*
1,1,0.24750,0.43875,-0.75125*
1,1,0.24750,-0.43875,-0.75125*
1,1,0.24750,-0.43875,0.75125*
1,1,0.24750,0.43875,0.75125*
%
%ADD30ROUNDEDRECTD30*%
G04:AMPARAMS|DCode=31|XSize=0.9mm|YSize=1.2mm|CornerRadius=0.1125mm|HoleSize=0mm|Usage=FLASHONLY|Rotation=270.000|XOffset=0mm|YOffset=0mm|HoleType=Round|Shape=RoundedRectangle|*
%AMROUNDEDRECTD31*
21,1,0.90000,0.97500,0,0,270.0*
21,1,0.67500,1.20000,0,0,270.0*
1,1,0.22500,-0.48750,-0.33750*
1,1,0.22500,-0.48750,0.33750*
1,1,0.22500,0.48750,0.33750*
1,1,0.22500,0.48750,-0.33750*
%
%ADD31ROUNDEDRECTD31*%
G04:AMPARAMS|DCode=32|XSize=0.9mm|YSize=1.2mm|CornerRadius=0.1125mm|HoleSize=0mm|Usage=FLASHONLY|Rotation=0.000|XOffset=0mm|YOffset=0mm|HoleType=Round|Shape=RoundedRectangle|*
%AMROUNDEDRECTD32*
21,1,0.90000,0.97500,0,0,0.0*
21,1,0.67500,1.20000,0,0,0.0*
1,1,0.22500,0.33750,-0.48750*
1,1,0.22500,-0.33750,-0.48750*
1,1,0.22500,-0.33750,0.48750*
1,1,0.22500,0.33750,0.48750*
%
%ADD32ROUNDEDRECTD32*%
%TA.AperFunction,ComponentPad*%
G04:AMPARAMS|DCode=36|XSize=1.6mm|YSize=1.6mm|CornerRadius=0.128mm|HoleSize=0mm|Usage=FLASHONLY|Rotation=90.000|XOffset=0mm|YOffset=0mm|HoleType=Round|Shape=RoundedRectangle|*
%AMROUNDEDRECTD36*
21,1,1.60000,1.34400,0,0,90.0*
21,1,1.34400,1.60000,0,0,90.0*
1,1,0.25600,0.67200,0.67200*
1,1,0.25600,0.67200,-0.67200*
1,1,0.25600,-0.67200,-0.67200*
1,1,0.25600,-0.67200,0.67200*
%
%ADD36ROUNDEDRECTD36*%
%ADD37C,1.60000*%
%ADD38C,1.70000*%
G04:AMPARAMS|DCode=39|XSize=1.7mm|YSize=2mm|CornerRadius=0.85mm|HoleSize=0mm|Usage=FLASHONLY|Rotation=0.000|XOffset=0mm|YOffset=0mm|HoleType=Round|Shape=RoundedRectangle|*
%AMROUNDEDRECTD39*
21,1,1.70000,0.30000,0,0,0.0*
21,1,0.00000,2.00000,0,0,0.0*
1,1,1.70000,0.00000,-0.15000*
1,1,1.70000,0.00000,-0.15000*
1,1,1.70000,0.00000,0.15000*
1,1,1.70000,0.00000,0.15000*
%
%ADD39ROUNDEDRECTD39*%
%ADD40C,1.20000*%
G04:AMPARAMS|DCode=41|XSize=1.2mm|YSize=2.2mm|CornerRadius=0.6mm|HoleSize=0mm|Usage=FLASHONLY|Rotation=0.000|XOffset=0mm|YOffset=0mm|HoleType=Round|Shape=RoundedRectangle|*
%AMROUNDEDRECTD41*
21,1,1.20000,1.00000,0,0,0.0*
21,1,0.00000,2.20000,0,0,0.0*
1,1,1.20000,0.00000,-0.50000*
1,1,1.20000,0.00000,-0.50000*
1,1,1.20000,0.00000,0.50000*
1,1,1.20000,0.00000,0.50000*
%
%ADD41ROUNDEDRECTD41*%
G04:AMPARAMS|DCode=42|XSize=2.2mm|YSize=1.2mm|CornerRadius=0.6mm|HoleSize=0mm|Usage=FLASHONLY|Rotation=0.000|XOffset=0mm|YOffset=0mm|HoleType=Round|Shape=RoundedRectangle|*
%AMROUNDEDRECTD42*
21,1,2.20000,0.00000,0,0,0.0*
21,1,1.00000,1.20000,0,0,0.0*
1,1,1.20000,0.50000,0.00000*
1,1,1.20000,-0.50000,0.00000*
1,1,1.20000,-0.50000,0.00000*
1,1,1.20000,0.50000,0.00000*
%
%ADD42ROUNDEDRECTD42*%
%ADD43R,1.70000X1.70000*%
G04:AMPARAMS|DCode=44|XSize=1.6mm|YSize=1.6mm|CornerRadius=0.128mm|HoleSize=0mm|Usage=FLASHONLY|Rotation=0.000|XOffset=0mm|YOffset=0mm|HoleType=Round|Shape=RoundedRectangle|*
%AMROUNDEDRECTD44*
21,1,1.60000,1.34400,0,0,0.0*
21,1,1.34400,1.60000,0,0,0.0*
1,1,0.25600,0.67200,-0.67200*
1,1,0.25600,-0.67200,-0.67200*
1,1,0.25600,-0.67200,0.67200*
1,1,0.25600,0.67200,0.67200*
%
%ADD44ROUNDEDRECTD44*%
%ADD45C,1.80000*%
G04:AMPARAMS|DCode=46|XSize=1.8mm|YSize=1.8mm|CornerRadius=0.18mm|HoleSize=0mm|Usage=FLASHONLY|Rotation=0.000|XOffset=0mm|YOffset=0mm|HoleType=Round|Shape=RoundedRectangle|*
%AMROUNDEDRECTD46*
21,1,1.80000,1.44000,0,0,0.0*
21,1,1.44000,1.80000,0,0,0.0*
1,1,0.36000,0.72000,-0.72000*
1,1,0.36000,-0.72000,-0.72000*
1,1,0.36000,-0.72000,0.72000*
1,1,0.36000,0.72000,0.72000*
%
%ADD46ROUNDEDRECTD46*%
%ADD47C,3.20000*%
G04:AMPARAMS|DCode=48|XSize=1.7mm|YSize=2mm|CornerRadius=0.1275mm|HoleSize=0mm|Usage=FLASHONLY|Rotation=0.000|XOffset=0mm|YOffset=0mm|HoleType=Round|Shape=RoundedRectangle|*
%AMROUNDEDRECTD48*
21,1,1.70000,1.74500,0,0,0.0*
21,1,1.44500,2.00000,0,0,0.0*
1,1,0.25500,0.72250,-0.87250*
1,1,0.25500,-0.72250,-0.87250*
1,1,0.25500,-0.72250,0.87250*
1,1,0.25500,0.72250,0.87250*
%
%ADD48ROUNDEDRECTD48*%
%TA.AperFunction,SMDPad,CuDef*%
G04:AMPARAMS|DCode=54|XSize=1.2mm|YSize=2.3mm|CornerRadius=0.1765mm|HoleSize=0mm|Usage=FLASHONLY|Rotation=180.000|XOffset=0mm|YOffset=0mm|HoleType=Round|Shape=RoundedRectangle|*
%AMROUNDEDRECTD54*
21,1,1.20000,1.94700,0,0,180.0*
21,1,0.84700,2.30000,0,0,180.0*
1,1,0.35300,-0.42350,0.97350*
1,1,0.35300,0.42350,0.97350*
1,1,0.35300,0.42350,-0.97350*
1,1,0.35300,-0.42350,-0.97350*
%
%ADD54ROUNDEDRECTD54*%
G04:AMPARAMS|DCode=55|XSize=1.5mm|YSize=0.55mm|CornerRadius=0.07475mm|HoleSize=0mm|Usage=FLASHONLY|Rotation=90.000|XOffset=0mm|YOffset=0mm|HoleType=Round|Shape=RoundedRectangle|*
%AMROUNDEDRECTD55*
21,1,1.50000,0.40050,0,0,90.0*
21,1,1.35050,0.55000,0,0,90.0*
1,1,0.14950,0.20025,0.67525*
1,1,0.14950,0.20025,-0.67525*
1,1,0.14950,-0.20025,-0.67525*
1,1,0.14950,-0.20025,0.67525*
%
%ADD55ROUNDEDRECTD55*%
D10*
X9624950Y8908300D02*
D03*
Y8843300D02*
D03*
X10197450Y9103300D02*
D03*
X9624950Y8713300D02*
D03*
Y8778300D02*
D03*
Y8973300D02*
D03*
X10197450Y8713300D02*
D03*
Y8778300D02*
D03*
Y8843300D02*
D03*
Y8908300D02*
D03*
Y8973300D02*
D03*
Y9038300D02*
D03*
X9624950Y9103300D02*
D03*
Y9038300D02*
D03*
D11*
X9194950Y5308300D02*
D03*
X9002450D02*
D03*
X9519950Y6958300D02*
D03*
X9377450Y5308300D02*
D03*
X7019950Y8558300D02*
D03*
Y8828300D02*
D03*
X9519950Y6588300D02*
D03*
X11732450Y8468300D02*
D03*
X6419950Y8318300D02*
D03*
X7102450D02*
D03*
X6919950D02*
D03*
X10152450Y6418300D02*
D03*
X9969950D02*
D03*
X9702450Y6588300D02*
D03*
X10152450Y6958300D02*
D03*
X9969950D02*
D03*
X7952450Y7258300D02*
D03*
X7769950D02*
D03*
X7202450Y8828300D02*
D03*
X6302450Y8058300D02*
D03*
X6119950D02*
D03*
X6302450Y7808300D02*
D03*
X6119950D02*
D03*
X6052450Y7308300D02*
D03*
X5869950D02*
D03*
X11169950Y8468300D02*
D03*
X11352450D02*
D03*
X8819950Y5308300D02*
D03*
X10972450Y8468300D02*
D03*
X10789950D02*
D03*
X11549950D02*
D03*
X11752450Y7278300D02*
D03*
X11569950D02*
D03*
X6602450Y8318300D02*
D03*
X12152450Y7278300D02*
D03*
X11969950D02*
D03*
X7819950Y7538300D02*
D03*
X8002450D02*
D03*
X10152450Y6688300D02*
D03*
X9969950D02*
D03*
X9702450Y6958300D02*
D03*
X7202450Y8558300D02*
D03*
X6302450Y7558300D02*
D03*
X6119950D02*
D03*
X7152450Y7138300D02*
D03*
X6969950D02*
D03*
X10152450Y6148300D02*
D03*
X9969950D02*
D03*
D12*
X8911200Y5008300D02*
D03*
X12687300Y11366500D02*
D03*
X10311200Y9908300D02*
D03*
X12712700Y10947400D02*
D03*
X10311200Y9308300D02*
D03*
X8611200Y5008300D02*
D03*
X6511200Y10983300D02*
D03*
X8511200Y10908300D02*
D03*
D13*
X9183700Y5008300D02*
D03*
X10538700Y8728300D02*
D03*
X9283700D02*
D03*
X9338700Y5008300D02*
D03*
X9438700Y8728300D02*
D03*
X10383700D02*
D03*
X12488700Y7278300D02*
D03*
X11728700Y6558300D02*
D03*
X10393700D02*
D03*
X8028700D02*
D03*
X6693700D02*
D03*
X10548700D02*
D03*
X12333700Y7278300D02*
D03*
X7873700Y6558300D02*
D03*
X11573700D02*
D03*
X6848700D02*
D03*
X7283700Y6258300D02*
D03*
X7438700D02*
D03*
X10983700D02*
D03*
X11138700D02*
D03*
D14*
X9336200Y6958300D02*
D03*
X11356200Y8008300D02*
D03*
X10006200Y9908300D02*
D03*
X10406200Y7288300D02*
D03*
X9846200Y7328300D02*
D03*
X9276200D02*
D03*
X9146200Y6958300D02*
D03*
Y6588300D02*
D03*
X9016200Y9808300D02*
D03*
X8706200Y7328300D02*
D03*
X10216200Y7288300D02*
D03*
X9656200Y7328300D02*
D03*
X8516200D02*
D03*
X11166200Y8008300D02*
D03*
X9336200Y6588300D02*
D03*
X9086200Y7328300D02*
D03*
X9966200Y5878300D02*
D03*
X5866200Y7008300D02*
D03*
X6056200D02*
D03*
X9816200Y9908300D02*
D03*
X9206200Y9808300D02*
D03*
X10156200Y5878300D02*
D03*
D15*
X8641200Y8900800D02*
D03*
X9111200Y9605800D02*
D03*
Y8610800D02*
D03*
X11031200Y7305800D02*
D03*
X8861200Y9385800D02*
D03*
X8641200Y9055800D02*
D03*
X7961200Y9285800D02*
D03*
X8261200Y9055800D02*
D03*
X8861200Y8880800D02*
D03*
X8891200Y6610800D02*
D03*
X7331200Y7305800D02*
D03*
Y7150800D02*
D03*
X7961200Y9130800D02*
D03*
X8261200Y8900800D02*
D03*
X11031200Y7150800D02*
D03*
X8891200Y6765800D02*
D03*
X8161200Y7055800D02*
D03*
Y6900800D02*
D03*
X12211200Y6335800D02*
D03*
X8511200D02*
D03*
X7561200Y7150800D02*
D03*
X9111200Y9450800D02*
D03*
X8511200Y6180800D02*
D03*
X12211200D02*
D03*
X8861200Y9035800D02*
D03*
X7561200Y7305800D02*
D03*
X10261200Y10430800D02*
D03*
Y10585800D02*
D03*
X8861200Y9230800D02*
D03*
X9111200Y8765800D02*
D03*
X11261200Y7305800D02*
D03*
Y7150800D02*
D03*
D16*
X8641200Y9233300D02*
D03*
Y9423300D02*
D03*
X8261200D02*
D03*
X7331200Y7803300D02*
D03*
X8261200Y9233300D02*
D03*
X7331200Y7613300D02*
D03*
D17*
X8533700Y8708300D02*
D03*
X9428700Y9308300D02*
D03*
X10543700Y8408300D02*
D03*
X8368700Y8708300D02*
D03*
X10378700Y8408300D02*
D03*
X8973700Y6958300D02*
D03*
X9593700Y9508300D02*
D03*
Y9308300D02*
D03*
X8808700Y6958300D02*
D03*
X9428700Y9508300D02*
D03*
D18*
X10147450Y10858300D02*
D03*
X9397450Y9808300D02*
D03*
X10374950Y10953300D02*
D03*
Y10858300D02*
D03*
Y10763300D02*
D03*
X10147450D02*
D03*
Y10953300D02*
D03*
X9624950Y9903300D02*
D03*
Y9713300D02*
D03*
X9397450D02*
D03*
Y9903300D02*
D03*
D20*
X10463700Y7858300D02*
D03*
X7463700Y8567800D02*
D03*
X6593700Y7708300D02*
D03*
X10958700Y7858300D02*
D03*
X7088700Y7708300D02*
D03*
X7958700Y8948800D02*
D03*
X10958700Y7985300D02*
D03*
X10463700D02*
D03*
X7958700Y8567800D02*
D03*
X7463700Y8948800D02*
D03*
Y8821800D02*
D03*
X7088700Y7835300D02*
D03*
X6593700D02*
D03*
X7958700Y8821800D02*
D03*
Y8694800D02*
D03*
X7463700D02*
D03*
X6593700Y7327300D02*
D03*
Y7454300D02*
D03*
Y7581300D02*
D03*
Y7962300D02*
D03*
Y8089300D02*
D03*
X7088700D02*
D03*
Y7962300D02*
D03*
Y7581300D02*
D03*
Y7454300D02*
D03*
Y7327300D02*
D03*
X10463700Y7477300D02*
D03*
Y7604300D02*
D03*
Y7731300D02*
D03*
Y8112300D02*
D03*
Y8239300D02*
D03*
X10958700D02*
D03*
Y8112300D02*
D03*
Y7731300D02*
D03*
Y7604300D02*
D03*
Y7477300D02*
D03*
D21*
X12086200Y5358300D02*
D03*
X8411200D02*
D03*
D23*
X9004950Y10313300D02*
D03*
X8817450Y10408300D02*
D03*
X9004950Y10503300D02*
D03*
D24*
X9053700Y9208300D02*
D03*
Y8908300D02*
D03*
X9168700Y8958300D02*
D03*
Y9258300D02*
D03*
Y9308300D02*
D03*
Y9008300D02*
D03*
Y8908300D02*
D03*
X9053700Y8958300D02*
D03*
X9168700Y9208300D02*
D03*
X9053700Y9258300D02*
D03*
D25*
X10031200Y7399550D02*
D03*
X9461200D02*
D03*
X8321200D02*
D03*
X8891200D02*
D03*
X11511200Y7669550D02*
D03*
X11261200D02*
D03*
X7561200D02*
D03*
X6341200Y7017050D02*
D03*
X8321200Y7217050D02*
D03*
X10031200D02*
D03*
X11261200Y7487050D02*
D03*
X7081200Y6617050D02*
D03*
Y6799550D02*
D03*
X7561200Y7487050D02*
D03*
X10781200Y6617050D02*
D03*
Y6799550D02*
D03*
X6341200Y7199550D02*
D03*
X9461200Y7217050D02*
D03*
X11511200Y7487050D02*
D03*
X8891200Y7217050D02*
D03*
D26*
X9911200Y9475800D02*
D03*
Y9640800D02*
D03*
D27*
X10471200Y7054550D02*
D03*
Y6762050D02*
D03*
X11651200Y7054550D02*
D03*
X11961200Y6204550D02*
D03*
X7951200Y7054550D02*
D03*
X6771200D02*
D03*
X8261200Y6204550D02*
D03*
X7951200Y6762050D02*
D03*
X6861200Y6254550D02*
D03*
Y5962050D02*
D03*
X8261200Y5912050D02*
D03*
X10561200Y6254550D02*
D03*
Y5962050D02*
D03*
X6771200Y6762050D02*
D03*
X7861200Y6254550D02*
D03*
Y5962050D02*
D03*
X11561200Y6254550D02*
D03*
Y5962050D02*
D03*
X11651200Y6762050D02*
D03*
X11961200Y5912050D02*
D03*
D28*
X5561200Y7008300D02*
D03*
X7683500Y6731000D02*
D03*
X9286200Y5708300D02*
D03*
X5561200Y8058300D02*
D03*
Y7533300D02*
D03*
X12598400Y8509000D02*
D03*
X11391900Y6743700D02*
D03*
X5561200Y6508300D02*
D03*
X9286200Y6233300D02*
D03*
D29*
X9058700Y9008300D02*
D03*
Y9308300D02*
D03*
D30*
X7507450Y6008300D02*
D03*
X7214950D02*
D03*
X11207450D02*
D03*
X10914950D02*
D03*
D31*
X7911200Y7763300D02*
D03*
Y8093300D02*
D03*
X11681200Y8263300D02*
D03*
Y7933300D02*
D03*
X12061200D02*
D03*
Y8263300D02*
D03*
D32*
X7606200Y8308300D02*
D03*
X7276200D02*
D03*
D36*
X8321200Y7628300D02*
D03*
D37*
X8575200D02*
D03*
X8829200D02*
D03*
X9083200D02*
D03*
X9591200D02*
D03*
X9845200D02*
D03*
X10099200D02*
D03*
X9845200Y8390300D02*
D03*
X9591200D02*
D03*
X9337200D02*
D03*
X9083200D02*
D03*
X8575200D02*
D03*
X8321200D02*
D03*
X9337200Y7628300D02*
D03*
X10099200Y8390300D02*
D03*
X8829200D02*
D03*
X6123200Y9454300D02*
D03*
Y9708300D02*
D03*
Y9200300D02*
D03*
Y8946300D02*
D03*
X5361200D02*
D03*
Y9200300D02*
D03*
Y9454300D02*
D03*
D38*
X12280900Y11201400D02*
D03*
Y10185400D02*
D03*
X10756900Y9931400D02*
D03*
X12280900Y10947400D02*
D03*
Y9931400D02*
D03*
X10756900Y11201400D02*
D03*
Y10947400D02*
D03*
Y10693400D02*
D03*
Y10439400D02*
D03*
Y10185400D02*
D03*
Y9677400D02*
D03*
Y9423400D02*
D03*
X12280900Y11455400D02*
D03*
Y10693400D02*
D03*
Y10439400D02*
D03*
Y9677400D02*
D03*
Y9423400D02*
D03*
D39*
X6761200Y10408300D02*
D03*
D40*
X6861200Y5058300D02*
D03*
Y4808300D02*
D03*
X7361200Y5558300D02*
D03*
X7861200Y5058300D02*
D03*
Y4808300D02*
D03*
X11561200D02*
D03*
Y5058300D02*
D03*
X11061200Y5558300D02*
D03*
X10561200Y4808300D02*
D03*
Y5058300D02*
D03*
D41*
X6861200Y5558300D02*
D03*
X7861200D02*
D03*
X11561200D02*
D03*
X10561200D02*
D03*
D42*
X7361200Y5058300D02*
D03*
X11061200D02*
D03*
D43*
X10756900Y11455400D02*
D03*
D44*
X5361200Y9708300D02*
D03*
D45*
X8165200Y10408300D02*
D03*
D46*
X7657200D02*
D03*
D47*
X5211200Y11108300D02*
D03*
Y5108300D02*
D03*
X13211200Y11108300D02*
D03*
Y5108300D02*
D03*
D48*
X6511200Y10408300D02*
D03*
D54*
X9846200Y11258300D02*
D03*
X10176200D02*
D03*
D55*
X11158700Y6497050D02*
D03*
X7458700D02*
D03*
X11028700Y6919550D02*
D03*
X7328700D02*
D03*
X11158700D02*
D03*
X7458700D02*
D03*
X7393700D02*
D03*
X7263700D02*
D03*
X7393700Y6497050D02*
D03*
X7328700D02*
D03*
X7263700D02*
D03*
X10963700Y6919550D02*
D03*
X11093700D02*
D03*
Y6497050D02*
D03*
X11028700D02*
D03*
X10963700D02*
D03*
%TF.MD5,953688217458f942a56bc545145cd035*%
M02*
