%TF.GenerationSoftware,Altium Limited,Altium Designer,26.9.1 (10)*%
G04 Layer_Color=16711935*
G04 Board_Origin=0|0*
%FSLAX45Y45*%
%MOMM*%
%TF.SameCoordinates,98749BF1-F905-4457-8421-73FFC61A750B*%
%TF.FilePolarity,Negative*%
%TF.FileFunction,Soldermask,Bot*%
%TF.Part,Single*%
G01*
G75*
%TA.AperFunction,ComponentPad*%
G04:AMPARAMS|DCode=36|XSize=1.6mm|YSize=1.6mm|CornerRadius=0.128mm|HoleSize=0mm|Usage=FLASHONLY|Rotation=90.000|XOffset=0mm|YOffset=0mm|HoleType=Round|Shape=RoundedRectangle|*
%AMROUNDEDRECTD36*
21,1,1.60000,1.34400,0,0,90.0*
21,1,1.34400,1.60000,0,0,90.0*
1,1,0.25600,0.67200,0.67200*
1,1,0.25600,0.67200,-0.67200*
1,1,0.25600,-0.67200,-0.67200*
1,1,0.25600,-0.67200,0.67200*
%
%ADD36ROUNDEDRECTD36*%
%ADD37C,1.60000*%
%ADD38C,1.70000*%
G04:AMPARAMS|DCode=39|XSize=1.7mm|YSize=2mm|CornerRadius=0.85mm|HoleSize=0mm|Usage=FLASHONLY|Rotation=0.000|XOffset=0mm|YOffset=0mm|HoleType=Round|Shape=RoundedRectangle|*
%AMROUNDEDRECTD39*
21,1,1.70000,0.30000,0,0,0.0*
21,1,0.00000,2.00000,0,0,0.0*
1,1,1.70000,0.00000,-0.15000*
1,1,1.70000,0.00000,-0.15000*
1,1,1.70000,0.00000,0.15000*
1,1,1.70000,0.00000,0.15000*
%
%ADD39ROUNDEDRECTD39*%
%ADD40C,1.20000*%
G04:AMPARAMS|DCode=41|XSize=1.2mm|YSize=2.2mm|CornerRadius=0.6mm|HoleSize=0mm|Usage=FLASHONLY|Rotation=0.000|XOffset=0mm|YOffset=0mm|HoleType=Round|Shape=RoundedRectangle|*
%AMROUNDEDRECTD41*
21,1,1.20000,1.00000,0,0,0.0*
21,1,0.00000,2.20000,0,0,0.0*
1,1,1.20000,0.00000,-0.50000*
1,1,1.20000,0.00000,-0.50000*
1,1,1.20000,0.00000,0.50000*
1,1,1.20000,0.00000,0.50000*
%
%ADD41ROUNDEDRECTD41*%
G04:AMPARAMS|DCode=42|XSize=2.2mm|YSize=1.2mm|CornerRadius=0.6mm|HoleSize=0mm|Usage=FLASHONLY|Rotation=0.000|XOffset=0mm|YOffset=0mm|HoleType=Round|Shape=RoundedRectangle|*
%AMROUNDEDRECTD42*
21,1,2.20000,0.00000,0,0,0.0*
21,1,1.00000,1.20000,0,0,0.0*
1,1,1.20000,0.50000,0.00000*
1,1,1.20000,-0.50000,0.00000*
1,1,1.20000,-0.50000,0.00000*
1,1,1.20000,0.50000,0.00000*
%
%ADD42ROUNDEDRECTD42*%
%ADD43R,1.70000X1.70000*%
G04:AMPARAMS|DCode=44|XSize=1.6mm|YSize=1.6mm|CornerRadius=0.128mm|HoleSize=0mm|Usage=FLASHONLY|Rotation=0.000|XOffset=0mm|YOffset=0mm|HoleType=Round|Shape=RoundedRectangle|*
%AMROUNDEDRECTD44*
21,1,1.60000,1.34400,0,0,0.0*
21,1,1.34400,1.60000,0,0,0.0*
1,1,0.25600,0.67200,-0.67200*
1,1,0.25600,-0.67200,-0.67200*
1,1,0.25600,-0.67200,0.67200*
1,1,0.25600,0.67200,0.67200*
%
%ADD44ROUNDEDRECTD44*%
%ADD45C,1.80000*%
G04:AMPARAMS|DCode=46|XSize=1.8mm|YSize=1.8mm|CornerRadius=0.18mm|HoleSize=0mm|Usage=FLASHONLY|Rotation=0.000|XOffset=0mm|YOffset=0mm|HoleType=Round|Shape=RoundedRectangle|*
%AMROUNDEDRECTD46*
21,1,1.80000,1.44000,0,0,0.0*
21,1,1.44000,1.80000,0,0,0.0*
1,1,0.36000,0.72000,-0.72000*
1,1,0.36000,-0.72000,-0.72000*
1,1,0.36000,-0.72000,0.72000*
1,1,0.36000,0.72000,0.72000*
%
%ADD46ROUNDEDRECTD46*%
%ADD47C,3.20000*%
G04:AMPARAMS|DCode=48|XSize=1.7mm|YSize=2mm|CornerRadius=0.1275mm|HoleSize=0mm|Usage=FLASHONLY|Rotation=0.000|XOffset=0mm|YOffset=0mm|HoleType=Round|Shape=RoundedRectangle|*
%AMROUNDEDRECTD48*
21,1,1.70000,1.74500,0,0,0.0*
21,1,1.44500,2.00000,0,0,0.0*
1,1,0.25500,0.72250,-0.87250*
1,1,0.25500,-0.72250,-0.87250*
1,1,0.25500,-0.72250,0.87250*
1,1,0.25500,0.72250,0.87250*
%
%ADD48ROUNDEDRECTD48*%
D36*
X8321200Y7628300D02*
D03*
D37*
X8575200D02*
D03*
X8829200D02*
D03*
X9083200D02*
D03*
X9591200D02*
D03*
X9845200D02*
D03*
X10099200D02*
D03*
X9845200Y8390300D02*
D03*
X9591200D02*
D03*
X9337200D02*
D03*
X9083200D02*
D03*
X8575200D02*
D03*
X8321200D02*
D03*
X9337200Y7628300D02*
D03*
X10099200Y8390300D02*
D03*
X8829200D02*
D03*
X6123200Y9454300D02*
D03*
Y9708300D02*
D03*
Y9200300D02*
D03*
Y8946300D02*
D03*
X5361200D02*
D03*
Y9200300D02*
D03*
Y9454300D02*
D03*
D38*
X12280900Y11201400D02*
D03*
Y10185400D02*
D03*
X10756900Y9931400D02*
D03*
X12280900Y10947400D02*
D03*
Y9931400D02*
D03*
X10756900Y11201400D02*
D03*
Y10947400D02*
D03*
Y10693400D02*
D03*
Y10439400D02*
D03*
Y10185400D02*
D03*
Y9677400D02*
D03*
Y9423400D02*
D03*
X12280900Y11455400D02*
D03*
Y10693400D02*
D03*
Y10439400D02*
D03*
Y9677400D02*
D03*
Y9423400D02*
D03*
D39*
X6761200Y10408300D02*
D03*
D40*
X6861200Y5058300D02*
D03*
Y4808300D02*
D03*
X7361200Y5558300D02*
D03*
X7861200Y5058300D02*
D03*
Y4808300D02*
D03*
X11561200D02*
D03*
Y5058300D02*
D03*
X11061200Y5558300D02*
D03*
X10561200Y4808300D02*
D03*
Y5058300D02*
D03*
D41*
X6861200Y5558300D02*
D03*
X7861200D02*
D03*
X11561200D02*
D03*
X10561200D02*
D03*
D42*
X7361200Y5058300D02*
D03*
X11061200D02*
D03*
D43*
X10756900Y11455400D02*
D03*
D44*
X5361200Y9708300D02*
D03*
D45*
X8165200Y10408300D02*
D03*
D46*
X7657200D02*
D03*
D47*
X5211200Y11108300D02*
D03*
Y5108300D02*
D03*
X13211200Y11108300D02*
D03*
Y5108300D02*
D03*
D48*
X6511200Y10408300D02*
D03*
%TF.MD5,fc5c17f11d78d9aab5e8a0762fe90773*%
M02*
