%TF.GenerationSoftware,KiCad,Pcbnew,10.0.4*%
%TF.CreationDate,2026-06-28T04:05:27+03:00*%
%TF.ProjectId,EMG_v4,454d475f-7634-42e6-9b69-6361645f7063,rev?*%
%TF.SameCoordinates,Original*%
%TF.FileFunction,Copper,L2,Bot*%
%TF.FilePolarity,Positive*%
%FSLAX46Y46*%
G04 Gerber Fmt 4.6, Leading zero omitted, Abs format (unit mm)*
G04 Created by KiCad (PCBNEW 10.0.4) date 2026-06-28 04:05:27*
%MOMM*%
%LPD*%
G01*
G04 APERTURE LIST*
G04 Aperture macros list*
%AMRoundRect*
0 Rectangle with rounded corners*
0 $1 Rounding radius*
0 $2 $3 $4 $5 $6 $7 $8 $9 X,Y pos of 4 corners*
0 Add a 4 corners polygon primitive as box body*
4,1,4,$2,$3,$4,$5,$6,$7,$8,$9,$2,$3,0*
0 Add four circle primitives for the rounded corners*
1,1,$1+$1,$2,$3*
1,1,$1+$1,$4,$5*
1,1,$1+$1,$6,$7*
1,1,$1+$1,$8,$9*
0 Add four rect primitives between the rounded corners*
20,1,$1+$1,$2,$3,$4,$5,0*
20,1,$1+$1,$4,$5,$6,$7,0*
20,1,$1+$1,$6,$7,$8,$9,0*
20,1,$1+$1,$8,$9,$2,$3,0*%
G04 Aperture macros list end*
%TA.AperFunction,ComponentPad*%
%ADD10C,1.600000*%
%TD*%
%TA.AperFunction,ComponentPad*%
%ADD11RoundRect,0.250000X-0.550000X-0.550000X0.550000X-0.550000X0.550000X0.550000X-0.550000X0.550000X0*%
%TD*%
%TA.AperFunction,ComponentPad*%
%ADD12R,1.700000X1.700000*%
%TD*%
%TA.AperFunction,ComponentPad*%
%ADD13C,1.700000*%
%TD*%
%TA.AperFunction,ComponentPad*%
%ADD14O,1.200000X2.200000*%
%TD*%
%TA.AperFunction,ComponentPad*%
%ADD15O,2.200000X1.200000*%
%TD*%
%TA.AperFunction,ViaPad*%
%ADD16C,0.600000*%
%TD*%
%TA.AperFunction,Conductor*%
%ADD17C,0.500000*%
%TD*%
G04 APERTURE END LIST*
D10*
%TO.P,R3,1*%
%TO.N,GND*%
X65880000Y-35500000D03*
%TO.P,R3,2*%
%TO.N,/VREF*%
X73500000Y-35500000D03*
%TD*%
%TO.P,R8,1*%
%TO.N,Net-(R8-Pad1)*%
X65380000Y-19000000D03*
%TO.P,R8,2*%
%TO.N,/RAW_Out*%
X73000000Y-19000000D03*
%TD*%
%TO.P,C5,1*%
%TO.N,GND*%
X68500000Y-40000000D03*
%TO.P,C5,2*%
%TO.N,VCC*%
X73500000Y-40000000D03*
%TD*%
%TO.P,Cf2,1*%
%TO.N,GND*%
X82500000Y-19000000D03*
%TO.P,Cf2,2*%
%TO.N,/RAW_Out*%
X77500000Y-19000000D03*
%TD*%
D11*
%TO.P,U2,1*%
%TO.N,Net-(R8-Pad1)*%
X65880000Y-23460000D03*
D10*
%TO.P,U2,2,-_2*%
%TO.N,Net-(U2A--)*%
X65880000Y-26000000D03*
%TO.P,U2,3,+_3*%
%TO.N,/HPF_Out*%
X65880000Y-28540000D03*
%TO.P,U2,4,V-_4*%
%TO.N,GND*%
X65880000Y-31080000D03*
%TO.P,U2,5,+_5*%
%TO.N,/VREF*%
X73500000Y-31080000D03*
%TO.P,U2,6,-_6*%
X73500000Y-28540000D03*
%TO.P,U2,7*%
X73500000Y-26000000D03*
%TO.P,U2,8,V+_8*%
%TO.N,VCC*%
X73500000Y-23460000D03*
%TD*%
%TO.P,R5,1*%
%TO.N,/IN-*%
X29390000Y-28400000D03*
%TO.P,R5,2*%
%TO.N,Net-(U1--)*%
X37010000Y-28400000D03*
%TD*%
%TO.P,R4,1*%
%TO.N,/IN+*%
X29380000Y-33000000D03*
%TO.P,R4,2*%
%TO.N,Net-(U1-+)*%
X37000000Y-33000000D03*
%TD*%
%TO.P,Rf1,1*%
%TO.N,/RAW_Out*%
X63310000Y-22500000D03*
%TO.P,Rf1,2*%
%TO.N,Net-(U2A--)*%
X55690000Y-22500000D03*
%TD*%
%TO.P,R6,1*%
%TO.N,/VREF*%
X55380000Y-32000000D03*
%TO.P,R6,2*%
%TO.N,/HPF_Out*%
X63000000Y-32000000D03*
%TD*%
%TO.P,R7,1*%
%TO.N,/BODY_REF*%
X29380000Y-37500000D03*
%TO.P,R7,2*%
%TO.N,/VREF*%
X37000000Y-37500000D03*
%TD*%
%TO.P,C4,1*%
%TO.N,/INA_OUT*%
X47500000Y-29000000D03*
%TO.P,C4,2*%
%TO.N,/HPF_Out*%
X52500000Y-29000000D03*
%TD*%
D12*
%TO.P,J2,1,Pin_1_1*%
%TO.N,VCC*%
X80000000Y-22880000D03*
D13*
%TO.P,J2,2,Pin_2_2*%
%TO.N,/RAW_Out*%
X80000000Y-25420000D03*
%TO.P,J2,3,Pin_3_3*%
%TO.N,/VREF*%
X80000000Y-27960000D03*
%TO.P,J2,4,Pin_4_4*%
%TO.N,GND*%
X80000000Y-30500000D03*
%TD*%
D10*
%TO.P,Rg1,1*%
%TO.N,/VREF*%
X55380000Y-36500000D03*
%TO.P,Rg1,2*%
%TO.N,Net-(U2A--)*%
X63000000Y-36500000D03*
%TD*%
%TO.P,C2,1*%
%TO.N,/VREF*%
X76500000Y-40000000D03*
%TO.P,C2,2*%
%TO.N,GND*%
X81500000Y-40000000D03*
%TD*%
%TO.P,R2,1*%
%TO.N,/VREF*%
X55000000Y-27500000D03*
%TO.P,R2,2*%
%TO.N,VCC*%
X62620000Y-27500000D03*
%TD*%
D14*
%TO.P,J1,R*%
%TO.N,/IN-*%
X25200000Y-28000000D03*
D15*
%TO.P,J1,S*%
%TO.N,/IN+*%
X20200000Y-33000000D03*
D14*
%TO.P,J1,T*%
%TO.N,/BODY_REF*%
X25200000Y-38000000D03*
%TD*%
D10*
%TO.P,Rg_HPF1,1*%
%TO.N,Net-(Rg_HPF1-Pad1)*%
X38690000Y-24500000D03*
%TO.P,Rg_HPF1,2*%
%TO.N,Net-(Rg_HPF1-Pad2)*%
X46310000Y-24500000D03*
%TD*%
D11*
%TO.P,C3,1*%
%TO.N,/VREF*%
X76500000Y-35500000D03*
D10*
%TO.P,C3,2*%
%TO.N,GND*%
X79000000Y-35500000D03*
%TD*%
%TO.P,C6,1*%
%TO.N,GND*%
X76500000Y-28500000D03*
%TO.P,C6,2*%
%TO.N,VCC*%
X76500000Y-23500000D03*
%TD*%
D16*
%TO.N,GND*%
X38800000Y-30887500D03*
%TO.N,Net-(R8-Pad1)*%
X66000000Y-22000000D03*
%TO.N,/RAW_Out*%
X78000000Y-22500000D03*
X78000000Y-24500000D03*
%TO.N,VCC*%
X46243090Y-28668061D03*
%TD*%
%TO.N,GND*%
D17*
X65880000Y-31080000D02*
X65880000Y-35500000D01*
%TO.N,Net-(R8-Pad1)*%
X65380000Y-19000000D02*
X65380000Y-21380000D01*
X65380000Y-21380000D02*
X66000000Y-22000000D01*
%TO.N,/RAW_Out*%
X78000000Y-22500000D02*
X78000000Y-24500000D01*
%TO.N,VCC*%
X65600000Y-37900000D02*
X64500000Y-39000000D01*
X75000000Y-38500000D02*
X75000000Y-24960000D01*
X64500000Y-39000000D02*
X55500000Y-39000000D01*
X73500000Y-40000000D02*
X75000000Y-38500000D01*
X71400000Y-37900000D02*
X65600000Y-37900000D01*
X75000000Y-24960000D02*
X73500000Y-23460000D01*
X55500000Y-39000000D02*
X46243090Y-29743090D01*
X46243090Y-29743090D02*
X46243090Y-28668061D01*
X73500000Y-40000000D02*
X71400000Y-37900000D01*
%TO.N,Net-(U2A--)*%
X55690000Y-22500000D02*
X55690000Y-23690000D01*
X57000000Y-25000000D02*
X64880000Y-25000000D01*
X64500000Y-27380000D02*
X65880000Y-26000000D01*
X55690000Y-23690000D02*
X57000000Y-25000000D01*
X64880000Y-25000000D02*
X65880000Y-26000000D01*
X64500000Y-35000000D02*
X64500000Y-27380000D01*
X63000000Y-36500000D02*
X64500000Y-35000000D01*
%TO.N,/HPF_Out*%
X53500000Y-30000000D02*
X62000000Y-30000000D01*
X52500000Y-29000000D02*
X53500000Y-30000000D01*
X62000000Y-30000000D02*
X63000000Y-31000000D01*
X63000000Y-31000000D02*
X63000000Y-32000000D01*
%TD*%
%TA.AperFunction,Conductor*%
%TO.N,GND*%
G36*
X33725685Y-14500473D02*
G01*
X33726089Y-14500500D01*
X33800362Y-14500500D01*
X33865715Y-14500523D01*
X33865801Y-14500500D01*
X49934108Y-14500500D01*
X85534108Y-14500500D01*
X85595948Y-14500500D01*
X85604028Y-14500764D01*
X85839843Y-14516220D01*
X85855899Y-14518335D01*
X86024832Y-14551937D01*
X86083653Y-14563638D01*
X86099320Y-14567836D01*
X86259332Y-14622152D01*
X86319212Y-14642479D01*
X86334189Y-14648682D01*
X86511640Y-14736191D01*
X86542460Y-14751390D01*
X86556508Y-14759500D01*
X86749588Y-14888513D01*
X86762452Y-14898384D01*
X86937038Y-15051492D01*
X86948507Y-15062961D01*
X87101615Y-15237547D01*
X87111489Y-15250415D01*
X87240499Y-15443492D01*
X87248609Y-15457539D01*
X87351314Y-15665803D01*
X87357521Y-15680789D01*
X87432163Y-15900679D01*
X87436361Y-15916346D01*
X87481663Y-16144095D01*
X87483780Y-16160175D01*
X87499234Y-16395940D01*
X87499500Y-16404051D01*
X87499500Y-44394587D01*
X87499028Y-44405395D01*
X87483741Y-44580116D01*
X87479988Y-44601401D01*
X87435999Y-44765573D01*
X87428606Y-44785885D01*
X87356779Y-44939918D01*
X87345972Y-44958636D01*
X87248488Y-45097858D01*
X87234594Y-45114416D01*
X87114416Y-45234594D01*
X87097858Y-45248488D01*
X86958636Y-45345972D01*
X86939918Y-45356779D01*
X86785885Y-45428606D01*
X86765573Y-45435999D01*
X86601401Y-45479988D01*
X86580116Y-45483741D01*
X86424395Y-45497365D01*
X86405393Y-45499028D01*
X86394588Y-45499500D01*
X15934099Y-45499500D01*
X15933149Y-45499625D01*
X15909753Y-45500473D01*
X15692295Y-45487776D01*
X15677936Y-45486093D01*
X15640630Y-45479497D01*
X15381553Y-45433693D01*
X15367488Y-45430351D01*
X15079207Y-45343808D01*
X15065625Y-45338851D01*
X14856749Y-45248488D01*
X14789376Y-45219341D01*
X14776467Y-45212838D01*
X14606530Y-45114416D01*
X14516009Y-45061989D01*
X14503954Y-45054034D01*
X14262816Y-44873888D01*
X14251760Y-44864576D01*
X14033237Y-44657596D01*
X14023338Y-44647059D01*
X13976453Y-44590926D01*
X13830385Y-44416044D01*
X13821794Y-44404446D01*
X13657034Y-44152529D01*
X13649844Y-44139995D01*
X13515538Y-43870639D01*
X13509852Y-43857346D01*
X13407808Y-43574182D01*
X13403708Y-43560319D01*
X13379417Y-43456212D01*
X13335315Y-43267200D01*
X13332860Y-43252976D01*
X13299047Y-42953873D01*
X13298264Y-42939455D01*
X13299314Y-42682484D01*
X13299335Y-42680718D01*
X13299545Y-42669451D01*
X13300500Y-42665892D01*
X13300500Y-42618349D01*
X13300522Y-42617172D01*
X13300577Y-42616993D01*
X13300742Y-42611749D01*
X13303636Y-42565461D01*
X13303636Y-42565455D01*
X13302956Y-42562090D01*
X13300500Y-42537534D01*
X13300500Y-37916228D01*
X16849500Y-37916228D01*
X16849500Y-38083771D01*
X16882182Y-38248074D01*
X16882184Y-38248082D01*
X16946295Y-38402860D01*
X17039373Y-38542162D01*
X17157837Y-38660626D01*
X17216765Y-38700000D01*
X17297137Y-38753703D01*
X17451918Y-38817816D01*
X17548409Y-38837009D01*
X17616228Y-38850499D01*
X17616232Y-38850500D01*
X17616233Y-38850500D01*
X17783768Y-38850500D01*
X17783769Y-38850499D01*
X17948082Y-38817816D01*
X18102863Y-38753703D01*
X18242162Y-38660626D01*
X18360626Y-38542162D01*
X18453703Y-38402863D01*
X18517816Y-38248082D01*
X18550500Y-38083767D01*
X18550500Y-37916233D01*
X18550499Y-37916228D01*
X19349500Y-37916228D01*
X19349500Y-38083771D01*
X19382182Y-38248074D01*
X19382184Y-38248082D01*
X19446295Y-38402860D01*
X19539373Y-38542162D01*
X19657837Y-38660626D01*
X19716765Y-38700000D01*
X19797137Y-38753703D01*
X19951918Y-38817816D01*
X20048409Y-38837009D01*
X20116228Y-38850499D01*
X20116232Y-38850500D01*
X20116233Y-38850500D01*
X20283768Y-38850500D01*
X20283769Y-38850499D01*
X20448082Y-38817816D01*
X20602863Y-38753703D01*
X20742162Y-38660626D01*
X20860626Y-38542162D01*
X20953703Y-38402863D01*
X21017816Y-38248082D01*
X21050500Y-38083767D01*
X21050500Y-37916233D01*
X21017816Y-37751918D01*
X20953703Y-37597137D01*
X20953701Y-37597134D01*
X20873703Y-37477407D01*
X20860628Y-37457840D01*
X20860623Y-37457834D01*
X20816178Y-37413389D01*
X24099500Y-37413389D01*
X24099500Y-38586610D01*
X24125964Y-38753703D01*
X24126598Y-38757701D01*
X24180127Y-38922445D01*
X24258768Y-39076788D01*
X24360586Y-39216928D01*
X24483072Y-39339414D01*
X24623212Y-39441232D01*
X24777555Y-39519873D01*
X24942299Y-39573402D01*
X25113389Y-39600500D01*
X25113390Y-39600500D01*
X25286610Y-39600500D01*
X25286611Y-39600500D01*
X25457701Y-39573402D01*
X25622445Y-39519873D01*
X25776788Y-39441232D01*
X25916928Y-39339414D01*
X26039414Y-39216928D01*
X26141232Y-39076788D01*
X26219873Y-38922445D01*
X26273402Y-38757701D01*
X26300500Y-38586611D01*
X26300500Y-37413389D01*
X26298007Y-37397648D01*
X28079500Y-37397648D01*
X28079500Y-37602351D01*
X28111522Y-37804534D01*
X28174781Y-37999223D01*
X28267715Y-38181613D01*
X28388028Y-38347213D01*
X28532786Y-38491971D01*
X28687749Y-38604556D01*
X28698390Y-38612287D01*
X28812021Y-38670185D01*
X28880776Y-38705218D01*
X28880778Y-38705218D01*
X28880781Y-38705220D01*
X28963229Y-38732009D01*
X29075465Y-38768477D01*
X29176557Y-38784488D01*
X29277648Y-38800500D01*
X29277649Y-38800500D01*
X29482351Y-38800500D01*
X29482352Y-38800500D01*
X29684534Y-38768477D01*
X29879219Y-38705220D01*
X30061610Y-38612287D01*
X30158130Y-38542162D01*
X30227213Y-38491971D01*
X30227215Y-38491968D01*
X30227219Y-38491966D01*
X30371966Y-38347219D01*
X30371968Y-38347215D01*
X30371971Y-38347213D01*
X30442962Y-38249500D01*
X30492287Y-38181610D01*
X30585220Y-37999219D01*
X30648477Y-37804534D01*
X30680500Y-37602352D01*
X30680500Y-37397648D01*
X35699500Y-37397648D01*
X35699500Y-37602351D01*
X35731522Y-37804534D01*
X35794781Y-37999223D01*
X35887715Y-38181613D01*
X36008028Y-38347213D01*
X36152786Y-38491971D01*
X36307749Y-38604556D01*
X36318390Y-38612287D01*
X36432021Y-38670185D01*
X36500776Y-38705218D01*
X36500778Y-38705218D01*
X36500781Y-38705220D01*
X36583229Y-38732009D01*
X36695465Y-38768477D01*
X36796557Y-38784488D01*
X36897648Y-38800500D01*
X36897649Y-38800500D01*
X37102351Y-38800500D01*
X37102352Y-38800500D01*
X37304534Y-38768477D01*
X37499219Y-38705220D01*
X37681610Y-38612287D01*
X37778130Y-38542162D01*
X37847213Y-38491971D01*
X37847215Y-38491968D01*
X37847219Y-38491966D01*
X37991966Y-38347219D01*
X37991968Y-38347215D01*
X37991971Y-38347213D01*
X38062962Y-38249500D01*
X38112287Y-38181610D01*
X38205220Y-37999219D01*
X38268477Y-37804534D01*
X38300500Y-37602352D01*
X38300500Y-37397648D01*
X38268477Y-37195466D01*
X38264161Y-37182184D01*
X38205218Y-37000776D01*
X38171503Y-36934607D01*
X38112287Y-36818390D01*
X38080416Y-36774523D01*
X37991971Y-36652786D01*
X37847213Y-36508028D01*
X37681613Y-36387715D01*
X37681612Y-36387714D01*
X37681610Y-36387713D01*
X37624653Y-36358691D01*
X37499223Y-36294781D01*
X37304534Y-36231522D01*
X37123168Y-36202797D01*
X37102352Y-36199500D01*
X36897648Y-36199500D01*
X36876832Y-36202797D01*
X36695465Y-36231522D01*
X36500776Y-36294781D01*
X36318386Y-36387715D01*
X36152786Y-36508028D01*
X36008028Y-36652786D01*
X35887715Y-36818386D01*
X35794781Y-37000776D01*
X35731522Y-37195465D01*
X35699500Y-37397648D01*
X30680500Y-37397648D01*
X30648477Y-37195466D01*
X30644161Y-37182184D01*
X30585218Y-37000776D01*
X30551503Y-36934607D01*
X30492287Y-36818390D01*
X30460416Y-36774523D01*
X30371971Y-36652786D01*
X30227213Y-36508028D01*
X30061613Y-36387715D01*
X30061612Y-36387714D01*
X30061610Y-36387713D01*
X30004653Y-36358691D01*
X29879223Y-36294781D01*
X29684534Y-36231522D01*
X29503168Y-36202797D01*
X29482352Y-36199500D01*
X29277648Y-36199500D01*
X29256832Y-36202797D01*
X29075465Y-36231522D01*
X28880776Y-36294781D01*
X28698386Y-36387715D01*
X28532786Y-36508028D01*
X28388028Y-36652786D01*
X28267715Y-36818386D01*
X28174781Y-37000776D01*
X28111522Y-37195465D01*
X28079500Y-37397648D01*
X26298007Y-37397648D01*
X26274701Y-37250499D01*
X26273403Y-37242303D01*
X26273402Y-37242302D01*
X26273402Y-37242299D01*
X26219873Y-37077555D01*
X26141232Y-36923212D01*
X26039414Y-36783072D01*
X25916928Y-36660586D01*
X25776788Y-36558768D01*
X25622445Y-36480127D01*
X25457701Y-36426598D01*
X25457699Y-36426597D01*
X25457698Y-36426597D01*
X25326271Y-36405781D01*
X25286611Y-36399500D01*
X25113389Y-36399500D01*
X25073728Y-36405781D01*
X24942302Y-36426597D01*
X24777552Y-36480128D01*
X24623211Y-36558768D01*
X24563225Y-36602351D01*
X24483072Y-36660586D01*
X24483070Y-36660588D01*
X24483069Y-36660588D01*
X24360588Y-36783069D01*
X24360588Y-36783070D01*
X24360586Y-36783072D01*
X24334929Y-36818386D01*
X24258768Y-36923211D01*
X24180128Y-37077552D01*
X24126597Y-37242302D01*
X24099500Y-37413389D01*
X20816178Y-37413389D01*
X20742162Y-37339373D01*
X20602860Y-37246295D01*
X20448082Y-37182184D01*
X20448074Y-37182182D01*
X20283771Y-37149500D01*
X20283767Y-37149500D01*
X20116233Y-37149500D01*
X20116228Y-37149500D01*
X19951925Y-37182182D01*
X19951917Y-37182184D01*
X19797139Y-37246295D01*
X19657837Y-37339373D01*
X19539373Y-37457837D01*
X19446295Y-37597139D01*
X19382184Y-37751917D01*
X19382182Y-37751925D01*
X19349500Y-37916228D01*
X18550499Y-37916228D01*
X18517816Y-37751918D01*
X18453703Y-37597137D01*
X18373702Y-37477407D01*
X18360626Y-37457837D01*
X18242162Y-37339373D01*
X18102860Y-37246295D01*
X17948082Y-37182184D01*
X17948074Y-37182182D01*
X17783771Y-37149500D01*
X17783767Y-37149500D01*
X17616233Y-37149500D01*
X17616228Y-37149500D01*
X17451925Y-37182182D01*
X17451917Y-37182184D01*
X17297139Y-37246295D01*
X17157837Y-37339373D01*
X17039373Y-37457837D01*
X16946295Y-37597139D01*
X16882184Y-37751917D01*
X16882182Y-37751925D01*
X16849500Y-37916228D01*
X13300500Y-37916228D01*
X13300500Y-32913389D01*
X18599500Y-32913389D01*
X18599500Y-33086610D01*
X18623801Y-33240046D01*
X18626598Y-33257701D01*
X18680127Y-33422445D01*
X18758768Y-33576788D01*
X18860586Y-33716928D01*
X18983072Y-33839414D01*
X19123212Y-33941232D01*
X19277555Y-34019873D01*
X19442299Y-34073402D01*
X19613389Y-34100500D01*
X19613390Y-34100500D01*
X20786610Y-34100500D01*
X20786611Y-34100500D01*
X20957701Y-34073402D01*
X21122445Y-34019873D01*
X21276788Y-33941232D01*
X21416928Y-33839414D01*
X21539414Y-33716928D01*
X21641232Y-33576788D01*
X21719873Y-33422445D01*
X21773402Y-33257701D01*
X21800500Y-33086611D01*
X21800500Y-32916228D01*
X24349500Y-32916228D01*
X24349500Y-33083771D01*
X24382182Y-33248074D01*
X24382184Y-33248082D01*
X24446295Y-33402860D01*
X24539373Y-33542162D01*
X24657837Y-33660626D01*
X24750494Y-33722537D01*
X24797137Y-33753703D01*
X24951918Y-33817816D01*
X25099708Y-33847213D01*
X25116228Y-33850499D01*
X25116232Y-33850500D01*
X25116233Y-33850500D01*
X25283768Y-33850500D01*
X25283769Y-33850499D01*
X25448082Y-33817816D01*
X25602863Y-33753703D01*
X25742162Y-33660626D01*
X25860626Y-33542162D01*
X25953703Y-33402863D01*
X26017816Y-33248082D01*
X26050500Y-33083767D01*
X26050500Y-32916233D01*
X26050500Y-32916232D01*
X26050499Y-32916224D01*
X26046804Y-32897648D01*
X28079500Y-32897648D01*
X28079500Y-33102351D01*
X28111522Y-33304534D01*
X28174781Y-33499223D01*
X28267715Y-33681613D01*
X28388028Y-33847213D01*
X28532786Y-33991971D01*
X28650453Y-34077459D01*
X28698390Y-34112287D01*
X28814607Y-34171503D01*
X28880776Y-34205218D01*
X28880778Y-34205218D01*
X28880781Y-34205220D01*
X28963229Y-34232009D01*
X29075465Y-34268477D01*
X29176557Y-34284488D01*
X29277648Y-34300500D01*
X29277649Y-34300500D01*
X29482351Y-34300500D01*
X29482352Y-34300500D01*
X29684534Y-34268477D01*
X29879219Y-34205220D01*
X30061610Y-34112287D01*
X30188811Y-34019871D01*
X30227213Y-33991971D01*
X30227215Y-33991968D01*
X30227219Y-33991966D01*
X30371966Y-33847219D01*
X30371968Y-33847215D01*
X30371971Y-33847213D01*
X30439909Y-33753703D01*
X30492287Y-33681610D01*
X30585220Y-33499219D01*
X30648477Y-33304534D01*
X30680500Y-33102352D01*
X30680500Y-32897648D01*
X35699500Y-32897648D01*
X35699500Y-33102351D01*
X35731522Y-33304534D01*
X35794781Y-33499223D01*
X35887715Y-33681613D01*
X36008028Y-33847213D01*
X36152786Y-33991971D01*
X36270453Y-34077459D01*
X36318390Y-34112287D01*
X36434607Y-34171503D01*
X36500776Y-34205218D01*
X36500778Y-34205218D01*
X36500781Y-34205220D01*
X36583229Y-34232009D01*
X36695465Y-34268477D01*
X36796557Y-34284488D01*
X36897648Y-34300500D01*
X36897649Y-34300500D01*
X37102351Y-34300500D01*
X37102352Y-34300500D01*
X37304534Y-34268477D01*
X37499219Y-34205220D01*
X37681610Y-34112287D01*
X37808811Y-34019871D01*
X37847213Y-33991971D01*
X37847215Y-33991968D01*
X37847219Y-33991966D01*
X37991966Y-33847219D01*
X37991968Y-33847215D01*
X37991971Y-33847213D01*
X38059909Y-33753703D01*
X38112287Y-33681610D01*
X38205220Y-33499219D01*
X38268477Y-33304534D01*
X38300500Y-33102352D01*
X38300500Y-32897648D01*
X38268477Y-32695466D01*
X38205220Y-32500781D01*
X38205218Y-32500778D01*
X38205218Y-32500776D01*
X38171503Y-32434607D01*
X38112287Y-32318390D01*
X38088188Y-32285220D01*
X37991971Y-32152786D01*
X37847213Y-32008028D01*
X37681613Y-31887715D01*
X37681612Y-31887714D01*
X37681610Y-31887713D01*
X37607594Y-31850000D01*
X37499223Y-31794781D01*
X37304534Y-31731522D01*
X37129995Y-31703878D01*
X37102352Y-31699500D01*
X36897648Y-31699500D01*
X36873329Y-31703351D01*
X36695465Y-31731522D01*
X36500776Y-31794781D01*
X36318386Y-31887715D01*
X36152786Y-32008028D01*
X36008028Y-32152786D01*
X35887715Y-32318386D01*
X35794781Y-32500776D01*
X35731522Y-32695465D01*
X35699500Y-32897648D01*
X30680500Y-32897648D01*
X30648477Y-32695466D01*
X30585220Y-32500781D01*
X30585218Y-32500778D01*
X30585218Y-32500776D01*
X30551503Y-32434607D01*
X30492287Y-32318390D01*
X30468188Y-32285220D01*
X30371971Y-32152786D01*
X30227213Y-32008028D01*
X30061613Y-31887715D01*
X30061612Y-31887714D01*
X30061610Y-31887713D01*
X29987594Y-31850000D01*
X29879223Y-31794781D01*
X29684534Y-31731522D01*
X29509995Y-31703878D01*
X29482352Y-31699500D01*
X29277648Y-31699500D01*
X29253329Y-31703351D01*
X29075465Y-31731522D01*
X28880776Y-31794781D01*
X28698386Y-31887715D01*
X28532786Y-32008028D01*
X28388028Y-32152786D01*
X28267715Y-32318386D01*
X28174781Y-32500776D01*
X28111522Y-32695465D01*
X28079500Y-32897648D01*
X26046804Y-32897648D01*
X26017817Y-32751925D01*
X26017816Y-32751918D01*
X25953703Y-32597137D01*
X25889320Y-32500781D01*
X25860626Y-32457837D01*
X25742162Y-32339373D01*
X25602860Y-32246295D01*
X25448082Y-32182184D01*
X25448074Y-32182182D01*
X25283771Y-32149500D01*
X25283767Y-32149500D01*
X25116233Y-32149500D01*
X25116228Y-32149500D01*
X24951925Y-32182182D01*
X24951917Y-32182184D01*
X24797139Y-32246295D01*
X24657837Y-32339373D01*
X24539373Y-32457837D01*
X24446295Y-32597139D01*
X24382184Y-32751917D01*
X24382182Y-32751925D01*
X24349500Y-32916228D01*
X21800500Y-32916228D01*
X21800500Y-32913389D01*
X21773402Y-32742299D01*
X21719873Y-32577555D01*
X21641232Y-32423212D01*
X21539414Y-32283072D01*
X21416928Y-32160586D01*
X21276788Y-32058768D01*
X21122445Y-31980127D01*
X20957701Y-31926598D01*
X20957699Y-31926597D01*
X20957698Y-31926597D01*
X20826271Y-31905781D01*
X20786611Y-31899500D01*
X19613389Y-31899500D01*
X19573728Y-31905781D01*
X19442302Y-31926597D01*
X19277552Y-31980128D01*
X19123211Y-32058768D01*
X19063225Y-32102351D01*
X18983072Y-32160586D01*
X18983070Y-32160588D01*
X18983069Y-32160588D01*
X18860588Y-32283069D01*
X18860588Y-32283070D01*
X18860586Y-32283072D01*
X18851845Y-32295103D01*
X18758768Y-32423211D01*
X18680128Y-32577552D01*
X18626597Y-32742302D01*
X18599500Y-32913389D01*
X13300500Y-32913389D01*
X13300500Y-28325976D01*
X13300540Y-28325976D01*
X13300132Y-28316250D01*
X13314361Y-28016777D01*
X13315477Y-28005069D01*
X13328217Y-27916228D01*
X16849500Y-27916228D01*
X16849500Y-28083771D01*
X16882182Y-28248074D01*
X16882184Y-28248082D01*
X16946295Y-28402860D01*
X17039373Y-28542162D01*
X17157837Y-28660626D01*
X17224574Y-28705218D01*
X17297137Y-28753703D01*
X17451918Y-28817816D01*
X17562370Y-28839786D01*
X17616228Y-28850499D01*
X17616232Y-28850500D01*
X17616233Y-28850500D01*
X17783768Y-28850500D01*
X17783769Y-28850499D01*
X17948082Y-28817816D01*
X18102863Y-28753703D01*
X18242162Y-28660626D01*
X18360626Y-28542162D01*
X18453703Y-28402863D01*
X18517816Y-28248082D01*
X18550500Y-28083767D01*
X18550500Y-27916233D01*
X18550499Y-27916228D01*
X19349500Y-27916228D01*
X19349500Y-28083771D01*
X19382182Y-28248074D01*
X19382184Y-28248082D01*
X19446295Y-28402860D01*
X19539373Y-28542162D01*
X19657837Y-28660626D01*
X19724574Y-28705218D01*
X19797137Y-28753703D01*
X19951918Y-28817816D01*
X20062370Y-28839786D01*
X20116228Y-28850499D01*
X20116232Y-28850500D01*
X20116233Y-28850500D01*
X20283768Y-28850500D01*
X20283769Y-28850499D01*
X20448082Y-28817816D01*
X20602863Y-28753703D01*
X20742162Y-28660626D01*
X20860626Y-28542162D01*
X20953703Y-28402863D01*
X21017816Y-28248082D01*
X21050500Y-28083767D01*
X21050500Y-27916233D01*
X21017816Y-27751918D01*
X20953703Y-27597137D01*
X20953701Y-27597134D01*
X20873703Y-27477407D01*
X20860628Y-27457840D01*
X20860623Y-27457834D01*
X20816178Y-27413389D01*
X24099500Y-27413389D01*
X24099500Y-28586610D01*
X24125964Y-28753703D01*
X24126598Y-28757701D01*
X24180127Y-28922445D01*
X24258768Y-29076788D01*
X24360586Y-29216928D01*
X24483072Y-29339414D01*
X24623212Y-29441232D01*
X24777555Y-29519873D01*
X24942299Y-29573402D01*
X25113389Y-29600500D01*
X25113390Y-29600500D01*
X25286610Y-29600500D01*
X25286611Y-29600500D01*
X25457701Y-29573402D01*
X25622445Y-29519873D01*
X25776788Y-29441232D01*
X25916928Y-29339414D01*
X26039414Y-29216928D01*
X26141232Y-29076788D01*
X26219873Y-28922445D01*
X26273402Y-28757701D01*
X26300500Y-28586611D01*
X26300500Y-28297648D01*
X28089500Y-28297648D01*
X28089500Y-28502352D01*
X28093878Y-28529995D01*
X28121522Y-28704534D01*
X28184781Y-28899223D01*
X28277715Y-29081613D01*
X28398028Y-29247213D01*
X28542786Y-29391971D01*
X28690403Y-29499219D01*
X28708390Y-29512287D01*
X28824607Y-29571503D01*
X28890776Y-29605218D01*
X28890778Y-29605218D01*
X28890781Y-29605220D01*
X28995137Y-29639127D01*
X29085465Y-29668477D01*
X29168383Y-29681610D01*
X29287648Y-29700500D01*
X29287649Y-29700500D01*
X29492351Y-29700500D01*
X29492352Y-29700500D01*
X29694534Y-29668477D01*
X29889219Y-29605220D01*
X30071610Y-29512287D01*
X30202691Y-29417052D01*
X30237213Y-29391971D01*
X30237215Y-29391968D01*
X30237219Y-29391966D01*
X30381966Y-29247219D01*
X30381968Y-29247215D01*
X30381971Y-29247213D01*
X30434732Y-29174590D01*
X30502287Y-29081610D01*
X30595220Y-28899219D01*
X30658477Y-28704534D01*
X30690500Y-28502352D01*
X30690500Y-28297648D01*
X35709500Y-28297648D01*
X35709500Y-28502352D01*
X35713878Y-28529995D01*
X35741522Y-28704534D01*
X35804781Y-28899223D01*
X35897715Y-29081613D01*
X36018028Y-29247213D01*
X36162786Y-29391971D01*
X36310403Y-29499219D01*
X36328390Y-29512287D01*
X36444607Y-29571503D01*
X36510776Y-29605218D01*
X36510778Y-29605218D01*
X36510781Y-29605220D01*
X36615137Y-29639127D01*
X36705465Y-29668477D01*
X36788383Y-29681610D01*
X36907648Y-29700500D01*
X36907649Y-29700500D01*
X37112351Y-29700500D01*
X37112352Y-29700500D01*
X37314534Y-29668477D01*
X37509219Y-29605220D01*
X37691610Y-29512287D01*
X37822691Y-29417052D01*
X37857213Y-29391971D01*
X37857215Y-29391968D01*
X37857219Y-29391966D01*
X38001966Y-29247219D01*
X38001968Y-29247215D01*
X38001971Y-29247213D01*
X38054732Y-29174590D01*
X38122287Y-29081610D01*
X38215220Y-28899219D01*
X38278477Y-28704534D01*
X38284293Y-28667816D01*
X38296743Y-28589214D01*
X45442590Y-28589214D01*
X45442590Y-28746907D01*
X45473351Y-28901550D01*
X45473353Y-28901558D01*
X45483151Y-28925212D01*
X45492590Y-28972665D01*
X45492590Y-29817008D01*
X45492590Y-29817010D01*
X45492589Y-29817010D01*
X45521430Y-29961997D01*
X45521433Y-29962007D01*
X45578004Y-30098582D01*
X45610902Y-30147817D01*
X45610903Y-30147820D01*
X45660136Y-30221504D01*
X45660142Y-30221511D01*
X54917049Y-39478416D01*
X55021584Y-39582951D01*
X55021587Y-39582953D01*
X55021588Y-39582954D01*
X55144503Y-39665083D01*
X55144506Y-39665085D01*
X55180322Y-39679920D01*
X55201080Y-39688518D01*
X55281088Y-39721659D01*
X55397241Y-39744763D01*
X55420380Y-39749365D01*
X55426081Y-39750500D01*
X55426082Y-39750500D01*
X64573920Y-39750500D01*
X64671462Y-39731096D01*
X64718913Y-39721658D01*
X64855495Y-39665084D01*
X64904729Y-39632186D01*
X64978416Y-39582952D01*
X65874549Y-38686819D01*
X65935872Y-38653334D01*
X65962230Y-38650500D01*
X67768549Y-38650500D01*
X67835588Y-38670185D01*
X67881343Y-38722989D01*
X67891287Y-38792147D01*
X67862262Y-38855703D01*
X67824845Y-38884984D01*
X67818648Y-38888141D01*
X67818645Y-38888143D01*
X67774077Y-38920523D01*
X67774077Y-38920524D01*
X68453554Y-39600000D01*
X68447339Y-39600000D01*
X68345606Y-39627259D01*
X68254394Y-39679920D01*
X68179920Y-39754394D01*
X68127259Y-39845606D01*
X68100000Y-39947339D01*
X68100000Y-39953553D01*
X67420524Y-39274077D01*
X67420523Y-39274077D01*
X67388143Y-39318644D01*
X67295244Y-39500968D01*
X67232009Y-39695582D01*
X67200000Y-39897682D01*
X67200000Y-40102317D01*
X67232009Y-40304417D01*
X67295244Y-40499031D01*
X67388141Y-40681350D01*
X67388147Y-40681359D01*
X67420523Y-40725921D01*
X67420524Y-40725922D01*
X68100000Y-40046446D01*
X68100000Y-40052661D01*
X68127259Y-40154394D01*
X68179920Y-40245606D01*
X68254394Y-40320080D01*
X68345606Y-40372741D01*
X68447339Y-40400000D01*
X68453553Y-40400000D01*
X67774076Y-41079474D01*
X67818650Y-41111859D01*
X68000968Y-41204755D01*
X68195582Y-41267990D01*
X68397683Y-41300000D01*
X68602317Y-41300000D01*
X68804417Y-41267990D01*
X68999031Y-41204755D01*
X69181349Y-41111859D01*
X69225921Y-41079474D01*
X68546447Y-40400000D01*
X68552661Y-40400000D01*
X68654394Y-40372741D01*
X68745606Y-40320080D01*
X68820080Y-40245606D01*
X68872741Y-40154394D01*
X68900000Y-40052661D01*
X68900000Y-40046447D01*
X69579474Y-40725921D01*
X69611859Y-40681349D01*
X69704755Y-40499031D01*
X69767990Y-40304417D01*
X69800000Y-40102317D01*
X69800000Y-39897682D01*
X69767990Y-39695582D01*
X69704755Y-39500968D01*
X69611859Y-39318650D01*
X69579474Y-39274077D01*
X69579474Y-39274076D01*
X68900000Y-39953551D01*
X68900000Y-39947339D01*
X68872741Y-39845606D01*
X68820080Y-39754394D01*
X68745606Y-39679920D01*
X68654394Y-39627259D01*
X68552661Y-39600000D01*
X68546446Y-39600000D01*
X69225922Y-38920524D01*
X69225921Y-38920523D01*
X69181359Y-38888147D01*
X69181344Y-38888138D01*
X69175155Y-38884984D01*
X69124359Y-38837009D01*
X69107565Y-38769188D01*
X69130103Y-38703053D01*
X69184819Y-38659602D01*
X69231451Y-38650500D01*
X71037770Y-38650500D01*
X71104809Y-38670185D01*
X71125451Y-38686819D01*
X72173526Y-39734893D01*
X72207011Y-39796216D01*
X72208318Y-39841971D01*
X72199500Y-39897647D01*
X72199500Y-40102351D01*
X72231522Y-40304534D01*
X72294781Y-40499223D01*
X72358691Y-40624653D01*
X72387585Y-40681359D01*
X72387715Y-40681613D01*
X72508028Y-40847213D01*
X72652786Y-40991971D01*
X72773226Y-41079474D01*
X72818390Y-41112287D01*
X72934607Y-41171503D01*
X73000776Y-41205218D01*
X73000778Y-41205218D01*
X73000781Y-41205220D01*
X73105137Y-41239127D01*
X73195465Y-41268477D01*
X73296557Y-41284488D01*
X73397648Y-41300500D01*
X73397649Y-41300500D01*
X73602351Y-41300500D01*
X73602352Y-41300500D01*
X73804534Y-41268477D01*
X73999219Y-41205220D01*
X74181610Y-41112287D01*
X74274590Y-41044732D01*
X74347213Y-40991971D01*
X74347215Y-40991968D01*
X74347219Y-40991966D01*
X74491966Y-40847219D01*
X74491968Y-40847215D01*
X74491971Y-40847213D01*
X74544732Y-40774590D01*
X74612287Y-40681610D01*
X74705220Y-40499219D01*
X74768477Y-40304534D01*
X74800500Y-40102352D01*
X74800500Y-39897648D01*
X74791681Y-39841971D01*
X74800635Y-39772679D01*
X74826470Y-39734895D01*
X75042280Y-39519085D01*
X75103603Y-39485601D01*
X75173295Y-39490585D01*
X75229228Y-39532457D01*
X75253645Y-39597921D01*
X75247892Y-39645085D01*
X75231523Y-39695461D01*
X75231523Y-39695464D01*
X75199500Y-39897648D01*
X75199500Y-40102351D01*
X75231522Y-40304534D01*
X75294781Y-40499223D01*
X75358691Y-40624653D01*
X75387585Y-40681359D01*
X75387715Y-40681613D01*
X75508028Y-40847213D01*
X75652786Y-40991971D01*
X75773226Y-41079474D01*
X75818390Y-41112287D01*
X75934607Y-41171503D01*
X76000776Y-41205218D01*
X76000778Y-41205218D01*
X76000781Y-41205220D01*
X76105137Y-41239127D01*
X76195465Y-41268477D01*
X76296557Y-41284488D01*
X76397648Y-41300500D01*
X76397649Y-41300500D01*
X76602351Y-41300500D01*
X76602352Y-41300500D01*
X76804534Y-41268477D01*
X76999219Y-41205220D01*
X77181610Y-41112287D01*
X77274590Y-41044732D01*
X77347213Y-40991971D01*
X77347215Y-40991968D01*
X77347219Y-40991966D01*
X77491966Y-40847219D01*
X77491968Y-40847215D01*
X77491971Y-40847213D01*
X77544732Y-40774590D01*
X77612287Y-40681610D01*
X77705220Y-40499219D01*
X77768477Y-40304534D01*
X77800500Y-40102352D01*
X77800500Y-39897682D01*
X80200000Y-39897682D01*
X80200000Y-40102317D01*
X80232009Y-40304417D01*
X80295244Y-40499031D01*
X80388141Y-40681350D01*
X80388147Y-40681359D01*
X80420523Y-40725921D01*
X80420524Y-40725922D01*
X81100000Y-40046446D01*
X81100000Y-40052661D01*
X81127259Y-40154394D01*
X81179920Y-40245606D01*
X81254394Y-40320080D01*
X81345606Y-40372741D01*
X81447339Y-40400000D01*
X81453553Y-40400000D01*
X80774076Y-41079474D01*
X80818650Y-41111859D01*
X81000968Y-41204755D01*
X81195582Y-41267990D01*
X81397683Y-41300000D01*
X81602317Y-41300000D01*
X81804417Y-41267990D01*
X81999031Y-41204755D01*
X82181349Y-41111859D01*
X82225921Y-41079474D01*
X81546447Y-40400000D01*
X81552661Y-40400000D01*
X81654394Y-40372741D01*
X81745606Y-40320080D01*
X81820080Y-40245606D01*
X81872741Y-40154394D01*
X81900000Y-40052661D01*
X81900000Y-40046447D01*
X82579474Y-40725921D01*
X82611859Y-40681349D01*
X82704755Y-40499031D01*
X82767990Y-40304417D01*
X82800000Y-40102317D01*
X82800000Y-39897682D01*
X82767990Y-39695582D01*
X82704755Y-39500968D01*
X82611859Y-39318650D01*
X82579474Y-39274077D01*
X82579474Y-39274076D01*
X81900000Y-39953551D01*
X81900000Y-39947339D01*
X81872741Y-39845606D01*
X81820080Y-39754394D01*
X81745606Y-39679920D01*
X81654394Y-39627259D01*
X81552661Y-39600000D01*
X81546446Y-39600000D01*
X82225922Y-38920524D01*
X82225921Y-38920523D01*
X82181359Y-38888147D01*
X82181350Y-38888141D01*
X81999031Y-38795244D01*
X81804417Y-38732009D01*
X81602317Y-38700000D01*
X81397683Y-38700000D01*
X81195582Y-38732009D01*
X81000968Y-38795244D01*
X80818644Y-38888143D01*
X80774077Y-38920523D01*
X80774077Y-38920524D01*
X81453554Y-39600000D01*
X81447339Y-39600000D01*
X81345606Y-39627259D01*
X81254394Y-39679920D01*
X81179920Y-39754394D01*
X81127259Y-39845606D01*
X81100000Y-39947339D01*
X81100000Y-39953553D01*
X80420524Y-39274077D01*
X80420523Y-39274077D01*
X80388143Y-39318644D01*
X80295244Y-39500968D01*
X80232009Y-39695582D01*
X80200000Y-39897682D01*
X77800500Y-39897682D01*
X77800500Y-39897648D01*
X77791682Y-39841972D01*
X77768477Y-39695465D01*
X77711423Y-39519873D01*
X77705220Y-39500781D01*
X77705218Y-39500778D01*
X77705218Y-39500776D01*
X77671503Y-39434607D01*
X77612287Y-39318390D01*
X77580092Y-39274077D01*
X77491971Y-39152786D01*
X77347213Y-39008028D01*
X77181613Y-38887715D01*
X77181612Y-38887714D01*
X77181610Y-38887713D01*
X77118379Y-38855495D01*
X76999223Y-38794781D01*
X76804534Y-38731522D01*
X76624784Y-38703053D01*
X76602352Y-38699500D01*
X76397648Y-38699500D01*
X76375216Y-38703053D01*
X76195465Y-38731522D01*
X76000773Y-38794782D01*
X75901172Y-38845532D01*
X75832503Y-38858428D01*
X75767763Y-38832151D01*
X75727506Y-38775045D01*
X75723261Y-38710855D01*
X75750500Y-38573920D01*
X75750500Y-36922541D01*
X75770185Y-36855502D01*
X75822989Y-36809747D01*
X75887103Y-36799183D01*
X75899991Y-36800500D01*
X77100008Y-36800499D01*
X77202797Y-36789999D01*
X77369334Y-36734814D01*
X77518656Y-36642712D01*
X77642712Y-36518656D01*
X77734814Y-36369334D01*
X77758102Y-36299054D01*
X77762110Y-36291050D01*
X77780060Y-36271772D01*
X77795055Y-36250116D01*
X77803495Y-36246606D01*
X77809725Y-36239917D01*
X77835249Y-36233404D01*
X77859571Y-36223292D01*
X77875834Y-36223048D01*
X77877425Y-36222643D01*
X77878523Y-36223008D01*
X77882719Y-36222946D01*
X77920525Y-36225921D01*
X78600000Y-35546446D01*
X78600000Y-35552661D01*
X78627259Y-35654394D01*
X78679920Y-35745606D01*
X78754394Y-35820080D01*
X78845606Y-35872741D01*
X78947339Y-35900000D01*
X78953553Y-35900000D01*
X78274076Y-36579474D01*
X78318650Y-36611859D01*
X78500968Y-36704755D01*
X78695582Y-36767990D01*
X78897683Y-36800000D01*
X79102317Y-36800000D01*
X79304417Y-36767990D01*
X79499031Y-36704755D01*
X79681349Y-36611859D01*
X79725921Y-36579474D01*
X79046447Y-35900000D01*
X79052661Y-35900000D01*
X79154394Y-35872741D01*
X79245606Y-35820080D01*
X79320080Y-35745606D01*
X79372741Y-35654394D01*
X79400000Y-35552661D01*
X79400000Y-35546447D01*
X80079474Y-36225921D01*
X80111859Y-36181349D01*
X80204755Y-35999031D01*
X80267990Y-35804417D01*
X80300000Y-35602317D01*
X80300000Y-35397682D01*
X80267990Y-35195582D01*
X80204755Y-35000968D01*
X80111859Y-34818650D01*
X80079474Y-34774077D01*
X80079474Y-34774076D01*
X79400000Y-35453551D01*
X79400000Y-35447339D01*
X79372741Y-35345606D01*
X79320080Y-35254394D01*
X79245606Y-35179920D01*
X79154394Y-35127259D01*
X79052661Y-35100000D01*
X79046446Y-35100000D01*
X79725922Y-34420524D01*
X79725921Y-34420523D01*
X79681359Y-34388147D01*
X79681350Y-34388141D01*
X79499031Y-34295244D01*
X79304417Y-34232009D01*
X79102317Y-34200000D01*
X78897683Y-34200000D01*
X78695582Y-34232009D01*
X78500968Y-34295244D01*
X78318644Y-34388143D01*
X78274077Y-34420523D01*
X78274077Y-34420524D01*
X78953554Y-35100000D01*
X78947339Y-35100000D01*
X78845606Y-35127259D01*
X78754394Y-35179920D01*
X78679920Y-35254394D01*
X78627259Y-35345606D01*
X78600000Y-35447339D01*
X78600000Y-35453553D01*
X77920524Y-34774077D01*
X77882719Y-34777053D01*
X77814341Y-34762689D01*
X77764584Y-34713638D01*
X77762110Y-34708949D01*
X77758101Y-34700942D01*
X77734814Y-34630666D01*
X77642712Y-34481344D01*
X77518656Y-34357288D01*
X77369334Y-34265186D01*
X77202797Y-34210001D01*
X77202795Y-34210000D01*
X77100010Y-34199500D01*
X75899998Y-34199500D01*
X75899990Y-34199501D01*
X75887097Y-34200818D01*
X75818404Y-34188045D01*
X75767522Y-34140162D01*
X75750500Y-34077459D01*
X75750500Y-29779484D01*
X75770185Y-29712445D01*
X75822989Y-29666690D01*
X75892147Y-29656746D01*
X75930796Y-29669000D01*
X76000966Y-29704754D01*
X76195582Y-29767990D01*
X76397683Y-29800000D01*
X76602317Y-29800000D01*
X76804417Y-29767990D01*
X76999031Y-29704755D01*
X77181349Y-29611859D01*
X77225921Y-29579474D01*
X76546447Y-28900000D01*
X76552661Y-28900000D01*
X76654394Y-28872741D01*
X76745606Y-28820080D01*
X76820080Y-28745606D01*
X76872741Y-28654394D01*
X76900000Y-28552661D01*
X76900000Y-28546447D01*
X77579474Y-29225921D01*
X77611859Y-29181349D01*
X77704755Y-28999031D01*
X77767990Y-28804417D01*
X77800000Y-28602317D01*
X77800000Y-28397682D01*
X77767990Y-28195582D01*
X77704755Y-28000968D01*
X77611859Y-27818650D01*
X77579474Y-27774077D01*
X77579474Y-27774076D01*
X76900000Y-28453551D01*
X76900000Y-28447339D01*
X76872741Y-28345606D01*
X76820080Y-28254394D01*
X76745606Y-28179920D01*
X76654394Y-28127259D01*
X76552661Y-28100000D01*
X76546446Y-28100000D01*
X77225922Y-27420524D01*
X77225921Y-27420523D01*
X77181359Y-27388147D01*
X77181350Y-27388141D01*
X76999031Y-27295244D01*
X76804417Y-27232009D01*
X76602317Y-27200000D01*
X76397683Y-27200000D01*
X76195582Y-27232009D01*
X76000965Y-27295245D01*
X75930794Y-27331000D01*
X75862125Y-27343896D01*
X75797385Y-27317619D01*
X75757128Y-27260513D01*
X75750500Y-27220515D01*
X75750500Y-24886079D01*
X75732115Y-24793655D01*
X75738342Y-24724063D01*
X75781205Y-24668886D01*
X75847094Y-24645641D01*
X75910027Y-24658979D01*
X76000771Y-24705216D01*
X76000776Y-24705217D01*
X76000781Y-24705220D01*
X76136658Y-24749369D01*
X76195465Y-24768477D01*
X76296557Y-24784488D01*
X76397648Y-24800500D01*
X76397649Y-24800500D01*
X76602351Y-24800500D01*
X76602352Y-24800500D01*
X76804534Y-24768477D01*
X76999219Y-24705220D01*
X77060804Y-24673841D01*
X77129474Y-24660944D01*
X77194214Y-24687220D01*
X77231661Y-24736873D01*
X77290602Y-24879172D01*
X77290609Y-24879185D01*
X77378210Y-25010288D01*
X77378213Y-25010292D01*
X77489707Y-25121786D01*
X77489711Y-25121789D01*
X77620814Y-25209390D01*
X77620827Y-25209397D01*
X77766498Y-25269735D01*
X77766503Y-25269737D01*
X77921153Y-25300499D01*
X77921156Y-25300500D01*
X77921158Y-25300500D01*
X78078844Y-25300500D01*
X78078845Y-25300499D01*
X78233497Y-25269737D01*
X78379179Y-25209394D01*
X78464262Y-25152542D01*
X78530936Y-25131666D01*
X78598317Y-25150150D01*
X78645007Y-25202128D01*
X78656184Y-25271098D01*
X78655625Y-25275037D01*
X78649500Y-25313713D01*
X78649500Y-25526287D01*
X78657736Y-25578287D01*
X78680443Y-25721656D01*
X78682754Y-25736243D01*
X78727347Y-25873487D01*
X78748444Y-25938414D01*
X78844951Y-26127820D01*
X78969890Y-26299786D01*
X79120213Y-26450109D01*
X79292182Y-26575050D01*
X79300946Y-26579516D01*
X79351742Y-26627491D01*
X79368536Y-26695312D01*
X79345998Y-26761447D01*
X79300946Y-26800484D01*
X79292182Y-26804949D01*
X79120213Y-26929890D01*
X78969890Y-27080213D01*
X78844951Y-27252179D01*
X78748444Y-27441585D01*
X78682753Y-27643760D01*
X78649500Y-27853713D01*
X78649500Y-28066286D01*
X78678293Y-28248082D01*
X78682754Y-28276243D01*
X78734194Y-28434559D01*
X78748444Y-28478414D01*
X78844951Y-28667820D01*
X78969890Y-28839786D01*
X79120213Y-28990109D01*
X79292179Y-29115048D01*
X79292181Y-29115049D01*
X79292184Y-29115051D01*
X79301493Y-29119794D01*
X79352290Y-29167766D01*
X79369087Y-29235587D01*
X79346552Y-29301722D01*
X79301505Y-29340760D01*
X79292446Y-29345376D01*
X79292440Y-29345380D01*
X79238282Y-29384727D01*
X79238282Y-29384728D01*
X79870591Y-30017037D01*
X79807007Y-30034075D01*
X79692993Y-30099901D01*
X79599901Y-30192993D01*
X79534075Y-30307007D01*
X79517037Y-30370591D01*
X78884728Y-29738282D01*
X78884727Y-29738282D01*
X78845380Y-29792439D01*
X78748904Y-29981782D01*
X78683242Y-30183869D01*
X78683242Y-30183872D01*
X78650000Y-30393753D01*
X78650000Y-30606246D01*
X78683242Y-30816127D01*
X78683242Y-30816130D01*
X78748904Y-31018217D01*
X78845375Y-31207550D01*
X78884728Y-31261716D01*
X79517037Y-30629408D01*
X79534075Y-30692993D01*
X79599901Y-30807007D01*
X79692993Y-30900099D01*
X79807007Y-30965925D01*
X79870590Y-30982962D01*
X79238282Y-31615269D01*
X79238282Y-31615270D01*
X79292449Y-31654624D01*
X79481782Y-31751095D01*
X79683870Y-31816757D01*
X79893754Y-31850000D01*
X80106246Y-31850000D01*
X80316127Y-31816757D01*
X80316130Y-31816757D01*
X80518217Y-31751095D01*
X80707554Y-31654622D01*
X80761716Y-31615270D01*
X80761717Y-31615270D01*
X80129408Y-30982962D01*
X80192993Y-30965925D01*
X80307007Y-30900099D01*
X80400099Y-30807007D01*
X80465925Y-30692993D01*
X80482962Y-30629408D01*
X81115270Y-31261717D01*
X81115270Y-31261716D01*
X81154622Y-31207554D01*
X81251095Y-31018217D01*
X81316757Y-30816130D01*
X81316757Y-30816127D01*
X81350000Y-30606246D01*
X81350000Y-30393753D01*
X81316757Y-30183872D01*
X81316757Y-30183869D01*
X81251095Y-29981782D01*
X81154624Y-29792449D01*
X81115270Y-29738282D01*
X81115269Y-29738282D01*
X80482962Y-30370590D01*
X80465925Y-30307007D01*
X80400099Y-30192993D01*
X80307007Y-30099901D01*
X80192993Y-30034075D01*
X80129409Y-30017037D01*
X80761716Y-29384728D01*
X80707547Y-29345373D01*
X80707547Y-29345372D01*
X80698500Y-29340763D01*
X80647706Y-29292788D01*
X80630912Y-29224966D01*
X80653451Y-29158832D01*
X80698508Y-29119793D01*
X80707816Y-29115051D01*
X80812191Y-29039219D01*
X80879786Y-28990109D01*
X80879788Y-28990106D01*
X80879792Y-28990104D01*
X81030104Y-28839792D01*
X81030106Y-28839788D01*
X81030109Y-28839786D01*
X81155048Y-28667820D01*
X81155047Y-28667820D01*
X81155051Y-28667816D01*
X81251557Y-28478412D01*
X81317246Y-28276243D01*
X81350500Y-28066287D01*
X81350500Y-27853713D01*
X81317246Y-27643757D01*
X81251557Y-27441588D01*
X81155051Y-27252184D01*
X81155049Y-27252181D01*
X81155048Y-27252179D01*
X81030109Y-27080213D01*
X80879786Y-26929890D01*
X80707820Y-26804951D01*
X80707115Y-26804591D01*
X80699054Y-26800485D01*
X80648259Y-26752512D01*
X80631463Y-26684692D01*
X80653999Y-26618556D01*
X80699054Y-26579515D01*
X80707816Y-26575051D01*
X80800066Y-26508028D01*
X80879786Y-26450109D01*
X80879788Y-26450106D01*
X80879792Y-26450104D01*
X81030104Y-26299792D01*
X81030106Y-26299788D01*
X81030109Y-26299786D01*
X81155048Y-26127820D01*
X81155047Y-26127820D01*
X81155051Y-26127816D01*
X81251557Y-25938412D01*
X81317246Y-25736243D01*
X81350500Y-25526287D01*
X81350500Y-25313713D01*
X81317246Y-25103757D01*
X81251557Y-24901588D01*
X81155051Y-24712184D01*
X81155049Y-24712181D01*
X81155048Y-24712179D01*
X81030109Y-24540213D01*
X80916569Y-24426673D01*
X80883084Y-24365350D01*
X80888068Y-24295658D01*
X80929940Y-24239725D01*
X80960915Y-24222810D01*
X81092331Y-24173796D01*
X81207546Y-24087546D01*
X81293796Y-23972331D01*
X81344091Y-23837483D01*
X81350500Y-23777873D01*
X81350499Y-21982128D01*
X81344091Y-21922517D01*
X81343582Y-21921153D01*
X81293797Y-21787671D01*
X81293793Y-21787664D01*
X81207547Y-21672455D01*
X81207544Y-21672452D01*
X81092335Y-21586206D01*
X81092328Y-21586202D01*
X80957482Y-21535908D01*
X80957483Y-21535908D01*
X80897883Y-21529501D01*
X80897881Y-21529500D01*
X80897873Y-21529500D01*
X80897864Y-21529500D01*
X79102129Y-21529500D01*
X79102123Y-21529501D01*
X79042516Y-21535908D01*
X78907671Y-21586202D01*
X78907664Y-21586206D01*
X78792455Y-21672452D01*
X78792452Y-21672455D01*
X78706206Y-21787664D01*
X78706203Y-21787669D01*
X78694853Y-21818102D01*
X78652981Y-21874035D01*
X78587517Y-21898452D01*
X78519244Y-21883600D01*
X78509780Y-21877870D01*
X78379185Y-21790609D01*
X78379172Y-21790602D01*
X78233501Y-21730264D01*
X78233489Y-21730261D01*
X78078845Y-21699500D01*
X78078842Y-21699500D01*
X77921158Y-21699500D01*
X77921155Y-21699500D01*
X77766510Y-21730261D01*
X77766498Y-21730264D01*
X77620827Y-21790602D01*
X77620814Y-21790609D01*
X77489711Y-21878210D01*
X77489707Y-21878213D01*
X77378213Y-21989707D01*
X77378210Y-21989711D01*
X77290609Y-22120814D01*
X77290604Y-22120823D01*
X77231661Y-22263127D01*
X77187820Y-22317530D01*
X77121526Y-22339595D01*
X77060806Y-22326159D01*
X76999226Y-22294782D01*
X76804534Y-22231522D01*
X76629995Y-22203878D01*
X76602352Y-22199500D01*
X76397648Y-22199500D01*
X76373329Y-22203351D01*
X76195465Y-22231522D01*
X76000776Y-22294781D01*
X75818386Y-22387715D01*
X75652786Y-22508028D01*
X75508028Y-22652786D01*
X75387715Y-22818386D01*
X75294781Y-23000776D01*
X75231522Y-23195465D01*
X75199500Y-23397648D01*
X75199500Y-23602351D01*
X75231522Y-23804533D01*
X75231759Y-23805518D01*
X75231739Y-23805903D01*
X75232285Y-23809346D01*
X75231561Y-23809460D01*
X75228261Y-23875300D01*
X75187592Y-23932113D01*
X75122663Y-23957920D01*
X75054089Y-23944527D01*
X75023501Y-23922134D01*
X74826473Y-23725106D01*
X74792988Y-23663783D01*
X74791681Y-23618028D01*
X74800500Y-23562352D01*
X74800500Y-23357648D01*
X74789873Y-23290553D01*
X74768477Y-23155465D01*
X74718215Y-23000776D01*
X74705220Y-22960781D01*
X74705218Y-22960778D01*
X74705218Y-22960776D01*
X74653865Y-22859991D01*
X74612287Y-22778390D01*
X74596892Y-22757200D01*
X74491971Y-22612786D01*
X74347213Y-22468028D01*
X74181613Y-22347715D01*
X74181612Y-22347714D01*
X74181610Y-22347713D01*
X74096712Y-22304455D01*
X73999223Y-22254781D01*
X73804534Y-22191522D01*
X73629995Y-22163878D01*
X73602352Y-22159500D01*
X73397648Y-22159500D01*
X73373329Y-22163351D01*
X73195465Y-22191522D01*
X73000776Y-22254781D01*
X72818386Y-22347715D01*
X72652786Y-22468028D01*
X72508028Y-22612786D01*
X72387715Y-22778386D01*
X72294781Y-22960776D01*
X72231522Y-23155465D01*
X72199500Y-23357648D01*
X72199500Y-23562351D01*
X72231522Y-23764534D01*
X72294781Y-23959223D01*
X72346135Y-24060009D01*
X72373083Y-24112898D01*
X72387715Y-24141613D01*
X72508028Y-24307213D01*
X72652786Y-24451971D01*
X72807749Y-24564556D01*
X72818390Y-24572287D01*
X72909840Y-24618883D01*
X72911080Y-24619515D01*
X72961876Y-24667490D01*
X72978671Y-24735311D01*
X72956134Y-24801446D01*
X72911080Y-24840485D01*
X72818386Y-24887715D01*
X72652786Y-25008028D01*
X72508028Y-25152786D01*
X72387715Y-25318386D01*
X72294781Y-25500776D01*
X72231522Y-25695465D01*
X72199500Y-25897648D01*
X72199500Y-26102351D01*
X72231522Y-26304534D01*
X72294781Y-26499223D01*
X72333418Y-26575051D01*
X72373026Y-26652786D01*
X72387715Y-26681613D01*
X72508028Y-26847213D01*
X72652786Y-26991971D01*
X72800790Y-27099500D01*
X72818390Y-27112287D01*
X72891425Y-27149500D01*
X72911080Y-27159515D01*
X72961876Y-27207490D01*
X72978671Y-27275311D01*
X72956134Y-27341446D01*
X72911080Y-27380485D01*
X72818386Y-27427715D01*
X72652786Y-27548028D01*
X72508028Y-27692786D01*
X72387715Y-27858386D01*
X72294781Y-28040776D01*
X72231522Y-28235465D01*
X72199500Y-28437648D01*
X72199500Y-28642351D01*
X72231522Y-28844534D01*
X72294781Y-29039223D01*
X72355726Y-29158832D01*
X72385328Y-29216930D01*
X72387715Y-29221613D01*
X72508028Y-29387213D01*
X72652786Y-29531971D01*
X72753607Y-29605220D01*
X72818390Y-29652287D01*
X72909840Y-29698883D01*
X72911080Y-29699515D01*
X72961876Y-29747490D01*
X72978671Y-29815311D01*
X72956134Y-29881446D01*
X72911080Y-29920485D01*
X72818386Y-29967715D01*
X72652786Y-30088028D01*
X72508028Y-30232786D01*
X72387715Y-30398386D01*
X72294781Y-30580776D01*
X72231522Y-30775465D01*
X72199500Y-30977648D01*
X72199500Y-31182351D01*
X72231522Y-31384534D01*
X72294781Y-31579223D01*
X72354010Y-31695465D01*
X72382355Y-31751095D01*
X72387715Y-31761613D01*
X72508028Y-31927213D01*
X72652786Y-32071971D01*
X72804482Y-32182182D01*
X72818390Y-32192287D01*
X72930794Y-32249560D01*
X73000776Y-32285218D01*
X73000778Y-32285218D01*
X73000781Y-32285220D01*
X73102855Y-32318386D01*
X73195465Y-32348477D01*
X73268502Y-32360045D01*
X73397648Y-32380500D01*
X73397649Y-32380500D01*
X73602351Y-32380500D01*
X73602352Y-32380500D01*
X73804534Y-32348477D01*
X73999219Y-32285220D01*
X74069205Y-32249559D01*
X74137874Y-32236664D01*
X74202614Y-32262940D01*
X74242872Y-32320046D01*
X74249500Y-32360045D01*
X74249500Y-34219954D01*
X74229815Y-34286993D01*
X74177011Y-34332748D01*
X74107853Y-34342692D01*
X74069206Y-34330439D01*
X73999226Y-34294782D01*
X73804534Y-34231522D01*
X73610673Y-34200818D01*
X73602352Y-34199500D01*
X73397648Y-34199500D01*
X73389327Y-34200818D01*
X73195465Y-34231522D01*
X73000776Y-34294781D01*
X72818386Y-34387715D01*
X72652786Y-34508028D01*
X72508028Y-34652786D01*
X72387715Y-34818386D01*
X72294781Y-35000776D01*
X72231522Y-35195465D01*
X72199500Y-35397648D01*
X72199500Y-35602351D01*
X72231522Y-35804534D01*
X72294781Y-35999223D01*
X72318063Y-36044915D01*
X72387585Y-36181359D01*
X72387715Y-36181613D01*
X72508028Y-36347213D01*
X72652786Y-36491971D01*
X72807749Y-36604556D01*
X72818390Y-36612287D01*
X72897864Y-36652781D01*
X73000776Y-36705218D01*
X73000778Y-36705218D01*
X73000781Y-36705220D01*
X73091856Y-36734812D01*
X73195465Y-36768477D01*
X73233638Y-36774523D01*
X73397648Y-36800500D01*
X73397649Y-36800500D01*
X73602351Y-36800500D01*
X73602352Y-36800500D01*
X73804534Y-36768477D01*
X73999219Y-36705220D01*
X74069205Y-36669559D01*
X74137874Y-36656664D01*
X74202614Y-36682940D01*
X74242872Y-36740046D01*
X74249500Y-36780045D01*
X74249500Y-38137770D01*
X74229815Y-38204809D01*
X74213181Y-38225451D01*
X73765105Y-38673526D01*
X73703782Y-38707011D01*
X73658026Y-38708318D01*
X73602352Y-38699500D01*
X73397648Y-38699500D01*
X73341971Y-38708318D01*
X73272678Y-38699363D01*
X73234893Y-38673526D01*
X71878421Y-37317052D01*
X71878414Y-37317046D01*
X71778818Y-37250499D01*
X71778817Y-37250499D01*
X71755495Y-37234916D01*
X71755488Y-37234912D01*
X71618917Y-37178343D01*
X71618907Y-37178340D01*
X71473920Y-37149500D01*
X71473918Y-37149500D01*
X65526082Y-37149500D01*
X65526080Y-37149500D01*
X65381092Y-37178340D01*
X65381082Y-37178343D01*
X65244511Y-37234912D01*
X65244504Y-37234916D01*
X65228992Y-37245281D01*
X65221183Y-37250499D01*
X65221182Y-37250499D01*
X65121585Y-37317046D01*
X65121578Y-37317052D01*
X64225451Y-38213181D01*
X64164128Y-38246666D01*
X64137770Y-38249500D01*
X55862229Y-38249500D01*
X55795190Y-38229815D01*
X55774548Y-38213181D01*
X55550424Y-37989057D01*
X55516939Y-37927734D01*
X55521923Y-37858042D01*
X55563795Y-37802109D01*
X55618706Y-37778903D01*
X55684534Y-37768477D01*
X55879219Y-37705220D01*
X56061610Y-37612287D01*
X56154590Y-37544732D01*
X56227213Y-37491971D01*
X56227215Y-37491968D01*
X56227219Y-37491966D01*
X56371966Y-37347219D01*
X56371968Y-37347215D01*
X56371971Y-37347213D01*
X56442236Y-37250500D01*
X56492287Y-37181610D01*
X56585220Y-36999219D01*
X56648477Y-36804534D01*
X56680500Y-36602352D01*
X56680500Y-36397648D01*
X56658818Y-36260757D01*
X56648477Y-36195465D01*
X56609758Y-36076301D01*
X56585220Y-36000781D01*
X56585218Y-36000778D01*
X56585218Y-36000776D01*
X56510203Y-35853553D01*
X56492287Y-35818390D01*
X56439407Y-35745606D01*
X56371971Y-35652786D01*
X56227213Y-35508028D01*
X56061613Y-35387715D01*
X56061612Y-35387714D01*
X56061610Y-35387713D01*
X55998379Y-35355495D01*
X55879223Y-35294781D01*
X55684534Y-35231522D01*
X55509995Y-35203878D01*
X55482352Y-35199500D01*
X55277648Y-35199500D01*
X55253329Y-35203351D01*
X55075465Y-35231522D01*
X54880776Y-35294781D01*
X54698386Y-35387715D01*
X54532786Y-35508028D01*
X54388028Y-35652786D01*
X54267715Y-35818386D01*
X54174781Y-36000776D01*
X54111523Y-36195463D01*
X54101096Y-36261293D01*
X54071165Y-36324427D01*
X54011853Y-36361357D01*
X53941991Y-36360359D01*
X53890942Y-36329574D01*
X47965793Y-30404425D01*
X47932308Y-30343102D01*
X47937292Y-30273410D01*
X47979164Y-30217477D01*
X47997179Y-30206259D01*
X47999216Y-30205220D01*
X47999219Y-30205220D01*
X48181610Y-30112287D01*
X48215000Y-30088028D01*
X48347213Y-29991971D01*
X48347215Y-29991968D01*
X48347219Y-29991966D01*
X48491966Y-29847219D01*
X48491968Y-29847215D01*
X48491971Y-29847213D01*
X48570711Y-29738835D01*
X48612287Y-29681610D01*
X48705220Y-29499219D01*
X48768477Y-29304534D01*
X48800500Y-29102352D01*
X48800500Y-28897648D01*
X51199500Y-28897648D01*
X51199500Y-29102351D01*
X51231522Y-29304534D01*
X51294781Y-29499223D01*
X51332578Y-29573402D01*
X51381021Y-29668477D01*
X51387715Y-29681613D01*
X51508028Y-29847213D01*
X51652786Y-29991971D01*
X51799531Y-30098585D01*
X51818390Y-30112287D01*
X51934607Y-30171503D01*
X52000776Y-30205218D01*
X52000778Y-30205218D01*
X52000781Y-30205220D01*
X52105137Y-30239127D01*
X52195465Y-30268477D01*
X52226611Y-30273410D01*
X52397648Y-30300500D01*
X52397649Y-30300500D01*
X52602350Y-30300500D01*
X52602352Y-30300500D01*
X52658027Y-30291681D01*
X52663452Y-30292382D01*
X52668579Y-30290470D01*
X52697731Y-30296811D01*
X52727319Y-30300635D01*
X52732923Y-30304467D01*
X52736852Y-30305322D01*
X52765106Y-30326473D01*
X52917049Y-30478416D01*
X53021584Y-30582951D01*
X53021587Y-30582953D01*
X53021588Y-30582954D01*
X53144503Y-30665083D01*
X53144506Y-30665085D01*
X53194665Y-30685861D01*
X53201080Y-30688518D01*
X53281088Y-30721659D01*
X53397241Y-30744763D01*
X53420380Y-30749365D01*
X53426081Y-30750500D01*
X53426082Y-30750500D01*
X53426083Y-30750500D01*
X53573918Y-30750500D01*
X54505613Y-30750500D01*
X54572652Y-30770185D01*
X54618407Y-30822989D01*
X54628351Y-30892147D01*
X54599326Y-30955703D01*
X54578498Y-30974818D01*
X54532786Y-31008028D01*
X54388028Y-31152786D01*
X54267715Y-31318386D01*
X54174781Y-31500776D01*
X54111522Y-31695465D01*
X54079500Y-31897648D01*
X54079500Y-32102351D01*
X54111522Y-32304534D01*
X54174781Y-32499223D01*
X54267715Y-32681613D01*
X54388028Y-32847213D01*
X54532786Y-32991971D01*
X54687749Y-33104556D01*
X54698390Y-33112287D01*
X54785485Y-33156664D01*
X54880776Y-33205218D01*
X54880778Y-33205218D01*
X54880781Y-33205220D01*
X54985137Y-33239127D01*
X55075465Y-33268477D01*
X55148502Y-33280045D01*
X55277648Y-33300500D01*
X55277649Y-33300500D01*
X55482351Y-33300500D01*
X55482352Y-33300500D01*
X55684534Y-33268477D01*
X55879219Y-33205220D01*
X56061610Y-33112287D01*
X56154590Y-33044732D01*
X56227213Y-32991971D01*
X56227215Y-32991968D01*
X56227219Y-32991966D01*
X56371966Y-32847219D01*
X56371968Y-32847215D01*
X56371971Y-32847213D01*
X56424732Y-32774590D01*
X56492287Y-32681610D01*
X56585220Y-32499219D01*
X56648477Y-32304534D01*
X56680500Y-32102352D01*
X56680500Y-31897648D01*
X56648477Y-31695466D01*
X56585220Y-31500781D01*
X56585218Y-31500778D01*
X56585218Y-31500776D01*
X56525929Y-31384417D01*
X56492287Y-31318390D01*
X56451112Y-31261717D01*
X56371971Y-31152786D01*
X56227213Y-31008028D01*
X56181502Y-30974818D01*
X56138836Y-30919489D01*
X56132857Y-30849875D01*
X56165462Y-30788080D01*
X56226301Y-30753723D01*
X56254387Y-30750500D01*
X61637770Y-30750500D01*
X61704809Y-30770185D01*
X61725451Y-30786819D01*
X61968233Y-31029601D01*
X62001718Y-31090924D01*
X61996734Y-31160616D01*
X61980871Y-31190166D01*
X61887714Y-31318387D01*
X61794781Y-31500776D01*
X61731522Y-31695465D01*
X61699500Y-31897648D01*
X61699500Y-32102351D01*
X61731522Y-32304534D01*
X61794781Y-32499223D01*
X61887715Y-32681613D01*
X62008028Y-32847213D01*
X62152786Y-32991971D01*
X62307749Y-33104556D01*
X62318390Y-33112287D01*
X62405485Y-33156664D01*
X62500776Y-33205218D01*
X62500778Y-33205218D01*
X62500781Y-33205220D01*
X62605137Y-33239127D01*
X62695465Y-33268477D01*
X62768502Y-33280045D01*
X62897648Y-33300500D01*
X62897649Y-33300500D01*
X63102351Y-33300500D01*
X63102352Y-33300500D01*
X63304534Y-33268477D01*
X63499219Y-33205220D01*
X63569205Y-33169559D01*
X63637874Y-33156664D01*
X63702614Y-33182940D01*
X63742872Y-33240046D01*
X63749500Y-33280045D01*
X63749500Y-34637770D01*
X63729815Y-34704809D01*
X63713181Y-34725451D01*
X63265105Y-35173526D01*
X63203782Y-35207011D01*
X63158026Y-35208318D01*
X63102352Y-35199500D01*
X62897648Y-35199500D01*
X62873329Y-35203351D01*
X62695465Y-35231522D01*
X62500776Y-35294781D01*
X62318386Y-35387715D01*
X62152786Y-35508028D01*
X62008028Y-35652786D01*
X61887715Y-35818386D01*
X61794781Y-36000776D01*
X61731522Y-36195465D01*
X61699500Y-36397648D01*
X61699500Y-36602351D01*
X61731522Y-36804534D01*
X61794781Y-36999223D01*
X61834694Y-37077555D01*
X61886048Y-37178343D01*
X61887715Y-37181613D01*
X62008028Y-37347213D01*
X62152786Y-37491971D01*
X62307749Y-37604556D01*
X62318390Y-37612287D01*
X62434607Y-37671503D01*
X62500776Y-37705218D01*
X62500778Y-37705218D01*
X62500781Y-37705220D01*
X62605137Y-37739127D01*
X62695465Y-37768477D01*
X62761292Y-37778903D01*
X62897648Y-37800500D01*
X62897649Y-37800500D01*
X63102351Y-37800500D01*
X63102352Y-37800500D01*
X63304534Y-37768477D01*
X63499219Y-37705220D01*
X63681610Y-37612287D01*
X63774590Y-37544732D01*
X63847213Y-37491971D01*
X63847215Y-37491968D01*
X63847219Y-37491966D01*
X63991966Y-37347219D01*
X63991968Y-37347215D01*
X63991971Y-37347213D01*
X64062236Y-37250500D01*
X64112287Y-37181610D01*
X64205220Y-36999219D01*
X64268477Y-36804534D01*
X64300500Y-36602352D01*
X64300500Y-36397648D01*
X64290634Y-36335364D01*
X64290305Y-36328685D01*
X64296980Y-36300961D01*
X64300635Y-36272679D01*
X64305505Y-36265556D01*
X64306661Y-36260757D01*
X64312809Y-36254874D01*
X64326470Y-36234895D01*
X64516452Y-36044913D01*
X64577773Y-36011430D01*
X64647465Y-36016414D01*
X64703398Y-36058286D01*
X64714616Y-36076301D01*
X64768141Y-36181350D01*
X64768147Y-36181359D01*
X64800523Y-36225921D01*
X64800524Y-36225922D01*
X65480000Y-35546446D01*
X65480000Y-35552661D01*
X65507259Y-35654394D01*
X65559920Y-35745606D01*
X65634394Y-35820080D01*
X65725606Y-35872741D01*
X65827339Y-35900000D01*
X65833553Y-35900000D01*
X65154076Y-36579474D01*
X65198650Y-36611859D01*
X65380968Y-36704755D01*
X65575582Y-36767990D01*
X65777683Y-36800000D01*
X65982317Y-36800000D01*
X66184417Y-36767990D01*
X66379031Y-36704755D01*
X66561349Y-36611859D01*
X66605921Y-36579474D01*
X65926447Y-35900000D01*
X65932661Y-35900000D01*
X66034394Y-35872741D01*
X66125606Y-35820080D01*
X66200080Y-35745606D01*
X66252741Y-35654394D01*
X66280000Y-35552661D01*
X66280000Y-35546447D01*
X66959474Y-36225921D01*
X66991859Y-36181349D01*
X67084755Y-35999031D01*
X67147990Y-35804417D01*
X67180000Y-35602317D01*
X67180000Y-35397682D01*
X67147990Y-35195582D01*
X67084755Y-35000968D01*
X66991859Y-34818650D01*
X66959474Y-34774077D01*
X66959474Y-34774076D01*
X66280000Y-35453551D01*
X66280000Y-35447339D01*
X66252741Y-35345606D01*
X66200080Y-35254394D01*
X66125606Y-35179920D01*
X66034394Y-35127259D01*
X65932661Y-35100000D01*
X65926446Y-35100000D01*
X66605922Y-34420524D01*
X66605921Y-34420523D01*
X66561359Y-34388147D01*
X66561350Y-34388141D01*
X66379031Y-34295244D01*
X66184417Y-34232009D01*
X65982317Y-34200000D01*
X65777683Y-34200000D01*
X65575581Y-34232010D01*
X65575578Y-34232010D01*
X65412818Y-34284895D01*
X65342977Y-34286890D01*
X65283144Y-34250810D01*
X65252316Y-34188109D01*
X65250500Y-34166964D01*
X65250500Y-32413034D01*
X65270185Y-32345995D01*
X65322989Y-32300240D01*
X65392147Y-32290296D01*
X65412819Y-32295103D01*
X65575582Y-32347990D01*
X65777683Y-32380000D01*
X65982317Y-32380000D01*
X66184417Y-32347990D01*
X66379031Y-32284755D01*
X66561349Y-32191859D01*
X66605921Y-32159474D01*
X65926447Y-31480000D01*
X65932661Y-31480000D01*
X66034394Y-31452741D01*
X66125606Y-31400080D01*
X66200080Y-31325606D01*
X66252741Y-31234394D01*
X66280000Y-31132661D01*
X66280000Y-31126447D01*
X66959474Y-31805921D01*
X66991859Y-31761349D01*
X67084755Y-31579031D01*
X67147990Y-31384417D01*
X67180000Y-31182317D01*
X67180000Y-30977682D01*
X67147990Y-30775582D01*
X67084755Y-30580968D01*
X66991859Y-30398650D01*
X66959474Y-30354077D01*
X66959474Y-30354076D01*
X66280000Y-31033551D01*
X66280000Y-31027339D01*
X66252741Y-30925606D01*
X66200080Y-30834394D01*
X66125606Y-30759920D01*
X66034394Y-30707259D01*
X65932661Y-30680000D01*
X65926446Y-30680000D01*
X66605922Y-30000524D01*
X66605921Y-30000523D01*
X66561359Y-29968147D01*
X66561350Y-29968141D01*
X66468369Y-29920765D01*
X66417573Y-29872790D01*
X66400778Y-29804969D01*
X66423315Y-29738835D01*
X66468370Y-29699795D01*
X66468920Y-29699515D01*
X66561610Y-29652287D01*
X66626393Y-29605220D01*
X66727213Y-29531971D01*
X66727215Y-29531968D01*
X66727219Y-29531966D01*
X66871966Y-29387219D01*
X66871968Y-29387215D01*
X66871971Y-29387213D01*
X66934083Y-29301722D01*
X66992287Y-29221610D01*
X67085220Y-29039219D01*
X67148477Y-28844534D01*
X67180500Y-28642352D01*
X67180500Y-28437648D01*
X67161611Y-28318390D01*
X67148477Y-28235465D01*
X67093507Y-28066286D01*
X67085220Y-28040781D01*
X67085218Y-28040778D01*
X67085218Y-28040776D01*
X67043379Y-27958663D01*
X66992287Y-27858390D01*
X66984556Y-27847749D01*
X66871971Y-27692786D01*
X66727213Y-27548028D01*
X66561614Y-27427715D01*
X66547499Y-27420523D01*
X66468917Y-27380483D01*
X66418123Y-27332511D01*
X66401328Y-27264690D01*
X66423865Y-27198555D01*
X66468917Y-27159516D01*
X66561610Y-27112287D01*
X66582770Y-27096913D01*
X66727213Y-26991971D01*
X66727215Y-26991968D01*
X66727219Y-26991966D01*
X66871966Y-26847219D01*
X66871968Y-26847215D01*
X66871971Y-26847213D01*
X66940774Y-26752512D01*
X66992287Y-26681610D01*
X67085220Y-26499219D01*
X67148477Y-26304534D01*
X67180500Y-26102352D01*
X67180500Y-25897648D01*
X67152626Y-25721659D01*
X67148477Y-25695465D01*
X67085218Y-25500776D01*
X67013557Y-25360135D01*
X66992287Y-25318390D01*
X66956939Y-25269737D01*
X66871971Y-25152786D01*
X66727219Y-25008034D01*
X66715086Y-24999219D01*
X66633547Y-24939978D01*
X66590882Y-24884649D01*
X66584903Y-24815036D01*
X66617508Y-24753240D01*
X66667426Y-24721955D01*
X66749334Y-24694814D01*
X66898656Y-24602712D01*
X67022712Y-24478656D01*
X67114814Y-24329334D01*
X67169999Y-24162797D01*
X67180500Y-24060009D01*
X67180499Y-22859992D01*
X67169999Y-22757203D01*
X67114814Y-22590666D01*
X67022712Y-22441344D01*
X66898656Y-22317288D01*
X66898655Y-22317287D01*
X66842307Y-22282531D01*
X66795583Y-22230583D01*
X66784362Y-22161620D01*
X66785784Y-22152819D01*
X66797382Y-22094515D01*
X66800500Y-22078843D01*
X66800500Y-21921155D01*
X66800499Y-21921153D01*
X66791889Y-21877870D01*
X66769737Y-21766503D01*
X66756893Y-21735495D01*
X66709397Y-21620827D01*
X66709390Y-21620814D01*
X66621789Y-21489711D01*
X66621786Y-21489707D01*
X66510292Y-21378213D01*
X66510284Y-21378207D01*
X66379181Y-21290607D01*
X66379179Y-21290606D01*
X66355521Y-21280806D01*
X66348589Y-21276174D01*
X66343549Y-21275078D01*
X66315295Y-21253927D01*
X66166819Y-21105451D01*
X66133334Y-21044128D01*
X66130500Y-21017770D01*
X66130500Y-20125416D01*
X66150185Y-20058377D01*
X66181613Y-20025099D01*
X66227219Y-19991966D01*
X66371966Y-19847219D01*
X66371968Y-19847215D01*
X66371971Y-19847213D01*
X66424732Y-19774590D01*
X66492287Y-19681610D01*
X66585220Y-19499219D01*
X66648477Y-19304534D01*
X66680500Y-19102352D01*
X66680500Y-18897648D01*
X71699500Y-18897648D01*
X71699500Y-19102351D01*
X71731522Y-19304534D01*
X71794781Y-19499223D01*
X71858691Y-19624653D01*
X71887585Y-19681359D01*
X71887715Y-19681613D01*
X72008028Y-19847213D01*
X72152786Y-19991971D01*
X72273226Y-20079474D01*
X72318390Y-20112287D01*
X72434607Y-20171503D01*
X72500776Y-20205218D01*
X72500778Y-20205218D01*
X72500781Y-20205220D01*
X72605137Y-20239127D01*
X72695465Y-20268477D01*
X72796557Y-20284488D01*
X72897648Y-20300500D01*
X72897649Y-20300500D01*
X73102351Y-20300500D01*
X73102352Y-20300500D01*
X73304534Y-20268477D01*
X73499219Y-20205220D01*
X73681610Y-20112287D01*
X73801619Y-20025096D01*
X73847213Y-19991971D01*
X73847215Y-19991968D01*
X73847219Y-19991966D01*
X73991966Y-19847219D01*
X73991968Y-19847215D01*
X73991971Y-19847213D01*
X74044732Y-19774590D01*
X74112287Y-19681610D01*
X74205220Y-19499219D01*
X74268477Y-19304534D01*
X74300500Y-19102352D01*
X74300500Y-18897648D01*
X76199500Y-18897648D01*
X76199500Y-19102351D01*
X76231522Y-19304534D01*
X76294781Y-19499223D01*
X76358691Y-19624653D01*
X76387585Y-19681359D01*
X76387715Y-19681613D01*
X76508028Y-19847213D01*
X76652786Y-19991971D01*
X76773226Y-20079474D01*
X76818390Y-20112287D01*
X76934607Y-20171503D01*
X77000776Y-20205218D01*
X77000778Y-20205218D01*
X77000781Y-20205220D01*
X77105137Y-20239127D01*
X77195465Y-20268477D01*
X77296557Y-20284488D01*
X77397648Y-20300500D01*
X77397649Y-20300500D01*
X77602351Y-20300500D01*
X77602352Y-20300500D01*
X77804534Y-20268477D01*
X77999219Y-20205220D01*
X78181610Y-20112287D01*
X78301619Y-20025096D01*
X78347213Y-19991971D01*
X78347215Y-19991968D01*
X78347219Y-19991966D01*
X78491966Y-19847219D01*
X78491968Y-19847215D01*
X78491971Y-19847213D01*
X78544732Y-19774590D01*
X78612287Y-19681610D01*
X78705220Y-19499219D01*
X78768477Y-19304534D01*
X78800500Y-19102352D01*
X78800500Y-18897682D01*
X81200000Y-18897682D01*
X81200000Y-19102317D01*
X81232009Y-19304417D01*
X81295244Y-19499031D01*
X81388141Y-19681350D01*
X81388147Y-19681359D01*
X81420523Y-19725921D01*
X81420524Y-19725922D01*
X82100000Y-19046446D01*
X82100000Y-19052661D01*
X82127259Y-19154394D01*
X82179920Y-19245606D01*
X82254394Y-19320080D01*
X82345606Y-19372741D01*
X82447339Y-19400000D01*
X82453553Y-19400000D01*
X81774076Y-20079474D01*
X81818650Y-20111859D01*
X82000968Y-20204755D01*
X82195582Y-20267990D01*
X82397683Y-20300000D01*
X82602317Y-20300000D01*
X82804417Y-20267990D01*
X82999031Y-20204755D01*
X83181349Y-20111859D01*
X83225921Y-20079474D01*
X82546447Y-19400000D01*
X82552661Y-19400000D01*
X82654394Y-19372741D01*
X82745606Y-19320080D01*
X82820080Y-19245606D01*
X82872741Y-19154394D01*
X82900000Y-19052661D01*
X82900000Y-19046447D01*
X83579474Y-19725921D01*
X83611859Y-19681349D01*
X83704755Y-19499031D01*
X83767990Y-19304417D01*
X83800000Y-19102317D01*
X83800000Y-18897682D01*
X83767990Y-18695582D01*
X83704755Y-18500968D01*
X83611859Y-18318650D01*
X83579474Y-18274077D01*
X83579474Y-18274076D01*
X82900000Y-18953551D01*
X82900000Y-18947339D01*
X82872741Y-18845606D01*
X82820080Y-18754394D01*
X82745606Y-18679920D01*
X82654394Y-18627259D01*
X82552661Y-18600000D01*
X82546446Y-18600000D01*
X83225922Y-17920524D01*
X83225921Y-17920523D01*
X83181359Y-17888147D01*
X83181350Y-17888141D01*
X82999031Y-17795244D01*
X82804417Y-17732009D01*
X82602317Y-17700000D01*
X82397683Y-17700000D01*
X82195582Y-17732009D01*
X82000968Y-17795244D01*
X81818644Y-17888143D01*
X81774077Y-17920523D01*
X81774077Y-17920524D01*
X82453554Y-18600000D01*
X82447339Y-18600000D01*
X82345606Y-18627259D01*
X82254394Y-18679920D01*
X82179920Y-18754394D01*
X82127259Y-18845606D01*
X82100000Y-18947339D01*
X82100000Y-18953553D01*
X81420524Y-18274077D01*
X81420523Y-18274077D01*
X81388143Y-18318644D01*
X81295244Y-18500968D01*
X81232009Y-18695582D01*
X81200000Y-18897682D01*
X78800500Y-18897682D01*
X78800500Y-18897648D01*
X78792257Y-18845606D01*
X78768477Y-18695465D01*
X78737458Y-18600000D01*
X78705220Y-18500781D01*
X78705218Y-18500778D01*
X78705218Y-18500776D01*
X78612419Y-18318650D01*
X78612287Y-18318390D01*
X78580092Y-18274077D01*
X78491971Y-18152786D01*
X78347213Y-18008028D01*
X78181613Y-17887715D01*
X78181612Y-17887714D01*
X78181610Y-17887713D01*
X78124653Y-17858691D01*
X77999223Y-17794781D01*
X77804534Y-17731522D01*
X77629995Y-17703878D01*
X77602352Y-17699500D01*
X77397648Y-17699500D01*
X77373329Y-17703351D01*
X77195465Y-17731522D01*
X77000776Y-17794781D01*
X76818386Y-17887715D01*
X76652786Y-18008028D01*
X76508028Y-18152786D01*
X76387715Y-18318386D01*
X76294781Y-18500776D01*
X76231522Y-18695465D01*
X76199500Y-18897648D01*
X74300500Y-18897648D01*
X74292257Y-18845606D01*
X74268477Y-18695465D01*
X74237458Y-18600000D01*
X74205220Y-18500781D01*
X74205218Y-18500778D01*
X74205218Y-18500776D01*
X74112419Y-18318650D01*
X74112287Y-18318390D01*
X74080092Y-18274077D01*
X73991971Y-18152786D01*
X73847213Y-18008028D01*
X73681613Y-17887715D01*
X73681612Y-17887714D01*
X73681610Y-17887713D01*
X73624653Y-17858691D01*
X73499223Y-17794781D01*
X73304534Y-17731522D01*
X73129995Y-17703878D01*
X73102352Y-17699500D01*
X72897648Y-17699500D01*
X72873329Y-17703351D01*
X72695465Y-17731522D01*
X72500776Y-17794781D01*
X72318386Y-17887715D01*
X72152786Y-18008028D01*
X72008028Y-18152786D01*
X71887715Y-18318386D01*
X71794781Y-18500776D01*
X71731522Y-18695465D01*
X71699500Y-18897648D01*
X66680500Y-18897648D01*
X66672257Y-18845606D01*
X66648477Y-18695465D01*
X66617458Y-18600000D01*
X66585220Y-18500781D01*
X66585218Y-18500778D01*
X66585218Y-18500776D01*
X66492419Y-18318650D01*
X66492287Y-18318390D01*
X66460092Y-18274077D01*
X66371971Y-18152786D01*
X66227213Y-18008028D01*
X66061613Y-17887715D01*
X66061612Y-17887714D01*
X66061610Y-17887713D01*
X66004653Y-17858691D01*
X65879223Y-17794781D01*
X65684534Y-17731522D01*
X65509995Y-17703878D01*
X65482352Y-17699500D01*
X65277648Y-17699500D01*
X65253329Y-17703351D01*
X65075465Y-17731522D01*
X64880776Y-17794781D01*
X64698386Y-17887715D01*
X64532786Y-18008028D01*
X64388028Y-18152786D01*
X64267715Y-18318386D01*
X64174781Y-18500776D01*
X64111522Y-18695465D01*
X64079500Y-18897648D01*
X64079500Y-19102351D01*
X64111522Y-19304534D01*
X64174781Y-19499223D01*
X64238691Y-19624653D01*
X64267585Y-19681359D01*
X64267715Y-19681613D01*
X64388028Y-19847213D01*
X64388034Y-19847219D01*
X64532781Y-19991966D01*
X64578384Y-20025098D01*
X64621050Y-20080425D01*
X64629500Y-20125416D01*
X64629500Y-21453918D01*
X64629500Y-21453920D01*
X64629499Y-21453920D01*
X64658340Y-21598907D01*
X64658343Y-21598917D01*
X64714913Y-21735490D01*
X64714915Y-21735493D01*
X64724274Y-21749501D01*
X64797049Y-21858418D01*
X64797052Y-21858421D01*
X64994499Y-22055867D01*
X65003010Y-22071455D01*
X65015586Y-22084003D01*
X65019409Y-22101486D01*
X65027984Y-22117190D01*
X65026717Y-22134905D01*
X65030512Y-22152260D01*
X65024276Y-22169033D01*
X65023000Y-22186881D01*
X65012343Y-22201132D01*
X65006166Y-22217750D01*
X64986386Y-22235846D01*
X64981236Y-22242734D01*
X64976707Y-22246131D01*
X64861344Y-22317288D01*
X64799674Y-22378957D01*
X64792630Y-22384243D01*
X64767820Y-22393527D01*
X64744569Y-22406223D01*
X64735607Y-22405582D01*
X64727193Y-22408731D01*
X64701299Y-22403127D01*
X64674877Y-22401238D01*
X64667684Y-22395854D01*
X64658904Y-22393954D01*
X64640152Y-22375243D01*
X64618944Y-22359367D01*
X64615081Y-22350227D01*
X64609444Y-22344602D01*
X64605947Y-22328612D01*
X64595739Y-22304455D01*
X64594207Y-22294780D01*
X64578477Y-22195466D01*
X64515220Y-22000781D01*
X64515218Y-22000778D01*
X64515218Y-22000776D01*
X64474647Y-21921153D01*
X64422287Y-21818390D01*
X64399967Y-21787669D01*
X64301971Y-21652786D01*
X64157213Y-21508028D01*
X63991613Y-21387715D01*
X63991612Y-21387714D01*
X63991610Y-21387713D01*
X63934653Y-21358691D01*
X63809223Y-21294781D01*
X63614534Y-21231522D01*
X63439995Y-21203878D01*
X63412352Y-21199500D01*
X63207648Y-21199500D01*
X63183329Y-21203351D01*
X63005465Y-21231522D01*
X62810776Y-21294781D01*
X62628386Y-21387715D01*
X62462786Y-21508028D01*
X62318028Y-21652786D01*
X62197715Y-21818386D01*
X62104781Y-22000776D01*
X62041522Y-22195465D01*
X62009500Y-22397648D01*
X62009500Y-22602351D01*
X62041522Y-22804534D01*
X62104781Y-22999223D01*
X62121860Y-23032741D01*
X62184391Y-23155465D01*
X62197715Y-23181613D01*
X62318028Y-23347213D01*
X62462786Y-23491971D01*
X62617749Y-23604556D01*
X62628390Y-23612287D01*
X62744607Y-23671503D01*
X62810776Y-23705218D01*
X62810778Y-23705218D01*
X62810781Y-23705220D01*
X62871984Y-23725106D01*
X63005465Y-23768477D01*
X63064732Y-23777864D01*
X63207648Y-23800500D01*
X63207649Y-23800500D01*
X63412351Y-23800500D01*
X63412352Y-23800500D01*
X63614534Y-23768477D01*
X63809219Y-23705220D01*
X63991610Y-23612287D01*
X64111619Y-23525096D01*
X64157213Y-23491971D01*
X64157215Y-23491968D01*
X64157219Y-23491966D01*
X64301966Y-23347219D01*
X64355181Y-23273973D01*
X64410511Y-23231307D01*
X64480124Y-23225327D01*
X64541919Y-23257933D01*
X64576277Y-23318771D01*
X64579500Y-23346858D01*
X64579500Y-24060001D01*
X64579501Y-24060008D01*
X64583646Y-24100590D01*
X64584904Y-24112898D01*
X64572134Y-24181591D01*
X64524254Y-24232475D01*
X64461546Y-24249500D01*
X57362230Y-24249500D01*
X57295191Y-24229815D01*
X57274549Y-24213181D01*
X56632957Y-23571589D01*
X56599472Y-23510266D01*
X56604456Y-23440574D01*
X56632956Y-23396227D01*
X56681966Y-23347219D01*
X56681968Y-23347215D01*
X56681971Y-23347213D01*
X56735181Y-23273974D01*
X56802287Y-23181610D01*
X56895220Y-22999219D01*
X56958477Y-22804534D01*
X56990500Y-22602352D01*
X56990500Y-22397648D01*
X56977772Y-22317287D01*
X56958477Y-22195465D01*
X56920584Y-22078843D01*
X56895220Y-22000781D01*
X56895218Y-22000778D01*
X56895218Y-22000776D01*
X56854647Y-21921153D01*
X56802287Y-21818390D01*
X56779967Y-21787669D01*
X56681971Y-21652786D01*
X56537213Y-21508028D01*
X56371613Y-21387715D01*
X56371612Y-21387714D01*
X56371610Y-21387713D01*
X56314653Y-21358691D01*
X56189223Y-21294781D01*
X55994534Y-21231522D01*
X55819995Y-21203878D01*
X55792352Y-21199500D01*
X55587648Y-21199500D01*
X55563329Y-21203351D01*
X55385465Y-21231522D01*
X55190776Y-21294781D01*
X55008386Y-21387715D01*
X54842786Y-21508028D01*
X54698028Y-21652786D01*
X54577715Y-21818386D01*
X54484781Y-22000776D01*
X54421522Y-22195465D01*
X54389500Y-22397648D01*
X54389500Y-22602351D01*
X54421522Y-22804534D01*
X54484781Y-22999223D01*
X54501860Y-23032741D01*
X54564391Y-23155465D01*
X54577715Y-23181613D01*
X54698028Y-23347213D01*
X54698034Y-23347219D01*
X54842781Y-23491966D01*
X54888384Y-23525098D01*
X54931050Y-23580425D01*
X54939500Y-23625416D01*
X54939500Y-23763918D01*
X54939500Y-23763920D01*
X54939499Y-23763920D01*
X54968340Y-23908907D01*
X54968343Y-23908917D01*
X55024912Y-24045488D01*
X55024915Y-24045494D01*
X55024916Y-24045495D01*
X55034612Y-24060006D01*
X55034613Y-24060009D01*
X55107046Y-24168414D01*
X55107052Y-24168421D01*
X56521584Y-25582952D01*
X56521586Y-25582954D01*
X56551058Y-25602645D01*
X56595270Y-25632186D01*
X56644505Y-25665084D01*
X56644506Y-25665084D01*
X56644507Y-25665085D01*
X56644509Y-25665086D01*
X56741397Y-25705218D01*
X56781087Y-25721658D01*
X56781091Y-25721658D01*
X56781092Y-25721659D01*
X56926079Y-25750500D01*
X56926082Y-25750500D01*
X56926083Y-25750500D01*
X57073918Y-25750500D01*
X64457621Y-25750500D01*
X64524660Y-25770185D01*
X64570415Y-25822989D01*
X64580359Y-25892147D01*
X64580112Y-25893777D01*
X64579500Y-25897648D01*
X64579500Y-25897653D01*
X64579500Y-26102351D01*
X64588318Y-26158025D01*
X64579364Y-26227318D01*
X64553526Y-26265104D01*
X63943415Y-26875216D01*
X63882092Y-26908701D01*
X63812401Y-26903717D01*
X63756467Y-26861846D01*
X63745249Y-26843829D01*
X63732286Y-26818388D01*
X63611971Y-26652786D01*
X63467213Y-26508028D01*
X63301613Y-26387715D01*
X63301612Y-26387714D01*
X63301610Y-26387713D01*
X63244653Y-26358691D01*
X63119223Y-26294781D01*
X62924534Y-26231522D01*
X62749995Y-26203878D01*
X62722352Y-26199500D01*
X62517648Y-26199500D01*
X62493329Y-26203351D01*
X62315465Y-26231522D01*
X62120776Y-26294781D01*
X61938386Y-26387715D01*
X61772786Y-26508028D01*
X61628028Y-26652786D01*
X61507715Y-26818386D01*
X61414781Y-27000776D01*
X61351522Y-27195465D01*
X61319500Y-27397648D01*
X61319500Y-27602351D01*
X61351522Y-27804534D01*
X61414781Y-27999223D01*
X61478691Y-28124653D01*
X61493026Y-28152786D01*
X61507715Y-28181613D01*
X61628028Y-28347213D01*
X61772786Y-28491971D01*
X61906467Y-28589094D01*
X61938390Y-28612287D01*
X62054607Y-28671503D01*
X62120776Y-28705218D01*
X62120778Y-28705218D01*
X62120781Y-28705220D01*
X62225137Y-28739127D01*
X62315465Y-28768477D01*
X62416557Y-28784488D01*
X62517648Y-28800500D01*
X62517649Y-28800500D01*
X62722351Y-28800500D01*
X62722352Y-28800500D01*
X62924534Y-28768477D01*
X63119219Y-28705220D01*
X63301610Y-28612287D01*
X63452924Y-28502352D01*
X63467213Y-28491971D01*
X63467215Y-28491968D01*
X63467219Y-28491966D01*
X63537819Y-28421366D01*
X63599142Y-28387881D01*
X63668834Y-28392865D01*
X63724767Y-28434737D01*
X63749184Y-28500201D01*
X63749500Y-28509047D01*
X63749500Y-30388770D01*
X63743261Y-30410015D01*
X63741682Y-30432103D01*
X63733609Y-30442886D01*
X63729815Y-30455809D01*
X63713081Y-30470308D01*
X63699811Y-30488036D01*
X63687190Y-30492743D01*
X63677011Y-30501564D01*
X63655094Y-30504715D01*
X63634347Y-30512454D01*
X63621185Y-30509591D01*
X63607853Y-30511508D01*
X63587711Y-30502309D01*
X63566074Y-30497603D01*
X63548345Y-30484331D01*
X63544297Y-30482483D01*
X63537819Y-30476452D01*
X63517176Y-30455809D01*
X63478416Y-30417049D01*
X63245236Y-30183869D01*
X62478421Y-29417052D01*
X62478420Y-29417051D01*
X62430044Y-29384728D01*
X62386292Y-29355494D01*
X62355495Y-29334916D01*
X62355488Y-29334912D01*
X62218917Y-29278343D01*
X62218907Y-29278340D01*
X62073920Y-29249500D01*
X62073918Y-29249500D01*
X53922379Y-29249500D01*
X53855340Y-29229815D01*
X53809585Y-29177011D01*
X53799641Y-29107853D01*
X53799906Y-29106101D01*
X53800500Y-29102350D01*
X53800500Y-28897648D01*
X53768477Y-28695465D01*
X53733108Y-28586611D01*
X53705220Y-28500781D01*
X53705218Y-28500778D01*
X53705218Y-28500776D01*
X53655328Y-28402863D01*
X53612287Y-28318390D01*
X53590853Y-28288888D01*
X53491971Y-28152786D01*
X53347213Y-28008028D01*
X53181613Y-27887715D01*
X53181612Y-27887714D01*
X53181610Y-27887713D01*
X53124053Y-27858386D01*
X52999223Y-27794781D01*
X52804534Y-27731522D01*
X52629995Y-27703878D01*
X52602352Y-27699500D01*
X52397648Y-27699500D01*
X52373329Y-27703351D01*
X52195465Y-27731522D01*
X52000776Y-27794781D01*
X51818386Y-27887715D01*
X51652786Y-28008028D01*
X51508028Y-28152786D01*
X51387715Y-28318386D01*
X51294781Y-28500776D01*
X51231522Y-28695465D01*
X51199500Y-28897648D01*
X48800500Y-28897648D01*
X48787856Y-28817816D01*
X48768477Y-28695465D01*
X48733108Y-28586611D01*
X48705220Y-28500781D01*
X48705218Y-28500778D01*
X48705218Y-28500776D01*
X48655328Y-28402863D01*
X48612287Y-28318390D01*
X48590853Y-28288888D01*
X48491971Y-28152786D01*
X48347213Y-28008028D01*
X48181613Y-27887715D01*
X48181612Y-27887714D01*
X48181610Y-27887713D01*
X48124053Y-27858386D01*
X47999223Y-27794781D01*
X47804534Y-27731522D01*
X47629995Y-27703878D01*
X47602352Y-27699500D01*
X47397648Y-27699500D01*
X47373329Y-27703351D01*
X47195465Y-27731522D01*
X47000776Y-27794781D01*
X46818391Y-27887712D01*
X46741155Y-27943825D01*
X46675348Y-27967303D01*
X46620820Y-27958066D01*
X46476591Y-27898325D01*
X46476579Y-27898322D01*
X46321935Y-27867561D01*
X46321932Y-27867561D01*
X46164248Y-27867561D01*
X46164245Y-27867561D01*
X46009600Y-27898322D01*
X46009588Y-27898325D01*
X45863917Y-27958663D01*
X45863904Y-27958670D01*
X45732801Y-28046271D01*
X45732797Y-28046274D01*
X45621303Y-28157768D01*
X45621300Y-28157772D01*
X45533699Y-28288875D01*
X45533692Y-28288888D01*
X45473354Y-28434559D01*
X45473351Y-28434571D01*
X45442590Y-28589214D01*
X38296743Y-28589214D01*
X38300779Y-28563729D01*
X38300779Y-28563728D01*
X38310500Y-28502352D01*
X38310500Y-28297648D01*
X38278477Y-28095465D01*
X38229206Y-27943825D01*
X38215220Y-27900781D01*
X38215218Y-27900778D01*
X38215218Y-27900776D01*
X38173372Y-27818650D01*
X38122287Y-27718390D01*
X38068066Y-27643760D01*
X38001971Y-27552786D01*
X37857213Y-27408028D01*
X37842926Y-27397648D01*
X53699500Y-27397648D01*
X53699500Y-27602351D01*
X53731522Y-27804534D01*
X53794781Y-27999223D01*
X53858691Y-28124653D01*
X53873026Y-28152786D01*
X53887715Y-28181613D01*
X54008028Y-28347213D01*
X54152786Y-28491971D01*
X54286467Y-28589094D01*
X54318390Y-28612287D01*
X54434607Y-28671503D01*
X54500776Y-28705218D01*
X54500778Y-28705218D01*
X54500781Y-28705220D01*
X54605137Y-28739127D01*
X54695465Y-28768477D01*
X54796557Y-28784488D01*
X54897648Y-28800500D01*
X54897649Y-28800500D01*
X55102351Y-28800500D01*
X55102352Y-28800500D01*
X55304534Y-28768477D01*
X55499219Y-28705220D01*
X55681610Y-28612287D01*
X55832924Y-28502352D01*
X55847213Y-28491971D01*
X55847215Y-28491968D01*
X55847219Y-28491966D01*
X55991966Y-28347219D01*
X55991968Y-28347215D01*
X55991971Y-28347213D01*
X56059407Y-28254394D01*
X56112287Y-28181610D01*
X56205220Y-27999219D01*
X56268477Y-27804534D01*
X56300500Y-27602352D01*
X56300500Y-27397648D01*
X56288659Y-27322890D01*
X56268477Y-27195465D01*
X56205218Y-27000776D01*
X56169099Y-26929890D01*
X56112287Y-26818390D01*
X56070916Y-26761447D01*
X55991971Y-26652786D01*
X55847213Y-26508028D01*
X55681613Y-26387715D01*
X55681612Y-26387714D01*
X55681610Y-26387713D01*
X55624653Y-26358691D01*
X55499223Y-26294781D01*
X55304534Y-26231522D01*
X55129995Y-26203878D01*
X55102352Y-26199500D01*
X54897648Y-26199500D01*
X54873329Y-26203351D01*
X54695465Y-26231522D01*
X54500776Y-26294781D01*
X54318386Y-26387715D01*
X54152786Y-26508028D01*
X54008028Y-26652786D01*
X53887715Y-26818386D01*
X53794781Y-27000776D01*
X53731522Y-27195465D01*
X53699500Y-27397648D01*
X37842926Y-27397648D01*
X37691613Y-27287715D01*
X37691612Y-27287714D01*
X37691610Y-27287713D01*
X37634653Y-27258691D01*
X37509223Y-27194781D01*
X37314534Y-27131522D01*
X37139995Y-27103878D01*
X37112352Y-27099500D01*
X36907648Y-27099500D01*
X36883329Y-27103351D01*
X36705465Y-27131522D01*
X36510776Y-27194781D01*
X36328386Y-27287715D01*
X36162786Y-27408028D01*
X36018028Y-27552786D01*
X35897715Y-27718386D01*
X35804781Y-27900776D01*
X35741522Y-28095465D01*
X35710888Y-28288882D01*
X35709500Y-28297648D01*
X30690500Y-28297648D01*
X30672121Y-28181610D01*
X30658477Y-28095465D01*
X30609206Y-27943825D01*
X30595220Y-27900781D01*
X30595218Y-27900778D01*
X30595218Y-27900776D01*
X30553372Y-27818650D01*
X30502287Y-27718390D01*
X30448066Y-27643760D01*
X30381971Y-27552786D01*
X30237213Y-27408028D01*
X30071613Y-27287715D01*
X30071612Y-27287714D01*
X30071610Y-27287713D01*
X30014653Y-27258691D01*
X29889223Y-27194781D01*
X29694534Y-27131522D01*
X29519995Y-27103878D01*
X29492352Y-27099500D01*
X29287648Y-27099500D01*
X29263329Y-27103351D01*
X29085465Y-27131522D01*
X28890776Y-27194781D01*
X28708386Y-27287715D01*
X28542786Y-27408028D01*
X28398028Y-27552786D01*
X28277715Y-27718386D01*
X28184781Y-27900776D01*
X28121522Y-28095465D01*
X28090888Y-28288882D01*
X28089500Y-28297648D01*
X26300500Y-28297648D01*
X26300500Y-27413389D01*
X26273402Y-27242299D01*
X26219873Y-27077555D01*
X26141232Y-26923212D01*
X26039414Y-26783072D01*
X25916928Y-26660586D01*
X25776788Y-26558768D01*
X25659923Y-26499223D01*
X25622447Y-26480128D01*
X25622446Y-26480127D01*
X25622445Y-26480127D01*
X25457701Y-26426598D01*
X25457699Y-26426597D01*
X25457698Y-26426597D01*
X25326271Y-26405781D01*
X25286611Y-26399500D01*
X25113389Y-26399500D01*
X25073728Y-26405781D01*
X24942302Y-26426597D01*
X24777552Y-26480128D01*
X24623211Y-26558768D01*
X24543256Y-26616859D01*
X24483072Y-26660586D01*
X24483070Y-26660588D01*
X24483069Y-26660588D01*
X24360588Y-26783069D01*
X24360588Y-26783070D01*
X24360586Y-26783072D01*
X24334926Y-26818390D01*
X24258768Y-26923211D01*
X24180128Y-27077552D01*
X24126597Y-27242302D01*
X24099500Y-27413389D01*
X20816178Y-27413389D01*
X20742162Y-27339373D01*
X20602860Y-27246295D01*
X20448082Y-27182184D01*
X20448074Y-27182182D01*
X20283771Y-27149500D01*
X20283767Y-27149500D01*
X20116233Y-27149500D01*
X20116228Y-27149500D01*
X19951925Y-27182182D01*
X19951917Y-27182184D01*
X19797139Y-27246295D01*
X19657837Y-27339373D01*
X19539373Y-27457837D01*
X19446295Y-27597139D01*
X19382184Y-27751917D01*
X19382182Y-27751925D01*
X19349500Y-27916228D01*
X18550499Y-27916228D01*
X18517816Y-27751918D01*
X18453703Y-27597137D01*
X18373702Y-27477407D01*
X18360626Y-27457837D01*
X18242162Y-27339373D01*
X18102860Y-27246295D01*
X17948082Y-27182184D01*
X17948074Y-27182182D01*
X17783771Y-27149500D01*
X17783767Y-27149500D01*
X17616233Y-27149500D01*
X17616228Y-27149500D01*
X17451925Y-27182182D01*
X17451917Y-27182184D01*
X17297139Y-27246295D01*
X17157837Y-27339373D01*
X17039373Y-27457837D01*
X16946295Y-27597139D01*
X16882184Y-27751917D01*
X16882182Y-27751925D01*
X16849500Y-27916228D01*
X13328217Y-27916228D01*
X13369103Y-27631123D01*
X13371318Y-27619599D01*
X13460158Y-27252419D01*
X13463463Y-27241132D01*
X13470579Y-27220515D01*
X13586718Y-26884024D01*
X13591065Y-26873134D01*
X13747629Y-26529307D01*
X13753003Y-26518854D01*
X13764302Y-26499223D01*
X13941448Y-26191444D01*
X13947782Y-26181557D01*
X14166431Y-25873473D01*
X14173670Y-25864236D01*
X14420539Y-25578277D01*
X14428626Y-25569762D01*
X14701503Y-25308492D01*
X14710353Y-25300790D01*
X15006771Y-25066569D01*
X15016331Y-25059727D01*
X15333593Y-24854685D01*
X15343751Y-24848783D01*
X15679066Y-24674722D01*
X15689720Y-24669819D01*
X16040020Y-24528339D01*
X16051108Y-24524462D01*
X16413224Y-24416838D01*
X16424629Y-24414030D01*
X16508039Y-24397648D01*
X37389500Y-24397648D01*
X37389500Y-24602351D01*
X37421522Y-24804534D01*
X37484781Y-24999223D01*
X37519097Y-25066570D01*
X37563026Y-25152786D01*
X37577715Y-25181613D01*
X37698028Y-25347213D01*
X37842786Y-25491971D01*
X37968016Y-25582954D01*
X38008390Y-25612287D01*
X38112010Y-25665084D01*
X38190776Y-25705218D01*
X38190778Y-25705218D01*
X38190781Y-25705220D01*
X38286248Y-25736239D01*
X38385465Y-25768477D01*
X38455497Y-25779569D01*
X38587648Y-25800500D01*
X38587649Y-25800500D01*
X38792351Y-25800500D01*
X38792352Y-25800500D01*
X38994534Y-25768477D01*
X39189219Y-25705220D01*
X39371610Y-25612287D01*
X39489981Y-25526286D01*
X39537213Y-25491971D01*
X39537215Y-25491968D01*
X39537219Y-25491966D01*
X39681966Y-25347219D01*
X39681968Y-25347215D01*
X39681971Y-25347213D01*
X39738259Y-25269738D01*
X39802287Y-25181610D01*
X39895220Y-24999219D01*
X39958477Y-24804534D01*
X39990500Y-24602352D01*
X39990500Y-24397648D01*
X45009500Y-24397648D01*
X45009500Y-24602351D01*
X45041522Y-24804534D01*
X45104781Y-24999223D01*
X45139097Y-25066570D01*
X45183026Y-25152786D01*
X45197715Y-25181613D01*
X45318028Y-25347213D01*
X45462786Y-25491971D01*
X45588016Y-25582954D01*
X45628390Y-25612287D01*
X45732010Y-25665084D01*
X45810776Y-25705218D01*
X45810778Y-25705218D01*
X45810781Y-25705220D01*
X45906248Y-25736239D01*
X46005465Y-25768477D01*
X46075497Y-25779569D01*
X46207648Y-25800500D01*
X46207649Y-25800500D01*
X46412351Y-25800500D01*
X46412352Y-25800500D01*
X46614534Y-25768477D01*
X46809219Y-25705220D01*
X46991610Y-25612287D01*
X47109981Y-25526286D01*
X47157213Y-25491971D01*
X47157215Y-25491968D01*
X47157219Y-25491966D01*
X47301966Y-25347219D01*
X47301968Y-25347215D01*
X47301971Y-25347213D01*
X47358259Y-25269738D01*
X47422287Y-25181610D01*
X47515220Y-24999219D01*
X47578477Y-24804534D01*
X47610500Y-24602352D01*
X47610500Y-24397648D01*
X47599680Y-24329334D01*
X47578477Y-24195465D01*
X47515218Y-24000776D01*
X47432015Y-23837483D01*
X47422287Y-23818390D01*
X47392850Y-23777873D01*
X47301971Y-23652786D01*
X47157213Y-23508028D01*
X46991613Y-23387715D01*
X46991612Y-23387714D01*
X46991610Y-23387713D01*
X46932604Y-23357648D01*
X46809223Y-23294781D01*
X46614534Y-23231522D01*
X46439995Y-23203878D01*
X46412352Y-23199500D01*
X46207648Y-23199500D01*
X46183329Y-23203351D01*
X46005465Y-23231522D01*
X45810776Y-23294781D01*
X45628386Y-23387715D01*
X45462786Y-23508028D01*
X45318028Y-23652786D01*
X45197715Y-23818386D01*
X45104781Y-24000776D01*
X45041522Y-24195465D01*
X45009500Y-24397648D01*
X39990500Y-24397648D01*
X39979680Y-24329334D01*
X39958477Y-24195465D01*
X39895218Y-24000776D01*
X39812015Y-23837483D01*
X39802287Y-23818390D01*
X39772850Y-23777873D01*
X39681971Y-23652786D01*
X39537213Y-23508028D01*
X39371613Y-23387715D01*
X39371612Y-23387714D01*
X39371610Y-23387713D01*
X39312604Y-23357648D01*
X39189223Y-23294781D01*
X38994534Y-23231522D01*
X38819995Y-23203878D01*
X38792352Y-23199500D01*
X38587648Y-23199500D01*
X38563329Y-23203351D01*
X38385465Y-23231522D01*
X38190776Y-23294781D01*
X38008386Y-23387715D01*
X37842786Y-23508028D01*
X37698028Y-23652786D01*
X37577715Y-23818386D01*
X37484781Y-24000776D01*
X37421522Y-24195465D01*
X37389500Y-24397648D01*
X16508039Y-24397648D01*
X16795314Y-24341226D01*
X16806950Y-24339509D01*
X17182869Y-24302177D01*
X17194611Y-24301572D01*
X17555981Y-24300117D01*
X17557445Y-24300120D01*
X17584736Y-24300377D01*
X17588784Y-24300485D01*
X17644090Y-24302890D01*
X17644098Y-24302888D01*
X17652189Y-24302179D01*
X17652232Y-24302670D01*
X17666715Y-24301149D01*
X17923735Y-24303571D01*
X17925840Y-24304137D01*
X17989660Y-24304192D01*
X18034219Y-24304611D01*
X18056067Y-24304818D01*
X18065376Y-24304255D01*
X18199456Y-24304367D01*
X18613513Y-24270390D01*
X19023346Y-24202309D01*
X19426150Y-24100590D01*
X19819169Y-23965929D01*
X20199714Y-23799246D01*
X20565181Y-23601682D01*
X20913070Y-23374590D01*
X21241001Y-23119523D01*
X21546729Y-22838226D01*
X21828163Y-22532624D01*
X22083377Y-22204808D01*
X22310625Y-21857020D01*
X22508351Y-21491641D01*
X22675205Y-21111171D01*
X22677168Y-21105451D01*
X22810036Y-20718231D01*
X22810045Y-20718200D01*
X22911942Y-20315454D01*
X22980206Y-19905652D01*
X23014368Y-19491610D01*
X23014289Y-19286821D01*
X23014407Y-19281367D01*
X23015968Y-19245606D01*
X23032263Y-18872377D01*
X23033202Y-18861648D01*
X23086288Y-18458425D01*
X23088161Y-18447799D01*
X23176189Y-18050734D01*
X23178987Y-18040296D01*
X23301276Y-17652442D01*
X23304973Y-17642287D01*
X23455174Y-17279672D01*
X23460608Y-17266552D01*
X23465166Y-17256778D01*
X23652966Y-16896017D01*
X23658348Y-16886696D01*
X23876869Y-16543687D01*
X23883060Y-16534844D01*
X24130645Y-16212186D01*
X24137583Y-16203917D01*
X24412343Y-15904070D01*
X24419970Y-15896443D01*
X24719821Y-15621681D01*
X24728072Y-15614756D01*
X25050747Y-15367158D01*
X25059582Y-15360972D01*
X25402593Y-15142450D01*
X25411938Y-15137055D01*
X25772679Y-14949265D01*
X25782453Y-14944707D01*
X26158204Y-14789066D01*
X26168336Y-14785379D01*
X26556206Y-14663084D01*
X26566635Y-14660289D01*
X26963700Y-14572261D01*
X26974326Y-14570388D01*
X27377549Y-14517302D01*
X27388278Y-14516363D01*
X27797310Y-14498505D01*
X27802675Y-14498388D01*
X33725685Y-14500473D01*
G37*
%TD.AperFunction*%
%TD*%
M02*
