M48
; DRILL file KiCad 10.0.4 date 2026-06-28T04:05:37
; FORMAT={-:-/ absolute / metric / decimal}
; #@! TF.CreationDate,2026-06-28T04:05:37+03:00
; #@! TF.GenerationSoftware,Kicad,Pcbnew,10.0.4
; #@! TF.FileFunction,MixedPlating,1,2
FMAT,2
METRIC
; #@! TA.AperFunction,Plated,PTH,ViaDrill
T1C0.300
; #@! TA.AperFunction,Plated,PTH,ComponentDrill
T2C0.400
; #@! TA.AperFunction,Plated,PTH,ComponentDrill
T3C0.800
; #@! TA.AperFunction,Plated,PTH,ComponentDrill
T4C1.000
; #@! TA.AperFunction,NonPlated,NPTH,ComponentDrill
T5C1.200
%
G90
G05
T1
X38.8Y-30.887
X46.243Y-28.668
X66.0Y-22.0
X78.0Y-22.5
X78.0Y-24.5
T3
X29.38Y-33.0
X29.38Y-37.5
X29.39Y-28.4
X37.0Y-33.0
X37.0Y-37.5
X37.01Y-28.4
X38.69Y-24.5
X46.31Y-24.5
X47.5Y-29.0
X52.5Y-29.0
X55.0Y-27.5
X55.38Y-32.0
X55.38Y-36.5
X55.69Y-22.5
X62.62Y-27.5
X63.0Y-32.0
X63.0Y-36.5
X63.31Y-22.5
X65.38Y-19.0
X65.88Y-23.46
X65.88Y-26.0
X65.88Y-28.54
X65.88Y-31.08
X65.88Y-35.5
X68.5Y-40.0
X73.0Y-19.0
X73.5Y-23.46
X73.5Y-26.0
X73.5Y-28.54
X73.5Y-31.08
X73.5Y-35.5
X73.5Y-40.0
X76.5Y-23.5
X76.5Y-28.5
X76.5Y-35.5
X76.5Y-40.0
X77.5Y-19.0
X79.0Y-35.5
X81.5Y-40.0
X82.5Y-19.0
T4
X80.0Y-22.88
X80.0Y-25.42
X80.0Y-27.96
X80.0Y-30.5
T5
X17.7Y-28.0
X17.7Y-38.0
X20.2Y-28.0
X20.2Y-38.0
X25.2Y-33.0
T2
X20.7Y-33.0G85X19.7Y-33.0
G05
X25.2Y-28.5G85X25.2Y-27.5
G05
X25.2Y-37.5G85X25.2Y-38.5
G05
M30
