%TF.GenerationSoftware,KiCad,Pcbnew,10.0.4*%
%TF.CreationDate,2026-06-28T04:05:27+03:00*%
%TF.ProjectId,EMG_v4,454d475f-7634-42e6-9b69-6361645f7063,rev?*%
%TF.SameCoordinates,Original*%
%TF.FileFunction,Copper,L1,Top*%
%TF.FilePolarity,Positive*%
%FSLAX46Y46*%
G04 Gerber Fmt 4.6, Leading zero omitted, Abs format (unit mm)*
G04 Created by KiCad (PCBNEW 10.0.4) date 2026-06-28 04:05:27*
%MOMM*%
%LPD*%
G01*
G04 APERTURE LIST*
G04 Aperture macros list*
%AMRoundRect*
0 Rectangle with rounded corners*
0 $1 Rounding radius*
0 $2 $3 $4 $5 $6 $7 $8 $9 X,Y pos of 4 corners*
0 Add a 4 corners polygon primitive as box body*
4,1,4,$2,$3,$4,$5,$6,$7,$8,$9,$2,$3,0*
0 Add four circle primitives for the rounded corners*
1,1,$1+$1,$2,$3*
1,1,$1+$1,$4,$5*
1,1,$1+$1,$6,$7*
1,1,$1+$1,$8,$9*
0 Add four rect primitives between the rounded corners*
20,1,$1+$1,$2,$3,$4,$5,0*
20,1,$1+$1,$4,$5,$6,$7,0*
20,1,$1+$1,$6,$7,$8,$9,0*
20,1,$1+$1,$8,$9,$2,$3,0*%
G04 Aperture macros list end*
%ADD10C,0.100000*%
%TA.AperFunction,NonConductor*%
%ADD11C,0.100000*%
%TD*%
%TA.AperFunction,ComponentPad*%
%ADD12C,1.600000*%
%TD*%
%TA.AperFunction,ComponentPad*%
%ADD13RoundRect,0.250000X-0.550000X-0.550000X0.550000X-0.550000X0.550000X0.550000X-0.550000X0.550000X0*%
%TD*%
%TA.AperFunction,SMDPad,CuDef*%
%ADD14RoundRect,0.125000X-0.687500X-0.125000X0.687500X-0.125000X0.687500X0.125000X-0.687500X0.125000X0*%
%TD*%
%TA.AperFunction,ComponentPad*%
%ADD15R,1.700000X1.700000*%
%TD*%
%TA.AperFunction,ComponentPad*%
%ADD16C,1.700000*%
%TD*%
%TA.AperFunction,ComponentPad*%
%ADD17O,1.200000X2.200000*%
%TD*%
%TA.AperFunction,ComponentPad*%
%ADD18O,2.200000X1.200000*%
%TD*%
%TA.AperFunction,ViaPad*%
%ADD19C,0.600000*%
%TD*%
%TA.AperFunction,Conductor*%
%ADD20C,0.500000*%
%TD*%
%TA.AperFunction,Conductor*%
%ADD21C,0.200000*%
%TD*%
G04 APERTURE END LIST*
D10*
D11*
X83985714Y-44271704D02*
X84057142Y-44295514D01*
X84057142Y-44295514D02*
X84080952Y-44319323D01*
X84080952Y-44319323D02*
X84104761Y-44366942D01*
X84104761Y-44366942D02*
X84104761Y-44438371D01*
X84104761Y-44438371D02*
X84080952Y-44485990D01*
X84080952Y-44485990D02*
X84057142Y-44509800D01*
X84057142Y-44509800D02*
X84009523Y-44533609D01*
X84009523Y-44533609D02*
X83819047Y-44533609D01*
X83819047Y-44533609D02*
X83819047Y-44033609D01*
X83819047Y-44033609D02*
X83985714Y-44033609D01*
X83985714Y-44033609D02*
X84033333Y-44057419D01*
X84033333Y-44057419D02*
X84057142Y-44081228D01*
X84057142Y-44081228D02*
X84080952Y-44128847D01*
X84080952Y-44128847D02*
X84080952Y-44176466D01*
X84080952Y-44176466D02*
X84057142Y-44224085D01*
X84057142Y-44224085D02*
X84033333Y-44247895D01*
X84033333Y-44247895D02*
X83985714Y-44271704D01*
X83985714Y-44271704D02*
X83819047Y-44271704D01*
X84533333Y-44533609D02*
X84533333Y-44271704D01*
X84533333Y-44271704D02*
X84509523Y-44224085D01*
X84509523Y-44224085D02*
X84461904Y-44200276D01*
X84461904Y-44200276D02*
X84366666Y-44200276D01*
X84366666Y-44200276D02*
X84319047Y-44224085D01*
X84533333Y-44509800D02*
X84485714Y-44533609D01*
X84485714Y-44533609D02*
X84366666Y-44533609D01*
X84366666Y-44533609D02*
X84319047Y-44509800D01*
X84319047Y-44509800D02*
X84295238Y-44462180D01*
X84295238Y-44462180D02*
X84295238Y-44414561D01*
X84295238Y-44414561D02*
X84319047Y-44366942D01*
X84319047Y-44366942D02*
X84366666Y-44343133D01*
X84366666Y-44343133D02*
X84485714Y-44343133D01*
X84485714Y-44343133D02*
X84533333Y-44319323D01*
X84700000Y-44200276D02*
X84890476Y-44200276D01*
X84771428Y-44033609D02*
X84771428Y-44462180D01*
X84771428Y-44462180D02*
X84795238Y-44509800D01*
X84795238Y-44509800D02*
X84842857Y-44533609D01*
X84842857Y-44533609D02*
X84890476Y-44533609D01*
X85271428Y-44200276D02*
X85271428Y-44533609D01*
X85057142Y-44200276D02*
X85057142Y-44462180D01*
X85057142Y-44462180D02*
X85080952Y-44509800D01*
X85080952Y-44509800D02*
X85128571Y-44533609D01*
X85128571Y-44533609D02*
X85199999Y-44533609D01*
X85199999Y-44533609D02*
X85247618Y-44509800D01*
X85247618Y-44509800D02*
X85271428Y-44485990D01*
X85509523Y-44533609D02*
X85509523Y-44033609D01*
X85723809Y-44533609D02*
X85723809Y-44271704D01*
X85723809Y-44271704D02*
X85699999Y-44224085D01*
X85699999Y-44224085D02*
X85652380Y-44200276D01*
X85652380Y-44200276D02*
X85580952Y-44200276D01*
X85580952Y-44200276D02*
X85533333Y-44224085D01*
X85533333Y-44224085D02*
X85509523Y-44247895D01*
X85914285Y-44533609D02*
X86176190Y-44200276D01*
X85914285Y-44200276D02*
X86176190Y-44533609D01*
X86366666Y-44200276D02*
X86366666Y-44533609D01*
X86366666Y-44247895D02*
X86390476Y-44224085D01*
X86390476Y-44224085D02*
X86438095Y-44200276D01*
X86438095Y-44200276D02*
X86509523Y-44200276D01*
X86509523Y-44200276D02*
X86557142Y-44224085D01*
X86557142Y-44224085D02*
X86580952Y-44271704D01*
X86580952Y-44271704D02*
X86580952Y-44533609D01*
D12*
%TO.P,R3,1*%
%TO.N,GND*%
X65880000Y-35500000D03*
%TO.P,R3,2*%
%TO.N,/VREF*%
X73500000Y-35500000D03*
%TD*%
%TO.P,R8,1*%
%TO.N,Net-(R8-Pad1)*%
X65380000Y-19000000D03*
%TO.P,R8,2*%
%TO.N,/RAW_Out*%
X73000000Y-19000000D03*
%TD*%
%TO.P,C5,1*%
%TO.N,GND*%
X68500000Y-40000000D03*
%TO.P,C5,2*%
%TO.N,VCC*%
X73500000Y-40000000D03*
%TD*%
%TO.P,Cf2,1*%
%TO.N,GND*%
X82500000Y-19000000D03*
%TO.P,Cf2,2*%
%TO.N,/RAW_Out*%
X77500000Y-19000000D03*
%TD*%
D13*
%TO.P,U2,1*%
%TO.N,Net-(R8-Pad1)*%
X65880000Y-23460000D03*
D12*
%TO.P,U2,2,-_2*%
%TO.N,Net-(U2A--)*%
X65880000Y-26000000D03*
%TO.P,U2,3,+_3*%
%TO.N,/HPF_Out*%
X65880000Y-28540000D03*
%TO.P,U2,4,V-_4*%
%TO.N,GND*%
X65880000Y-31080000D03*
%TO.P,U2,5,+_5*%
%TO.N,/VREF*%
X73500000Y-31080000D03*
%TO.P,U2,6,-_6*%
X73500000Y-28540000D03*
%TO.P,U2,7*%
X73500000Y-26000000D03*
%TO.P,U2,8,V+_8*%
%TO.N,VCC*%
X73500000Y-23460000D03*
%TD*%
%TO.P,R5,1*%
%TO.N,/IN-*%
X29390000Y-28400000D03*
%TO.P,R5,2*%
%TO.N,Net-(U1--)*%
X37010000Y-28400000D03*
%TD*%
%TO.P,R4,1*%
%TO.N,/IN+*%
X29380000Y-33000000D03*
%TO.P,R4,2*%
%TO.N,Net-(U1-+)*%
X37000000Y-33000000D03*
%TD*%
%TO.P,Rf1,1*%
%TO.N,/RAW_Out*%
X63310000Y-22500000D03*
%TO.P,Rf1,2*%
%TO.N,Net-(U2A--)*%
X55690000Y-22500000D03*
%TD*%
D14*
%TO.P,U1,1,Rg_1*%
%TO.N,Net-(Rg_HPF1-Pad1)*%
X40387500Y-28025000D03*
%TO.P,U1,2,-_2*%
%TO.N,Net-(U1--)*%
X40387500Y-28675000D03*
%TO.P,U1,3,+_3*%
%TO.N,Net-(U1-+)*%
X40387500Y-29325000D03*
%TO.P,U1,4,V-_4*%
%TO.N,GND*%
X40387500Y-29975000D03*
%TO.P,U1,5,Ref_5*%
%TO.N,/VREF*%
X44612500Y-29975000D03*
%TO.P,U1,6*%
%TO.N,/INA_OUT*%
X44612500Y-29325000D03*
%TO.P,U1,7,V+_7*%
%TO.N,VCC*%
X44612500Y-28675000D03*
%TO.P,U1,8,Rg_8*%
%TO.N,Net-(Rg_HPF1-Pad2)*%
X44612500Y-28025000D03*
%TD*%
D12*
%TO.P,R6,1*%
%TO.N,/VREF*%
X55380000Y-32000000D03*
%TO.P,R6,2*%
%TO.N,/HPF_Out*%
X63000000Y-32000000D03*
%TD*%
%TO.P,R7,1*%
%TO.N,/BODY_REF*%
X29380000Y-37500000D03*
%TO.P,R7,2*%
%TO.N,/VREF*%
X37000000Y-37500000D03*
%TD*%
%TO.P,C4,1*%
%TO.N,/INA_OUT*%
X47500000Y-29000000D03*
%TO.P,C4,2*%
%TO.N,/HPF_Out*%
X52500000Y-29000000D03*
%TD*%
D15*
%TO.P,J2,1,Pin_1_1*%
%TO.N,VCC*%
X80000000Y-22880000D03*
D16*
%TO.P,J2,2,Pin_2_2*%
%TO.N,/RAW_Out*%
X80000000Y-25420000D03*
%TO.P,J2,3,Pin_3_3*%
%TO.N,/VREF*%
X80000000Y-27960000D03*
%TO.P,J2,4,Pin_4_4*%
%TO.N,GND*%
X80000000Y-30500000D03*
%TD*%
D12*
%TO.P,Rg1,1*%
%TO.N,/VREF*%
X55380000Y-36500000D03*
%TO.P,Rg1,2*%
%TO.N,Net-(U2A--)*%
X63000000Y-36500000D03*
%TD*%
%TO.P,C2,1*%
%TO.N,/VREF*%
X76500000Y-40000000D03*
%TO.P,C2,2*%
%TO.N,GND*%
X81500000Y-40000000D03*
%TD*%
%TO.P,R2,1*%
%TO.N,/VREF*%
X55000000Y-27500000D03*
%TO.P,R2,2*%
%TO.N,VCC*%
X62620000Y-27500000D03*
%TD*%
D17*
%TO.P,J1,R*%
%TO.N,/IN-*%
X25200000Y-28000000D03*
D18*
%TO.P,J1,S*%
%TO.N,/IN+*%
X20200000Y-33000000D03*
D17*
%TO.P,J1,T*%
%TO.N,/BODY_REF*%
X25200000Y-38000000D03*
%TD*%
D12*
%TO.P,Rg_HPF1,1*%
%TO.N,Net-(Rg_HPF1-Pad1)*%
X38690000Y-24500000D03*
%TO.P,Rg_HPF1,2*%
%TO.N,Net-(Rg_HPF1-Pad2)*%
X46310000Y-24500000D03*
%TD*%
D13*
%TO.P,C3,1*%
%TO.N,/VREF*%
X76500000Y-35500000D03*
D12*
%TO.P,C3,2*%
%TO.N,GND*%
X79000000Y-35500000D03*
%TD*%
%TO.P,C6,1*%
%TO.N,GND*%
X76500000Y-28500000D03*
%TO.P,C6,2*%
%TO.N,VCC*%
X76500000Y-23500000D03*
%TD*%
D19*
%TO.N,GND*%
X38800000Y-30887500D03*
%TO.N,Net-(R8-Pad1)*%
X66000000Y-22000000D03*
%TO.N,/RAW_Out*%
X78000000Y-22500000D03*
X78000000Y-24500000D03*
%TO.N,VCC*%
X46243090Y-28668061D03*
%TD*%
%TO.N,GND*%
D20*
X65880000Y-37380000D02*
X68500000Y-40000000D01*
X65880000Y-35500000D02*
X65880000Y-37380000D01*
X38800000Y-30887500D02*
X39712500Y-29975000D01*
X39712500Y-29975000D02*
X40387500Y-29975000D01*
%TO.N,/VREF*%
X53380000Y-34000000D02*
X73960000Y-34000000D01*
X73960000Y-34000000D02*
X76880000Y-31080000D01*
X75000000Y-34000000D02*
X73960000Y-34000000D01*
X48637500Y-34000000D02*
X50500000Y-34000000D01*
X76500000Y-35500000D02*
X75000000Y-34000000D01*
X76500000Y-40000000D02*
X76500000Y-35500000D01*
X44000000Y-34000000D02*
X48637500Y-34000000D01*
X55000000Y-29500000D02*
X50500000Y-34000000D01*
X52880000Y-34000000D02*
X53380000Y-34000000D01*
X73500000Y-28540000D02*
X73500000Y-26000000D01*
X73500000Y-28540000D02*
X73500000Y-31080000D01*
X40500000Y-37500000D02*
X44000000Y-34000000D01*
X55380000Y-32000000D02*
X53380000Y-34000000D01*
X76880000Y-31080000D02*
X80000000Y-27960000D01*
X44612500Y-29975000D02*
X48637500Y-34000000D01*
X50500000Y-34000000D02*
X52880000Y-34000000D01*
X55380000Y-36500000D02*
X52880000Y-34000000D01*
X55000000Y-27500000D02*
X55000000Y-29500000D01*
X73500000Y-31080000D02*
X76880000Y-31080000D01*
X37000000Y-37500000D02*
X40500000Y-37500000D01*
X73500000Y-35500000D02*
X75000000Y-34000000D01*
%TO.N,Net-(R8-Pad1)*%
X66000000Y-22000000D02*
X66000000Y-23340000D01*
X66000000Y-23340000D02*
X65880000Y-23460000D01*
%TO.N,/RAW_Out*%
X78920000Y-25420000D02*
X80000000Y-25420000D01*
X63310000Y-22500000D02*
X64810000Y-21000000D01*
X78000000Y-24500000D02*
X78920000Y-25420000D01*
X78000000Y-22000000D02*
X78000000Y-22500000D01*
X77500000Y-20500000D02*
X77000000Y-21000000D01*
X72500000Y-21000000D02*
X77000000Y-21000000D01*
X77000000Y-21000000D02*
X78000000Y-22000000D01*
X72500000Y-21000000D02*
X73000000Y-20500000D01*
X73000000Y-20500000D02*
X73000000Y-19000000D01*
X77500000Y-19000000D02*
X77500000Y-20500000D01*
X64810000Y-21000000D02*
X72500000Y-21000000D01*
%TO.N,VCC*%
X44612500Y-28675000D02*
X45520926Y-28675000D01*
X46243090Y-28668061D02*
X46122135Y-28668061D01*
X62620000Y-26120000D02*
X62620000Y-27500000D01*
X46122135Y-28668061D02*
X45825000Y-28370926D01*
X62000000Y-25500000D02*
X62620000Y-26120000D01*
X76500000Y-23500000D02*
X79380000Y-23500000D01*
X76460000Y-23460000D02*
X76500000Y-23500000D01*
X48000000Y-25500000D02*
X62000000Y-25500000D01*
X45825000Y-27679074D02*
X45822963Y-27677037D01*
X73500000Y-23460000D02*
X76460000Y-23460000D01*
X45825000Y-28370926D02*
X45825000Y-27679074D01*
X79380000Y-23500000D02*
X80000000Y-22880000D01*
X45520926Y-28675000D02*
X45825000Y-28370926D01*
X45822963Y-27677037D02*
X48000000Y-25500000D01*
%TO.N,/HPF_Out*%
X63000000Y-32000000D02*
X65880000Y-29120000D01*
X65880000Y-29120000D02*
X65880000Y-28540000D01*
%TO.N,/IN-*%
D21*
X27400000Y-28000000D02*
X27800000Y-28400000D01*
X27800000Y-28400000D02*
X29390000Y-28400000D01*
X25200000Y-28000000D02*
X27400000Y-28000000D01*
%TO.N,Net-(U1--)*%
D20*
X37175000Y-28675000D02*
X40387500Y-28675000D01*
X37000000Y-28500000D02*
X37175000Y-28675000D01*
%TO.N,/IN+*%
D21*
X22400000Y-35200000D02*
X27200000Y-35200000D01*
X20200000Y-33000000D02*
X22400000Y-35200000D01*
X27200000Y-35200000D02*
X27200000Y-35180000D01*
X27200000Y-35180000D02*
X29380000Y-33000000D01*
%TO.N,Net-(U1-+)*%
D20*
X38925000Y-29325000D02*
X40387500Y-29325000D01*
X37000000Y-31250000D02*
X38925000Y-29325000D01*
X37000000Y-33000000D02*
X37000000Y-31250000D01*
%TO.N,Net-(Rg_HPF1-Pad1)*%
X38690000Y-27440000D02*
X38690000Y-24500000D01*
X39275000Y-28025000D02*
X38690000Y-27440000D01*
X40387500Y-28025000D02*
X39275000Y-28025000D01*
%TO.N,/INA_OUT*%
X46533040Y-29368061D02*
X46576101Y-29325000D01*
X46576101Y-29325000D02*
X47175000Y-29325000D01*
X45910079Y-29325000D02*
X45953140Y-29368061D01*
X45953140Y-29368061D02*
X46533040Y-29368061D01*
X47175000Y-29325000D02*
X47500000Y-29000000D01*
X44612500Y-29325000D02*
X45910079Y-29325000D01*
%TO.N,Net-(Rg_HPF1-Pad2)*%
X44612500Y-27137500D02*
X46310000Y-25440000D01*
X44612500Y-28025000D02*
X44612500Y-27137500D01*
X46310000Y-25440000D02*
X46310000Y-24500000D01*
%TO.N,/BODY_REF*%
D21*
X25200000Y-38000000D02*
X28880000Y-38000000D01*
X28880000Y-38000000D02*
X29380000Y-37500000D01*
%TD*%
M02*
