%TF.GenerationSoftware,KiCad,Pcbnew,10.0.0*%
%TF.CreationDate,2026-04-20T14:47:33+03:00*%
%TF.ProjectId,v2,76322e6b-6963-4616-945f-706362585858,rev?*%
%TF.SameCoordinates,Original*%
%TF.FileFunction,Legend,Top*%
%TF.FilePolarity,Positive*%
%FSLAX46Y46*%
G04 Gerber Fmt 4.6, Leading zero omitted, Abs format (unit mm)*
G04 Created by KiCad (PCBNEW 10.0.0) date 2026-04-20 14:47:33*
%MOMM*%
%LPD*%
G01*
G04 APERTURE LIST*
%ADD10C,0.150000*%
%ADD11C,0.120000*%
G04 APERTURE END LIST*
D10*
X69523333Y-35954819D02*
X69190000Y-35478628D01*
X68951905Y-35954819D02*
X68951905Y-34954819D01*
X68951905Y-34954819D02*
X69332857Y-34954819D01*
X69332857Y-34954819D02*
X69428095Y-35002438D01*
X69428095Y-35002438D02*
X69475714Y-35050057D01*
X69475714Y-35050057D02*
X69523333Y-35145295D01*
X69523333Y-35145295D02*
X69523333Y-35288152D01*
X69523333Y-35288152D02*
X69475714Y-35383390D01*
X69475714Y-35383390D02*
X69428095Y-35431009D01*
X69428095Y-35431009D02*
X69332857Y-35478628D01*
X69332857Y-35478628D02*
X68951905Y-35478628D01*
X69856667Y-34954819D02*
X70475714Y-34954819D01*
X70475714Y-34954819D02*
X70142381Y-35335771D01*
X70142381Y-35335771D02*
X70285238Y-35335771D01*
X70285238Y-35335771D02*
X70380476Y-35383390D01*
X70380476Y-35383390D02*
X70428095Y-35431009D01*
X70428095Y-35431009D02*
X70475714Y-35526247D01*
X70475714Y-35526247D02*
X70475714Y-35764342D01*
X70475714Y-35764342D02*
X70428095Y-35859580D01*
X70428095Y-35859580D02*
X70380476Y-35907200D01*
X70380476Y-35907200D02*
X70285238Y-35954819D01*
X70285238Y-35954819D02*
X69999524Y-35954819D01*
X69999524Y-35954819D02*
X69904286Y-35907200D01*
X69904286Y-35907200D02*
X69856667Y-35859580D01*
X70833333Y-40359580D02*
X70785714Y-40407200D01*
X70785714Y-40407200D02*
X70642857Y-40454819D01*
X70642857Y-40454819D02*
X70547619Y-40454819D01*
X70547619Y-40454819D02*
X70404762Y-40407200D01*
X70404762Y-40407200D02*
X70309524Y-40311961D01*
X70309524Y-40311961D02*
X70261905Y-40216723D01*
X70261905Y-40216723D02*
X70214286Y-40026247D01*
X70214286Y-40026247D02*
X70214286Y-39883390D01*
X70214286Y-39883390D02*
X70261905Y-39692914D01*
X70261905Y-39692914D02*
X70309524Y-39597676D01*
X70309524Y-39597676D02*
X70404762Y-39502438D01*
X70404762Y-39502438D02*
X70547619Y-39454819D01*
X70547619Y-39454819D02*
X70642857Y-39454819D01*
X70642857Y-39454819D02*
X70785714Y-39502438D01*
X70785714Y-39502438D02*
X70833333Y-39550057D01*
X71738095Y-39454819D02*
X71261905Y-39454819D01*
X71261905Y-39454819D02*
X71214286Y-39931009D01*
X71214286Y-39931009D02*
X71261905Y-39883390D01*
X71261905Y-39883390D02*
X71357143Y-39835771D01*
X71357143Y-39835771D02*
X71595238Y-39835771D01*
X71595238Y-39835771D02*
X71690476Y-39883390D01*
X71690476Y-39883390D02*
X71738095Y-39931009D01*
X71738095Y-39931009D02*
X71785714Y-40026247D01*
X71785714Y-40026247D02*
X71785714Y-40264342D01*
X71785714Y-40264342D02*
X71738095Y-40359580D01*
X71738095Y-40359580D02*
X71690476Y-40407200D01*
X71690476Y-40407200D02*
X71595238Y-40454819D01*
X71595238Y-40454819D02*
X71357143Y-40454819D01*
X71357143Y-40454819D02*
X71261905Y-40407200D01*
X71261905Y-40407200D02*
X71214286Y-40359580D01*
X69144819Y-28031904D02*
X69954342Y-28031904D01*
X69954342Y-28031904D02*
X70049580Y-27984285D01*
X70049580Y-27984285D02*
X70097200Y-27936666D01*
X70097200Y-27936666D02*
X70144819Y-27841428D01*
X70144819Y-27841428D02*
X70144819Y-27650952D01*
X70144819Y-27650952D02*
X70097200Y-27555714D01*
X70097200Y-27555714D02*
X70049580Y-27508095D01*
X70049580Y-27508095D02*
X69954342Y-27460476D01*
X69954342Y-27460476D02*
X69144819Y-27460476D01*
X69240057Y-27031904D02*
X69192438Y-26984285D01*
X69192438Y-26984285D02*
X69144819Y-26889047D01*
X69144819Y-26889047D02*
X69144819Y-26650952D01*
X69144819Y-26650952D02*
X69192438Y-26555714D01*
X69192438Y-26555714D02*
X69240057Y-26508095D01*
X69240057Y-26508095D02*
X69335295Y-26460476D01*
X69335295Y-26460476D02*
X69430533Y-26460476D01*
X69430533Y-26460476D02*
X69573390Y-26508095D01*
X69573390Y-26508095D02*
X70144819Y-27079523D01*
X70144819Y-27079523D02*
X70144819Y-26460476D01*
X33023333Y-28954819D02*
X32690000Y-28478628D01*
X32451905Y-28954819D02*
X32451905Y-27954819D01*
X32451905Y-27954819D02*
X32832857Y-27954819D01*
X32832857Y-27954819D02*
X32928095Y-28002438D01*
X32928095Y-28002438D02*
X32975714Y-28050057D01*
X32975714Y-28050057D02*
X33023333Y-28145295D01*
X33023333Y-28145295D02*
X33023333Y-28288152D01*
X33023333Y-28288152D02*
X32975714Y-28383390D01*
X32975714Y-28383390D02*
X32928095Y-28431009D01*
X32928095Y-28431009D02*
X32832857Y-28478628D01*
X32832857Y-28478628D02*
X32451905Y-28478628D01*
X33928095Y-27954819D02*
X33451905Y-27954819D01*
X33451905Y-27954819D02*
X33404286Y-28431009D01*
X33404286Y-28431009D02*
X33451905Y-28383390D01*
X33451905Y-28383390D02*
X33547143Y-28335771D01*
X33547143Y-28335771D02*
X33785238Y-28335771D01*
X33785238Y-28335771D02*
X33880476Y-28383390D01*
X33880476Y-28383390D02*
X33928095Y-28431009D01*
X33928095Y-28431009D02*
X33975714Y-28526247D01*
X33975714Y-28526247D02*
X33975714Y-28764342D01*
X33975714Y-28764342D02*
X33928095Y-28859580D01*
X33928095Y-28859580D02*
X33880476Y-28907200D01*
X33880476Y-28907200D02*
X33785238Y-28954819D01*
X33785238Y-28954819D02*
X33547143Y-28954819D01*
X33547143Y-28954819D02*
X33451905Y-28907200D01*
X33451905Y-28907200D02*
X33404286Y-28859580D01*
X33023333Y-33454819D02*
X32690000Y-32978628D01*
X32451905Y-33454819D02*
X32451905Y-32454819D01*
X32451905Y-32454819D02*
X32832857Y-32454819D01*
X32832857Y-32454819D02*
X32928095Y-32502438D01*
X32928095Y-32502438D02*
X32975714Y-32550057D01*
X32975714Y-32550057D02*
X33023333Y-32645295D01*
X33023333Y-32645295D02*
X33023333Y-32788152D01*
X33023333Y-32788152D02*
X32975714Y-32883390D01*
X32975714Y-32883390D02*
X32928095Y-32931009D01*
X32928095Y-32931009D02*
X32832857Y-32978628D01*
X32832857Y-32978628D02*
X32451905Y-32978628D01*
X33880476Y-32788152D02*
X33880476Y-33454819D01*
X33642381Y-32407200D02*
X33404286Y-33121485D01*
X33404286Y-33121485D02*
X34023333Y-33121485D01*
X78833333Y-40359580D02*
X78785714Y-40407200D01*
X78785714Y-40407200D02*
X78642857Y-40454819D01*
X78642857Y-40454819D02*
X78547619Y-40454819D01*
X78547619Y-40454819D02*
X78404762Y-40407200D01*
X78404762Y-40407200D02*
X78309524Y-40311961D01*
X78309524Y-40311961D02*
X78261905Y-40216723D01*
X78261905Y-40216723D02*
X78214286Y-40026247D01*
X78214286Y-40026247D02*
X78214286Y-39883390D01*
X78214286Y-39883390D02*
X78261905Y-39692914D01*
X78261905Y-39692914D02*
X78309524Y-39597676D01*
X78309524Y-39597676D02*
X78404762Y-39502438D01*
X78404762Y-39502438D02*
X78547619Y-39454819D01*
X78547619Y-39454819D02*
X78642857Y-39454819D01*
X78642857Y-39454819D02*
X78785714Y-39502438D01*
X78785714Y-39502438D02*
X78833333Y-39550057D01*
X79214286Y-39550057D02*
X79261905Y-39502438D01*
X79261905Y-39502438D02*
X79357143Y-39454819D01*
X79357143Y-39454819D02*
X79595238Y-39454819D01*
X79595238Y-39454819D02*
X79690476Y-39502438D01*
X79690476Y-39502438D02*
X79738095Y-39550057D01*
X79738095Y-39550057D02*
X79785714Y-39645295D01*
X79785714Y-39645295D02*
X79785714Y-39740533D01*
X79785714Y-39740533D02*
X79738095Y-39883390D01*
X79738095Y-39883390D02*
X79166667Y-40454819D01*
X79166667Y-40454819D02*
X79785714Y-40454819D01*
X41738095Y-28454819D02*
X41738095Y-29264342D01*
X41738095Y-29264342D02*
X41785714Y-29359580D01*
X41785714Y-29359580D02*
X41833333Y-29407200D01*
X41833333Y-29407200D02*
X41928571Y-29454819D01*
X41928571Y-29454819D02*
X42119047Y-29454819D01*
X42119047Y-29454819D02*
X42214285Y-29407200D01*
X42214285Y-29407200D02*
X42261904Y-29359580D01*
X42261904Y-29359580D02*
X42309523Y-29264342D01*
X42309523Y-29264342D02*
X42309523Y-28454819D01*
X43309523Y-29454819D02*
X42738095Y-29454819D01*
X43023809Y-29454819D02*
X43023809Y-28454819D01*
X43023809Y-28454819D02*
X42928571Y-28597676D01*
X42928571Y-28597676D02*
X42833333Y-28692914D01*
X42833333Y-28692914D02*
X42738095Y-28740533D01*
X59023333Y-32454819D02*
X58690000Y-31978628D01*
X58451905Y-32454819D02*
X58451905Y-31454819D01*
X58451905Y-31454819D02*
X58832857Y-31454819D01*
X58832857Y-31454819D02*
X58928095Y-31502438D01*
X58928095Y-31502438D02*
X58975714Y-31550057D01*
X58975714Y-31550057D02*
X59023333Y-31645295D01*
X59023333Y-31645295D02*
X59023333Y-31788152D01*
X59023333Y-31788152D02*
X58975714Y-31883390D01*
X58975714Y-31883390D02*
X58928095Y-31931009D01*
X58928095Y-31931009D02*
X58832857Y-31978628D01*
X58832857Y-31978628D02*
X58451905Y-31978628D01*
X59880476Y-31454819D02*
X59690000Y-31454819D01*
X59690000Y-31454819D02*
X59594762Y-31502438D01*
X59594762Y-31502438D02*
X59547143Y-31550057D01*
X59547143Y-31550057D02*
X59451905Y-31692914D01*
X59451905Y-31692914D02*
X59404286Y-31883390D01*
X59404286Y-31883390D02*
X59404286Y-32264342D01*
X59404286Y-32264342D02*
X59451905Y-32359580D01*
X59451905Y-32359580D02*
X59499524Y-32407200D01*
X59499524Y-32407200D02*
X59594762Y-32454819D01*
X59594762Y-32454819D02*
X59785238Y-32454819D01*
X59785238Y-32454819D02*
X59880476Y-32407200D01*
X59880476Y-32407200D02*
X59928095Y-32359580D01*
X59928095Y-32359580D02*
X59975714Y-32264342D01*
X59975714Y-32264342D02*
X59975714Y-32026247D01*
X59975714Y-32026247D02*
X59928095Y-31931009D01*
X59928095Y-31931009D02*
X59880476Y-31883390D01*
X59880476Y-31883390D02*
X59785238Y-31835771D01*
X59785238Y-31835771D02*
X59594762Y-31835771D01*
X59594762Y-31835771D02*
X59499524Y-31883390D01*
X59499524Y-31883390D02*
X59451905Y-31931009D01*
X59451905Y-31931009D02*
X59404286Y-32026247D01*
X33023333Y-37954819D02*
X32690000Y-37478628D01*
X32451905Y-37954819D02*
X32451905Y-36954819D01*
X32451905Y-36954819D02*
X32832857Y-36954819D01*
X32832857Y-36954819D02*
X32928095Y-37002438D01*
X32928095Y-37002438D02*
X32975714Y-37050057D01*
X32975714Y-37050057D02*
X33023333Y-37145295D01*
X33023333Y-37145295D02*
X33023333Y-37288152D01*
X33023333Y-37288152D02*
X32975714Y-37383390D01*
X32975714Y-37383390D02*
X32928095Y-37431009D01*
X32928095Y-37431009D02*
X32832857Y-37478628D01*
X32832857Y-37478628D02*
X32451905Y-37478628D01*
X33356667Y-36954819D02*
X34023333Y-36954819D01*
X34023333Y-36954819D02*
X33594762Y-37954819D01*
X49833333Y-29359580D02*
X49785714Y-29407200D01*
X49785714Y-29407200D02*
X49642857Y-29454819D01*
X49642857Y-29454819D02*
X49547619Y-29454819D01*
X49547619Y-29454819D02*
X49404762Y-29407200D01*
X49404762Y-29407200D02*
X49309524Y-29311961D01*
X49309524Y-29311961D02*
X49261905Y-29216723D01*
X49261905Y-29216723D02*
X49214286Y-29026247D01*
X49214286Y-29026247D02*
X49214286Y-28883390D01*
X49214286Y-28883390D02*
X49261905Y-28692914D01*
X49261905Y-28692914D02*
X49309524Y-28597676D01*
X49309524Y-28597676D02*
X49404762Y-28502438D01*
X49404762Y-28502438D02*
X49547619Y-28454819D01*
X49547619Y-28454819D02*
X49642857Y-28454819D01*
X49642857Y-28454819D02*
X49785714Y-28502438D01*
X49785714Y-28502438D02*
X49833333Y-28550057D01*
X50690476Y-28788152D02*
X50690476Y-29454819D01*
X50452381Y-28407200D02*
X50214286Y-29121485D01*
X50214286Y-29121485D02*
X50833333Y-29121485D01*
X81954819Y-27023333D02*
X82669104Y-27023333D01*
X82669104Y-27023333D02*
X82811961Y-27070952D01*
X82811961Y-27070952D02*
X82907200Y-27166190D01*
X82907200Y-27166190D02*
X82954819Y-27309047D01*
X82954819Y-27309047D02*
X82954819Y-27404285D01*
X82050057Y-26594761D02*
X82002438Y-26547142D01*
X82002438Y-26547142D02*
X81954819Y-26451904D01*
X81954819Y-26451904D02*
X81954819Y-26213809D01*
X81954819Y-26213809D02*
X82002438Y-26118571D01*
X82002438Y-26118571D02*
X82050057Y-26070952D01*
X82050057Y-26070952D02*
X82145295Y-26023333D01*
X82145295Y-26023333D02*
X82240533Y-26023333D01*
X82240533Y-26023333D02*
X82383390Y-26070952D01*
X82383390Y-26070952D02*
X82954819Y-26642380D01*
X82954819Y-26642380D02*
X82954819Y-26023333D01*
X58570952Y-36954819D02*
X58237619Y-36478628D01*
X57999524Y-36954819D02*
X57999524Y-35954819D01*
X57999524Y-35954819D02*
X58380476Y-35954819D01*
X58380476Y-35954819D02*
X58475714Y-36002438D01*
X58475714Y-36002438D02*
X58523333Y-36050057D01*
X58523333Y-36050057D02*
X58570952Y-36145295D01*
X58570952Y-36145295D02*
X58570952Y-36288152D01*
X58570952Y-36288152D02*
X58523333Y-36383390D01*
X58523333Y-36383390D02*
X58475714Y-36431009D01*
X58475714Y-36431009D02*
X58380476Y-36478628D01*
X58380476Y-36478628D02*
X57999524Y-36478628D01*
X59428095Y-36288152D02*
X59428095Y-37097676D01*
X59428095Y-37097676D02*
X59380476Y-37192914D01*
X59380476Y-37192914D02*
X59332857Y-37240533D01*
X59332857Y-37240533D02*
X59237619Y-37288152D01*
X59237619Y-37288152D02*
X59094762Y-37288152D01*
X59094762Y-37288152D02*
X58999524Y-37240533D01*
X59428095Y-36907200D02*
X59332857Y-36954819D01*
X59332857Y-36954819D02*
X59142381Y-36954819D01*
X59142381Y-36954819D02*
X59047143Y-36907200D01*
X59047143Y-36907200D02*
X58999524Y-36859580D01*
X58999524Y-36859580D02*
X58951905Y-36764342D01*
X58951905Y-36764342D02*
X58951905Y-36478628D01*
X58951905Y-36478628D02*
X58999524Y-36383390D01*
X58999524Y-36383390D02*
X59047143Y-36335771D01*
X59047143Y-36335771D02*
X59142381Y-36288152D01*
X59142381Y-36288152D02*
X59332857Y-36288152D01*
X59332857Y-36288152D02*
X59428095Y-36335771D01*
X60428095Y-36954819D02*
X59856667Y-36954819D01*
X60142381Y-36954819D02*
X60142381Y-35954819D01*
X60142381Y-35954819D02*
X60047143Y-36097676D01*
X60047143Y-36097676D02*
X59951905Y-36192914D01*
X59951905Y-36192914D02*
X59856667Y-36240533D01*
X58643333Y-27954819D02*
X58310000Y-27478628D01*
X58071905Y-27954819D02*
X58071905Y-26954819D01*
X58071905Y-26954819D02*
X58452857Y-26954819D01*
X58452857Y-26954819D02*
X58548095Y-27002438D01*
X58548095Y-27002438D02*
X58595714Y-27050057D01*
X58595714Y-27050057D02*
X58643333Y-27145295D01*
X58643333Y-27145295D02*
X58643333Y-27288152D01*
X58643333Y-27288152D02*
X58595714Y-27383390D01*
X58595714Y-27383390D02*
X58548095Y-27431009D01*
X58548095Y-27431009D02*
X58452857Y-27478628D01*
X58452857Y-27478628D02*
X58071905Y-27478628D01*
X59024286Y-27050057D02*
X59071905Y-27002438D01*
X59071905Y-27002438D02*
X59167143Y-26954819D01*
X59167143Y-26954819D02*
X59405238Y-26954819D01*
X59405238Y-26954819D02*
X59500476Y-27002438D01*
X59500476Y-27002438D02*
X59548095Y-27050057D01*
X59548095Y-27050057D02*
X59595714Y-27145295D01*
X59595714Y-27145295D02*
X59595714Y-27240533D01*
X59595714Y-27240533D02*
X59548095Y-27383390D01*
X59548095Y-27383390D02*
X58976667Y-27954819D01*
X58976667Y-27954819D02*
X59595714Y-27954819D01*
X40047618Y-20454819D02*
X39714285Y-19978628D01*
X39476190Y-20454819D02*
X39476190Y-19454819D01*
X39476190Y-19454819D02*
X39857142Y-19454819D01*
X39857142Y-19454819D02*
X39952380Y-19502438D01*
X39952380Y-19502438D02*
X39999999Y-19550057D01*
X39999999Y-19550057D02*
X40047618Y-19645295D01*
X40047618Y-19645295D02*
X40047618Y-19788152D01*
X40047618Y-19788152D02*
X39999999Y-19883390D01*
X39999999Y-19883390D02*
X39952380Y-19931009D01*
X39952380Y-19931009D02*
X39857142Y-19978628D01*
X39857142Y-19978628D02*
X39476190Y-19978628D01*
X40904761Y-19788152D02*
X40904761Y-20597676D01*
X40904761Y-20597676D02*
X40857142Y-20692914D01*
X40857142Y-20692914D02*
X40809523Y-20740533D01*
X40809523Y-20740533D02*
X40714285Y-20788152D01*
X40714285Y-20788152D02*
X40571428Y-20788152D01*
X40571428Y-20788152D02*
X40476190Y-20740533D01*
X40904761Y-20407200D02*
X40809523Y-20454819D01*
X40809523Y-20454819D02*
X40619047Y-20454819D01*
X40619047Y-20454819D02*
X40523809Y-20407200D01*
X40523809Y-20407200D02*
X40476190Y-20359580D01*
X40476190Y-20359580D02*
X40428571Y-20264342D01*
X40428571Y-20264342D02*
X40428571Y-19978628D01*
X40428571Y-19978628D02*
X40476190Y-19883390D01*
X40476190Y-19883390D02*
X40523809Y-19835771D01*
X40523809Y-19835771D02*
X40619047Y-19788152D01*
X40619047Y-19788152D02*
X40809523Y-19788152D01*
X40809523Y-19788152D02*
X40904761Y-19835771D01*
X41142857Y-20550057D02*
X41904761Y-20550057D01*
X42142857Y-20454819D02*
X42142857Y-19454819D01*
X42142857Y-19931009D02*
X42714285Y-19931009D01*
X42714285Y-20454819D02*
X42714285Y-19454819D01*
X43190476Y-20454819D02*
X43190476Y-19454819D01*
X43190476Y-19454819D02*
X43571428Y-19454819D01*
X43571428Y-19454819D02*
X43666666Y-19502438D01*
X43666666Y-19502438D02*
X43714285Y-19550057D01*
X43714285Y-19550057D02*
X43761904Y-19645295D01*
X43761904Y-19645295D02*
X43761904Y-19788152D01*
X43761904Y-19788152D02*
X43714285Y-19883390D01*
X43714285Y-19883390D02*
X43666666Y-19931009D01*
X43666666Y-19931009D02*
X43571428Y-19978628D01*
X43571428Y-19978628D02*
X43190476Y-19978628D01*
X44523809Y-19931009D02*
X44190476Y-19931009D01*
X44190476Y-20454819D02*
X44190476Y-19454819D01*
X44190476Y-19454819D02*
X44666666Y-19454819D01*
X45571428Y-20454819D02*
X45000000Y-20454819D01*
X45285714Y-20454819D02*
X45285714Y-19454819D01*
X45285714Y-19454819D02*
X45190476Y-19597676D01*
X45190476Y-19597676D02*
X45095238Y-19692914D01*
X45095238Y-19692914D02*
X45000000Y-19740533D01*
X78833333Y-35859580D02*
X78785714Y-35907200D01*
X78785714Y-35907200D02*
X78642857Y-35954819D01*
X78642857Y-35954819D02*
X78547619Y-35954819D01*
X78547619Y-35954819D02*
X78404762Y-35907200D01*
X78404762Y-35907200D02*
X78309524Y-35811961D01*
X78309524Y-35811961D02*
X78261905Y-35716723D01*
X78261905Y-35716723D02*
X78214286Y-35526247D01*
X78214286Y-35526247D02*
X78214286Y-35383390D01*
X78214286Y-35383390D02*
X78261905Y-35192914D01*
X78261905Y-35192914D02*
X78309524Y-35097676D01*
X78309524Y-35097676D02*
X78404762Y-35002438D01*
X78404762Y-35002438D02*
X78547619Y-34954819D01*
X78547619Y-34954819D02*
X78642857Y-34954819D01*
X78642857Y-34954819D02*
X78785714Y-35002438D01*
X78785714Y-35002438D02*
X78833333Y-35050057D01*
X79166667Y-34954819D02*
X79785714Y-34954819D01*
X79785714Y-34954819D02*
X79452381Y-35335771D01*
X79452381Y-35335771D02*
X79595238Y-35335771D01*
X79595238Y-35335771D02*
X79690476Y-35383390D01*
X79690476Y-35383390D02*
X79738095Y-35431009D01*
X79738095Y-35431009D02*
X79785714Y-35526247D01*
X79785714Y-35526247D02*
X79785714Y-35764342D01*
X79785714Y-35764342D02*
X79738095Y-35859580D01*
X79738095Y-35859580D02*
X79690476Y-35907200D01*
X79690476Y-35907200D02*
X79595238Y-35954819D01*
X79595238Y-35954819D02*
X79309524Y-35954819D01*
X79309524Y-35954819D02*
X79214286Y-35907200D01*
X79214286Y-35907200D02*
X79166667Y-35859580D01*
X25666666Y-25954819D02*
X25666666Y-26669104D01*
X25666666Y-26669104D02*
X25619047Y-26811961D01*
X25619047Y-26811961D02*
X25523809Y-26907200D01*
X25523809Y-26907200D02*
X25380952Y-26954819D01*
X25380952Y-26954819D02*
X25285714Y-26954819D01*
X26666666Y-26954819D02*
X26095238Y-26954819D01*
X26380952Y-26954819D02*
X26380952Y-25954819D01*
X26380952Y-25954819D02*
X26285714Y-26097676D01*
X26285714Y-26097676D02*
X26190476Y-26192914D01*
X26190476Y-26192914D02*
X26095238Y-26240533D01*
X76859580Y-26166666D02*
X76907200Y-26214285D01*
X76907200Y-26214285D02*
X76954819Y-26357142D01*
X76954819Y-26357142D02*
X76954819Y-26452380D01*
X76954819Y-26452380D02*
X76907200Y-26595237D01*
X76907200Y-26595237D02*
X76811961Y-26690475D01*
X76811961Y-26690475D02*
X76716723Y-26738094D01*
X76716723Y-26738094D02*
X76526247Y-26785713D01*
X76526247Y-26785713D02*
X76383390Y-26785713D01*
X76383390Y-26785713D02*
X76192914Y-26738094D01*
X76192914Y-26738094D02*
X76097676Y-26690475D01*
X76097676Y-26690475D02*
X76002438Y-26595237D01*
X76002438Y-26595237D02*
X75954819Y-26452380D01*
X75954819Y-26452380D02*
X75954819Y-26357142D01*
X75954819Y-26357142D02*
X76002438Y-26214285D01*
X76002438Y-26214285D02*
X76050057Y-26166666D01*
X75954819Y-25309523D02*
X75954819Y-25499999D01*
X75954819Y-25499999D02*
X76002438Y-25595237D01*
X76002438Y-25595237D02*
X76050057Y-25642856D01*
X76050057Y-25642856D02*
X76192914Y-25738094D01*
X76192914Y-25738094D02*
X76383390Y-25785713D01*
X76383390Y-25785713D02*
X76764342Y-25785713D01*
X76764342Y-25785713D02*
X76859580Y-25738094D01*
X76859580Y-25738094D02*
X76907200Y-25690475D01*
X76907200Y-25690475D02*
X76954819Y-25595237D01*
X76954819Y-25595237D02*
X76954819Y-25404761D01*
X76954819Y-25404761D02*
X76907200Y-25309523D01*
X76907200Y-25309523D02*
X76859580Y-25261904D01*
X76859580Y-25261904D02*
X76764342Y-25214285D01*
X76764342Y-25214285D02*
X76526247Y-25214285D01*
X76526247Y-25214285D02*
X76431009Y-25261904D01*
X76431009Y-25261904D02*
X76383390Y-25309523D01*
X76383390Y-25309523D02*
X76335771Y-25404761D01*
X76335771Y-25404761D02*
X76335771Y-25595237D01*
X76335771Y-25595237D02*
X76383390Y-25690475D01*
X76383390Y-25690475D02*
X76431009Y-25738094D01*
X76431009Y-25738094D02*
X76526247Y-25785713D01*
%TO.C,R3*%
D11*
X66420000Y-34130000D02*
X72960000Y-34130000D01*
X66420000Y-34460000D02*
X66420000Y-34130000D01*
X66420000Y-36540000D02*
X66420000Y-36870000D01*
X66420000Y-36870000D02*
X72960000Y-36870000D01*
X72960000Y-34130000D02*
X72960000Y-34460000D01*
X72960000Y-36870000D02*
X72960000Y-36540000D01*
%TO.C,C5*%
X68380000Y-38630000D02*
X73620000Y-38630000D01*
X68380000Y-38967000D02*
X68380000Y-38630000D01*
X68380000Y-41370000D02*
X68380000Y-41033000D01*
X73620000Y-38630000D02*
X73620000Y-38967000D01*
X73620000Y-41033000D02*
X73620000Y-41370000D01*
X73620000Y-41370000D02*
X68380000Y-41370000D01*
%TO.C,U2*%
X67040000Y-22130000D02*
X67040000Y-32410000D01*
X67040000Y-32410000D02*
X72340000Y-32410000D01*
X68690000Y-22130000D02*
X67040000Y-22130000D01*
X72340000Y-22130000D02*
X70690000Y-22130000D01*
X72340000Y-32410000D02*
X72340000Y-22130000D01*
X70690000Y-22130000D02*
G75*
G02*
X68690000Y-22130000I-1000000J0D01*
G01*
%TO.C,R5*%
X29920000Y-27130000D02*
X36460000Y-27130000D01*
X29920000Y-27460000D02*
X29920000Y-27130000D01*
X29920000Y-29540000D02*
X29920000Y-29870000D01*
X29920000Y-29870000D02*
X36460000Y-29870000D01*
X36460000Y-27130000D02*
X36460000Y-27460000D01*
X36460000Y-29870000D02*
X36460000Y-29540000D01*
%TO.C,R4*%
X29920000Y-31630000D02*
X36460000Y-31630000D01*
X29920000Y-31960000D02*
X29920000Y-31630000D01*
X29920000Y-34040000D02*
X29920000Y-34370000D01*
X29920000Y-34370000D02*
X36460000Y-34370000D01*
X36460000Y-31630000D02*
X36460000Y-31960000D01*
X36460000Y-34370000D02*
X36460000Y-34040000D01*
%TO.C,Rf1*%
X56230000Y-21130000D02*
X56230000Y-21460000D01*
X56230000Y-23870000D02*
X56230000Y-23540000D01*
X62770000Y-21130000D02*
X56230000Y-21130000D01*
X62770000Y-21460000D02*
X62770000Y-21130000D01*
X62770000Y-23540000D02*
X62770000Y-23870000D01*
X62770000Y-23870000D02*
X56230000Y-23870000D01*
%TO.C,C2*%
X76380000Y-38630000D02*
X81620000Y-38630000D01*
X76380000Y-38967000D02*
X76380000Y-38630000D01*
X76380000Y-41370000D02*
X76380000Y-41033000D01*
X81620000Y-38630000D02*
X81620000Y-38967000D01*
X81620000Y-41033000D02*
X81620000Y-41370000D01*
X81620000Y-41370000D02*
X76380000Y-41370000D01*
%TO.C,U1*%
X40890000Y-27390000D02*
X44110000Y-27390000D01*
X40890000Y-27515000D02*
X40890000Y-27390000D01*
X40890000Y-30610000D02*
X40890000Y-30485000D01*
X44110000Y-27390000D02*
X44110000Y-27515000D01*
X44110000Y-30485000D02*
X44110000Y-30610000D01*
X44110000Y-30610000D02*
X40890000Y-30610000D01*
X40340000Y-27510000D02*
X40100000Y-27180000D01*
X40580000Y-27180000D01*
X40340000Y-27510000D01*
G36*
X40340000Y-27510000D02*
G01*
X40100000Y-27180000D01*
X40580000Y-27180000D01*
X40340000Y-27510000D01*
G37*
%TO.C,R6*%
X55920000Y-30630000D02*
X62460000Y-30630000D01*
X55920000Y-30960000D02*
X55920000Y-30630000D01*
X55920000Y-33040000D02*
X55920000Y-33370000D01*
X55920000Y-33370000D02*
X62460000Y-33370000D01*
X62460000Y-30630000D02*
X62460000Y-30960000D01*
X62460000Y-33370000D02*
X62460000Y-33040000D01*
%TO.C,R7*%
X29920000Y-36130000D02*
X36460000Y-36130000D01*
X29920000Y-36460000D02*
X29920000Y-36130000D01*
X29920000Y-38540000D02*
X29920000Y-38870000D01*
X29920000Y-38870000D02*
X36460000Y-38870000D01*
X36460000Y-36130000D02*
X36460000Y-36460000D01*
X36460000Y-38870000D02*
X36460000Y-38540000D01*
%TO.C,C4*%
X47380000Y-27630000D02*
X52620000Y-27630000D01*
X47380000Y-27967000D02*
X47380000Y-27630000D01*
X47380000Y-30370000D02*
X47380000Y-30033000D01*
X52620000Y-27630000D02*
X52620000Y-27967000D01*
X52620000Y-30033000D02*
X52620000Y-30370000D01*
X52620000Y-30370000D02*
X47380000Y-30370000D01*
%TO.C,J2*%
X78620000Y-21500000D02*
X80000000Y-21500000D01*
X78620000Y-22880000D02*
X78620000Y-21500000D01*
X78620000Y-24150000D02*
X78620000Y-31880000D01*
X78620000Y-24150000D02*
X81380000Y-24150000D01*
X78620000Y-31880000D02*
X81380000Y-31880000D01*
X81380000Y-24150000D02*
X81380000Y-31880000D01*
%TO.C,Rg1*%
X55920000Y-35130000D02*
X62460000Y-35130000D01*
X55920000Y-35460000D02*
X55920000Y-35130000D01*
X55920000Y-37540000D02*
X55920000Y-37870000D01*
X55920000Y-37870000D02*
X62460000Y-37870000D01*
X62460000Y-35130000D02*
X62460000Y-35460000D01*
X62460000Y-37870000D02*
X62460000Y-37540000D01*
%TO.C,Cf1*%
X56880000Y-18130000D02*
X62120000Y-18130000D01*
X56880000Y-18467000D02*
X56880000Y-18130000D01*
X56880000Y-20870000D02*
X56880000Y-20533000D01*
X62120000Y-18130000D02*
X62120000Y-18467000D01*
X62120000Y-20533000D02*
X62120000Y-20870000D01*
X62120000Y-20870000D02*
X56880000Y-20870000D01*
%TO.C,R2*%
X55540000Y-26130000D02*
X62080000Y-26130000D01*
X55540000Y-26460000D02*
X55540000Y-26130000D01*
X55540000Y-28540000D02*
X55540000Y-28870000D01*
X55540000Y-28870000D02*
X62080000Y-28870000D01*
X62080000Y-26130000D02*
X62080000Y-26460000D01*
X62080000Y-28870000D02*
X62080000Y-28540000D01*
%TO.C,Rg_HPF1*%
X39230000Y-23130000D02*
X45770000Y-23130000D01*
X39230000Y-23460000D02*
X39230000Y-23130000D01*
X39230000Y-25540000D02*
X39230000Y-25870000D01*
X39230000Y-25870000D02*
X45770000Y-25870000D01*
X45770000Y-23130000D02*
X45770000Y-23460000D01*
X45770000Y-25870000D02*
X45770000Y-25540000D01*
%TO.C,C3*%
X76380000Y-34130000D02*
X81620000Y-34130000D01*
X76380000Y-34467000D02*
X76380000Y-34130000D01*
X76380000Y-36870000D02*
X76380000Y-36533000D01*
X81620000Y-34130000D02*
X81620000Y-34467000D01*
X81620000Y-36533000D02*
X81620000Y-36870000D01*
X81620000Y-36870000D02*
X76380000Y-36870000D01*
%TO.C,J1*%
X24620000Y-28580000D02*
X26000000Y-28580000D01*
X24620000Y-29960000D02*
X24620000Y-28580000D01*
X24620000Y-31230000D02*
X24620000Y-36420000D01*
X24620000Y-31230000D02*
X27380000Y-31230000D01*
X24620000Y-36420000D02*
X27380000Y-36420000D01*
X27380000Y-31230000D02*
X27380000Y-36420000D01*
%TO.C,C6*%
X75130000Y-23380000D02*
X75467000Y-23380000D01*
X75130000Y-28620000D02*
X75130000Y-23380000D01*
X75467000Y-28620000D02*
X75130000Y-28620000D01*
X77533000Y-23380000D02*
X77870000Y-23380000D01*
X77870000Y-23380000D02*
X77870000Y-28620000D01*
X77870000Y-28620000D02*
X77533000Y-28620000D01*
%TD*%
M02*
