M48
; DRILL file KiCad 10.0.0 date 2026-04-20T14:47:38
; FORMAT={-:-/ absolute / metric / decimal}
; #@! TF.CreationDate,2026-04-20T14:47:38+03:00
; #@! TF.GenerationSoftware,Kicad,Pcbnew,10.0.0
; #@! TF.FileFunction,Plated,1,2,PTH
FMAT,2
METRIC
; #@! TA.AperFunction,Plated,PTH,ViaDrill
T1C0.300
; #@! TA.AperFunction,Plated,PTH,ComponentDrill
T2C0.800
; #@! TA.AperFunction,Plated,PTH,ComponentDrill
T3C1.000
%
G90
G05
T1
X41.5Y-32.0
X45.5Y-36.5
X46.243Y-28.668
T2
X29.38Y-28.5
X29.38Y-33.0
X29.38Y-37.5
X37.0Y-28.5
X37.0Y-33.0
X37.0Y-37.5
X38.69Y-24.5
X46.31Y-24.5
X47.5Y-29.0
X52.5Y-29.0
X55.0Y-27.5
X55.38Y-32.0
X55.38Y-36.5
X55.69Y-22.5
X57.0Y-19.5
X62.0Y-19.5
X62.62Y-27.5
X63.0Y-32.0
X63.0Y-36.5
X63.31Y-22.5
X65.88Y-23.46
X65.88Y-26.0
X65.88Y-28.54
X65.88Y-31.08
X65.88Y-35.5
X68.5Y-40.0
X73.5Y-23.46
X73.5Y-26.0
X73.5Y-28.54
X73.5Y-31.08
X73.5Y-35.5
X73.5Y-40.0
X76.5Y-23.5
X76.5Y-28.5
X76.5Y-35.5
X76.5Y-40.0
X81.5Y-35.5
X81.5Y-40.0
T3
X26.0Y-29.96
X26.0Y-32.5
X26.0Y-35.04
X80.0Y-22.88
X80.0Y-25.42
X80.0Y-27.96
X80.0Y-30.5
M30
