M48
;Layer_Color=9474304
;FILE_FORMAT=4:4
METRIC,LZ
;TYPE=PLATED
T01F00S00C0.3000
T03F00S00C0.8000
T04F00S00C0.9000
T05F00S00C1.0000
T06F00S00C1.1000
%
T01
X0120904Y0051562
X0117348Y0058547
X01120745Y0060083
X0113538Y0065532
X01132182Y00691955
X0115062Y0070993
X0115112Y00748705
Y00766955
X0113792Y007874
X0111862Y0078333
X0109601Y0077343
Y0076073
Y0074803
X0110363Y0073025
X0112612Y00748705
X01175245Y0072783
X0106362Y0073583
X01048731Y0073881
X0105112Y0072333
X0104013Y0072898
X0103124Y0075565
X0099362Y0075383
X0098462Y0073283
X009906Y0071755
X0098425Y0070612
X0097155Y0071374
X00970245Y0069583
X009779Y0067818
X0099314Y0067983
X00996995Y0066883
Y0069583
X01015245
X0102743Y0069215
X0104775Y0069088
X010668Y0068453
X0107188Y0069723
X0107315Y0070485
X0108839Y0069215
X0105362Y0066583
X01008359Y0068577
X00970245Y0065883
X00951995
X0093362
Y0069583
X0091462
X009271Y0073279
X0093362Y0075383
X0095862
X0088912Y00721705
X0087122Y0072136
X0083212Y00721705
X0082012Y0072583
X0084074Y00706414
X0082612Y00591205
X0084074Y0051562
X0089362Y0055583
X00919495Y0053083
X0093726Y0051435
X0095112Y0062333
X009779Y0060833
X0098933Y0060579
X01016Y0058801
X0090932Y0064008
X0104648Y0078613
X0075612Y00766955
X0073312Y0076133
Y0078033
X0072136Y0077724
X0070887Y0074543
X0073279Y0073914
X0074362Y0072583
X0075438Y0070231
X0076962Y0070993
X00791995Y00705455
X0071882Y0070231
X00715245Y0071383
X00696995
X0067712Y00705455
X0065612Y0071583
X0062112Y0070583
X0060612Y0068083
X0059944Y0077978
X0065913Y0077089
X0074168Y0067564
X0075565Y0064516
X0077216Y0057531
X00777176Y0079756
X0075438Y008001
X00728356Y00800566
X00714536Y00816046
X0072762Y0083083
X0073279Y0085344
X0076062Y0083083
X0079112Y0080933
X0069112Y0080333
X00691995Y0083183
X0067691Y008382
X00660245Y0083183
X0065937Y0080893
X0065913Y0079629
X00630245Y0080583
X0059436Y0079629
X0064262Y0085725
X0067437Y0086741
X00701995Y0088283
X008128Y0091186
X0084455Y0092075
X0086412Y0089008
X0085337Y0087083
X0089535Y0087376
X0091112Y0087658
X0093362Y0089583
X0094869Y0089662
X00937243Y00910161
X0092583Y0091059
X0093218Y0092202
X00916425Y00939577
X0096901Y0093345
X0099112Y0093733
X0101981Y0091567
X0104013Y0090551
X0105156Y0088519
X0106426Y0087249
X0103837Y0087283
X0102362Y0084582
X0098612Y0085583
X0097862Y0085483
X0096862Y0085083
X00962495Y0088433
X00971912Y00889976
X0097862Y0089333
X0098612Y0087333
X0106112Y0082333
X0106362Y0081083
X0107569Y0082423
X0110888Y0081859
X0112612Y0081833
X0109587Y0079853
X0109728Y0084709
X0116958Y00837649
X0118745Y0082042
X0101092Y009906
X009398Y0098044
X0092964Y0100838
X0091948Y0101473
Y0100076
X0091313Y0102362
X0093726Y0102616
X0092964Y0103505
X0094742Y0101854
X0086995Y0103124
X0088265Y0098171
X0100076Y0108204
X0098298Y0115189
X0125984Y008509
T03
X0083212Y0076283
X0085752
X0088292
X0090832
X0093372
X0095912
X0098452
X0100992
X0061232Y0089463
Y0092003
Y0094543
Y0097083
X0053612
Y0094543
Y0092003
Y0089463
X0083212Y0083903
X0085752
X0088292
X0090832
X0093372
X0095912
X0098452
X0100992
T04
X0107569Y0094234
Y0096774
Y0099314
Y0101854
Y0104394
Y0106934
Y0109474
Y0112014
Y0114554
X0122809
Y0112014
Y0109474
Y0106934
Y0104394
Y0101854
Y0099314
Y0096774
Y0094234
T05
X0065112Y0104083
X0067612
T06
X0076572Y0104083
X0081652
M30
